<?xml version="1.0" encoding="utf-8"?><svg width="230" height="140" viewBox="0 0 230 140" xmlns="http://www.w3.org/2000/svg" xmlns:xlink="http://www.w3.org/1999/xlink"><svg id="clock" viewBox="0 0 50 50" width="50" height="50" y="40" xmlns="http://www.w3.org/2000/svg"><style>.ast0{fill:#fff}</style><path class="ast0" d="M25 0C11.22 0 0 11.22 0 25s11.22 25 25 25 25-11.22 25-25S38.78 0 25 0zm0 48.33C12.13 48.33 1.67 37.87 1.67 25S12.13 1.67 25 1.67 48.33 12.13 48.33 25 37.87 48.33 25 48.33z"/><path class="ast0" d="M25.83 21.68v-8.45c0-.46-.37-.83-.83-.83s-.83.37-.83.83v8.45c-1.17.3-2.08 1.22-2.38 2.38h-5.95c-.46 0-.83.37-.83.83s.37.83.83.83h5.95c.37 1.43 1.67 2.5 3.22 2.5 1.84 0 3.33-1.49 3.33-3.33-.01-1.54-1.07-2.83-2.51-3.21zM25 26.57c-.92 0-1.67-.75-1.67-1.67s.75-1.67 1.67-1.67 1.67.75 1.67 1.67-.75 1.67-1.67 1.67zM25 8.23c.46 0 .83-.37.83-.83v-.83c0-.46-.37-.83-.83-.83s-.83.37-.83.83v.83c0 .46.37.83.83.83zM25 41.57c-.46 0-.83.37-.83.83v.83c0 .46.37.83.83.83s.83-.37.83-.83v-.83c0-.46-.37-.83-.83-.83zM43.33 24.07h-.83c-.46 0-.83.37-.83.83s.37.83.83.83h.83c.46 0 .83-.37.83-.83s-.37-.83-.83-.83zM7.5 24.07h-.83c-.46 0-.83.37-.83.83s.37.83.83.83h.83c.46 0 .83-.37.83-.83s-.37-.83-.83-.83zM37.37 11.35l-.59.59c-.33.33-.33.85 0 1.18.16.16.38.24.59.24.21 0 .43-.08.59-.24l.59-.59c.33-.33.33-.85 0-1.18a.827.827 0 0 0-1.18 0zM12.04 36.68l-.59.59c-.33.33-.33.85 0 1.18.16.16.38.24.59.24s.43-.08.59-.24l.59-.59c.33-.33.33-.85 0-1.18a.845.845 0 0 0-1.18 0zM37.96 36.68a.827.827 0 0 0-1.18 0c-.33.33-.33.85 0 1.18l.59.59c.16.16.38.24.59.24s.43-.08.59-.24c.33-.33.33-.85 0-1.18l-.59-.59zM12.63 11.35a.827.827 0 0 0-1.18 0c-.33.33-.33.85 0 1.18l.59.59c.16.16.38.24.59.24s.43-.08.59-.24c.33-.33.33-.85 0-1.18l-.59-.59z"/></svg><svg id="coin" viewBox="0 0 50 50" width="50" height="50" x="80" xmlns="http://www.w3.org/2000/svg"><style>.bst0{fill:#fff}</style><path class="bst0" d="M25 0C11.22 0 0 11.22 0 25s11.22 25 25 25 25-11.22 25-25S38.79 0 25 0zm0 46.71C13.03 46.71 3.29 36.97 3.29 25S13.03 3.29 25 3.29 46.71 13.03 46.71 25 36.97 46.71 25 46.71z"/><path class="bst0" d="M26.65 23.52v-9.34c.93.35 1.74.98 2.31 1.84a1.645 1.645 0 1 0 2.75-1.81 8.01 8.01 0 0 0-5.06-3.44V8.16c0-.91-.74-1.65-1.65-1.65s-1.65.74-1.65 1.65v2.61c-3.64.76-6.38 3.99-6.38 7.86s2.74 7.1 6.38 7.86v9.34c-.93-.35-1.74-.98-2.31-1.84a1.645 1.645 0 1 0-2.75 1.81 8.01 8.01 0 0 0 5.06 3.44v2.61c0 .91.74 1.65 1.65 1.65s1.65-.74 1.65-1.65v-2.61c3.64-.76 6.38-3.99 6.38-7.86s-2.74-7.1-6.38-7.86zm-6.39-4.9c0-2.03 1.29-3.77 3.09-4.44v8.87c-1.8-.66-3.09-2.4-3.09-4.43zm6.39 17.2v-8.87c1.8.67 3.09 2.4 3.09 4.44s-1.29 3.76-3.09 4.43z"/></svg><svg id="duplicate" viewBox="0 0 50 50" width="50" height="50" x="130" xmlns="http://www.w3.org/2000/svg"><style>.cst0{fill:#fff}</style><path class="cst0" d="M30.16 49.99H.86a.86.86 0 0 1-.86-.86V19.82c0-.48.39-.86.86-.86h29.31c.48 0 .86.39.86.86v6.16c0 .48-.39.86-.86.86s-.86-.39-.86-.86v-5.3H1.73v27.59h27.59V34.48c0-.48.39-.86.86-.86s.86.39.86.86v14.66c0 .47-.4.85-.88.85zM49.13 31.04H47.4c-.48 0-.86-.39-.86-.86s.39-.86.86-.86h.86v-.86c0-.48.39-.86.86-.86s.86.39.86.86v1.73a.85.85 0 0 1-.85.85zM45.05 31.04H42.7c-.48 0-.86-.39-.86-.86s.39-.86.86-.86h2.35a.86.86 0 1 1 0 1.72zm-4.7 0H38c-.48 0-.86-.39-.86-.86s.39-.86.86-.86h2.35a.86.86 0 1 1 0 1.72z"/><path class="cst0" d="M35.66 31.04h-2.35c-.48 0-.86-.39-.86-.86s.39-.86.86-.86h2.35c.48 0 .86.39.86.86s-.4.86-.86.86zm-4.71 0H28.6c-.48 0-.86-.39-.86-.86s.39-.86.86-.86h2.35a.86.86 0 1 1 0 1.72zm-4.7 0H23.9c-.48 0-.86-.39-.86-.86s.39-.86.86-.86h2.35a.86.86 0 1 1 0 1.72zM21.55 31.04h-1.73a.86.86 0 0 1-.86-.86v-1.73c0-.48.39-.86.86-.86s.86.39.86.86v.86h.86c.48 0 .86.39.86.86 0 .46-.38.87-.85.87zM19.82 26.96a.86.86 0 0 1-.86-.86v-2.36c0-.48.39-.86.86-.86s.86.39.86.86v2.35c0 .48-.38.87-.86.87zm0-4.7a.86.86 0 0 1-.86-.86v-2.35c0-.48.39-.86.86-.86s.86.39.86.86v2.35c0 .47-.38.86-.86.86zM19.82 17.55a.86.86 0 0 1-.86-.86v-2.35c0-.48.39-.86.86-.86s.86.39.86.86v2.35c0 .48-.38.86-.86.86zm0-4.7a.86.86 0 0 1-.86-.86V9.63c0-.48.39-.86.86-.86s.86.39.86.86v2.36c0 .47-.38.86-.86.86zm0-4.71a.86.86 0 0 1-.86-.86V4.94c0-.48.39-.86.86-.86s.86.39.86.86v2.35c0 .48-.38.85-.86.85zM19.82 3.45a.86.86 0 0 1-.86-.86V.86c0-.48.39-.86.86-.86h1.73c.48 0 .86.39.86.86s-.39.86-.86.86h-.86v.86a.87.87 0 0 1-.87.87zM30.95 1.73H28.6c-.48 0-.86-.39-.86-.86s.39-.86.86-.86h2.35a.86.86 0 1 1 0 1.72zm-4.7 0H23.9c-.48 0-.86-.39-.86-.86s.39-.86.86-.86h2.35a.86.86 0 1 1 0 1.72zM45.06 1.73h-2.35c-.48 0-.86-.39-.86-.86s.39-.86.86-.86h2.35c.48 0 .86.39.86.86s-.39.86-.86.86zm-4.71 0H38c-.48 0-.86-.39-.86-.86s.39-.87.87-.87h2.35c.48 0 .86.39.86.86s-.39.87-.87.87zm-4.69 0h-2.35c-.48 0-.86-.39-.86-.86s.38-.87.86-.87h2.35c.48 0 .86.39.86.86s-.38.87-.86.87zM49.13 3.45a.86.86 0 0 1-.86-.86v-.86h-.86c-.48 0-.86-.39-.86-.86s.39-.86.86-.86h1.73c.48 0 .86.39.86.86V2.6c-.01.47-.39.85-.87.85zM49.13 12.85a.86.86 0 0 1-.86-.86V9.63c0-.48.39-.86.86-.86s.86.39.86.86v2.36c0 .47-.38.86-.86.86zm0-4.71a.86.86 0 0 1-.86-.86V4.94c0-.48.39-.86.86-.86s.86.39.86.86v2.35c0 .48-.38.85-.86.85zM49.13 26.96a.86.86 0 0 1-.86-.86v-2.36c0-.48.39-.86.86-.86s.86.39.86.86v2.35c0 .48-.38.87-.86.87zm0-4.7a.86.86 0 0 1-.86-.86v-2.35c0-.48.39-.86.86-.86s.86.39.86.86v2.35c0 .47-.38.86-.86.86zm0-4.71a.86.86 0 0 1-.86-.86v-2.35c0-.48.39-.86.86-.86s.86.39.86.86v2.35c0 .48-.38.86-.86.86z"/></svg><svg id="line-chart" viewBox="0 0 50 50" width="50" height="50" y="90" xmlns="http://www.w3.org/2000/svg"><style>.dst0{fill:#fff}</style><path class="dst0" d="M3.38 37.23v8.11c0 .49.4.9.9.9h6.27c.49 0 .9-.4.9-.9V31.07L6.9 35.63a5.5 5.5 0 0 1-3.52 1.6zM14.58 30.97v14.37c0 .49.4.9.9.9h6.27c.49 0 .9-.4.9-.9v-8.46c-1.43-.03-2.76-.6-3.77-1.6l-4.3-4.31zM25.78 35.99v9.35c0 .49.4.9.9.9h6.27c.49 0 .9-.4.9-.9V28.08l-7.18 7.18c-.27.28-.57.52-.89.73zM44.46 17.48l-7.47 7.47v20.39c0 .49.4.9.9.9h6.27c.49 0 .9-.4.9-.9v-27.3c-.21-.17-.36-.33-.47-.43l-.13-.13z"/><path class="dst0" d="M49.59 4.24c-.3-.32-.75-.48-1.33-.48h-.16c-2.92.13-5.83.28-8.75.41-.39.02-.92.04-1.35.46-.13.13-.24.29-.32.47-.43.94.17 1.54.46 1.83l.73.74c.5.51 1.02 1.03 1.53 1.53L22.77 26.85l-7.92-7.92a2.527 2.527 0 0 0-3.57 0L.73 29.47c-.99.99-.99 2.58 0 3.57l.47.47a2.527 2.527 0 0 0 3.57 0l8.29-8.29 7.92 7.92c.47.47 1.11.74 1.79.74.68 0 1.31-.27 1.79-.74l19.9-19.9 2.25 2.24c.27.27.64.64 1.2.64.24 0 .47-.06.72-.2.16-.09.31-.2.43-.32.44-.44.52-1.01.54-1.45.08-1.89.17-3.78.27-5.68L50 5.62c.04-.59-.09-1.05-.41-1.38z"/></svg><svg id="logo_black" viewBox="0 0 80 20" width="80" height="20" xmlns="http://www.w3.org/2000/svg"><style>.est0{fill:#151515}</style><g id="eLayer_3_1_"><path class="est0" d="M11.8 7.4c-.2.4-.4.8-.6 1.1-.3.3-.6.6-.9.8-.4.1-.7.3-1.1.4-.4.2-.8.3-1.2.3-.4.1-.9.1-1.3.1H4.3v4.2c0 .3.1.6.2.8.1.2.3.3.6.5.4.3.8.4 1.4.4v.2H.1V16c.3 0 .7-.1 1-.2.3-.1.6-.3.7-.5.1-.1.1-.2.2-.4v-.5-.7-.7-.8-1V10 5.1v-.7-.7-.6c0-.2-.1-.3-.2-.4-.2-.3-.5-.4-.8-.5-.3-.1-.6-.1-1-.2v-.2H5.7c.9 0 1.7 0 2.3.1.7.2 1.4.4 2 .7.6.3 1 .8 1.4 1.4.4.5.6 1.2.6 2.1 0 .4-.1.9-.2 1.3zM9.2 3.8c-.4-.6-.9-1-1.6-1.4-.2-.1-.6-.2-.9-.2-.4 0-.7-.1-1.1-.1H4.5V9.9H6c.5 0 .9-.1 1.3-.3.9-.3 1.5-.8 2-1.5s.7-1.4.7-2.3c-.1-.7-.4-1.4-.8-2zM27.8 2.4c-.3.2-.5.5-.7.9 0 .1-.1.3-.1.5s-.1.5-.1.7c0 .3 0 .6-.1.9v2.8c0 .7 0 1.5-.1 2.4v1c0 .4-.1.8-.2 1.2-.1.4-.3.9-.5 1.3s-.6.8-1 1.2c-.4.3-1 .6-1.7.8-.7.2-1.5.3-2.5.3s-1.8-.1-2.4-.3c-.7-.2-1.2-.5-1.6-.8-.4-.3-.8-.7-1-1.1-.2-.4-.4-.8-.5-1.2-.1-.4-.2-.8-.2-1.1v-.7-1.5-4.6-.7-.7c0-.2 0-.4-.1-.6 0-.2-.1-.3-.2-.4-.2-.2-.4-.4-.7-.5-.3-.1-.6-.2-.9-.2v-.2h6V2c-.2 0-.4.1-.6.1s-.4.1-.6.3c-.2.1-.3.3-.4.5-.1.2-.2.5-.2.8V11.2c0 .7.1 1.3.3 1.9.2.6.5 1.1.8 1.5.4.4.8.7 1.3 1 .5.2 1.1.3 1.8.3.8 0 1.4-.1 1.9-.3.5-.2 1-.4 1.3-.7.3-.3.6-.7.8-1.1.2-.4.4-.8.5-1.3.1-.5.2-.9.2-1.4V9.7v-1-.8-.8-.8-.8-.8c0-.3 0-.5-.1-.7 0-.2-.1-.4-.1-.5-.1-.4-.4-.7-.7-.9-.3-.2-.8-.4-1.5-.5v-.2h5v.2c-.4 0-.8.1-1.1.3zM44.9 2.4c-.3.2-.5.5-.7.9-.1.2-.2.6-.2 1.1 0 .5 0 1.1-.1 1.7 0 .6 0 1.3-.1 2v8.1h-.1c-.1 0-.2-.1-.4-.2-1.1-1.3-2.2-2.5-3.1-3.6s-1.8-2.1-2.7-3.1c-.9-1-1.7-2-2.5-2.9-.8-1-1.7-1.9-2.6-3v10.4c0 .6.1 1 .3 1.2.1.3.4.5.7.7.3.2.7.3 1.3.3v.2h-4.9V16c.3 0 .7-.1 1-.3.3-.1.6-.3.8-.6.2-.3.3-.7.4-1.3 0-.6.1-1.2.1-2 0-.6 0-1.3.1-2V7.3v-1-.7-.7-1c0-.4-.1-.7-.3-1-.1-.3-.3-.4-.5-.6-.2-.1-.4-.2-.7-.3-.2.1-.5.1-.7 0v-.2h4.1l9.5 11.1V6.1 4.6c0-.5-.1-.9-.2-1.2-.1-.4-.4-.7-.7-.9s-.8-.4-1.5-.5v-.2h5V2c-.6.1-1 .2-1.3.4zM63.6 16.3v-.2h.3c.2 0 .3-.1.5-.1.2-.1.3-.2.4-.3s.2-.3.2-.5c0-.1 0-.3-.1-.6s-.2-.6-.3-1c-.1-.4-.3-.8-.5-1.3l-.6-1.5h-5.3l-.6 1.5c-.2.5-.4.9-.6 1.4-.3.7-.4 1.2-.4 1.5 0 .2 0 .3.2.4.1.1.2.2.4.3.2.1.3.1.5.2.2 0 .4.1.6.1v.2H54v-.2c.3 0 .7-.1.9-.3.3-.1.4-.3.4-.3.1-.1.3-.3.5-.7.2-.3.5-.9.8-1.5.3-.6.6-1.3 1-2.1.3-.8.7-1.6 1.1-2.5s.7-1.7 1.1-2.6c.4-.9.7-1.7 1-2.4l-.2-.4c.2-.1.5-.2.7-.4.2-.1.4-.3.5-.5.1-.2.3-.3.4-.5s.2-.3.2-.4h.2c.4 1.1.8 2.2 1.2 3.2.4 1 .7 2 1.1 2.9.3.9.7 1.8 1 2.7s.7 1.7 1 2.6c.1.4.3.8.4 1 .1.3.3.6.4.9 0 0 .1.1.2.3.1.1.2.3.4.4s.3.3.6.4.5.2.8.2v.2l-6.1-.1zM61 4.1c-.1.2-.2.4-.3.8-.2.4-.3.8-.6 1.4-.2.5-.5 1.1-.7 1.8-.3.7-.6 1.4-.9 2.2h5c-.2-.6-.5-1.2-.7-1.8-.2-.6-.5-1.2-.7-1.7s-.4-1.1-.6-1.5c-.2-.5-.4-.9-.5-1.2zM79.6 14.1c-.3.5-.6 1-1.1 1.3-.5.4-1 .6-1.7.8-.7.2-1.3.3-2.1.3-.7 0-1.2 0-1.7-.1s-.9-.2-1.2-.3c-.3-.1-.5-.2-.7-.3-.2-.1-.3-.1-.3-.1s-.1.1-.3.2c-.1.2-.3.3-.4.5h-.2l-.1-4h.2c.1.4.3.7.5 1 .2.3.4.7.6 1 .2.3.5.6.7.8.3.2.5.4.7.5s.5.2.9.4c.4.1.7.2 1.1.2 1 0 1.8-.3 2.4-.8.6-.5.9-1.3.9-2.2 0-.4-.1-.7-.2-1-.1-.3-.3-.5-.5-.7-.2-.2-.4-.4-.7-.5-.3-.1-.6-.3-.9-.4s-.6-.2-.8-.3c-.2-.1-.5-.2-.7-.2-.2-.1-.4-.1-.7-.2-.2-.1-.5-.2-.8-.3-.3-.1-.7-.3-1-.6-.3-.2-.6-.5-.8-.8-.2-.3-.4-.7-.6-1-.1-.4-.2-.8-.2-1.2 0-.7.1-1.3.4-1.9s.6-1 1.1-1.3c.4-.3 1-.6 1.5-.8.6-.2 1.2-.3 1.8-.3.6 0 1.1 0 1.5.1.4.1.8.2 1 .3.3.1.5.2.6.3.1.1.2.1.2.1s.1-.1.3-.2c.1-.2.2-.3.3-.5h.2v3.7h-.2c-.2-.4-.4-.9-.6-1.3l-.9-1.2c-.3-.4-.7-.6-1.1-.8s-.5-.4-1-.4c-.4 0-.8.1-1.2.2-.4.1-.7.3-1 .5-.3.2-.5.5-.7.9-.1.3-.1.8-.1 1.2 0 .7.2 1.3.7 1.7.4.4 1 .8 1.7 1 .3.1.5.2.7.3.2.1.5.2.7.2.2.1.5.1.7.2.2.1.5.2.7.3.9.3 1.6.8 2.1 1.5.5.6.7 1.4.7 2.4 0 .7-.1 1.3-.4 1.8zM47.5 1.8V2h.2c.3 0 .5.1.8.2.3.1.5.3.7.5 0 .1.1.2.2.3l.8 1.5c-.2 2.4-.4 4.9-.7 7.3v.6l-.3 3v.8c.1.2.3.4.4.6l.3.6c.2.3.4.7.6 1 0 .1.1.1.1.2 0-.1.1-.1.1-.2.2-.3.4-.7.6-1l.3-.6c.1-.2.3-.4.4-.6v-.3-.5c-.1-.8-.1-1.6-.2-2.3 0-.4-.1-.9-.1-1.3-.2-2.4-.4-4.9-.7-7.3.4-.5.7-1 1-1.5 0-.1.1-.2.2-.3.2-.2.4-.4.6-.5.3-.1.6-.2.8-.2h.3v-.1l-6.4-.1z"/></g></svg><svg id="logo_white" viewBox="0 0 80 20" width="80" height="20" y="20" xmlns="http://www.w3.org/2000/svg"><style>.fst0{fill:#fff}</style><g id="fLayer_3"><path class="fst0" d="M11.78 7.31c-.16.4-.37.77-.63 1.07-.26.3-.56.58-.91.79-.34.23-.69.4-1.06.53-.37.14-.77.23-1.21.3-.42.07-.86.12-1.3.14-.44.02-.86.05-1.28.05H4.3v3.14c.02.42.02.79.05 1.09.02.3.09.56.21.77.12.16.33.35.63.51.3.16.74.28 1.28.3v.21H.09V16c.33-.05.65-.14.95-.23.3-.12.56-.28.72-.49.07-.07.12-.21.16-.37.05-.16.07-.35.09-.53.02-.21.05-.42.05-.65.02-.23.02-.44.02-.65v-.77c0-.33.02-.67.02-1.05v-1.19-5.01-.74c0-.26-.02-.49-.05-.7 0-.21-.03-.42-.07-.61-.05-.19-.12-.3-.19-.4-.21-.2-.47-.34-.77-.43C.7 2.11.37 2.04 0 1.99v-.21H5.71c.88 0 1.67.05 2.35.14.67.09 1.32.3 1.93.63.58.33 1.07.77 1.46 1.37.4.58.58 1.28.58 2.09-.02.46-.08.91-.25 1.3zM9.25 3.8c-.4-.6-.91-1.05-1.56-1.37-.33-.14-.65-.26-1.02-.3-.37-.05-.74-.07-1.12-.07-.28 0-.49 0-.65.02-.16.03-.28.05-.37.05-.02.07-.02.14-.04.21-.03.07-.05.14-.05.23-.02.09-.02.23-.05.4-.02.16-.02.4-.05.72-.02.46-.02 1.05-.02 1.7v4.56c.56 0 1.07-.02 1.53-.05.49-.03.94-.13 1.35-.29.86-.3 1.51-.79 1.98-1.46.46-.67.67-1.44.67-2.28 0-.77-.21-1.46-.6-2.07zM27.77 2.38c-.28.19-.51.46-.67.86-.05.09-.07.26-.12.46-.02.21-.07.46-.09.74-.02.28-.05.58-.07.88-.02.34-.02.64-.02.95-.02.58-.02 1.21-.05 1.93-.02.72-.05 1.51-.07 2.42-.02.26-.02.58-.05.95-.02.4-.09.79-.19 1.23-.12.44-.28.86-.51 1.3s-.56.84-1 1.19c-.42.35-.98.63-1.65.84-.67.21-1.49.3-2.46.3-.95 0-1.77-.09-2.44-.3-.65-.21-1.21-.46-1.63-.81s-.77-.72-1-1.12c-.23-.42-.42-.81-.51-1.21-.12-.4-.19-.77-.21-1.09-.02-.33-.02-.58-.02-.74V9.7 5.06v-.72c0-.23 0-.46-.02-.67-.02-.21-.05-.4-.09-.56-.05-.16-.09-.3-.19-.4-.19-.23-.42-.4-.7-.49s-.58-.16-.93-.21V1.8h6.02v.21c-.19.02-.4.07-.6.12s-.42.14-.58.26c-.16.12-.33.28-.44.46-.12.21-.19.46-.21.77-.02.35-.02.65-.02.93v6.59c.02.72.12 1.35.33 1.93.21.58.49 1.07.84 1.49.37.42.81.72 1.32.95.51.23 1.12.33 1.79.33.77 0 1.42-.09 1.93-.26.53-.16.98-.42 1.32-.72.35-.3.63-.65.84-1.07.21-.4.37-.84.46-1.28.09-.46.16-.93.21-1.39.02-.46.05-.93.05-1.39v-.98-.81-.79-.81-.81c0-.28-.02-.56-.02-.81-.02-.26-.02-.49-.07-.72a1.954 1.954 0 0 0-.82-1.44c-.33-.23-.81-.4-1.46-.49v-.22h4.97v.21c-.47 0-.87.14-1.17.32zM44.95 2.38c-.3.19-.53.46-.7.86-.09.21-.16.58-.19 1.12-.02.53-.05 1.12-.07 1.74-.02.58-.05 1.25-.07 2.05-.02.79-.02 1.63-.02 2.51V16.14c0 .05-.02.09-.05.14-.02.02-.09.05-.14.05-.12 0-.23-.07-.37-.21-1.14-1.3-2.18-2.51-3.11-3.6s-1.84-2.14-2.67-3.14c-.86-1-1.67-1.98-2.49-2.93a175.3 175.3 0 0 0-2.58-2.95v8.46c0 .67.02 1.3.05 1.84.02.56.12.95.26 1.23.14.3.37.53.7.7.33.16.74.26 1.3.33v.21h-4.93v-.21c.33-.05.65-.12.95-.26.33-.12.58-.35.77-.63.19-.28.3-.7.37-1.25.05-.56.09-1.21.12-1.98.02-.58.05-1.25.07-2.05.02-.79.02-1.63.02-2.51v-.95-.74-.74c0-.28 0-.6-.02-.98-.05-.4-.14-.7-.28-.95-.14-.26-.33-.44-.51-.58-.21-.14-.42-.23-.65-.3s-.46-.09-.67-.14v-.22h4.07l9.51 11.11V6.1c0-.53 0-1.05-.02-1.53-.02-.49-.07-.88-.19-1.16-.14-.37-.37-.67-.72-.91s-.84-.4-1.46-.49V1.8h4.97v.21c-.56.05-.98.19-1.25.37zM63.63 16.24v-.21c.05 0 .14-.02.3-.05.16-.02.33-.07.49-.14.16-.07.33-.16.44-.28.12-.12.19-.28.19-.46 0-.12-.05-.33-.12-.58-.07-.28-.19-.6-.3-1-.14-.4-.28-.84-.46-1.32-.16-.49-.37-.98-.56-1.51h-5.35c-.21.51-.4 1-.58 1.46s-.37.93-.56 1.39c-.28.72-.42 1.23-.42 1.53 0 .16.05.33.16.44s.23.21.42.28c.16.07.35.12.53.16.19.02.37.07.56.09v.21H54.1v-.21c.35-.05.65-.14.88-.28.26-.14.4-.26.44-.3.09-.09.26-.33.46-.65.21-.35.46-.86.79-1.53l.95-2.14c.35-.81.7-1.63 1.07-2.49.37-.86.74-1.7 1.09-2.58.37-.86.7-1.67 1.02-2.42l-.21-.44c.23-.12.46-.23.65-.37.19-.14.37-.3.51-.46.14-.16.28-.33.37-.46s.19-.28.23-.37h.16c.42 1.12.81 2.16 1.19 3.16.37 1 .74 1.95 1.07 2.88.35.93.67 1.81 1 2.67.33.86.65 1.72.95 2.56.14.42.28.77.42 1.02.12.28.28.58.44.93.02.05.09.14.19.28.09.14.21.28.37.42.16.14.35.26.58.37s.49.16.81.19v.23H63.6v-.02zM61 4.08l-.35.81c-.16.37-.35.84-.58 1.37-.23.53-.49 1.14-.74 1.81-.28.67-.58 1.42-.88 2.21h5c-.23-.6-.46-1.21-.7-1.81-.23-.6-.46-1.19-.67-1.74s-.42-1.07-.6-1.53c-.2-.47-.36-.82-.48-1.12zM79.64 14.03c-.26.51-.63.95-1.09 1.3-.46.37-1.02.63-1.65.81-.65.16-1.35.26-2.11.26-.65 0-1.21-.05-1.7-.12-.46-.07-.86-.19-1.16-.3-.3-.12-.53-.21-.7-.3-.16-.09-.26-.14-.3-.14-.05 0-.12.07-.26.23s-.26.33-.37.46h-.19l-.07-4h.21c.12.37.28.72.46 1.05.19.35.4.65.6.95.21.3.46.56.7.79.26.23.49.4.72.51s.53.23.91.37c.37.12.74.19 1.09.19 1 0 1.79-.28 2.42-.81.6-.53.93-1.28.93-2.21 0-.37-.07-.7-.19-.98a2.33 2.33 0 0 0-.49-.74c-.21-.21-.44-.4-.74-.53-.28-.14-.58-.28-.91-.4s-.6-.21-.84-.3c-.23-.07-.46-.16-.67-.23-.21-.07-.42-.14-.65-.21-.21-.07-.49-.16-.79-.3-.35-.14-.67-.33-1-.56s-.6-.51-.84-.81c-.23-.33-.44-.65-.58-1.05-.14-.37-.21-.79-.21-1.21 0-.72.14-1.35.4-1.86s.63-.95 1.07-1.3c.44-.35.95-.6 1.53-.77.58-.16 1.19-.26 1.84-.26.6 0 1.12.05 1.53.14.42.09.79.21 1.05.33.28.12.49.23.63.33.14.09.21.14.23.14.05 0 .12-.07.26-.23.12-.16.23-.33.35-.49h.21V5.5h-.21c-.16-.44-.37-.88-.63-1.32-.26-.44-.56-.81-.88-1.16s-.72-.63-1.14-.84-.91-.33-1.42-.33c-.42 0-.81.07-1.19.19-.37.12-.7.3-.95.53-.28.23-.49.53-.65.88-.16.35-.23.77-.23 1.21 0 .72.21 1.28.65 1.7.42.42.98.77 1.65 1.02.26.12.51.21.74.28.23.07.46.16.7.23.23.07.46.14.7.23.23.07.49.16.72.26.91.33 1.6.81 2.11 1.46.51.63.74 1.42.74 2.37.06.73-.08 1.31-.34 1.82zM47.55 1.8v.19H47.78c.26.05.53.12.84.21.26.09.49.26.65.49.05.09.09.19.16.28l.84 1.46c-.21 2.44-.42 4.9-.65 7.34-.02.21-.05.42-.05.6-.09 1-.19 2.02-.26 3.04 0 .14-.02.26-.02.4-.02.14-.02.28-.05.42.14.21.26.42.4.63.12.19.23.37.35.58.21.35.4.67.6 1.02.05.07.07.12.12.19.05-.07.07-.12.12-.19.19-.33.4-.67.6-1.02.12-.19.23-.4.35-.58.14-.21.26-.42.4-.63 0-.09-.02-.21-.02-.3-.02-.16-.02-.33-.05-.49l-.21-2.35c-.05-.44-.07-.86-.12-1.3-.21-2.44-.42-4.9-.65-7.34.28-.49.56-.98.84-1.46.05-.09.09-.19.16-.28.16-.23.37-.4.63-.49.3-.09.58-.16.84-.21h.28v-.18l-6.33-.03z"/></g></svg><svg id="network" viewBox="0 0 50 50" width="50" height="50" x="50" y="90" xmlns="http://www.w3.org/2000/svg"><style>.gst0{fill:#fff}</style><path class="gst0" d="M44.55 0c-3 0-5.45 2.45-5.45 5.45 0 .91.27 1.82.64 2.64L30.82 17a7.164 7.164 0 0 0-8.9 0l-7-7c.36-.55.55-1.18.55-1.82 0-2-1.64-3.64-3.64-3.64S8.18 6.18 8.18 8.18s1.64 3.64 3.64 3.64c.64 0 1.27-.18 1.82-.55l7 7a7.164 7.164 0 0 0 0 8.9L9.09 38.73c-.91-.91-2.27-1.45-3.64-1.45-3 0-5.45 2.45-5.45 5.45s2.45 5.45 5.45 5.45 5.45-2.45 5.45-5.45c0-.91-.27-1.82-.64-2.64L21.9 28.45c1 .82 2.18 1.27 3.55 1.45v9.27c-2.55.45-4.55 2.64-4.55 5.36 0 3 2.45 5.45 5.45 5.45s5.45-2.45 5.45-5.45c0-2.73-2-4.91-4.55-5.36V29.9c1.36-.18 2.55-.73 3.55-1.45l7 7a3.32 3.32 0 0 0-.55 1.82c0 2 1.64 3.64 3.64 3.64s3.64-1.64 3.64-3.64-1.64-3.64-3.64-3.64c-.64 0-1.27.18-1.82.55l-7-7a7.164 7.164 0 0 0 0-8.9l8.82-8.82c1 .91 2.27 1.45 3.64 1.45 3 0 5.45-2.45 5.45-5.45S47.55 0 44.55 0zM10 8.18c0-1 .82-1.82 1.82-1.82s1.82.82 1.82 1.82S12.82 10 11.82 10 10 9.18 10 8.18zM5.45 46.36c-2 0-3.64-1.64-3.64-3.64s1.64-3.64 3.64-3.64 3.64 1.64 3.64 3.64c0 2.01-1.64 3.64-3.64 3.64zM30 44.55c0 2-1.64 3.64-3.64 3.64s-3.64-1.64-3.64-3.64 1.64-3.64 3.64-3.64S30 42.55 30 44.55zm-3.64-16.37c-3 0-5.45-2.45-5.45-5.45s2.45-5.45 5.45-5.45 5.45 2.45 5.45 5.45-2.45 5.45-5.45 5.45zm16.37 9.09c0 1-.82 1.82-1.82 1.82s-1.82-.82-1.82-1.82.82-1.82 1.82-1.82 1.82.82 1.82 1.82zm1.82-28.18c-2 0-3.64-1.64-3.64-3.64s1.64-3.64 3.64-3.64 3.64 1.64 3.64 3.64-1.64 3.64-3.64 3.64z"/></svg><svg id="services_implement-icon" viewBox="0 0 50 50" width="50" height="50" x="100" y="90" xmlns="http://www.w3.org/2000/svg"><style>.hst0{fill:#fff}</style><path class="hst0" d="M49.9 37.77a8.586 8.586 0 0 0-2.2-3.64 8.63 8.63 0 0 0-6.15-2.55c-1.18 0-2.34.24-3.44.7l-8.56-8.56 11.38-11.28 2.69-.08a.97.97 0 0 0 .79-.47l3.85-6.47c.22-.37.17-.85-.15-1.16L44.78.93a.955.955 0 0 0-1.16-.15l-6.47 3.85c-.28.17-.46.46-.47.79l-.08 2.69-11.32 11.32-7.78-7.78c.82-4.74-2.36-9.24-7.1-10.06-2.2-.38-4.45.1-6.31 1.34-.44.3-.55.89-.26 1.32.08.13.2.22.32.29l4.32 2.4c.95.55 1.14 2.16.37 3.52-.77 1.37-2.25 2.07-3.2 1.54l-4-2.17a.965.965 0 0 0-1.41.91c.3 4.79 4.43 8.44 9.23 8.14.99-.06 1.96-.29 2.88-.68l7.08 7.08-3.07 3.08-.69-.68c-.77-.73-1.98-.73-2.74 0l-.95.95c-.72.7-.77 1.86-.11 2.62L.6 42.46c-.76.72-.78 1.93-.06 2.69l.06.06 3.21 3.21c.72.76 1.93.78 2.69.06l.06-.06 11.26-11.25c.76.66 1.91.62 2.62-.11l.95-.95c.76-.72.78-1.93.06-2.69l-.06-.06-.69-.69 3.05-3.1 9.23 9.23c-.8 4.74 2.4 9.23 7.14 10.03 2.8.47 5.66-.46 7.65-2.49a.962.962 0 0 0-.43-1.55l-5.35-1.44a1.76 1.76 0 0 1-1.12-1.09c-.27-.71-.31-1.5-.1-2.25.4-1.49 1.66-2.56 2.73-2.28l5.29 1.43c.09.01.18.01.25 0 .53.01.96-.41.97-.94 0-.16-.04-.31-.11-.45zM38.19 9.17c.18-.18.27-.4.27-.64l.08-2.54 5.39-3.2 2.28 2.28-3.13 5.38-2.59.1c-.24.01-.48.11-.64.27L28.24 22.41l-1.64-1.64 11.59-11.6zM5.21 47.07l-3.26-3.24 11.31-11.28 1.64 1.64 1.56 1.62L5.21 47.07zm13.91-11.41l-1.26-1.27-.49-.49-3.98-4.02.95-.95 5.7 5.78-.92.95zm.19-4.34l-1.64-1.64 3.07-3.07 1.64 1.64-3.07 3.07zm24.64 4.58c-.28-.08-.58-.12-.87-.12a4.675 4.675 0 0 0-4.2 3.73 5.37 5.37 0 0 0 .19 3.47 3.658 3.658 0 0 0 2.38 2.19l3.53.95c-3.22 1.92-7.4.87-9.32-2.36a6.83 6.83 0 0 1-.78-5.04c.07-.32-.03-.65-.25-.89L13.22 16.38a.969.969 0 0 0-1.12-.14 6.791 6.791 0 0 1-9.57-3.69l2.17 1.21c.51.28 1.07.43 1.65.43 1.76-.1 3.34-1.13 4.14-2.7 1.29-2.31.79-5.06-1.11-6.12L6.6 3.8c3.53-1.26 7.43.58 8.69 4.12.44 1.23.52 2.56.22 3.83-.07.32.03.65.25.89l21.48 21.47c.29.29.74.36 1.11.18.99-.52 2.08-.79 3.18-.79 2.41 0 4.64 1.27 5.86 3.35l-3.44-.95z"/></svg><svg id="services_maintain-icon" viewBox="0 0 50 50" width="50" height="50" x="180" xmlns="http://www.w3.org/2000/svg"><style>.ist0{fill:#fff}</style><path class="ist0" d="M29.1 16.67l-7.09 5.16a.83.83 0 0 0-.18 1.16c.16.23.42.34.67.34.17 0 .34-.05.49-.16l10.09-7.34-10.09-7.34a.83.83 0 0 0-.98 1.34L29.1 15h-9.94c-5.97 0-10.83 4.86-10.83 10.83 0 .46.37.83.83.83s.84-.37.84-.83c0-5.05 4.11-9.17 9.17-9.17h9.93z"/><path class="ist0" d="M25 0C11.22 0 0 11.22 0 25s11.22 25 25 25 25-11.22 25-25S38.78 0 25 0zm0 48.33C12.13 48.33 1.67 37.87 1.67 25S12.13 1.67 25 1.67 48.33 12.13 48.33 25 37.87 48.33 25 48.33z"/><path class="ist0" d="M40 23.33c-.46 0-.83.37-.83.83 0 5.05-4.11 9.17-9.17 9.17h-9.94l7.09-5.16c.37-.27.46-.79.18-1.16a.83.83 0 0 0-1.16-.18l-10.09 7.34 10.09 7.34c.15.11.32.16.49.16.26 0 .51-.12.68-.34a.83.83 0 0 0-.18-1.16L20.06 35H30c5.97 0 10.83-4.86 10.83-10.83 0-.46-.37-.84-.83-.84z"/></svg><svg id="services_upgrade-icon" viewBox="0 0 50 50" width="50" height="50" x="180" y="50" xmlns="http://www.w3.org/2000/svg"><style>.jst0{fill:#fff}</style><path class="jst0" d="M21.29 26.94c0-1.56-1.27-2.83-2.83-2.83h-2.94c-1.56 0-2.83 1.27-2.83 2.83v19.72c0 1.56 1.27 2.83 2.83 2.83h2.94c1.56 0 2.83-1.27 2.83-2.83V26.94zM8.6 33.82a3.05 3.05 0 0 0-3.05-3.05h-2.5A3.056 3.056 0 0 0 0 33.82v12.62a3.05 3.05 0 0 0 3.05 3.05h2.51a3.05 3.05 0 0 0 3.05-3.05V33.82zM33.77 19.42c0-1.56-1.27-2.83-2.83-2.83H28c-1.56 0-2.83 1.27-2.83 2.83v27.24c0 1.56 1.27 2.83 2.83 2.83h2.94c1.56 0 2.83-1.27 2.83-2.83V19.42zM49.54 8.55l-5.52-7.08c-.48-.61-1.15-.96-1.86-.96-.7 0-1.38.35-1.86.96l-5.52 7.08c-.47.61-.59 1.27-.32 1.83.3.6 1 .97 1.9.97h1.49v35.39c0 1.56 1.27 2.75 2.83 2.75h2.96c1.56 0 2.81-1.19 2.81-2.75V11.32l1.5.02c.89 0 1.61-.36 1.9-.97.28-.55.17-1.21-.31-1.82z"/></svg></svg>