<svg width="230" height="190" xmlns="http://www.w3.org/2000/svg" xmlns:xlink="http://www.w3.org/1999/xlink"><svg id="clock" width="50" height="50" x="50" y="90" xmlns="http://www.w3.org/2000/svg"><style>.ast0{fill:#555}</style><path class="ast0" d="M25 0C11.2 0 0 11.2 0 25s11.2 25 25 25 25-11.2 25-25S38.8 0 25 0zm0 48.3C12.1 48.3 1.7 37.9 1.7 25S12.1 1.7 25 1.7 48.3 12.1 48.3 25 37.9 48.3 25 48.3z"/><path class="ast0" d="M25.8 21.7v-8.4c0-.5-.4-.8-.8-.8s-.8.4-.8.8v8.4c-1.2.3-2.1 1.2-2.4 2.4h-5.9c-.5 0-.8.4-.8.8s.4.8.8.8h5.9c.4 1.4 1.7 2.5 3.2 2.5 1.8 0 3.3-1.5 3.3-3.3 0-1.5-1-2.8-2.5-3.2zm-.8 4.9c-.9 0-1.7-.8-1.7-1.7s.8-1.7 1.7-1.7 1.7.8 1.7 1.7-.8 1.7-1.7 1.7zm0-18.4c.5 0 .8-.4.8-.8v-.8c0-.5-.4-.8-.8-.8s-.8.4-.8.8v.8c0 .5.3.8.8.8zm0 33.4c-.5 0-.8.4-.8.8v.8c0 .5.4.8.8.8s.8-.4.8-.8v-.8c0-.5-.3-.8-.8-.8zm18.3-17.5h-.8c-.5 0-.8.4-.8.8s.4.8.8.8h.8c.5 0 .8-.4.8-.8s-.3-.8-.8-.8zm-35.8 0h-.8c-.5 0-.8.4-.8.8s.4.8.8.8h.8c.5 0 .8-.4.8-.8s-.3-.8-.8-.8zm29.9-12.7l-.6.6c-.3.3-.3.9 0 1.2.2.2.4.2.6.2s.4-.1.6-.2l.6-.6c.3-.3.3-.9 0-1.2-.4-.4-.9-.4-1.2 0zM12 36.7l-.6.6c-.3.3-.3.8 0 1.2.2.2.4.2.6.2s.4-.1.6-.2l.6-.6c.3-.3.3-.8 0-1.2-.3-.3-.8-.3-1.2 0zm26 0c-.3-.3-.8-.3-1.2 0s-.3.8 0 1.2l.6.6c.2.2.4.2.6.2s.4-.1.6-.2c.3-.3.3-.8 0-1.2l-.6-.6zM12.6 11.4c-.3-.3-.9-.3-1.2 0s-.3.9 0 1.2l.6.6c.2.2.4.2.6.2s.4-.1.6-.2c.3-.3.3-.9 0-1.2l-.6-.6z"/></svg><svg id="close" width="50" height="50" y="90" xmlns="http://www.w3.org/2000/svg"><style>.bst0{fill:#fff}</style><path class="bst0" d="M25 0C11.22 0 0 11.21 0 25s11.22 25 25 25 25-11.21 25-25S38.78 0 25 0zm0 48.08C12.28 48.08 1.92 37.72 1.92 25S12.28 1.92 25 1.92 48.08 12.28 48.08 25 37.72 48.08 25 48.08z"/><path class="bst0" d="M34.33 15.67a.954.954 0 0 0-1.36 0L25 23.64l-7.97-7.97a.954.954 0 0 0-1.36 0c-.38.38-.38.98 0 1.36L23.64 25l-7.97 7.97c-.38.38-.38.98 0 1.36.19.19.43.28.68.28s.49-.09.68-.28L25 26.36l7.97 7.97c.19.19.43.28.68.28.25 0 .49-.09.68-.28.38-.38.38-.98 0-1.36L26.36 25l7.97-7.97c.38-.38.38-.99 0-1.36z"/></svg><svg id="coin" width="50" height="50" y="40" xmlns="http://www.w3.org/2000/svg"><style>.cst0{fill:#555}</style><path class="cst0" d="M25 0C11.2 0 0 11.2 0 25s11.2 25 25 25 25-11.2 25-25S38.8 0 25 0zm0 46.7C13 46.7 3.3 37 3.3 25S13 3.3 25 3.3 46.7 13 46.7 25 37 46.7 25 46.7z"/><path class="cst0" d="M26.6 23.5v-9.3c.9.4 1.7 1 2.3 1.8.5.8 1.5 1 2.3.5s1-1.5.5-2.3c-1.2-1.8-3-3-5.1-3.4V8.2c0-.9-.7-1.7-1.6-1.7s-1.6.7-1.6 1.7v2.6c-3.6.8-6.4 4-6.4 7.9s2.7 7.1 6.4 7.9v9.3c-.9-.3-1.7-1-2.3-1.8-.5-.8-1.5-1-2.3-.5s-1 1.5-.5 2.3c1.2 1.8 3 3 5.1 3.4v2.6c0 .9.7 1.7 1.6 1.7s1.6-.7 1.6-1.7v-2.6c3.6-.8 6.4-4 6.4-7.9s-2.7-7.1-6.4-7.9zm-6.3-4.9c0-2 1.3-3.8 3.1-4.4V23c-1.9-.6-3.1-2.4-3.1-4.4zm6.3 17.2V27c1.8.7 3.1 2.4 3.1 4.4s-1.2 3.8-3.1 4.4z"/></svg><svg id="duplicate" width="50" height="50" x="80" xmlns="http://www.w3.org/2000/svg"><style>.dst0{fill:#555}</style><path class="dst0" d="M30.2 50H.9c-.5 0-.9-.4-.9-.9V19.8c0-.5.4-.8.9-.8h29.3c.5 0 .9.4.9.9V26c0 .5-.4.9-.9.9s-.9-.4-.9-.9v-5.3H1.7v27.6h27.6V34.5c0-.5.4-.9.9-.9s.8.4.8.9v14.7c0 .4-.4.8-.8.8zm18.9-19h-1.7c-.5 0-.9-.4-.9-.9s.4-.9.9-.9h.9v-.9c0-.5.4-.9.9-.9s.8.6.8 1.1v1.7c0 .4-.4.8-.9.8zM45 31h-2.3c-.5 0-.9-.4-.9-.9s.4-.9.9-.9H45c.5 0 .9.4.9.9s-.4.9-.9.9zm-4.7 0H38c-.5 0-.9-.4-.9-.9s.4-.9.9-.9h2.3c.5 0 .9.4.9.9s-.4.9-.9.9z"/><path class="dst0" d="M35.7 31h-2.3c-.5 0-.9-.4-.9-.9s.4-.9.9-.9h2.3c.5 0 .9.4.9.9s-.5.9-.9.9zM31 31h-2.4c-.5 0-.9-.4-.9-.9s.4-.9.9-.9H31c.5 0 .9.4.9.9s-.5.9-.9.9zm-4.8 0h-2.4c-.5 0-.9-.4-.9-.9s.4-.9.9-.9h2.4c.5 0 .9.4.9.9s-.4.9-.9.9zm-4.7 0h-1.7c-.5 0-.9-.4-.9-.9v-1.7c0-.5.4-.9.9-.9s.9.4.9.9v.9h.9c.5 0 .9.4.9.9-.1.4-.5.8-1 .8zm-1.7-4c-.5 0-.9-.4-.9-.9v-2.4c0-.5.4-.9.9-.9s.9.4.9.9v2.4c0 .5-.4.9-.9.9zm0-4.7c-.5 0-.9-.4-.9-.9V19c0-.5.4-.9.9-.9s.9.4.9.9v2.4c0 .5-.4.9-.9.9zm0-4.8c-.5 0-.9-.4-.9-.9v-2.4c0-.5.4-.9.9-.9s.9.4.9.9v2.4c0 .6-.4.9-.9.9zm0-4.6c-.5 0-.9-.4-.9-.9V9.6c0-.5.4-.9.9-.9s.9.4.9.9V12c0 .5-.4.9-.9.9zm0-4.8c-.5 0-.9-.4-.9-.9V4.9c0-.5.4-.9.9-.9s.9.4.9.9v2.3c0 .6-.4.9-.9.9zm0-4.6c-.5 0-.9-.4-.9-.9V.9c.1-.5.4-.9.9-.9h1.7c.5 0 .9.4.9.9s-.4.8-.9.8h-.9v.9c.1.5-.3.9-.8.9zM31 1.7h-2.4c-.5 0-.9-.4-.9-.9s.4-.8.9-.8H31c.5 0 .9.4.9.9s-.5.8-.9.8zm-4.8 0h-2.4c-.5 0-.9-.4-.9-.9s.5-.8 1-.8h2.4c.5 0 .9.4.9.9s-.5.8-1 .8zm18.9 0h-2.3c-.5 0-.9-.4-.9-.9s.3-.8.8-.8H45c.5 0 .9.4.9.9s-.4.8-.8.8zm-4.8 0H38c-.5 0-.9-.4-.9-.9s.4-.8.9-.8h2.3c.5 0 .9.4.9.9s-.4.8-.9.8zm-4.6 0h-2.3c-.5 0-.9-.4-.9-.9s.3-.8.8-.8h2.3c.5 0 .9.4.9.9s-.4.8-.8.8zm13.4 1.8c-.5 0-.9-.4-.9-.9v-.9h-.9c-.5 0-.9-.4-.9-.9s.5-.8 1-.8h1.7c.5 0 .9.4.9.9v1.7c0 .5-.4.9-.9.9zm0 9.4c-.5 0-.9-.4-.9-.9V9.6c0-.5.4-.9.9-.9s.9.5.9.9V12c0 .5-.4.9-.9.9zm0-4.8c-.5 0-.9-.4-.9-.9V4.9c0-.5.4-.9.9-.9s.9.5.9.9v2.3c0 .6-.4.9-.9.9zm0 18.9c-.5 0-.9-.4-.9-.9v-2.4c0-.5.4-.9.9-.9s.9.4.9.9v2.4c0 .5-.4.9-.9.9zm0-4.7c-.5 0-.9-.4-.9-.9V19c0-.5.4-.9.9-.9s.9.5.9.9v2.4c0 .5-.4.9-.9.9zm0-4.8c-.5 0-.9-.4-.9-.9v-2.4c0-.5.4-.9.9-.9s.9.4.9.9v2.4c0 .6-.4.9-.9.9z"/></svg><svg id="line-chart" width="50" height="50" x="130" xmlns="http://www.w3.org/2000/svg"><style>.est0{fill:#555}</style><path class="est0" d="M3.4 37.2v8.1c0 .5.4.9.9.9h6.3c.5 0 .9-.4.9-.9V31.1L7 35.7c-1.1.9-2.3 1.4-3.6 1.5zM14.6 31v14.4c0 .5.4.9.9.9h6.3c.5 0 .9-.4.9-.9v-8.5c-1.4 0-2.8-.6-3.8-1.6L14.6 31zm11.2 5v9.4c0 .5.4.9.9.9H33c.5 0 .9-.4.9-.9V28.1l-7.2 7.2c-.3.2-.6.5-.9.7zm18.7-18.5L37 24.9v20.4c0 .5.4.9.9.9h6.3c.5 0 .9-.4.9-.9V18c-.2-.2-.4-.3-.5-.4l-.1-.1z"/><path class="est0" d="M49.6 4.2c-.3-.3-.8-.5-1.3-.5h-.2c-2.9.1-5.8.3-8.8.4-.4 0-.9 0-1.3.5-.1.1-.2.3-.3.5-.4.9.2 1.5.5 1.8l.7.7 1.5 1.5-17.6 17.8-7.9-7.9c-.5-.5-1.1-.7-1.8-.7s-1.3.3-1.8.7L.7 29.5c-1 1-1 2.6 0 3.6l.5.5c.5.4 1.1.7 1.8.7s1.3-.3 1.8-.7l8.3-8.3 7.9 7.9c.5.5 1.1.7 1.8.7s1.3-.3 1.8-.7l19.9-19.9 2.2 2.2c.3.3.6.6 1.2.6.2 0 .5-.1.7-.2.2-.1.3-.2.4-.3.4-.4.5-1 .5-1.4l.3-5.7.2-2.9c0-.6-.1-1-.4-1.4z"/></svg><svg id="logo_black" width="80" height="20" xmlns="http://www.w3.org/2000/svg"><path d="M11.8 7.4c-.2.4-.4.8-.6 1.1-.3.3-.6.6-.9.8-.4.1-.7.3-1.1.4-.4.2-.8.3-1.2.3-.4.1-.9.1-1.3.1H4.3v4.2c0 .3.1.6.2.8s.3.3.6.5c.4.3.8.4 1.4.4v.2H.1V16c.3 0 .7-.1 1-.2.3-.1.6-.3.7-.5.1-.1.1-.2.2-.4V3.1c0-.2-.1-.3-.2-.4-.2-.3-.5-.4-.8-.5-.3-.1-.6-.1-1-.2v-.2h5.7c.9 0 1.7 0 2.3.1.7.2 1.4.4 2 .7s1 .8 1.4 1.4c.4.5.6 1.2.6 2.1 0 .4-.1.9-.2 1.3zM9.2 3.8c-.4-.6-.9-1-1.6-1.4-.2-.1-.6-.2-.9-.2-.4 0-.7-.1-1.1-.1H4.5v7.8H6c.5 0 .9-.1 1.3-.3.9-.3 1.5-.8 2-1.5s.7-1.4.7-2.3c-.1-.7-.4-1.4-.8-2zm18.6-1.4c-.3.2-.5.5-.7.9 0 .1-.1.3-.1.5s-.1.5-.1.7c0 .3 0 .6-.1.9v2.8c0 .7 0 1.5-.1 2.4v1c0 .4-.1.8-.2 1.2s-.3.9-.5 1.3-.6.8-1 1.2c-.4.3-1 .6-1.7.8-.7.2-1.5.3-2.5.3s-1.8-.1-2.4-.3c-.7-.2-1.2-.5-1.6-.8s-.8-.7-1-1.1c-.2-.4-.4-.8-.5-1.2s-.2-.8-.2-1.1V3.7c0-.2 0-.4-.1-.6 0-.2-.1-.3-.2-.4-.2-.2-.4-.4-.7-.5s-.6-.2-.9-.2v-.2h6V2c-.2 0-.4.1-.6.1s-.4.1-.6.3c-.2.1-.3.3-.4.5s-.2.5-.2.8v7.5c0 .7.1 1.3.3 1.9.2.6.5 1.1.8 1.5.4.4.8.7 1.3 1 .5.2 1.1.3 1.8.3.8 0 1.4-.1 1.9-.3s1-.4 1.3-.7.6-.7.8-1.1c.2-.4.4-.8.5-1.3s.2-.9.2-1.4V4.7c0-.3 0-.5-.1-.7 0-.2-.1-.4-.1-.5-.1-.4-.4-.7-.7-.9-.3-.2-.8-.4-1.5-.5v-.2h5v.2c-.4 0-.8.1-1.1.3zm17.1 0c-.3.2-.5.5-.7.9-.1.2-.2.6-.2 1.1s0 1.1-.1 1.7c0 .6 0 1.3-.1 2v8.1h-.1c-.1 0-.2-.1-.4-.2-1.1-1.3-2.2-2.5-3.1-3.6s-1.8-2.1-2.7-3.1-1.7-2-2.5-2.9c-.8-1-1.7-1.9-2.6-3v10.4c0 .6.1 1 .3 1.2.1.3.4.5.7.7s.7.3 1.3.3v.2h-4.9V16c.3 0 .7-.1 1-.3.3-.1.6-.3.8-.6.2-.3.3-.7.4-1.3 0-.6.1-1.2.1-2 0-.6 0-1.3.1-2V3.9c0-.4-.1-.7-.3-1-.1-.3-.3-.4-.5-.6-.2-.1-.4-.2-.7-.3-.2.1-.5.1-.7 0v-.2h4.1l9.5 11.1V4.6c0-.5-.1-.9-.2-1.2-.1-.4-.4-.7-.7-.9s-.8-.4-1.5-.5v-.2h5V2c-.6.1-1 .2-1.3.4zm18.7 13.9v-.2h.3c.2 0 .3-.1.5-.1.2-.1.3-.2.4-.3s.2-.3.2-.5c0-.1 0-.3-.1-.6s-.2-.6-.3-1c-.1-.4-.3-.8-.5-1.3l-.6-1.5h-5.3l-.6 1.5c-.2.5-.4.9-.6 1.4-.3.7-.4 1.2-.4 1.5 0 .2 0 .3.2.4.1.1.2.2.4.3s.3.1.5.2c.2 0 .4.1.6.1v.2H54v-.2c.3 0 .7-.1.9-.3.3-.1.4-.3.4-.3.1-.1.3-.3.5-.7.2-.3.5-.9.8-1.5s.6-1.3 1-2.1c.3-.8.7-1.6 1.1-2.5s.7-1.7 1.1-2.6c.4-.9.7-1.7 1-2.4l-.2-.4c.2-.1.5-.2.7-.4.2-.1.4-.3.5-.5s.3-.3.4-.5.2-.3.2-.4h.2c.4 1.1.8 2.2 1.2 3.2.4 1 .7 2 1.1 2.9.3.9.7 1.8 1 2.7s.7 1.7 1 2.6c.1.4.3.8.4 1 .1.3.3.6.4.9 0 0 .1.1.2.3.1.1.2.3.4.4s.3.3.6.4.5.2.8.2v.2l-6.1-.1zM61 4.1c-.1.2-.2.4-.3.8-.2.4-.3.8-.6 1.4-.2.5-.5 1.1-.7 1.8-.3.7-.6 1.4-.9 2.2h5c-.2-.6-.5-1.2-.7-1.8s-.5-1.2-.7-1.7-.4-1.1-.6-1.5c-.2-.5-.4-.9-.5-1.2zm18.6 10c-.3.5-.6 1-1.1 1.3-.5.4-1 .6-1.7.8s-1.3.3-2.1.3c-.7 0-1.2 0-1.7-.1s-.9-.2-1.2-.3c-.3-.1-.5-.2-.7-.3s-.3-.1-.3-.1-.1.1-.3.2c-.1.2-.3.3-.4.5h-.2l-.1-4h.2c.1.4.3.7.5 1s.4.7.6 1 .5.6.7.8c.3.2.5.4.7.5s.5.2.9.4c.4.1.7.2 1.1.2 1 0 1.8-.3 2.4-.8.6-.5.9-1.3.9-2.2 0-.4-.1-.7-.2-1s-.3-.5-.5-.7-.4-.4-.7-.5c-.3-.1-.6-.3-.9-.4s-.6-.2-.8-.3c-.2-.1-.5-.2-.7-.2-.2-.1-.4-.1-.7-.2-.2-.1-.5-.2-.8-.3s-.7-.3-1-.6c-.3-.2-.6-.5-.8-.8-.2-.3-.4-.7-.6-1-.1-.4-.2-.8-.2-1.2 0-.7.1-1.3.4-1.9s.6-1 1.1-1.3c.4-.3 1-.6 1.5-.8.6-.2 1.2-.3 1.8-.3.6 0 1.1 0 1.5.1s.8.2 1 .3c.3.1.5.2.6.3s.2.1.2.1.1-.1.3-.2c.1-.2.2-.3.3-.5h.2v3.7h-.2c-.2-.4-.4-.9-.6-1.3l-.9-1.2c-.3-.4-.7-.6-1.1-.8s-.5-.4-1-.4c-.4 0-.8.1-1.2.2-.4.1-.7.3-1 .5s-.5.5-.7.9c-.1.3-.1.8-.1 1.2 0 .7.2 1.3.7 1.7.4.4 1 .8 1.7 1 .3.1.5.2.7.3.2.1.5.2.7.2.2.1.5.1.7.2.2.1.5.2.7.3.9.3 1.6.8 2.1 1.5.5.6.7 1.4.7 2.4 0 .7-.1 1.3-.4 1.8zM47.5 1.8V2h.2c.3 0 .5.1.8.2.3.1.5.3.7.5 0 .1.1.2.2.3l.8 1.5c-.2 2.4-.4 4.9-.7 7.3v.6l-.3 3v.8c.1.2.3.4.4.6l.3.6c.2.3.4.7.6 1 0 .1.1.1.1.2 0-.1.1-.1.1-.2.2-.3.4-.7.6-1l.3-.6c.1-.2.3-.4.4-.6v-.8c-.1-.8-.1-1.6-.2-2.3 0-.4-.1-.9-.1-1.3-.2-2.4-.4-4.9-.7-7.3.4-.5.7-1 1-1.5 0-.1.1-.2.2-.3.2-.2.4-.4.6-.5.3-.1.6-.2.8-.2h.3v-.1l-6.4-.1z" fill="#333" id="fLayer_3_1_"/></svg><svg id="logo_white" width="80" height="20" y="20" xmlns="http://www.w3.org/2000/svg"><path d="M11.78 7.31c-.16.4-.37.77-.63 1.07-.26.3-.56.58-.91.79-.34.23-.69.4-1.06.53-.37.14-.77.23-1.21.3-.42.07-.86.12-1.3.14-.44.02-.86.05-1.28.05H4.3v3.14c.02.42.02.79.05 1.09.02.3.09.56.21.77.12.16.33.35.63.51.3.16.74.28 1.28.3v.21H.09V16c.33-.05.65-.14.95-.23.3-.12.56-.28.72-.49.07-.07.12-.21.16-.37.05-.16.07-.35.09-.53.02-.21.05-.42.05-.65.02-.23.02-.44.02-.65v-.77c0-.33.02-.67.02-1.05V4.32c0-.26-.02-.49-.05-.7 0-.21-.03-.42-.07-.61-.05-.19-.12-.3-.19-.4-.21-.2-.47-.34-.77-.43C.7 2.11.37 2.04 0 1.99v-.21h5.71c.88 0 1.67.05 2.35.14.67.09 1.32.3 1.93.63.58.33 1.07.77 1.46 1.37.4.58.58 1.28.58 2.09-.02.46-.08.91-.25 1.3zM9.25 3.8c-.4-.6-.91-1.05-1.56-1.37-.33-.14-.65-.26-1.02-.3-.37-.05-.74-.07-1.12-.07-.28 0-.49 0-.65.02-.16.03-.28.05-.37.05-.02.07-.02.14-.04.21-.03.07-.05.14-.05.23-.02.09-.02.23-.05.4-.02.16-.02.4-.05.72-.02.46-.02 1.05-.02 1.7v4.56c.56 0 1.07-.02 1.53-.05.49-.03.94-.13 1.35-.29.86-.3 1.51-.79 1.98-1.46.46-.67.67-1.44.67-2.28 0-.77-.21-1.46-.6-2.07zm18.52-1.42c-.28.19-.51.46-.67.86-.05.09-.07.26-.12.46-.02.21-.07.46-.09.74-.02.28-.05.58-.07.88-.02.34-.02.64-.02.95-.02.58-.02 1.21-.05 1.93-.02.72-.05 1.51-.07 2.42-.02.26-.02.58-.05.95-.02.4-.09.79-.19 1.23-.12.44-.28.86-.51 1.3s-.56.84-1 1.19c-.42.35-.98.63-1.65.84-.67.21-1.49.3-2.46.3-.95 0-1.77-.09-2.44-.3-.65-.21-1.21-.46-1.63-.81s-.77-.72-1-1.12c-.23-.42-.42-.81-.51-1.21-.12-.4-.19-.77-.21-1.09-.02-.33-.02-.58-.02-.74V4.34c0-.23 0-.46-.02-.67-.02-.21-.05-.4-.09-.56-.05-.16-.09-.3-.19-.4-.19-.23-.42-.4-.7-.49s-.58-.16-.93-.21V1.8h6.02v.21c-.19.02-.4.07-.6.12s-.42.14-.58.26c-.16.12-.33.28-.44.46-.12.21-.19.46-.21.77-.02.35-.02.65-.02.93v6.59c.02.72.12 1.35.33 1.93.21.58.49 1.07.84 1.49.37.42.81.72 1.32.95.51.23 1.12.33 1.79.33.77 0 1.42-.09 1.93-.26.53-.16.98-.42 1.32-.72.35-.3.63-.65.84-1.07.21-.4.37-.84.46-1.28.09-.46.16-.93.21-1.39.02-.46.05-.93.05-1.39v-4.2c0-.28-.02-.56-.02-.81-.02-.26-.02-.49-.07-.72a1.954 1.954 0 0 0-.82-1.44c-.33-.23-.81-.4-1.46-.49v-.22h4.97v.21c-.47 0-.87.14-1.17.32zm17.18 0c-.3.19-.53.46-.7.86-.09.21-.16.58-.19 1.12-.02.53-.05 1.12-.07 1.74-.02.58-.05 1.25-.07 2.05-.02.79-.02 1.63-.02 2.51v5.48c0 .05-.02.09-.05.14-.02.02-.09.05-.14.05-.12 0-.23-.07-.37-.21-1.14-1.3-2.18-2.51-3.11-3.6s-1.84-2.14-2.67-3.14c-.86-1-1.67-1.98-2.49-2.93a175.3 175.3 0 0 0-2.58-2.95v8.46c0 .67.02 1.3.05 1.84.02.56.12.95.26 1.23.14.3.37.53.7.7.33.16.74.26 1.3.33v.21h-4.93v-.21c.33-.05.65-.12.95-.26.33-.12.58-.35.77-.63.19-.28.3-.7.37-1.25.05-.56.09-1.21.12-1.98.02-.58.05-1.25.07-2.05.02-.79.02-1.63.02-2.51V4.95c0-.28 0-.6-.02-.98-.05-.4-.14-.7-.28-.95-.14-.26-.33-.44-.51-.58-.21-.14-.42-.23-.65-.3s-.46-.09-.67-.14v-.22h4.07l9.51 11.11V6.1c0-.53 0-1.05-.02-1.53-.02-.49-.07-.88-.19-1.16-.14-.37-.37-.67-.72-.91s-.84-.4-1.46-.49V1.8h4.97v.21c-.56.05-.98.19-1.25.37zm18.68 13.86v-.21c.05 0 .14-.02.3-.05.16-.02.33-.07.49-.14.16-.07.33-.16.44-.28.12-.12.19-.28.19-.46 0-.12-.05-.33-.12-.58-.07-.28-.19-.6-.3-1-.14-.4-.28-.84-.46-1.32-.16-.49-.37-.98-.56-1.51h-5.35c-.21.51-.4 1-.58 1.46s-.37.93-.56 1.39c-.28.72-.42 1.23-.42 1.53 0 .16.05.33.16.44s.23.21.42.28c.16.07.35.12.53.16.19.02.37.07.56.09v.21H54.1v-.21c.35-.05.65-.14.88-.28.26-.14.4-.26.44-.3.09-.09.26-.33.46-.65.21-.35.46-.86.79-1.53l.95-2.14c.35-.81.7-1.63 1.07-2.49.37-.86.74-1.7 1.09-2.58.37-.86.7-1.67 1.02-2.42l-.21-.44c.23-.12.46-.23.65-.37.19-.14.37-.3.51-.46.14-.16.28-.33.37-.46s.19-.28.23-.37h.16c.42 1.12.81 2.16 1.19 3.16.37 1 .74 1.95 1.07 2.88.35.93.67 1.81 1 2.67.33.86.65 1.72.95 2.56.14.42.28.77.42 1.02.12.28.28.58.44.93.02.05.09.14.19.28.09.14.21.28.37.42.16.14.35.26.58.37s.49.16.81.19v.23H63.6v-.02zM61 4.08l-.35.81c-.16.37-.35.84-.58 1.37-.23.53-.49 1.14-.74 1.81-.28.67-.58 1.42-.88 2.21h5c-.23-.6-.46-1.21-.7-1.81-.23-.6-.46-1.19-.67-1.74s-.42-1.07-.6-1.53c-.2-.47-.36-.82-.48-1.12zm18.64 9.95c-.26.51-.63.95-1.09 1.3-.46.37-1.02.63-1.65.81-.65.16-1.35.26-2.11.26-.65 0-1.21-.05-1.7-.12-.46-.07-.86-.19-1.16-.3-.3-.12-.53-.21-.7-.3-.16-.09-.26-.14-.3-.14-.05 0-.12.07-.26.23s-.26.33-.37.46h-.19l-.07-4h.21c.12.37.28.72.46 1.05.19.35.4.65.6.95.21.3.46.56.7.79.26.23.49.4.72.51s.53.23.91.37c.37.12.74.19 1.09.19 1 0 1.79-.28 2.42-.81.6-.53.93-1.28.93-2.21 0-.37-.07-.7-.19-.98a2.33 2.33 0 0 0-.49-.74c-.21-.21-.44-.4-.74-.53-.28-.14-.58-.28-.91-.4s-.6-.21-.84-.3c-.23-.07-.46-.16-.67-.23-.21-.07-.42-.14-.65-.21-.21-.07-.49-.16-.79-.3-.35-.14-.67-.33-1-.56s-.6-.51-.84-.81c-.23-.33-.44-.65-.58-1.05-.14-.37-.21-.79-.21-1.21 0-.72.14-1.35.4-1.86s.63-.95 1.07-1.3c.44-.35.95-.6 1.53-.77.58-.16 1.19-.26 1.84-.26.6 0 1.12.05 1.53.14.42.09.79.21 1.05.33.28.12.49.23.63.33.14.09.21.14.23.14.05 0 .12-.07.26-.23.12-.16.23-.33.35-.49h.21V5.5h-.21c-.16-.44-.37-.88-.63-1.32-.26-.44-.56-.81-.88-1.16s-.72-.63-1.14-.84-.91-.33-1.42-.33c-.42 0-.81.07-1.19.19-.37.12-.7.3-.95.53-.28.23-.49.53-.65.88-.16.35-.23.77-.23 1.21 0 .72.21 1.28.65 1.7.42.42.98.77 1.65 1.02.26.12.51.21.74.28.23.07.46.16.7.23.23.07.46.14.7.23.23.07.49.16.72.26.91.33 1.6.81 2.11 1.46.51.63.74 1.42.74 2.37.06.73-.08 1.31-.34 1.82zM47.55 1.8v.19h.23c.26.05.53.12.84.21.26.09.49.26.65.49.05.09.09.19.16.28l.84 1.46c-.21 2.44-.42 4.9-.65 7.34-.02.21-.05.42-.05.6-.09 1-.19 2.02-.26 3.04 0 .14-.02.26-.02.4-.02.14-.02.28-.05.42.14.21.26.42.4.63.12.19.23.37.35.58.21.35.4.67.6 1.02.05.07.07.12.12.19.05-.07.07-.12.12-.19.19-.33.4-.67.6-1.02.12-.19.23-.4.35-.58.14-.21.26-.42.4-.63 0-.09-.02-.21-.02-.3-.02-.16-.02-.33-.05-.49l-.21-2.35c-.05-.44-.07-.86-.12-1.3-.21-2.44-.42-4.9-.65-7.34.28-.49.56-.98.84-1.46.05-.09.09-.19.16-.28.16-.23.37-.4.63-.49.3-.09.58-.16.84-.21h.28v-.18l-6.33-.03z" fill="#fff" id="gLayer_3"/></svg><svg id="network" width="50" height="50" x="100" y="90" xmlns="http://www.w3.org/2000/svg"><path d="M44.5 0c-3 0-5.5 2.5-5.5 5.4 0 .9.3 1.8.6 2.6l-8.8 9c-1.3-1-2.8-1.6-4.5-1.6-1.6 0-3.2.6-4.5 1.6l-7-7c.4-.6.6-1.2.6-1.8 0-2-1.6-3.6-3.6-3.6S8.2 6.2 8.2 8.2s1.6 3.6 3.6 3.6c.6 0 1.3-.2 1.8-.6l7 7c-1 1.3-1.5 2.8-1.5 4.5 0 1.6.5 3.2 1.5 4.5L9.1 38.7c-.9-.9-2.3-1.5-3.6-1.5-3 0-5.4 2.5-5.4 5.5s2.5 5.5 5.4 5.5 5.4-2.5 5.4-5.5c0-.9-.3-1.8-.6-2.6l11.6-11.6c1 .8 2.2 1.3 3.5 1.5v9.3c-2.5.5-4.6 2.6-4.6 5.4 0 3 2.5 5.5 5.5 5.5s5.5-2.5 5.5-5.5c0-2.7-2-4.9-4.5-5.4V30c1.4-.2 2.5-.7 3.5-1.5l7 7c-.4.5-.5 1.2-.5 1.8 0 2 1.6 3.6 3.6 3.6s3.6-1.6 3.6-3.6-1.6-3.6-3.6-3.6c-.6 0-1.3.2-1.8.5l-7-7c1-1.3 1.5-2.8 1.5-4.5 0-1.6-.5-3.2-1.5-4.5l8.8-8.8c1 .9 2.3 1.4 3.6 1.4 3 0 5.5-2.4 5.5-5.4S47.5 0 44.5 0zM10 8.2c0-1 .8-1.8 1.8-1.8s1.8.8 1.8 1.8-.8 1.8-1.8 1.8S10 9.2 10 8.2zM5.4 46.4c-2 0-3.6-1.6-3.6-3.6s1.6-3.6 3.6-3.6S9 40.8 9 42.8c.1 1.9-1.6 3.6-3.6 3.6zM30 44.5c0 2-1.6 3.6-3.6 3.6s-3.6-1.6-3.6-3.6 1.6-3.6 3.6-3.6 3.6 1.6 3.6 3.6zm-3.6-16.3c-3 0-5.5-2.5-5.5-5.5s2.5-5.5 5.5-5.5 5.5 2.5 5.5 5.5-2.5 5.5-5.5 5.5zm16.3 9.1c0 1-.8 1.8-1.8 1.8s-1.8-.8-1.8-1.8.8-1.8 1.8-1.8 1.8.8 1.8 1.8zm1.8-28.2c-2 0-3.6-1.6-3.6-3.6s1.6-3.6 3.6-3.6 3.6 1.6 3.6 3.6-1.6 3.6-3.6 3.6z" fill="#555"/></svg><svg id="services_implement-icon" width="50" height="50" x="180" xmlns="http://www.w3.org/2000/svg"><path d="M49.9 37.77a8.586 8.586 0 0 0-2.2-3.64 8.63 8.63 0 0 0-6.15-2.55c-1.18 0-2.34.24-3.44.7l-8.56-8.56 11.38-11.28 2.69-.08a.97.97 0 0 0 .79-.47l3.85-6.47c.22-.37.17-.85-.15-1.16L44.78.93a.955.955 0 0 0-1.16-.15l-6.47 3.85c-.28.17-.46.46-.47.79l-.08 2.69-11.32 11.32-7.78-7.78c.82-4.74-2.36-9.24-7.1-10.06-2.2-.38-4.45.1-6.31 1.34-.44.3-.55.89-.26 1.32.08.13.2.22.32.29l4.32 2.4c.95.55 1.14 2.16.37 3.52-.77 1.37-2.25 2.07-3.2 1.54l-4-2.17a.965.965 0 0 0-1.41.91c.3 4.79 4.43 8.44 9.23 8.14.99-.06 1.96-.29 2.88-.68l7.08 7.08-3.07 3.08-.69-.68c-.77-.73-1.98-.73-2.74 0l-.95.95c-.72.7-.77 1.86-.11 2.62L.6 42.46c-.76.72-.78 1.93-.06 2.69l.06.06 3.21 3.21c.72.76 1.93.78 2.69.06l.06-.06 11.26-11.25c.76.66 1.91.62 2.62-.11l.95-.95c.76-.72.78-1.93.06-2.69l-.06-.06-.69-.69 3.05-3.1 9.23 9.23c-.8 4.74 2.4 9.23 7.14 10.03 2.8.47 5.66-.46 7.65-2.49a.962.962 0 0 0-.43-1.55l-5.35-1.44a1.76 1.76 0 0 1-1.12-1.09c-.27-.71-.31-1.5-.1-2.25.4-1.49 1.66-2.56 2.73-2.28l5.29 1.43c.09.01.18.01.25 0 .53.01.96-.41.97-.94 0-.16-.04-.31-.11-.45zM38.19 9.17c.18-.18.27-.4.27-.64l.08-2.54 5.39-3.2 2.28 2.28-3.13 5.38-2.59.1c-.24.01-.48.11-.64.27L28.24 22.41l-1.64-1.64 11.59-11.6zM5.21 47.07l-3.26-3.24 11.31-11.28 1.64 1.64 1.56 1.62L5.21 47.07zm13.91-11.41l-1.26-1.27-.49-.49-3.98-4.02.95-.95 5.7 5.78-.92.95zm.19-4.34l-1.64-1.64 3.07-3.07 1.64 1.64-3.07 3.07zm24.64 4.58c-.28-.08-.58-.12-.87-.12a4.675 4.675 0 0 0-4.2 3.73 5.37 5.37 0 0 0 .19 3.47 3.658 3.658 0 0 0 2.38 2.19l3.53.95c-3.22 1.92-7.4.87-9.32-2.36a6.83 6.83 0 0 1-.78-5.04c.07-.32-.03-.65-.25-.89L13.22 16.38a.969.969 0 0 0-1.12-.14 6.791 6.791 0 0 1-9.57-3.69l2.17 1.21c.51.28 1.07.43 1.65.43 1.76-.1 3.34-1.13 4.14-2.7 1.29-2.31.79-5.06-1.11-6.12L6.6 3.8c3.53-1.26 7.43.58 8.69 4.12.44 1.23.52 2.56.22 3.83-.07.32.03.65.25.89l21.48 21.47c.29.29.74.36 1.11.18.99-.52 2.08-.79 3.18-.79 2.41 0 4.64 1.27 5.86 3.35l-3.44-.95z" fill="#fff"/></svg><svg id="services_maintain-icon" width="50" height="50" x="180" y="50" xmlns="http://www.w3.org/2000/svg"><style>.jst0{fill:#fff}</style><path class="jst0" d="M29.1 16.67l-7.09 5.16a.83.83 0 0 0-.18 1.16c.16.23.42.34.67.34.17 0 .34-.05.49-.16l10.09-7.34-10.09-7.34a.83.83 0 0 0-.98 1.34L29.1 15h-9.94c-5.97 0-10.83 4.86-10.83 10.83 0 .46.37.83.83.83s.84-.37.84-.83c0-5.05 4.11-9.17 9.17-9.17h9.93z"/><path class="jst0" d="M25 0C11.22 0 0 11.22 0 25s11.22 25 25 25 25-11.22 25-25S38.78 0 25 0zm0 48.33C12.13 48.33 1.67 37.87 1.67 25S12.13 1.67 25 1.67 48.33 12.13 48.33 25 37.87 48.33 25 48.33z"/><path class="jst0" d="M40 23.33c-.46 0-.83.37-.83.83 0 5.05-4.11 9.17-9.17 9.17h-9.94l7.09-5.16c.37-.27.46-.79.18-1.16a.83.83 0 0 0-1.16-.18l-10.09 7.34 10.09 7.34c.15.11.32.16.49.16.26 0 .51-.12.68-.34a.83.83 0 0 0-.18-1.16L20.06 35H30c5.97 0 10.83-4.86 10.83-10.83 0-.46-.37-.84-.83-.84z"/></svg><svg id="services_upgrade-icon" width="50" height="50" y="140" xmlns="http://www.w3.org/2000/svg"><path d="M21.29 26.94c0-1.56-1.27-2.83-2.83-2.83h-2.94c-1.56 0-2.83 1.27-2.83 2.83v19.72c0 1.56 1.27 2.83 2.83 2.83h2.94c1.56 0 2.83-1.27 2.83-2.83V26.94zM8.6 33.82a3.05 3.05 0 0 0-3.05-3.05h-2.5A3.056 3.056 0 0 0 0 33.82v12.62a3.05 3.05 0 0 0 3.05 3.05h2.51a3.05 3.05 0 0 0 3.05-3.05V33.82zm25.17-14.4c0-1.56-1.27-2.83-2.83-2.83H28c-1.56 0-2.83 1.27-2.83 2.83v27.24c0 1.56 1.27 2.83 2.83 2.83h2.94c1.56 0 2.83-1.27 2.83-2.83V19.42zM49.54 8.55l-5.52-7.08c-.48-.61-1.15-.96-1.86-.96-.7 0-1.38.35-1.86.96l-5.52 7.08c-.47.61-.59 1.27-.32 1.83.3.6 1 .97 1.9.97h1.49v35.39c0 1.56 1.27 2.75 2.83 2.75h2.96c1.56 0 2.81-1.19 2.81-2.75V11.32l1.5.02c.89 0 1.61-.36 1.9-.97.28-.55.17-1.21-.31-1.82z" fill="#fff"/></svg></svg>