<?xml version="1.0" encoding="utf-8"?>
<!-- Generator: Adobe Illustrator 22.0.1, SVG Export Plug-In . SVG Version: 6.00 Build 0)  -->
<svg version="1.1" id="Layer_1" xmlns="http://www.w3.org/2000/svg" xmlns:xlink="http://www.w3.org/1999/xlink" x="0px" y="0px"
	 viewBox="0 0 30 30" style="enable-background:new 0 0 30 30;" xml:space="preserve">
<style type="text/css">
	.st0{fill:#333333;}
</style>
<g>
	<g>
		<g>
			<polygon class="st0" points="26.3,13.1 26.3,9.3 24.4,9.3 24.4,13.1 20.6,13.1 20.6,15 24.4,15 24.4,18.8 26.3,18.8 26.3,15 
				30,15 30,13.1 			"/>
		</g>
	</g>
	<g>
		<g>
			<path class="st0" d="M9.4,13.1v3.7h5.3c-0.8,2.2-2.9,3.7-5.3,3.7c-3.1,0-5.6-2.5-5.6-5.6s2.5-5.6,5.6-5.6c1.3,0,2.6,0.5,3.7,1.4
				l2.5-2.8c-1.7-1.4-3.8-2.3-6.1-2.3C4.2,5.6,0,9.8,0,15s4.2,9.4,9.4,9.4s9.4-4.2,9.4-9.4v-1.9C18.7,13.1,9.4,13.1,9.4,13.1z"/>
		</g>
	</g>
</g>
</svg>
