<?xml version="1.0" encoding="utf-8"?>
<!-- Generator: Adobe Illustrator 22.0.1, SVG Export Plug-In . SVG Version: 6.00 Build 0)  -->
<svg version="1.1" id="Layer_1" xmlns="http://www.w3.org/2000/svg" xmlns:xlink="http://www.w3.org/1999/xlink" x="0px" y="0px"
	 viewBox="0 0 30 30" style="enable-background:new 0 0 30 30;" xml:space="preserve">
<style type="text/css">
	.st0{fill:#333333;}
</style>
<g>
	<path class="st0" d="M30,18.2v11h-6.4V19c0-2.6-0.9-4.4-3.2-4.4c-1.8,0-2.8,1.2-3.3,2.3c-0.2,0.5-0.2,1-0.2,1.6v10.8h-6.4
		c0,0,0.1-17.5,0-19.3h6.4v2.7c0.8-1.3,2.4-3.2,5.8-3.2C26.8,9.5,30,12.3,30,18.2z"/>
	<path class="st0" d="M7.3,4c0,1.9-1.4,3.4-3.6,3.4H3.6C1.5,7.4,0.1,5.9,0.1,4s1.4-3.4,3.7-3.4C5.9,0.7,7.3,2.2,7.3,4z"/>
	<rect x="0.5" y="10" class="st0" width="6.4" height="19.3"/>
</g>
</svg>
