<?xml version="1.0" encoding="utf-8"?>
<!-- Generator: Adobe Illustrator 22.0.1, SVG Export Plug-In . SVG Version: 6.00 Build 0)  -->
<svg version="1.1" id="Layer_1" xmlns="http://www.w3.org/2000/svg" xmlns:xlink="http://www.w3.org/1999/xlink" x="0px" y="0px"
	 viewBox="0 0 30 30" style="enable-background:new 0 0 30 30;" xml:space="preserve">
<style type="text/css">
	.st0{fill:#333333;}
</style>
<path class="st0" d="M27,9c0,0.2,0,0.5,0,0.8c0,8.2-6.2,17.6-17.6,17.6c-3.5,0-6.8-1-9.5-2.8c0.5,0.1,1,0.1,1.5,0.1
	c2.9,0,5.5-1,7.7-2.7c-2.7-0.1-5-1.8-5.8-4.3c0.4,0.1,0.8,0.1,1.1,0.1c0.5,0,1.1-0.1,1.6-0.2c-2.8-0.6-4.9-3.1-4.9-6.1v-0.1
	C2,12,2.9,12.2,3.9,12.3c-1.6-1.1-2.8-3-2.8-5.1C1.2,6,1.5,5,2,4.1c3,3.7,7.6,6.2,12.7,6.5c-0.1-0.4-0.2-0.9-0.2-1.4
	c0-3.4,2.8-6.2,6.2-6.2c1.7,0,3.4,0.7,4.5,1.9c1.4-0.2,2.7-0.8,3.9-1.5c-0.5,1.4-1.4,2.7-2.7,3.4c1.3-0.1,2.5-0.5,3.6-1
	C29.2,7.1,28.2,8.1,27,9z"/>
</svg>
