<?xml version="1.0" encoding="utf-8"?>
<!-- Generator: Adobe Illustrator 22.0.1, SVG Export Plug-In . SVG Version: 6.00 Build 0)  -->
<svg version="1.1" id="Layer_1" xmlns="http://www.w3.org/2000/svg" xmlns:xlink="http://www.w3.org/1999/xlink" x="0px" y="0px"
	 viewBox="0 0 50 50" style="enable-background:new 0 0 50 50;" xml:space="preserve">
<style type="text/css">
	.st0{fill:#FFFFFF;}
</style>
<g>
	<path class="st0" d="M25,0C11.22,0,0,11.22,0,25s11.22,25,25,25s25-11.22,25-25S38.78,0,25,0z M25,48.33
		C12.13,48.33,1.67,37.87,1.67,25S12.13,1.67,25,1.67S48.33,12.13,48.33,25S37.87,48.33,25,48.33z"/>
	<path class="st0" d="M25.83,21.68v-8.45c0-0.46-0.37-0.83-0.83-0.83s-0.83,0.37-0.83,0.83v8.45c-1.17,0.3-2.08,1.22-2.38,2.38
		h-5.95c-0.46,0-0.83,0.37-0.83,0.83s0.37,0.83,0.83,0.83h5.95c0.37,1.43,1.67,2.5,3.22,2.5c1.84,0,3.33-1.49,3.33-3.33
		C28.33,23.35,27.27,22.06,25.83,21.68z M25,26.57c-0.92,0-1.67-0.75-1.67-1.67s0.75-1.67,1.67-1.67s1.67,0.75,1.67,1.67
		S25.92,26.57,25,26.57z"/>
	<path class="st0" d="M25,8.23c0.46,0,0.83-0.37,0.83-0.83V6.57c0-0.46-0.37-0.83-0.83-0.83s-0.83,0.37-0.83,0.83V7.4
		C24.17,7.86,24.54,8.23,25,8.23z"/>
	<path class="st0" d="M25,41.57c-0.46,0-0.83,0.37-0.83,0.83v0.83c0,0.46,0.37,0.83,0.83,0.83s0.83-0.37,0.83-0.83V42.4
		C25.83,41.94,25.46,41.57,25,41.57z"/>
	<path class="st0" d="M43.33,24.07H42.5c-0.46,0-0.83,0.37-0.83,0.83s0.37,0.83,0.83,0.83h0.83c0.46,0,0.83-0.37,0.83-0.83
		S43.79,24.07,43.33,24.07z"/>
	<path class="st0" d="M7.5,24.07H6.67c-0.46,0-0.83,0.37-0.83,0.83s0.37,0.83,0.83,0.83H7.5c0.46,0,0.83-0.37,0.83-0.83
		S7.96,24.07,7.5,24.07z"/>
	<path class="st0" d="M37.37,11.35l-0.59,0.59c-0.33,0.33-0.33,0.85,0,1.18c0.16,0.16,0.38,0.24,0.59,0.24
		c0.21,0,0.43-0.08,0.59-0.24l0.59-0.59c0.33-0.33,0.33-0.85,0-1.18C38.23,11.02,37.7,11.02,37.37,11.35z"/>
	<path class="st0" d="M12.04,36.68l-0.59,0.59c-0.33,0.33-0.33,0.85,0,1.18c0.16,0.16,0.38,0.24,0.59,0.24s0.43-0.08,0.59-0.24
		l0.59-0.59c0.33-0.33,0.33-0.85,0-1.18C12.89,36.36,12.36,36.36,12.04,36.68z"/>
	<path class="st0" d="M37.96,36.68c-0.33-0.33-0.85-0.33-1.18,0c-0.33,0.33-0.33,0.85,0,1.18l0.59,0.59
		c0.16,0.16,0.38,0.24,0.59,0.24s0.43-0.08,0.59-0.24c0.33-0.33,0.33-0.85,0-1.18L37.96,36.68z"/>
	<path class="st0" d="M12.63,11.35c-0.33-0.33-0.85-0.33-1.18,0c-0.33,0.33-0.33,0.85,0,1.18l0.59,0.59
		c0.16,0.16,0.38,0.24,0.59,0.24s0.43-0.08,0.59-0.24c0.33-0.33,0.33-0.85,0-1.18L12.63,11.35z"/>
</g>
</svg>
