<?xml version="1.0" encoding="utf-8"?>
<!-- Generator: Adobe Illustrator 22.0.1, SVG Export Plug-In . SVG Version: 6.00 Build 0)  -->
<svg version="1.1" id="Layer_1" xmlns="http://www.w3.org/2000/svg" xmlns:xlink="http://www.w3.org/1999/xlink" x="0px" y="0px"
	 viewBox="0 0 50 50" style="enable-background:new 0 0 50 50;" xml:space="preserve">
<style type="text/css">
	.st0{fill:#555555;}
</style>
<g>
	<path class="st0" d="M25,0C11.2,0,0,11.2,0,25s11.2,25,25,25s25-11.2,25-25S38.8,0,25,0z M25,48.3C12.1,48.3,1.7,37.9,1.7,25
		S12.1,1.7,25,1.7S48.3,12.1,48.3,25S37.9,48.3,25,48.3z"/>
	<path class="st0" d="M25.8,21.7v-8.4c0-0.5-0.4-0.8-0.8-0.8s-0.8,0.4-0.8,0.8v8.4c-1.2,0.3-2.1,1.2-2.4,2.4h-5.9
		c-0.5,0-0.8,0.4-0.8,0.8s0.4,0.8,0.8,0.8h5.9c0.4,1.4,1.7,2.5,3.2,2.5c1.8,0,3.3-1.5,3.3-3.3C28.3,23.4,27.3,22.1,25.8,21.7z
		 M25,26.6c-0.9,0-1.7-0.8-1.7-1.7s0.8-1.7,1.7-1.7s1.7,0.8,1.7,1.7S25.9,26.6,25,26.6z"/>
	<path class="st0" d="M25,8.2c0.5,0,0.8-0.4,0.8-0.8V6.6c0-0.5-0.4-0.8-0.8-0.8s-0.8,0.4-0.8,0.8v0.8C24.2,7.9,24.5,8.2,25,8.2z"/>
	<path class="st0" d="M25,41.6c-0.5,0-0.8,0.4-0.8,0.8v0.8c0,0.5,0.4,0.8,0.8,0.8s0.8-0.4,0.8-0.8v-0.8C25.8,41.9,25.5,41.6,25,41.6
		z"/>
	<path class="st0" d="M43.3,24.1h-0.8c-0.5,0-0.8,0.4-0.8,0.8s0.4,0.8,0.8,0.8h0.8c0.5,0,0.8-0.4,0.8-0.8S43.8,24.1,43.3,24.1z"/>
	<path class="st0" d="M7.5,24.1H6.7c-0.5,0-0.8,0.4-0.8,0.8s0.4,0.8,0.8,0.8h0.8c0.5,0,0.8-0.4,0.8-0.8S8,24.1,7.5,24.1z"/>
	<path class="st0" d="M37.4,11.4l-0.6,0.6c-0.3,0.3-0.3,0.9,0,1.2c0.2,0.2,0.4,0.2,0.6,0.2s0.4-0.1,0.6-0.2l0.6-0.6
		c0.3-0.3,0.3-0.9,0-1.2C38.2,11,37.7,11,37.4,11.4z"/>
	<path class="st0" d="M12,36.7l-0.6,0.6c-0.3,0.3-0.3,0.8,0,1.2c0.2,0.2,0.4,0.2,0.6,0.2s0.4-0.1,0.6-0.2l0.6-0.6
		c0.3-0.3,0.3-0.8,0-1.2C12.9,36.4,12.4,36.4,12,36.7z"/>
	<path class="st0" d="M38,36.7c-0.3-0.3-0.8-0.3-1.2,0s-0.3,0.8,0,1.2l0.6,0.6c0.2,0.2,0.4,0.2,0.6,0.2s0.4-0.1,0.6-0.2
		c0.3-0.3,0.3-0.8,0-1.2L38,36.7z"/>
	<path class="st0" d="M12.6,11.4c-0.3-0.3-0.9-0.3-1.2,0s-0.3,0.9,0,1.2l0.6,0.6c0.2,0.2,0.4,0.2,0.6,0.2s0.4-0.1,0.6-0.2
		c0.3-0.3,0.3-0.9,0-1.2L12.6,11.4z"/>
</g>
</svg>
