<?xml version="1.0" encoding="utf-8"?>
<!-- Generator: Adobe Illustrator 22.0.1, SVG Export Plug-In . SVG Version: 6.00 Build 0)  -->
<svg version="1.1" id="Layer_1" xmlns="http://www.w3.org/2000/svg" xmlns:xlink="http://www.w3.org/1999/xlink" x="0px" y="0px"
	 viewBox="0 0 50 50" style="enable-background:new 0 0 50 50;" xml:space="preserve">
<style type="text/css">
	.st0{fill:#FFFFFF;}
</style>
<g>
	<path class="st0" d="M25,0C11.22,0,0,11.21,0,25s11.22,25,25,25s25-11.21,25-25S38.78,0,25,0z M25,48.08
		C12.28,48.08,1.92,37.72,1.92,25S12.28,1.92,25,1.92S48.08,12.28,48.08,25S37.72,48.08,25,48.08z"/>
	<path class="st0" d="M34.33,15.67c-0.38-0.38-0.98-0.38-1.36,0L25,23.64l-7.97-7.97c-0.38-0.38-0.98-0.38-1.36,0
		c-0.38,0.38-0.38,0.98,0,1.36L23.64,25l-7.97,7.97c-0.38,0.38-0.38,0.98,0,1.36c0.19,0.19,0.43,0.28,0.68,0.28s0.49-0.09,0.68-0.28
		L25,26.36l7.97,7.97c0.19,0.19,0.43,0.28,0.68,0.28c0.25,0,0.49-0.09,0.68-0.28c0.38-0.38,0.38-0.98,0-1.36L26.36,25l7.97-7.97
		C34.71,16.65,34.71,16.04,34.33,15.67z"/>
</g>
</svg>
