<?xml version="1.0" encoding="utf-8"?>
<!-- Generator: Adobe Illustrator 22.0.1, SVG Export Plug-In . SVG Version: 6.00 Build 0)  -->
<svg version="1.1" id="Layer_1" xmlns="http://www.w3.org/2000/svg" xmlns:xlink="http://www.w3.org/1999/xlink" x="0px" y="0px"
	 viewBox="0 0 50 50" style="enable-background:new 0 0 50 50;" xml:space="preserve">
<style type="text/css">
	.st0{fill:#FFFFFF;}
</style>
<g>
	<path class="st0" d="M25,0C11.22,0,0,11.22,0,25s11.22,25,25,25s25-11.22,25-25S38.79,0,25,0z M25,46.71
		C13.03,46.71,3.29,36.97,3.29,25S13.03,3.29,25,3.29S46.71,13.03,46.71,25S36.97,46.71,25,46.71z"/>
	<path class="st0" d="M26.65,23.52v-9.34c0.93,0.35,1.74,0.98,2.31,1.84c0.5,0.76,1.52,0.97,2.28,0.47c0.76-0.5,0.97-1.52,0.47-2.28
		c-1.18-1.79-3-3.01-5.06-3.44V8.16c0-0.91-0.74-1.65-1.65-1.65s-1.65,0.74-1.65,1.65v2.61c-3.64,0.76-6.38,3.99-6.38,7.86
		s2.74,7.1,6.38,7.86v9.34c-0.93-0.35-1.74-0.98-2.31-1.84c-0.5-0.76-1.52-0.97-2.28-0.47c-0.76,0.5-0.97,1.52-0.47,2.28
		c1.18,1.79,3,3.01,5.06,3.44v2.61c0,0.91,0.74,1.65,1.65,1.65s1.65-0.74,1.65-1.65v-2.61c3.64-0.76,6.38-3.99,6.38-7.86
		S30.29,24.28,26.65,23.52L26.65,23.52z M20.26,18.62c0-2.03,1.29-3.77,3.09-4.44v8.87C21.55,22.39,20.26,20.65,20.26,18.62z
		 M26.65,35.82v-8.87c1.8,0.67,3.09,2.4,3.09,4.44S28.45,35.15,26.65,35.82z"/>
</g>
</svg>
