<?xml version="1.0" encoding="utf-8"?>
<!-- Generator: Adobe Illustrator 22.0.1, SVG Export Plug-In . SVG Version: 6.00 Build 0)  -->
<svg version="1.1" id="Layer_1" xmlns="http://www.w3.org/2000/svg" xmlns:xlink="http://www.w3.org/1999/xlink" x="0px" y="0px"
	 viewBox="0 0 50 50" style="enable-background:new 0 0 50 50;" xml:space="preserve">
<style type="text/css">
	.st0{fill:#555555;}
</style>
<g>
	<path class="st0" d="M25,0C11.2,0,0,11.2,0,25s11.2,25,25,25s25-11.2,25-25S38.8,0,25,0z M25,46.7C13,46.7,3.3,37,3.3,25
		S13,3.3,25,3.3S46.7,13,46.7,25S37,46.7,25,46.7z"/>
	<path class="st0" d="M26.6,23.5v-9.3c0.9,0.4,1.7,1,2.3,1.8c0.5,0.8,1.5,1,2.3,0.5s1-1.5,0.5-2.3c-1.2-1.8-3-3-5.1-3.4V8.2
		c0-0.9-0.7-1.7-1.6-1.7s-1.6,0.7-1.6,1.7v2.6c-3.6,0.8-6.4,4-6.4,7.9s2.7,7.1,6.4,7.9v9.3c-0.9-0.3-1.7-1-2.3-1.8
		c-0.5-0.8-1.5-1-2.3-0.5s-1,1.5-0.5,2.3c1.2,1.8,3,3,5.1,3.4v2.6c0,0.9,0.7,1.7,1.6,1.7s1.6-0.7,1.6-1.7v-2.6
		c3.6-0.8,6.4-4,6.4-7.9S30.3,24.3,26.6,23.5L26.6,23.5z M20.3,18.6c0-2,1.3-3.8,3.1-4.4V23C21.5,22.4,20.3,20.6,20.3,18.6z
		 M26.6,35.8V27c1.8,0.7,3.1,2.4,3.1,4.4S28.5,35.2,26.6,35.8z"/>
</g>
</svg>
