<?xml version="1.0" encoding="utf-8"?>
<!-- Generator: Adobe Illustrator 22.0.1, SVG Export Plug-In . SVG Version: 6.00 Build 0)  -->
<svg version="1.1" id="Layer_1" xmlns="http://www.w3.org/2000/svg" xmlns:xlink="http://www.w3.org/1999/xlink" x="0px" y="0px"
	 viewBox="0 0 50 50" style="enable-background:new 0 0 50 50;" xml:space="preserve">
<style type="text/css">
	.st0{fill:#555555;}
</style>
<path class="st0" d="M30.2,50H0.9C0.4,50,0,49.6,0,49.1V19.8C0,19.3,0.4,19,0.9,19h29.3c0.5,0,0.9,0.4,0.9,0.9V26
	c0,0.5-0.4,0.9-0.9,0.9c-0.5,0-0.9-0.4-0.9-0.9v-5.3H1.7v27.6h27.6V34.5c0-0.5,0.4-0.9,0.9-0.9S31,34,31,34.5v14.7
	C31,49.6,30.6,50,30.2,50z"/>
<g>
	<path class="st0" d="M49.1,31h-1.7c-0.5,0-0.9-0.4-0.9-0.9s0.4-0.9,0.9-0.9h0.9v-0.9c0-0.5,0.4-0.9,0.9-0.9S50,28,50,28.5v1.7
		C50,30.6,49.6,31,49.1,31z"/>
	<path class="st0" d="M45,31h-2.3c-0.5,0-0.9-0.4-0.9-0.9s0.4-0.9,0.9-0.9H45c0.5,0,0.9,0.4,0.9,0.9S45.5,31,45,31z M40.3,31H38
		c-0.5,0-0.9-0.4-0.9-0.9s0.4-0.9,0.9-0.9h2.3c0.5,0,0.9,0.4,0.9,0.9S40.8,31,40.3,31z"/>
	<path class="st0" d="M35.7,31h-2.3c-0.5,0-0.9-0.4-0.9-0.9s0.4-0.9,0.9-0.9h2.3c0.5,0,0.9,0.4,0.9,0.9S36.1,31,35.7,31z M31,31
		h-2.4c-0.5,0-0.9-0.4-0.9-0.9s0.4-0.9,0.9-0.9H31c0.5,0,0.9,0.4,0.9,0.9S31.4,31,31,31z M26.2,31h-2.4c-0.5,0-0.9-0.4-0.9-0.9
		s0.4-0.9,0.9-0.9h2.4c0.5,0,0.9,0.4,0.9,0.9S26.7,31,26.2,31z"/>
	<path class="st0" d="M21.5,31h-1.7c-0.5,0-0.9-0.4-0.9-0.9v-1.7c0-0.5,0.4-0.9,0.9-0.9s0.9,0.4,0.9,0.9v0.9h0.9
		c0.5,0,0.9,0.4,0.9,0.9C22.4,30.6,22,31,21.5,31z"/>
	<path class="st0" d="M19.8,27c-0.5,0-0.9-0.4-0.9-0.9v-2.4c0-0.5,0.4-0.9,0.9-0.9s0.9,0.4,0.9,0.9v2.4C20.7,26.6,20.3,27,19.8,27z
		 M19.8,22.3c-0.5,0-0.9-0.4-0.9-0.9V19c0-0.5,0.4-0.9,0.9-0.9s0.9,0.4,0.9,0.9v2.4C20.7,21.9,20.3,22.3,19.8,22.3z"/>
	<path class="st0" d="M19.8,17.5c-0.5,0-0.9-0.4-0.9-0.9v-2.4c0-0.5,0.4-0.9,0.9-0.9s0.9,0.4,0.9,0.9v2.4
		C20.7,17.2,20.3,17.5,19.8,17.5z M19.8,12.9c-0.5,0-0.9-0.4-0.9-0.9V9.6c0-0.5,0.4-0.9,0.9-0.9s0.9,0.4,0.9,0.9V12
		C20.7,12.5,20.3,12.9,19.8,12.9z M19.8,8.1c-0.5,0-0.9-0.4-0.9-0.9V4.9c0-0.5,0.4-0.9,0.9-0.9s0.9,0.4,0.9,0.9v2.3
		C20.7,7.8,20.3,8.1,19.8,8.1z"/>
	<path class="st0" d="M19.8,3.5c-0.5,0-0.9-0.4-0.9-0.9V0.9C19,0.4,19.3,0,19.8,0h1.7c0.5,0,0.9,0.4,0.9,0.9S22,1.7,21.5,1.7h-0.9
		v0.9C20.7,3.1,20.3,3.5,19.8,3.5z"/>
	<path class="st0" d="M31,1.7h-2.4c-0.5,0-0.9-0.4-0.9-0.9S28.1,0,28.6,0H31c0.5,0,0.9,0.4,0.9,0.9S31.4,1.7,31,1.7z M26.2,1.7h-2.4
		c-0.5,0-0.9-0.4-0.9-0.9S23.4,0,23.9,0h2.4c0.5,0,0.9,0.4,0.9,0.9S26.7,1.7,26.2,1.7z"/>
	<path class="st0" d="M45.1,1.7h-2.3c-0.5,0-0.9-0.4-0.9-0.9S42.2,0,42.7,0h2.3c0.5,0,0.9,0.4,0.9,0.9S45.5,1.7,45.1,1.7z M40.3,1.7
		H38c-0.5,0-0.9-0.4-0.9-0.9S37.5,0,38,0h2.3c0.5,0,0.9,0.4,0.9,0.9S40.8,1.7,40.3,1.7z M35.7,1.7h-2.3c-0.5,0-0.9-0.4-0.9-0.9
		S32.8,0,33.3,0h2.3c0.5,0,0.9,0.4,0.9,0.9S36.1,1.7,35.7,1.7z"/>
	<path class="st0" d="M49.1,3.5c-0.5,0-0.9-0.4-0.9-0.9V1.7h-0.9c-0.5,0-0.9-0.4-0.9-0.9S46.9,0,47.4,0h1.7C49.6,0,50,0.4,50,0.9
		v1.7C50,3.1,49.6,3.5,49.1,3.5z"/>
	<path class="st0" d="M49.1,12.9c-0.5,0-0.9-0.4-0.9-0.9V9.6c0-0.5,0.4-0.9,0.9-0.9S50,9.2,50,9.6V12C50,12.5,49.6,12.9,49.1,12.9z
		 M49.1,8.1c-0.5,0-0.9-0.4-0.9-0.9V4.9c0-0.5,0.4-0.9,0.9-0.9S50,4.5,50,4.9v2.3C50,7.8,49.6,8.1,49.1,8.1z"/>
	<path class="st0" d="M49.1,27c-0.5,0-0.9-0.4-0.9-0.9v-2.4c0-0.5,0.4-0.9,0.9-0.9s0.9,0.4,0.9,0.9v2.4C50,26.6,49.6,27,49.1,27z
		 M49.1,22.3c-0.5,0-0.9-0.4-0.9-0.9V19c0-0.5,0.4-0.9,0.9-0.9S50,18.6,50,19v2.4C50,21.9,49.6,22.3,49.1,22.3z M49.1,17.5
		c-0.5,0-0.9-0.4-0.9-0.9v-2.4c0-0.5,0.4-0.9,0.9-0.9s0.9,0.4,0.9,0.9v2.4C50,17.2,49.6,17.5,49.1,17.5z"/>
</g>
</svg>
