<?xml version="1.0" encoding="utf-8"?>
<!-- Generator: Adobe Illustrator 22.0.1, SVG Export Plug-In . SVG Version: 6.00 Build 0)  -->
<svg version="1.1" id="Layer_1" xmlns="http://www.w3.org/2000/svg" xmlns:xlink="http://www.w3.org/1999/xlink" x="0px" y="0px"
	 viewBox="0 0 50 50" style="enable-background:new 0 0 50 50;" xml:space="preserve">
<style type="text/css">
	.st0{fill:#FFFFFF;}
</style>
<path class="st0" d="M30.16,49.99H0.86C0.38,49.99,0,49.6,0,49.13V19.82c0-0.48,0.39-0.86,0.86-0.86h29.31
	c0.48,0,0.86,0.39,0.86,0.86v6.16c0,0.48-0.39,0.86-0.86,0.86c-0.47,0-0.86-0.39-0.86-0.86v-5.3H1.73v27.59h27.59V34.48
	c0-0.48,0.39-0.86,0.86-0.86s0.86,0.39,0.86,0.86v14.66C31.04,49.61,30.64,49.99,30.16,49.99z"/>
<g>
	<path class="st0" d="M49.13,31.04H47.4c-0.48,0-0.86-0.39-0.86-0.86s0.39-0.86,0.86-0.86h0.86v-0.86c0-0.48,0.39-0.86,0.86-0.86
		s0.86,0.39,0.86,0.86v1.73C49.99,30.64,49.61,31.04,49.13,31.04z"/>
	<path class="st0" d="M45.05,31.04H42.7c-0.48,0-0.86-0.39-0.86-0.86s0.39-0.86,0.86-0.86h2.35c0.48,0,0.86,0.39,0.86,0.86
		S45.53,31.04,45.05,31.04z M40.35,31.04h-2.35c-0.48,0-0.86-0.39-0.86-0.86s0.39-0.86,0.86-0.86h2.35c0.48,0,0.86,0.39,0.86,0.86
		S40.83,31.04,40.35,31.04z"/>
	<path class="st0" d="M35.66,31.04h-2.35c-0.48,0-0.86-0.39-0.86-0.86s0.39-0.86,0.86-0.86h2.35c0.48,0,0.86,0.39,0.86,0.86
		S36.12,31.04,35.66,31.04z M30.95,31.04H28.6c-0.48,0-0.86-0.39-0.86-0.86s0.39-0.86,0.86-0.86h2.35c0.48,0,0.86,0.39,0.86,0.86
		S31.43,31.04,30.95,31.04z M26.25,31.04H23.9c-0.48,0-0.86-0.39-0.86-0.86s0.39-0.86,0.86-0.86h2.35c0.48,0,0.86,0.39,0.86,0.86
		S26.73,31.04,26.25,31.04z"/>
	<path class="st0" d="M21.55,31.04h-1.73c-0.48,0-0.86-0.39-0.86-0.86v-1.73c0-0.48,0.39-0.86,0.86-0.86s0.86,0.39,0.86,0.86v0.86
		h0.86c0.48,0,0.86,0.39,0.86,0.86C22.4,30.63,22.02,31.04,21.55,31.04z"/>
	<path class="st0" d="M19.82,26.96c-0.48,0-0.86-0.39-0.86-0.86v-2.36c0-0.48,0.39-0.86,0.86-0.86s0.86,0.39,0.86,0.86v2.35
		C20.68,26.57,20.3,26.96,19.82,26.96z M19.82,22.26c-0.48,0-0.86-0.39-0.86-0.86v-2.35c0-0.48,0.39-0.86,0.86-0.86
		s0.86,0.39,0.86,0.86v2.35C20.68,21.87,20.3,22.26,19.82,22.26z"/>
	<path class="st0" d="M19.82,17.55c-0.48,0-0.86-0.39-0.86-0.86v-2.35c0-0.48,0.39-0.86,0.86-0.86s0.86,0.39,0.86,0.86v2.35
		C20.68,17.17,20.3,17.55,19.82,17.55z M19.82,12.85c-0.48,0-0.86-0.39-0.86-0.86V9.63c0-0.48,0.39-0.86,0.86-0.86
		s0.86,0.39,0.86,0.86v2.36C20.68,12.46,20.3,12.85,19.82,12.85z M19.82,8.14c-0.48,0-0.86-0.39-0.86-0.86V4.94
		c0-0.48,0.39-0.86,0.86-0.86s0.86,0.39,0.86,0.86v2.35C20.68,7.77,20.3,8.14,19.82,8.14z"/>
	<path class="st0" d="M19.82,3.45c-0.48,0-0.86-0.39-0.86-0.86V0.86c0-0.48,0.39-0.86,0.86-0.86h1.73c0.48,0,0.86,0.39,0.86,0.86
		s-0.39,0.86-0.86,0.86h-0.86v0.86C20.68,3.07,20.3,3.45,19.82,3.45z"/>
	<path class="st0" d="M30.95,1.73H28.6c-0.48,0-0.86-0.39-0.86-0.86s0.39-0.86,0.86-0.86h2.35c0.48,0,0.86,0.39,0.86,0.86
		S31.43,1.73,30.95,1.73z M26.25,1.73H23.9c-0.48,0-0.86-0.39-0.86-0.86s0.39-0.86,0.86-0.86h2.35c0.48,0,0.86,0.39,0.86,0.86
		S26.73,1.73,26.25,1.73z"/>
	<path class="st0" d="M45.06,1.73h-2.35c-0.48,0-0.86-0.39-0.86-0.86s0.39-0.86,0.86-0.86h2.35c0.48,0,0.86,0.39,0.86,0.86
		S45.53,1.73,45.06,1.73z M40.35,1.73h-2.35c-0.48,0-0.86-0.39-0.86-0.86S37.53,0,38.01,0h2.35c0.48,0,0.86,0.39,0.86,0.86
		S40.83,1.73,40.35,1.73z M35.66,1.73h-2.35c-0.48,0-0.86-0.39-0.86-0.86S32.83,0,33.31,0h2.35c0.48,0,0.86,0.39,0.86,0.86
		S36.14,1.73,35.66,1.73z"/>
	<path class="st0" d="M49.13,3.45c-0.48,0-0.86-0.39-0.86-0.86V1.73h-0.86c-0.48,0-0.86-0.39-0.86-0.86s0.39-0.86,0.86-0.86h1.73
		C49.62,0.01,50,0.4,50,0.87V2.6C49.99,3.07,49.61,3.45,49.13,3.45z"/>
	<path class="st0" d="M49.13,12.85c-0.48,0-0.86-0.39-0.86-0.86V9.63c0-0.48,0.39-0.86,0.86-0.86c0.47,0,0.86,0.39,0.86,0.86v2.36
		C49.99,12.46,49.61,12.85,49.13,12.85z M49.13,8.14c-0.48,0-0.86-0.39-0.86-0.86V4.94c0-0.48,0.39-0.86,0.86-0.86
		c0.47,0,0.86,0.39,0.86,0.86v2.35C49.99,7.77,49.61,8.14,49.13,8.14z"/>
	<path class="st0" d="M49.13,26.96c-0.48,0-0.86-0.39-0.86-0.86v-2.36c0-0.48,0.39-0.86,0.86-0.86c0.47,0,0.86,0.39,0.86,0.86v2.35
		C49.99,26.57,49.61,26.96,49.13,26.96z M49.13,22.26c-0.48,0-0.86-0.39-0.86-0.86v-2.35c0-0.48,0.39-0.86,0.86-0.86
		c0.47,0,0.86,0.39,0.86,0.86v2.35C49.99,21.87,49.61,22.26,49.13,22.26z M49.13,17.55c-0.48,0-0.86-0.39-0.86-0.86v-2.35
		c0-0.48,0.39-0.86,0.86-0.86c0.47,0,0.86,0.39,0.86,0.86v2.35C49.99,17.17,49.61,17.55,49.13,17.55z"/>
</g>
</svg>
