<?xml version="1.0" encoding="utf-8"?>
<!-- Generator: Adobe Illustrator 22.0.1, SVG Export Plug-In . SVG Version: 6.00 Build 0)  -->
<svg version="1.1" id="Layer_1" xmlns="http://www.w3.org/2000/svg" xmlns:xlink="http://www.w3.org/1999/xlink" x="0px" y="0px"
	 viewBox="0 0 50 50" style="enable-background:new 0 0 50 50;" xml:space="preserve">
<style type="text/css">
	.st0{fill:#555555;}
</style>
<g>
	<g>
		<path class="st0" d="M3.4,37.2v8.1c0,0.5,0.4,0.9,0.9,0.9h6.3c0.5,0,0.9-0.4,0.9-0.9V31.1l-4.5,4.6C5.9,36.6,4.7,37.1,3.4,37.2z"
			/>
		<path class="st0" d="M14.6,31v14.4c0,0.5,0.4,0.9,0.9,0.9h6.3c0.5,0,0.9-0.4,0.9-0.9v-8.5c-1.4,0-2.8-0.6-3.8-1.6L14.6,31z"/>
		<path class="st0" d="M25.8,36v9.4c0,0.5,0.4,0.9,0.9,0.9H33c0.5,0,0.9-0.4,0.9-0.9V28.1l-7.2,7.2C26.4,35.5,26.1,35.8,25.8,36z"/>
		<path class="st0" d="M44.5,17.5L37,24.9v20.4c0,0.5,0.4,0.9,0.9,0.9h6.3c0.5,0,0.9-0.4,0.9-0.9V18c-0.2-0.2-0.4-0.3-0.5-0.4
			L44.5,17.5z"/>
		<path class="st0" d="M49.6,4.2c-0.3-0.3-0.8-0.5-1.3-0.5c0,0-0.1,0-0.2,0c-2.9,0.1-5.8,0.3-8.8,0.4c-0.4,0-0.9,0-1.3,0.5
			c-0.1,0.1-0.2,0.3-0.3,0.5c-0.4,0.9,0.2,1.5,0.5,1.8l0.7,0.7c0.5,0.5,1,1,1.5,1.5L22.8,26.9l-7.9-7.9c-0.5-0.5-1.1-0.7-1.8-0.7
			s-1.3,0.3-1.8,0.7L0.7,29.5c-1,1-1,2.6,0,3.6l0.5,0.5C1.7,34,2.3,34.3,3,34.3s1.3-0.3,1.8-0.7l8.3-8.3l7.9,7.9
			c0.5,0.5,1.1,0.7,1.8,0.7s1.3-0.3,1.8-0.7l19.9-19.9l2.2,2.2c0.3,0.3,0.6,0.6,1.2,0.6c0.2,0,0.5-0.1,0.7-0.2
			c0.2-0.1,0.3-0.2,0.4-0.3c0.4-0.4,0.5-1,0.5-1.4c0.1-1.9,0.2-3.8,0.3-5.7L50,5.6C50,5,49.9,4.6,49.6,4.2z"/>
	</g>
</g>
</svg>
