<?xml version="1.0" encoding="utf-8"?>
<!-- Generator: Adobe Illustrator 22.0.1, SVG Export Plug-In . SVG Version: 6.00 Build 0)  -->
<svg version="1.1" id="Layer_1" xmlns="http://www.w3.org/2000/svg" xmlns:xlink="http://www.w3.org/1999/xlink" x="0px" y="0px"
	 viewBox="0 0 50 50" style="enable-background:new 0 0 50 50;" xml:space="preserve">
<style type="text/css">
	.st0{fill:#FFFFFF;}
</style>
<g>
	<g>
		<path class="st0" d="M3.38,37.23v8.11c0,0.49,0.4,0.9,0.9,0.9h6.27c0.49,0,0.9-0.4,0.9-0.9V31.07L6.9,35.63
			C5.94,36.58,4.71,37.14,3.38,37.23z"/>
		<path class="st0" d="M14.58,30.97v14.37c0,0.49,0.4,0.9,0.9,0.9h6.27c0.49,0,0.9-0.4,0.9-0.9v-8.46c-1.43-0.03-2.76-0.6-3.77-1.6
			L14.58,30.97z"/>
		<path class="st0" d="M25.78,35.99v9.35c0,0.49,0.4,0.9,0.9,0.9h6.27c0.49,0,0.9-0.4,0.9-0.9V28.08l-7.18,7.18
			C26.4,35.54,26.1,35.78,25.78,35.99z"/>
		<path class="st0" d="M44.46,17.48l-7.47,7.47v20.39c0,0.49,0.4,0.9,0.9,0.9h6.27c0.49,0,0.9-0.4,0.9-0.9v-27.3
			c-0.21-0.17-0.36-0.33-0.47-0.43L44.46,17.48z"/>
		<path class="st0" d="M49.59,4.24c-0.3-0.32-0.75-0.48-1.33-0.48c-0.05,0-0.11,0-0.16,0c-2.92,0.13-5.83,0.28-8.75,0.41
			C38.96,4.19,38.43,4.21,38,4.63c-0.13,0.13-0.24,0.29-0.32,0.47c-0.43,0.94,0.17,1.54,0.46,1.83l0.73,0.74
			c0.5,0.51,1.02,1.03,1.53,1.53L22.77,26.85l-7.92-7.92c-0.47-0.47-1.11-0.74-1.79-0.74s-1.31,0.27-1.78,0.74L0.73,29.47
			c-0.99,0.99-0.99,2.58,0,3.57l0.47,0.47c0.47,0.47,1.11,0.74,1.79,0.74s1.31-0.27,1.78-0.74l8.29-8.29l7.92,7.92
			c0.47,0.47,1.11,0.74,1.79,0.74c0.68,0,1.31-0.27,1.79-0.74l19.9-19.9l2.25,2.24c0.27,0.27,0.64,0.64,1.2,0.64
			c0.24,0,0.47-0.06,0.72-0.2c0.16-0.09,0.31-0.2,0.43-0.32c0.44-0.44,0.52-1.01,0.54-1.45c0.08-1.89,0.17-3.78,0.27-5.68l0.13-2.85
			C50.04,5.03,49.91,4.57,49.59,4.24z"/>
	</g>
</g>
</svg>
