<?xml version="1.0" encoding="utf-8"?>
<!-- Generator: Adobe Illustrator 22.0.1, SVG Export Plug-In . SVG Version: 6.00 Build 0)  -->
<svg version="1.1" id="Layer_1" xmlns="http://www.w3.org/2000/svg" xmlns:xlink="http://www.w3.org/1999/xlink" x="0px" y="0px"
	 viewBox="0 0 80 20" style="enable-background:new 0 0 80 20;" xml:space="preserve">
<style type="text/css">
	.st0{fill:#FFFFFF;}
</style>
<g id="Layer_3">
	<g>
		<path class="st0" d="M11.78,7.31c-0.16,0.4-0.37,0.77-0.63,1.07c-0.26,0.3-0.56,0.58-0.91,0.79C9.9,9.4,9.55,9.57,9.18,9.7
			c-0.37,0.14-0.77,0.23-1.21,0.3c-0.42,0.07-0.86,0.12-1.3,0.14c-0.44,0.02-0.86,0.05-1.28,0.05c-0.4,0-0.77,0-1.09,0
			c0,0.42,0,0.79,0,1.09c0,0.3,0,0.56,0,0.79c0,0.23,0,0.44,0,0.63c0,0.19,0,0.4,0,0.63c0.02,0.42,0.02,0.79,0.05,1.09
			c0.02,0.3,0.09,0.56,0.21,0.77c0.12,0.16,0.33,0.35,0.63,0.51c0.3,0.16,0.74,0.28,1.28,0.3v0.21H0.09V16
			c0.33-0.05,0.65-0.14,0.95-0.23c0.3-0.12,0.56-0.28,0.72-0.49c0.07-0.07,0.12-0.21,0.16-0.37c0.05-0.16,0.07-0.35,0.09-0.53
			c0.02-0.21,0.05-0.42,0.05-0.65c0.02-0.23,0.02-0.44,0.02-0.65c0-0.19,0-0.44,0-0.77s0.02-0.67,0.02-1.05c0-0.37,0-0.77,0-1.19
			c0-0.42,0-0.81,0-1.16V5.06c0-0.23,0-0.49,0-0.74c0-0.26-0.02-0.49-0.05-0.7C2.05,3.41,2.02,3.2,1.98,3.01
			c-0.05-0.19-0.12-0.3-0.19-0.4C1.58,2.41,1.32,2.27,1.02,2.18C0.7,2.11,0.37,2.04,0,1.99V1.78c0.07,0,0.23,0,0.49,0s0.56,0,0.88,0
			c0.35,0,0.72,0,1.12,0c0.4,0,0.79,0,1.19,0s0.77,0,1.12,0c0.37,0,0.65,0,0.91,0c0.88,0,1.67,0.05,2.35,0.14
			c0.67,0.09,1.32,0.3,1.93,0.63c0.58,0.33,1.07,0.77,1.46,1.37c0.4,0.58,0.58,1.28,0.58,2.09C12.01,6.47,11.95,6.92,11.78,7.31z
			 M9.25,3.8c-0.4-0.6-0.91-1.05-1.56-1.37c-0.33-0.14-0.65-0.26-1.02-0.3C6.3,2.08,5.93,2.06,5.55,2.06c-0.28,0-0.49,0-0.65,0.02
			C4.74,2.11,4.62,2.13,4.53,2.13C4.51,2.2,4.51,2.27,4.49,2.34C4.46,2.41,4.44,2.48,4.44,2.57C4.42,2.66,4.42,2.8,4.39,2.97
			c-0.02,0.16-0.02,0.4-0.05,0.72c-0.02,0.46-0.02,1.05-0.02,1.7c0,0.67,0,1.32,0,1.98c0,0.65,0,1.21,0,1.7c0,0.49,0,0.77,0,0.88
			c0.56,0,1.07-0.02,1.53-0.05C6.34,9.87,6.79,9.77,7.2,9.61c0.86-0.3,1.51-0.79,1.98-1.46c0.46-0.67,0.67-1.44,0.67-2.28
			C9.85,5.1,9.64,4.41,9.25,3.8z"/>
		<path class="st0" d="M27.77,2.38c-0.28,0.19-0.51,0.46-0.67,0.86c-0.05,0.09-0.07,0.26-0.12,0.46c-0.02,0.21-0.07,0.46-0.09,0.74
			c-0.02,0.28-0.05,0.58-0.07,0.88C26.8,5.66,26.8,5.96,26.8,6.27c-0.02,0.58-0.02,1.21-0.05,1.93c-0.02,0.72-0.05,1.51-0.07,2.42
			c-0.02,0.26-0.02,0.58-0.05,0.95c-0.02,0.4-0.09,0.79-0.19,1.23c-0.12,0.44-0.28,0.86-0.51,1.3s-0.56,0.84-1,1.19
			c-0.42,0.35-0.98,0.63-1.65,0.84c-0.67,0.21-1.49,0.3-2.46,0.3c-0.95,0-1.77-0.09-2.44-0.3c-0.65-0.21-1.21-0.46-1.63-0.81
			s-0.77-0.72-1-1.12c-0.23-0.42-0.42-0.81-0.51-1.21c-0.12-0.4-0.19-0.77-0.21-1.09c-0.02-0.33-0.02-0.58-0.02-0.74
			c0-0.37,0-0.86,0-1.46c0-0.6,0-1.28,0-2V5.06c0-0.23,0-0.49,0-0.72s0-0.46-0.02-0.67c-0.02-0.21-0.05-0.4-0.09-0.56
			c-0.05-0.16-0.09-0.3-0.19-0.4c-0.19-0.23-0.42-0.4-0.7-0.49s-0.58-0.16-0.93-0.21V1.8h6.02v0.21c-0.19,0.02-0.4,0.07-0.6,0.12
			s-0.42,0.14-0.58,0.26c-0.16,0.12-0.33,0.28-0.44,0.46c-0.12,0.21-0.19,0.46-0.21,0.77c-0.02,0.35-0.02,0.65-0.02,0.93
			c0,0.28,0,0.53,0,0.79s0,0.51,0,0.81c0,0.28,0,0.58,0,0.95c0,0.46,0,0.86,0,1.23c0,0.37,0,0.7,0,1.02c0,0.3,0,0.6,0,0.88
			c0,0.28,0,0.58,0,0.91c0.02,0.72,0.12,1.35,0.33,1.93c0.21,0.58,0.49,1.07,0.84,1.49c0.37,0.42,0.81,0.72,1.32,0.95
			c0.51,0.23,1.12,0.33,1.79,0.33c0.77,0,1.42-0.09,1.93-0.26c0.53-0.16,0.98-0.42,1.32-0.72c0.35-0.3,0.63-0.65,0.84-1.07
			c0.21-0.4,0.37-0.84,0.46-1.28c0.09-0.46,0.16-0.93,0.21-1.39c0.02-0.46,0.05-0.93,0.05-1.39c0-0.37,0-0.7,0-0.98
			c0-0.3,0-0.56,0-0.81c0-0.28,0-0.53,0-0.79c0-0.28,0-0.53,0-0.81s0-0.53,0-0.81c0-0.28-0.02-0.56-0.02-0.81
			c-0.02-0.26-0.02-0.49-0.07-0.72c-0.02-0.23-0.07-0.4-0.12-0.53c-0.14-0.37-0.37-0.67-0.7-0.91c-0.33-0.23-0.81-0.4-1.46-0.49
			V1.85h4.97v0.21C28.47,2.06,28.07,2.2,27.77,2.38z"/>
		<path class="st0" d="M44.95,2.38c-0.3,0.19-0.53,0.46-0.7,0.86c-0.09,0.21-0.16,0.58-0.19,1.12c-0.02,0.53-0.05,1.12-0.07,1.74
			c-0.02,0.58-0.05,1.25-0.07,2.05c-0.02,0.79-0.02,1.63-0.02,2.51c0,0.37,0,0.81,0,1.28c0,0.46,0,0.95,0,1.44c0,0.49,0,0.98,0,1.46
			c0,0.49,0,0.91,0,1.3c0,0.05-0.02,0.09-0.05,0.14c-0.02,0.02-0.09,0.05-0.14,0.05c-0.12,0-0.23-0.07-0.37-0.21
			c-1.14-1.3-2.18-2.51-3.11-3.6s-1.84-2.14-2.67-3.14c-0.86-1-1.67-1.98-2.49-2.93C34.26,5.5,33.4,4.52,32.49,3.5v8.46
			c0,0.67,0.02,1.3,0.05,1.84c0.02,0.56,0.12,0.95,0.26,1.23c0.14,0.3,0.37,0.53,0.7,0.7c0.33,0.16,0.74,0.26,1.3,0.33v0.21h-4.93
			v-0.21c0.33-0.05,0.65-0.12,0.95-0.26c0.33-0.12,0.58-0.35,0.77-0.63c0.19-0.28,0.3-0.7,0.37-1.25c0.05-0.56,0.09-1.21,0.12-1.98
			c0.02-0.58,0.05-1.25,0.07-2.05c0.02-0.79,0.02-1.63,0.02-2.51c0-0.4,0-0.7,0-0.95c0-0.26,0-0.51,0-0.74c0-0.23,0-0.49,0-0.74
			c0-0.28,0-0.6-0.02-0.98c-0.05-0.4-0.14-0.7-0.28-0.95c-0.14-0.26-0.33-0.44-0.51-0.58c-0.21-0.14-0.42-0.23-0.65-0.3
			s-0.46-0.09-0.67-0.14V1.78h4.07l9.51,11.11V6.1c0-0.53,0-1.05-0.02-1.53c-0.02-0.49-0.07-0.88-0.19-1.16
			c-0.14-0.37-0.37-0.67-0.72-0.91s-0.84-0.4-1.46-0.49V1.8h4.97v0.21C45.64,2.06,45.22,2.2,44.95,2.38z"/>
		<path class="st0" d="M63.63,16.24v-0.21c0.05,0,0.14-0.02,0.3-0.05c0.16-0.02,0.33-0.07,0.49-0.14c0.16-0.07,0.33-0.16,0.44-0.28
			c0.12-0.12,0.19-0.28,0.19-0.46c0-0.12-0.05-0.33-0.12-0.58c-0.07-0.28-0.19-0.6-0.3-1c-0.14-0.4-0.28-0.84-0.46-1.32
			c-0.16-0.49-0.37-0.98-0.56-1.51h-5.35c-0.21,0.51-0.4,1-0.58,1.46s-0.37,0.93-0.56,1.39c-0.28,0.72-0.42,1.23-0.42,1.53
			c0,0.16,0.05,0.33,0.16,0.44s0.23,0.21,0.42,0.28c0.16,0.07,0.35,0.12,0.53,0.16c0.19,0.02,0.37,0.07,0.56,0.09v0.21H54.1v-0.21
			c0.35-0.05,0.65-0.14,0.88-0.28c0.26-0.14,0.4-0.26,0.44-0.3c0.09-0.09,0.26-0.33,0.46-0.65c0.21-0.35,0.46-0.86,0.79-1.53
			c0.28-0.63,0.6-1.35,0.95-2.14c0.35-0.81,0.7-1.63,1.07-2.49c0.37-0.86,0.74-1.7,1.09-2.58c0.37-0.86,0.7-1.67,1.02-2.42
			l-0.21-0.44c0.23-0.12,0.46-0.23,0.65-0.37c0.19-0.14,0.37-0.3,0.51-0.46c0.14-0.16,0.28-0.33,0.37-0.46s0.19-0.28,0.23-0.37h0.16
			c0.42,1.12,0.81,2.16,1.19,3.16c0.37,1,0.74,1.95,1.07,2.88c0.35,0.93,0.67,1.81,1,2.67c0.33,0.86,0.65,1.72,0.95,2.56
			c0.14,0.42,0.28,0.77,0.42,1.02c0.12,0.28,0.28,0.58,0.44,0.93c0.02,0.05,0.09,0.14,0.19,0.28c0.09,0.14,0.21,0.28,0.37,0.42
			c0.16,0.14,0.35,0.26,0.58,0.37s0.49,0.16,0.81,0.19v0.23h-5.93V16.24z M61,4.08c-0.07,0.16-0.19,0.44-0.35,0.81
			c-0.16,0.37-0.35,0.84-0.58,1.37c-0.23,0.53-0.49,1.14-0.74,1.81c-0.28,0.67-0.58,1.42-0.88,2.21h5c-0.23-0.6-0.46-1.21-0.7-1.81
			c-0.23-0.6-0.46-1.19-0.67-1.74s-0.42-1.07-0.6-1.53C61.28,4.73,61.12,4.38,61,4.08z"/>
		<path class="st0" d="M79.64,14.03c-0.26,0.51-0.63,0.95-1.09,1.3c-0.46,0.37-1.02,0.63-1.65,0.81c-0.65,0.16-1.35,0.26-2.11,0.26
			c-0.65,0-1.21-0.05-1.7-0.12c-0.46-0.07-0.86-0.19-1.16-0.3c-0.3-0.12-0.53-0.21-0.7-0.3c-0.16-0.09-0.26-0.14-0.3-0.14
			c-0.05,0-0.12,0.07-0.26,0.23c-0.14,0.16-0.26,0.33-0.37,0.46h-0.19l-0.07-4h0.21c0.12,0.37,0.28,0.72,0.46,1.05
			c0.19,0.35,0.4,0.65,0.6,0.95c0.21,0.3,0.46,0.56,0.7,0.79c0.26,0.23,0.49,0.4,0.72,0.51s0.53,0.23,0.91,0.37
			c0.37,0.12,0.74,0.19,1.09,0.19c1,0,1.79-0.28,2.42-0.81c0.6-0.53,0.93-1.28,0.93-2.21c0-0.37-0.07-0.7-0.19-0.98
			c-0.12-0.28-0.28-0.53-0.49-0.74c-0.21-0.21-0.44-0.4-0.74-0.53c-0.28-0.14-0.58-0.28-0.91-0.4s-0.6-0.21-0.84-0.3
			c-0.23-0.07-0.46-0.16-0.67-0.23c-0.21-0.07-0.42-0.14-0.65-0.21c-0.21-0.07-0.49-0.16-0.79-0.3c-0.35-0.14-0.67-0.33-1-0.56
			s-0.6-0.51-0.84-0.81c-0.23-0.33-0.44-0.65-0.58-1.05c-0.14-0.37-0.21-0.79-0.21-1.21c0-0.72,0.14-1.35,0.4-1.86
			s0.63-0.95,1.07-1.3c0.44-0.35,0.95-0.6,1.53-0.77c0.58-0.16,1.19-0.26,1.84-0.26c0.6,0,1.12,0.05,1.53,0.14
			c0.42,0.09,0.79,0.21,1.05,0.33c0.28,0.12,0.49,0.23,0.63,0.33c0.14,0.09,0.21,0.14,0.23,0.14c0.05,0,0.12-0.07,0.26-0.23
			c0.12-0.16,0.23-0.33,0.35-0.49h0.21V5.5h-0.21c-0.16-0.44-0.37-0.88-0.63-1.32c-0.26-0.44-0.56-0.81-0.88-1.16
			s-0.72-0.63-1.14-0.84s-0.91-0.33-1.42-0.33c-0.42,0-0.81,0.07-1.19,0.19c-0.37,0.12-0.7,0.3-0.95,0.53
			c-0.28,0.23-0.49,0.53-0.65,0.88c-0.16,0.35-0.23,0.77-0.23,1.21c0,0.72,0.21,1.28,0.65,1.7c0.42,0.42,0.98,0.77,1.65,1.02
			c0.26,0.12,0.51,0.21,0.74,0.28c0.23,0.07,0.46,0.16,0.7,0.23c0.23,0.07,0.46,0.14,0.7,0.23c0.23,0.07,0.49,0.16,0.72,0.26
			c0.91,0.33,1.6,0.81,2.11,1.46c0.51,0.63,0.74,1.42,0.74,2.37C80.04,12.94,79.9,13.52,79.64,14.03z"/>
		<path class="st0" d="M47.55,1.8v0.19h0.21h0.02c0.26,0.05,0.53,0.12,0.84,0.21c0.26,0.09,0.49,0.26,0.65,0.49
			c0.05,0.09,0.09,0.19,0.16,0.28l0.84,1.46c-0.21,2.44-0.42,4.9-0.65,7.34c-0.02,0.21-0.05,0.42-0.05,0.6
			c-0.09,1-0.19,2.02-0.26,3.04c0,0.14-0.02,0.26-0.02,0.4c-0.02,0.14-0.02,0.28-0.05,0.42l0,0c0.14,0.21,0.26,0.42,0.4,0.63
			c0.12,0.19,0.23,0.37,0.35,0.58c0.21,0.35,0.4,0.67,0.6,1.02c0.05,0.07,0.07,0.12,0.12,0.19c0.05-0.07,0.07-0.12,0.12-0.19
			c0.19-0.33,0.4-0.67,0.6-1.02c0.12-0.19,0.23-0.4,0.35-0.58c0.14-0.21,0.26-0.42,0.4-0.63l0,0c0-0.09-0.02-0.21-0.02-0.3
			c-0.02-0.16-0.02-0.33-0.05-0.49c-0.07-0.79-0.14-1.56-0.21-2.35c-0.05-0.44-0.07-0.86-0.12-1.3c-0.21-2.44-0.42-4.9-0.65-7.34
			c0.28-0.49,0.56-0.98,0.84-1.46c0.05-0.09,0.09-0.19,0.16-0.28c0.16-0.23,0.37-0.4,0.63-0.49c0.3-0.09,0.58-0.16,0.84-0.21h0.02
			h0.26V1.83L47.55,1.8L47.55,1.8L47.55,1.8z"/>
	</g>
</g>
</svg>
