<?xml version="1.0" encoding="utf-8"?>
<!-- Generator: Adobe Illustrator 22.0.1, SVG Export Plug-In . SVG Version: 6.00 Build 0)  -->
<svg version="1.1" id="Layer_1" xmlns="http://www.w3.org/2000/svg" xmlns:xlink="http://www.w3.org/1999/xlink" x="0px" y="0px"
	 viewBox="0 0 80 20" style="enable-background:new 0 0 80 20;" xml:space="preserve">
<style type="text/css">
	.st0{fill:#333333;}
</style>
<g id="Layer_3_1_">
	<g>
		<path class="st0" d="M11.8,7.4c-0.2,0.4-0.4,0.8-0.6,1.1c-0.3,0.3-0.6,0.6-0.9,0.8C9.9,9.4,9.6,9.6,9.2,9.7C8.8,9.9,8.4,10,8,10
			c-0.4,0.1-0.9,0.1-1.3,0.1s-0.9,0-1.3,0s-0.8,0-1.1,0c0,0.4,0,0.8,0,1.1s0,0.6,0,0.8s0,0.4,0,0.6c0,0.2,0,0.4,0,0.6
			c0,0.4,0,0.8,0,1.1s0.1,0.6,0.2,0.8s0.3,0.3,0.6,0.5C5.5,15.9,5.9,16,6.5,16v0.2H0.1V16c0.3,0,0.7-0.1,1-0.2
			c0.3-0.1,0.6-0.3,0.7-0.5c0.1-0.1,0.1-0.2,0.2-0.4c0-0.1,0-0.3,0-0.5c0-0.2,0-0.4,0-0.7c0-0.2,0-0.4,0-0.7c0-0.2,0-0.4,0-0.8
			s0-0.7,0-1c0-0.4,0-0.8,0-1.2s0-0.8,0-1.2V5.1c0-0.2,0-0.5,0-0.7s0-0.5,0-0.7c0-0.3,0-0.5,0-0.6c0-0.2-0.1-0.3-0.2-0.4
			C1.6,2.4,1.3,2.3,1,2.2C0.7,2.1,0.4,2.1,0,2V1.8c0.1,0,0.2,0,0.5,0s0.6,0,0.9,0s0.7,0,1.1,0s0.8,0,1.2,0s0.8,0,1.1,0
			c0.4,0,0.7,0,0.9,0c0.9,0,1.7,0,2.3,0.1c0.7,0.2,1.4,0.4,2,0.7s1,0.8,1.4,1.4C11.8,4.5,12,5.2,12,6.1C12,6.5,11.9,7,11.8,7.4z
			 M9.2,3.8c-0.4-0.6-0.9-1-1.6-1.4C7.4,2.3,7,2.2,6.7,2.2C6.3,2.2,6,2.1,5.6,2.1c-0.3,0-0.5,0-0.7,0s-0.3,0-0.4,0
			c0,0.1,0,0.1,0,0.2c0,0.1,0,0.1,0,0.2c0,0.1,0,0.2,0,0.4s0,0.4,0,0.7c0,0.5,0,1,0,1.7s0,1.3,0,2s0,1.2,0,1.7s0,0.8,0,0.9
			c0.6,0,1.1,0,1.5,0c0.5,0,0.9-0.1,1.3-0.3c0.9-0.3,1.5-0.8,2-1.5S10,6.7,10,5.8C9.9,5.1,9.6,4.4,9.2,3.8z"/>
		<path class="st0" d="M27.8,2.4c-0.3,0.2-0.5,0.5-0.7,0.9c0,0.1-0.1,0.3-0.1,0.5c0,0.2-0.1,0.5-0.1,0.7c0,0.3,0,0.6-0.1,0.9
			c0,0.3,0,0.6,0,0.9c0,0.6,0,1.2,0,1.9s0,1.5-0.1,2.4c0,0.3,0,0.6,0,1s-0.1,0.8-0.2,1.2s-0.3,0.9-0.5,1.3s-0.6,0.8-1,1.2
			c-0.4,0.3-1,0.6-1.7,0.8c-0.7,0.2-1.5,0.3-2.5,0.3s-1.8-0.1-2.4-0.3c-0.7-0.2-1.2-0.5-1.6-0.8s-0.8-0.7-1-1.1
			c-0.2-0.4-0.4-0.8-0.5-1.2s-0.2-0.8-0.2-1.1s0-0.6,0-0.7c0-0.4,0-0.9,0-1.5s0-1.3,0-2V5.1c0-0.2,0-0.5,0-0.7s0-0.5,0-0.7
			s0-0.4-0.1-0.6c0-0.2-0.1-0.3-0.2-0.4c-0.2-0.2-0.4-0.4-0.7-0.5S13.5,2,13.2,2V1.8h6V2c-0.2,0-0.4,0.1-0.6,0.1S18.2,2.2,18,2.4
			c-0.2,0.1-0.3,0.3-0.4,0.5s-0.2,0.5-0.2,0.8s0,0.7,0,0.9c0,0.3,0,0.5,0,0.8s0,0.5,0,0.8s0,0.6,0,1c0,0.5,0,0.9,0,1.2
			c0,0.4,0,0.7,0,1s0,0.6,0,0.9c0,0.3,0,0.6,0,0.9c0,0.7,0.1,1.3,0.3,1.9c0.2,0.6,0.5,1.1,0.8,1.5c0.4,0.4,0.8,0.7,1.3,1
			c0.5,0.2,1.1,0.3,1.8,0.3c0.8,0,1.4-0.1,1.9-0.3s1-0.4,1.3-0.7s0.6-0.7,0.8-1.1c0.2-0.4,0.4-0.8,0.5-1.3s0.2-0.9,0.2-1.4
			s0-0.9,0-1.4c0-0.4,0-0.7,0-1s0-0.6,0-0.8c0-0.3,0-0.5,0-0.8s0-0.5,0-0.8s0-0.5,0-0.8s0-0.6,0-0.8c0-0.3,0-0.5-0.1-0.7
			c0-0.2-0.1-0.4-0.1-0.5c-0.1-0.4-0.4-0.7-0.7-0.9c-0.3-0.2-0.8-0.4-1.5-0.5V1.9h5v0.2C28.5,2.1,28.1,2.2,27.8,2.4z"/>
		<path class="st0" d="M44.9,2.4c-0.3,0.2-0.5,0.5-0.7,0.9C44.1,3.5,44,3.9,44,4.4s0,1.1-0.1,1.7c0,0.6,0,1.3-0.1,2
			c0,0.8,0,1.6,0,2.5c0,0.4,0,0.8,0,1.3s0,1,0,1.4c0,0.5,0,1,0,1.5s0,0.9,0,1.3v0.1h-0.1c-0.1,0-0.2-0.1-0.4-0.2
			c-1.1-1.3-2.2-2.5-3.1-3.6s-1.8-2.1-2.7-3.1s-1.7-2-2.5-2.9c-0.8-1-1.7-1.9-2.6-3V12c0,0.7,0,1.3,0,1.8c0,0.6,0.1,1,0.3,1.2
			c0.1,0.3,0.4,0.5,0.7,0.7s0.7,0.3,1.3,0.3v0.2h-4.9V16c0.3,0,0.7-0.1,1-0.3c0.3-0.1,0.6-0.3,0.8-0.6c0.2-0.3,0.3-0.7,0.4-1.3
			c0-0.6,0.1-1.2,0.1-2c0-0.6,0-1.3,0.1-2c0-0.8,0-1.6,0-2.5c0-0.4,0-0.7,0-1s0-0.5,0-0.7s0-0.5,0-0.7c0-0.3,0-0.6,0-1
			s-0.1-0.7-0.3-1c-0.1-0.3-0.3-0.4-0.5-0.6C31.2,2.2,31,2.1,30.7,2c-0.2,0.1-0.5,0.1-0.7,0V1.8h4.1l9.5,11.1V6.1c0-0.5,0-1,0-1.5
			s-0.1-0.9-0.2-1.2C43.3,3,43,2.7,42.7,2.5S41.9,2.1,41.2,2V1.8h5V2C45.6,2.1,45.2,2.2,44.9,2.4z"/>
		<path class="st0" d="M63.6,16.3v-0.2c0,0,0.1,0,0.3,0s0.3-0.1,0.5-0.1c0.2-0.1,0.3-0.2,0.4-0.3s0.2-0.3,0.2-0.5
			c0-0.1,0-0.3-0.1-0.6s-0.2-0.6-0.3-1c-0.1-0.4-0.3-0.8-0.5-1.3c-0.2-0.5-0.4-1-0.6-1.5h-5.3c-0.2,0.5-0.4,1-0.6,1.5
			c-0.2,0.5-0.4,0.9-0.6,1.4c-0.3,0.7-0.4,1.2-0.4,1.5c0,0.2,0,0.3,0.2,0.4c0.1,0.1,0.2,0.2,0.4,0.3s0.3,0.1,0.5,0.2
			c0.2,0,0.4,0.1,0.6,0.1v0.2H54v-0.2c0.3,0,0.7-0.1,0.9-0.3c0.3-0.1,0.4-0.3,0.4-0.3c0.1-0.1,0.3-0.3,0.5-0.7
			c0.2-0.3,0.5-0.9,0.8-1.5s0.6-1.3,1-2.1c0.3-0.8,0.7-1.6,1.1-2.5s0.7-1.7,1.1-2.6c0.4-0.9,0.7-1.7,1-2.4l-0.2-0.4
			c0.2-0.1,0.5-0.2,0.7-0.4c0.2-0.1,0.4-0.3,0.5-0.5s0.3-0.3,0.4-0.5s0.2-0.3,0.2-0.4h0.2c0.4,1.1,0.8,2.2,1.2,3.2
			c0.4,1,0.7,2,1.1,2.9c0.3,0.9,0.7,1.8,1,2.7s0.7,1.7,1,2.6c0.1,0.4,0.3,0.8,0.4,1c0.1,0.3,0.3,0.6,0.4,0.9c0,0,0.1,0.1,0.2,0.3
			c0.1,0.1,0.2,0.3,0.4,0.4s0.3,0.3,0.6,0.4s0.5,0.2,0.8,0.2v0.2L63.6,16.3L63.6,16.3z M61,4.1c-0.1,0.2-0.2,0.4-0.3,0.8
			c-0.2,0.4-0.3,0.8-0.6,1.4c-0.2,0.5-0.5,1.1-0.7,1.8c-0.3,0.7-0.6,1.4-0.9,2.2h5c-0.2-0.6-0.5-1.2-0.7-1.8s-0.5-1.2-0.7-1.7
			s-0.4-1.1-0.6-1.5C61.3,4.8,61.1,4.4,61,4.1z"/>
		<path class="st0" d="M79.6,14.1c-0.3,0.5-0.6,1-1.1,1.3c-0.5,0.4-1,0.6-1.7,0.8s-1.3,0.3-2.1,0.3c-0.7,0-1.2,0-1.7-0.1
			s-0.9-0.2-1.2-0.3c-0.3-0.1-0.5-0.2-0.7-0.3s-0.3-0.1-0.3-0.1s-0.1,0.1-0.3,0.2c-0.1,0.2-0.3,0.3-0.4,0.5h-0.2l-0.1-4H70
			c0.1,0.4,0.3,0.7,0.5,1s0.4,0.7,0.6,1s0.5,0.6,0.7,0.8c0.3,0.2,0.5,0.4,0.7,0.5s0.5,0.2,0.9,0.4c0.4,0.1,0.7,0.2,1.1,0.2
			c1,0,1.8-0.3,2.4-0.8c0.6-0.5,0.9-1.3,0.9-2.2c0-0.4-0.1-0.7-0.2-1s-0.3-0.5-0.5-0.7s-0.4-0.4-0.7-0.5c-0.3-0.1-0.6-0.3-0.9-0.4
			s-0.6-0.2-0.8-0.3c-0.2-0.1-0.5-0.2-0.7-0.2c-0.2-0.1-0.4-0.1-0.7-0.2c-0.2-0.1-0.5-0.2-0.8-0.3s-0.7-0.3-1-0.6
			c-0.3-0.2-0.6-0.5-0.8-0.8c-0.2-0.3-0.4-0.7-0.6-1c-0.1-0.4-0.2-0.8-0.2-1.2c0-0.7,0.1-1.3,0.4-1.9s0.6-1,1.1-1.3
			c0.4-0.3,1-0.6,1.5-0.8c0.6-0.2,1.2-0.3,1.8-0.3c0.6,0,1.1,0,1.5,0.1s0.8,0.2,1,0.3c0.3,0.1,0.5,0.2,0.6,0.3S78,2.6,78,2.6
			s0.1-0.1,0.3-0.2c0.1-0.2,0.2-0.3,0.3-0.5h0.2v3.7h-0.2c-0.2-0.4-0.4-0.9-0.6-1.3c-0.3-0.4-0.6-0.8-0.9-1.2S76.4,2.5,76,2.3
			s-0.5-0.4-1-0.4c-0.4,0-0.8,0.1-1.2,0.2c-0.4,0.1-0.7,0.3-1,0.5s-0.5,0.5-0.7,0.9C72,3.8,72,4.3,72,4.7c0,0.7,0.2,1.3,0.7,1.7
			c0.4,0.4,1,0.8,1.7,1c0.3,0.1,0.5,0.2,0.7,0.3c0.2,0.1,0.5,0.2,0.7,0.2C76,8,76.3,8,76.5,8.1c0.2,0.1,0.5,0.2,0.7,0.3
			c0.9,0.3,1.6,0.8,2.1,1.5c0.5,0.6,0.7,1.4,0.7,2.4C80,13,79.9,13.6,79.6,14.1z"/>
		<path class="st0" d="M47.5,1.8V2h0.2l0,0c0.3,0,0.5,0.1,0.8,0.2c0.3,0.1,0.5,0.3,0.7,0.5c0,0.1,0.1,0.2,0.2,0.3l0.8,1.5
			c-0.2,2.4-0.4,4.9-0.7,7.3c0,0.2,0,0.4,0,0.6c-0.1,1-0.2,2-0.3,3c0,0.1,0,0.3,0,0.4c0,0.1,0,0.3,0,0.4l0,0
			c0.1,0.2,0.3,0.4,0.4,0.6c0.1,0.2,0.2,0.4,0.3,0.6c0.2,0.3,0.4,0.7,0.6,1c0,0.1,0.1,0.1,0.1,0.2c0-0.1,0.1-0.1,0.1-0.2
			c0.2-0.3,0.4-0.7,0.6-1c0.1-0.2,0.2-0.4,0.3-0.6s0.3-0.4,0.4-0.6l0,0c0-0.1,0-0.2,0-0.3c0-0.2,0-0.3,0-0.5
			c-0.1-0.8-0.1-1.6-0.2-2.3c0-0.4-0.1-0.9-0.1-1.3c-0.2-2.4-0.4-4.9-0.7-7.3c0.4-0.5,0.7-1,1-1.5c0-0.1,0.1-0.2,0.2-0.3
			c0.2-0.2,0.4-0.4,0.6-0.5C53.1,2.1,53.4,2,53.6,2l0,0h0.3V1.9L47.5,1.8L47.5,1.8L47.5,1.8z"/>
	</g>
</g>
</svg>
