<?xml version="1.0" encoding="utf-8"?>
<!-- Generator: Adobe Illustrator 22.0.1, SVG Export Plug-In . SVG Version: 6.00 Build 0)  -->
<svg version="1.1" id="Layer_1" xmlns="http://www.w3.org/2000/svg" xmlns:xlink="http://www.w3.org/1999/xlink" x="0px" y="0px"
	 viewBox="0 0 50 50" style="enable-background:new 0 0 50 50;" xml:space="preserve">
<style type="text/css">
	.st0{fill:#555555;}
</style>
<path class="st0" d="M44.5,0c-3,0-5.5,2.5-5.5,5.4c0,0.9,0.3,1.8,0.6,2.6L30.8,17c-1.3-1-2.8-1.6-4.5-1.6c-1.6,0-3.2,0.6-4.5,1.6
	l-7-7c0.4-0.6,0.6-1.2,0.6-1.8c0-2-1.6-3.6-3.6-3.6S8.2,6.2,8.2,8.2s1.6,3.6,3.6,3.6c0.6,0,1.3-0.2,1.8-0.6l7,7
	c-1,1.3-1.5,2.8-1.5,4.5c0,1.6,0.5,3.2,1.5,4.5L9.1,38.7c-0.9-0.9-2.3-1.5-3.6-1.5c-3,0-5.4,2.5-5.4,5.5s2.5,5.5,5.4,5.5
	s5.4-2.5,5.4-5.5c0-0.9-0.3-1.8-0.6-2.6l11.6-11.6c1,0.8,2.2,1.3,3.5,1.5v9.3c-2.5,0.5-4.6,2.6-4.6,5.4c0,3,2.5,5.5,5.5,5.5
	s5.5-2.5,5.5-5.5c0-2.7-2-4.9-4.5-5.4v-9.3c1.4-0.2,2.5-0.7,3.5-1.5l7,7c-0.4,0.5-0.5,1.2-0.5,1.8c0,2,1.6,3.6,3.6,3.6
	s3.6-1.6,3.6-3.6s-1.6-3.6-3.6-3.6c-0.6,0-1.3,0.2-1.8,0.5l-7-7c1-1.3,1.5-2.8,1.5-4.5c0-1.6-0.5-3.2-1.5-4.5l8.8-8.8
	c1,0.9,2.3,1.4,3.6,1.4c3,0,5.5-2.4,5.5-5.4S47.5,0,44.5,0z M10,8.2c0-1,0.8-1.8,1.8-1.8s1.8,0.8,1.8,1.8S12.8,10,11.8,10
	S10,9.2,10,8.2z M5.4,46.4c-2,0-3.6-1.6-3.6-3.6s1.6-3.6,3.6-3.6s3.6,1.6,3.6,3.6C9.1,44.7,7.4,46.4,5.4,46.4z M30,44.5
	c0,2-1.6,3.6-3.6,3.6s-3.6-1.6-3.6-3.6s1.6-3.6,3.6-3.6S30,42.5,30,44.5z M26.4,28.2c-3,0-5.5-2.5-5.5-5.5s2.5-5.5,5.5-5.5
	s5.5,2.5,5.5,5.5S29.4,28.2,26.4,28.2z M42.7,37.3c0,1-0.8,1.8-1.8,1.8s-1.8-0.8-1.8-1.8s0.8-1.8,1.8-1.8S42.7,36.3,42.7,37.3z
	 M44.5,9.1c-2,0-3.6-1.6-3.6-3.6s1.6-3.6,3.6-3.6s3.6,1.6,3.6,3.6S46.5,9.1,44.5,9.1z"/>
</svg>
