<?xml version="1.0" encoding="utf-8"?>
<!-- Generator: Adobe Illustrator 22.0.1, SVG Export Plug-In . SVG Version: 6.00 Build 0)  -->
<svg version="1.1" id="Layer_1" xmlns="http://www.w3.org/2000/svg" xmlns:xlink="http://www.w3.org/1999/xlink" x="0px" y="0px"
	 viewBox="0 0 50 50" style="enable-background:new 0 0 50 50;" xml:space="preserve">
<style type="text/css">
	.st0{fill:#FFFFFF;}
</style>
<path class="st0" d="M44.55,0c-3,0-5.45,2.45-5.45,5.45c0,0.91,0.27,1.82,0.64,2.64L30.82,17c-1.27-1-2.82-1.55-4.45-1.55
	c-1.64,0-3.18,0.55-4.45,1.55l-7-7c0.36-0.55,0.55-1.18,0.55-1.82c0-2-1.64-3.64-3.64-3.64S8.18,6.18,8.18,8.18s1.64,3.64,3.64,3.64
	c0.64,0,1.27-0.18,1.82-0.55l7,7c-1,1.27-1.55,2.82-1.55,4.45c0,1.64,0.55,3.18,1.55,4.45L9.09,38.73
	c-0.91-0.91-2.27-1.45-3.64-1.45c-3,0-5.45,2.45-5.45,5.45c0,3,2.45,5.45,5.45,5.45s5.45-2.45,5.45-5.45c0-0.91-0.27-1.82-0.64-2.64
	l11.64-11.64c1,0.82,2.18,1.27,3.55,1.45v9.27c-2.55,0.45-4.55,2.64-4.55,5.36c0,3,2.45,5.45,5.45,5.45s5.45-2.45,5.45-5.45
	c0-2.73-2-4.91-4.55-5.36v-9.27c1.36-0.18,2.55-0.73,3.55-1.45l7,7c-0.36,0.55-0.55,1.18-0.55,1.82c0,2,1.64,3.64,3.64,3.64
	s3.64-1.64,3.64-3.64s-1.64-3.64-3.64-3.64c-0.64,0-1.27,0.18-1.82,0.55l-7-7c1-1.27,1.55-2.82,1.55-4.45
	c0-1.64-0.55-3.18-1.55-4.45l8.82-8.82c1,0.91,2.27,1.45,3.64,1.45c3,0,5.45-2.45,5.45-5.45S47.55,0,44.55,0z M10,8.18
	c0-1,0.82-1.82,1.82-1.82s1.82,0.82,1.82,1.82S12.82,10,11.82,10S10,9.18,10,8.18z M5.45,46.36c-2,0-3.64-1.64-3.64-3.64
	c0-2,1.64-3.64,3.64-3.64s3.64,1.64,3.64,3.64C9.09,44.73,7.45,46.36,5.45,46.36z M30,44.55c0,2-1.64,3.64-3.64,3.64
	s-3.64-1.64-3.64-3.64s1.64-3.64,3.64-3.64S30,42.55,30,44.55z M26.36,28.18c-3,0-5.45-2.45-5.45-5.45s2.45-5.45,5.45-5.45
	s5.45,2.45,5.45,5.45S29.36,28.18,26.36,28.18z M42.73,37.27c0,1-0.82,1.82-1.82,1.82s-1.82-0.82-1.82-1.82c0-1,0.82-1.82,1.82-1.82
	S42.73,36.27,42.73,37.27z M44.55,9.09c-2,0-3.64-1.64-3.64-3.64s1.64-3.64,3.64-3.64s3.64,1.64,3.64,3.64S46.55,9.09,44.55,9.09z"
	/>
</svg>
