<?xml version="1.0" encoding="utf-8"?>
<!-- Generator: Adobe Illustrator 22.0.1, SVG Export Plug-In . SVG Version: 6.00 Build 0)  -->
<svg version="1.1" id="Layer_1" xmlns="http://www.w3.org/2000/svg" xmlns:xlink="http://www.w3.org/1999/xlink" x="0px" y="0px"
	 viewBox="0 0 50 50" style="enable-background:new 0 0 50 50;" xml:space="preserve">
<style type="text/css">
	.st0{fill:#FFFFFF;}
</style>
<g>
	<g>
		<path class="st0" d="M49.9,37.77c-0.42-1.38-1.17-2.63-2.2-3.64c-1.63-1.64-3.85-2.56-6.15-2.55c-1.18,0-2.34,0.24-3.44,0.7
			l-8.56-8.56l11.38-11.28l2.69-0.08c0.32-0.01,0.62-0.19,0.79-0.47l3.85-6.47c0.22-0.37,0.17-0.85-0.15-1.16l-3.33-3.33
			c-0.31-0.31-0.79-0.37-1.16-0.15l-6.47,3.85c-0.28,0.17-0.46,0.46-0.47,0.79L36.6,8.11L25.28,19.43l-7.78-7.78
			c0.82-4.74-2.36-9.24-7.1-10.06c-2.2-0.38-4.45,0.1-6.31,1.34C3.65,3.23,3.54,3.82,3.83,4.25c0.08,0.13,0.2,0.22,0.32,0.29
			l4.32,2.4c0.95,0.55,1.14,2.16,0.37,3.52c-0.77,1.37-2.25,2.07-3.2,1.54l-4-2.17C1.18,9.59,0.6,9.76,0.35,10.22
			c-0.09,0.16-0.13,0.34-0.12,0.52c0.3,4.79,4.43,8.44,9.23,8.14c0.99-0.06,1.96-0.29,2.88-0.68l7.08,7.08l-3.07,3.08l-0.69-0.68
			c-0.77-0.73-1.98-0.73-2.74,0l-0.95,0.95c-0.72,0.7-0.77,1.86-0.11,2.62L0.6,42.46c-0.76,0.72-0.78,1.93-0.06,2.69
			c0.02,0.02,0.04,0.04,0.06,0.06l3.21,3.21c0.72,0.76,1.93,0.78,2.69,0.06c0.02-0.02,0.04-0.04,0.06-0.06l11.26-11.25
			c0.76,0.66,1.91,0.62,2.62-0.11l0.95-0.95c0.76-0.72,0.78-1.93,0.06-2.69c-0.02-0.02-0.04-0.04-0.06-0.06l-0.69-0.69l3.05-3.1
			l9.23,9.23c-0.8,4.74,2.4,9.23,7.14,10.03c2.8,0.47,5.66-0.46,7.65-2.49c0.35-0.39,0.31-1-0.08-1.35c-0.1-0.09-0.22-0.16-0.35-0.2
			l-5.35-1.44c-0.53-0.17-0.94-0.58-1.12-1.09c-0.27-0.71-0.31-1.5-0.1-2.25c0.4-1.49,1.66-2.56,2.73-2.28l5.29,1.43
			c0.09,0.01,0.18,0.01,0.25,0c0.53,0.01,0.96-0.41,0.97-0.94C50.01,38.06,49.97,37.91,49.9,37.77z M38.19,9.17
			c0.18-0.18,0.27-0.4,0.27-0.64l0.08-2.54l5.39-3.2l2.28,2.28l-3.13,5.38l-2.59,0.1c-0.24,0.01-0.48,0.11-0.64,0.27L28.24,22.41
			l-1.64-1.64L38.19,9.17z M5.21,47.07l-3.26-3.24l11.31-11.28l1.64,1.64l1.56,1.62L5.21,47.07z M19.12,35.66l-1.26-1.27l-0.49-0.49
			l-3.98-4.02l0.95-0.95l5.7,5.78L19.12,35.66z M19.31,31.32l-1.64-1.64l3.07-3.07l1.64,1.64L19.31,31.32z M43.95,35.9
			c-0.28-0.08-0.58-0.12-0.87-0.12c-2.07,0.17-3.79,1.69-4.2,3.73c-0.32,1.14-0.26,2.36,0.19,3.47c0.41,1.06,1.29,1.87,2.38,2.19
			l3.53,0.95c-3.22,1.92-7.4,0.87-9.32-2.36c-0.9-1.51-1.18-3.32-0.78-5.04c0.07-0.32-0.03-0.65-0.25-0.89L13.22,16.38
			c-0.3-0.28-0.76-0.34-1.12-0.14c-0.99,0.52-2.08,0.79-3.18,0.79c-2.86,0-5.42-1.79-6.39-4.48l2.17,1.21
			c0.51,0.28,1.07,0.43,1.65,0.43c1.76-0.1,3.34-1.13,4.14-2.7c1.29-2.31,0.79-5.06-1.11-6.12L6.6,3.8
			c3.53-1.26,7.43,0.58,8.69,4.12c0.44,1.23,0.52,2.56,0.22,3.83c-0.07,0.32,0.03,0.65,0.25,0.89l21.48,21.47
			c0.29,0.29,0.74,0.36,1.11,0.18c0.99-0.52,2.08-0.79,3.18-0.79c2.41,0,4.64,1.27,5.86,3.35L43.95,35.9z"/>
	</g>
</g>
</svg>
