<?xml version="1.0" encoding="utf-8"?>
<!-- Generator: Adobe Illustrator 22.0.1, SVG Export Plug-In . SVG Version: 6.00 Build 0)  -->
<svg version="1.1" id="Layer_1" xmlns="http://www.w3.org/2000/svg" xmlns:xlink="http://www.w3.org/1999/xlink" x="0px" y="0px"
	 viewBox="0 0 50 50" style="enable-background:new 0 0 50 50;" xml:space="preserve">
<style type="text/css">
	.st0{fill:#FFFFFF;}
</style>
<g>
	<path class="st0" d="M29.1,16.67l-7.09,5.16c-0.37,0.27-0.45,0.79-0.18,1.16c0.16,0.23,0.42,0.34,0.67,0.34
		c0.17,0,0.34-0.05,0.49-0.16l10.09-7.34L22.99,8.49c-0.37-0.27-0.89-0.19-1.16,0.18c-0.27,0.37-0.19,0.89,0.18,1.16L29.1,15h-9.94
		c-5.97,0-10.83,4.86-10.83,10.83c0,0.46,0.37,0.83,0.83,0.83S10,26.29,10,25.83c0-5.05,4.11-9.17,9.17-9.17H29.1z"/>
	<path class="st0" d="M25,0C11.22,0,0,11.22,0,25s11.22,25,25,25s25-11.22,25-25S38.78,0,25,0z M25,48.33
		C12.13,48.33,1.67,37.87,1.67,25S12.13,1.67,25,1.67S48.33,12.13,48.33,25S37.87,48.33,25,48.33z"/>
	<path class="st0" d="M40,23.33c-0.46,0-0.83,0.37-0.83,0.83c0,5.05-4.11,9.17-9.17,9.17h-9.94l7.09-5.16
		c0.37-0.27,0.46-0.79,0.18-1.16c-0.27-0.37-0.79-0.45-1.16-0.18l-10.09,7.34l10.09,7.34c0.15,0.11,0.32,0.16,0.49,0.16
		c0.26,0,0.51-0.12,0.68-0.34c0.27-0.37,0.19-0.89-0.18-1.16L20.06,35H30c5.97,0,10.83-4.86,10.83-10.83
		C40.83,23.71,40.46,23.33,40,23.33z"/>
</g>
</svg>
