<?xml version="1.0" encoding="utf-8"?>
<!-- Generator: Adobe Illustrator 22.0.1, SVG Export Plug-In . SVG Version: 6.00 Build 0)  -->
<svg version="1.1" id="Layer_1" xmlns="http://www.w3.org/2000/svg" xmlns:xlink="http://www.w3.org/1999/xlink" x="0px" y="0px"
	 viewBox="0 0 50 50" style="enable-background:new 0 0 50 50;" xml:space="preserve">
<style type="text/css">
	.st0{fill:#FFFFFF;}
</style>
<g>
	<path class="st0" d="M21.29,26.94c0-1.56-1.27-2.83-2.83-2.83h-2.94c-1.56,0-2.83,1.27-2.83,2.83v19.72c0,1.56,1.27,2.83,2.83,2.83
		h2.94c1.56,0,2.83-1.27,2.83-2.83L21.29,26.94L21.29,26.94z"/>
	<path class="st0" d="M8.6,33.82c0-1.68-1.36-3.05-3.05-3.05H3.05C1.36,30.78,0,32.14,0,33.82v12.62c0,1.68,1.36,3.05,3.05,3.05
		h2.51c1.68,0,3.05-1.36,3.05-3.05V33.82z"/>
	<path class="st0" d="M33.77,19.42c0-1.56-1.27-2.83-2.83-2.83h-2.94c-1.56,0-2.83,1.27-2.83,2.83v27.24c0,1.56,1.27,2.83,2.83,2.83
		h2.94c1.56,0,2.83-1.27,2.83-2.83V19.42z"/>
	<path class="st0" d="M49.54,8.55l-5.52-7.08c-0.48-0.61-1.15-0.96-1.86-0.96c-0.7,0-1.38,0.35-1.86,0.96l-5.52,7.08
		c-0.47,0.61-0.59,1.27-0.32,1.83c0.3,0.6,1,0.97,1.9,0.97l1.49,0v35.39c0,1.56,1.27,2.75,2.83,2.75h2.96
		c1.56,0,2.81-1.19,2.81-2.75V11.32l1.5,0.02c0.89,0,1.61-0.36,1.9-0.97C50.13,9.82,50.02,9.16,49.54,8.55z"/>
</g>
</svg>
