<?xml version="1.0" encoding="utf-8"?>
<!-- Generator: Adobe Illustrator 22.0.1, SVG Export Plug-In . SVG Version: 6.00 Build 0)  -->
<svg version="1.1" id="Capa_1" xmlns="http://www.w3.org/2000/svg" xmlns:xlink="http://www.w3.org/1999/xlink" x="0px" y="0px"
	 viewBox="0 0 395.9 395.9" style="enable-background:new 0 0 395.9 395.9;" xml:space="preserve">
<style type="text/css">
	.st0{fill:#FFFFFF;}
</style>
<path class="st0" d="M238.9,395.9H6.8c-3.8,0-6.8-3.1-6.8-6.8V157c0-3.8,3.1-6.8,6.8-6.8h232.1c3.8,0,6.8,3.1,6.8,6.8v48.8
	c0,3.8-3.1,6.8-6.8,6.8s-6.8-3.1-6.8-6.8v-42H13.7v218.5h218.5V273.1c0-3.8,3.1-6.8,6.8-6.8s6.8,3.1,6.8,6.8v116.1
	C245.8,392.9,242.7,395.9,238.9,395.9z"/>
<g>
	<path class="st0" d="M389.1,245.8h-13.7c-3.8,0-6.8-3.1-6.8-6.8s3.1-6.8,6.8-6.8h6.8v-6.8c0-3.8,3.1-6.8,6.8-6.8s6.8,3.1,6.8,6.8
		v13.7C395.9,242.7,392.9,245.8,389.1,245.8z"/>
	<path class="st0" d="M356.8,245.8h-18.6c-3.8,0-6.8-3.1-6.8-6.8s3.1-6.8,6.8-6.8h18.6c3.8,0,6.8,3.1,6.8,6.8
		S360.6,245.8,356.8,245.8z M319.6,245.8H301c-3.8,0-6.8-3.1-6.8-6.8s3.1-6.8,6.8-6.8h18.6c3.8,0,6.8,3.1,6.8,6.8
		S323.4,245.8,319.6,245.8z"/>
	<path class="st0" d="M282.4,245.8h-18.6c-3.8,0-6.8-3.1-6.8-6.8s3.1-6.8,6.8-6.8h18.6c3.8,0,6.8,3.1,6.8,6.8
		S286.1,245.8,282.4,245.8z M245.1,245.8h-18.6c-3.8,0-6.8-3.1-6.8-6.8s3.1-6.8,6.8-6.8h18.6c3.8,0,6.8,3.1,6.8,6.8
		S248.9,245.8,245.1,245.8z M207.9,245.8h-18.6c-3.8,0-6.8-3.1-6.8-6.8s3.1-6.8,6.8-6.8h18.6c3.8,0,6.8,3.1,6.8,6.8
		S211.7,245.8,207.9,245.8z"/>
	<path class="st0" d="M170.7,245.8H157c-3.8,0-6.8-3.1-6.8-6.8v-13.7c0-3.8,3.1-6.8,6.8-6.8s6.8,3.1,6.8,6.8v6.8h6.8
		c3.8,0,6.8,3.1,6.8,6.8S174.4,245.8,170.7,245.8z"/>
	<path class="st0" d="M157,213.5c-3.8,0-6.8-3.1-6.8-6.8V188c0-3.8,3.1-6.8,6.8-6.8s6.8,3.1,6.8,6.8v18.6
		C163.8,210.4,160.8,213.5,157,213.5z M157,176.3c-3.8,0-6.8-3.1-6.8-6.8v-18.6c0-3.8,3.1-6.8,6.8-6.8s6.8,3.1,6.8,6.8v18.6
		C163.8,173.2,160.8,176.3,157,176.3z"/>
	<path class="st0" d="M157,139c-3.8,0-6.8-3.1-6.8-6.8v-18.6c0-3.8,3.1-6.8,6.8-6.8s6.8,3.1,6.8,6.8v18.6
		C163.8,136,160.8,139,157,139z M157,101.8c-3.8,0-6.8-3.1-6.8-6.8V76.3c0-3.8,3.1-6.8,6.8-6.8s6.8,3.1,6.8,6.8V95
		C163.8,98.7,160.8,101.8,157,101.8z M157,64.5c-3.8,0-6.8-3.1-6.8-6.8V39.1c0-3.8,3.1-6.8,6.8-6.8s6.8,3.1,6.8,6.8v18.6
		C163.8,61.5,160.8,64.5,157,64.5z"/>
	<path class="st0" d="M157,27.3c-3.8,0-6.8-3.1-6.8-6.8V6.8c0-3.8,3.1-6.8,6.8-6.8h13.7c3.8,0,6.8,3.1,6.8,6.8s-3.1,6.8-6.8,6.8
		h-6.8v6.8C163.8,24.3,160.8,27.3,157,27.3z"/>
	<path class="st0" d="M245.1,13.7h-18.6c-3.8,0-6.8-3.1-6.8-6.8s3.1-6.8,6.8-6.8h18.6c3.8,0,6.8,3.1,6.8,6.8S248.9,13.7,245.1,13.7z
		 M207.9,13.7h-18.6c-3.8,0-6.8-3.1-6.8-6.8s3.1-6.8,6.8-6.8h18.6c3.8,0,6.8,3.1,6.8,6.8S211.7,13.7,207.9,13.7z"/>
	<path class="st0" d="M356.9,13.7h-18.6c-3.8,0-6.8-3.1-6.8-6.8s3.1-6.8,6.8-6.8h18.6c3.8,0,6.8,3.1,6.8,6.8S360.6,13.7,356.9,13.7z
		 M319.6,13.7H301c-3.8,0-6.8-3.1-6.8-6.8S297.2,0,301,0h18.6c3.8,0,6.8,3.1,6.8,6.8S323.4,13.7,319.6,13.7z M282.4,13.7h-18.6
		c-3.8,0-6.8-3.1-6.8-6.8S260,0,263.8,0h18.6c3.8,0,6.8,3.1,6.8,6.8S286.2,13.7,282.4,13.7z"/>
	<path class="st0" d="M389.1,27.3c-3.8,0-6.8-3.1-6.8-6.8v-6.8h-6.8c-3.8,0-6.8-3.1-6.8-6.8s3.1-6.8,6.8-6.8h13.7
		c3.8,0,6.8,3.1,6.8,6.8v13.7C395.9,24.3,392.9,27.3,389.1,27.3z"/>
	<path class="st0" d="M389.1,101.8c-3.8,0-6.8-3.1-6.8-6.8V76.3c0-3.8,3.1-6.8,6.8-6.8s6.8,3.1,6.8,6.8V95
		C395.9,98.7,392.9,101.8,389.1,101.8z M389.1,64.5c-3.8,0-6.8-3.1-6.8-6.8V39.1c0-3.8,3.1-6.8,6.8-6.8s6.8,3.1,6.8,6.8v18.6
		C395.9,61.5,392.9,64.5,389.1,64.5z"/>
	<path class="st0" d="M389.1,213.5c-3.8,0-6.8-3.1-6.8-6.8V188c0-3.8,3.1-6.8,6.8-6.8s6.8,3.1,6.8,6.8v18.6
		C395.9,210.4,392.9,213.5,389.1,213.5z M389.1,176.3c-3.8,0-6.8-3.1-6.8-6.8v-18.6c0-3.8,3.1-6.8,6.8-6.8s6.8,3.1,6.8,6.8v18.6
		C395.9,173.2,392.9,176.3,389.1,176.3z M389.1,139c-3.8,0-6.8-3.1-6.8-6.8v-18.6c0-3.8,3.1-6.8,6.8-6.8s6.8,3.1,6.8,6.8v18.6
		C395.9,136,392.9,139,389.1,139z"/>
</g>
</svg>
