<?xml version="1.0" encoding="utf-8"?>
<!-- Generator: Adobe Illustrator 22.0.1, SVG Export Plug-In . SVG Version: 6.00 Build 0)  -->
<svg version="1.1" id="Layer_1" xmlns="http://www.w3.org/2000/svg" xmlns:xlink="http://www.w3.org/1999/xlink" x="0px" y="0px"
	 viewBox="0 0 360 216" style="enable-background:new 0 0 360 216;" xml:space="preserve">
<style type="text/css">
	.st0{fill:#EFEFEF;}
	.st1{display:none;}
	.st2{display:inline;}
</style>
<g id="Layer_3">
	<g>
		<path class="st0" d="M58.5,96.1c-0.7,1.7-1.6,3.3-2.7,4.6c-1.1,1.3-2.4,2.5-3.9,3.4c-1.5,1-3,1.7-4.6,2.3c-1.6,0.6-3.3,1-5.2,1.3
			c-1.8,0.3-3.7,0.5-5.6,0.6c-1.9,0.1-3.7,0.2-5.5,0.2c-1.7,0-3.3,0-4.7,0c0,1.8,0,3.4,0,4.7c0,1.3,0,2.4,0,3.4s0,1.9,0,2.7
			c0,0.8,0,1.7,0,2.7c0.1,1.8,0.1,3.4,0.2,4.7c0.1,1.3,0.4,2.4,0.9,3.3c0.5,0.7,1.4,1.5,2.7,2.2c1.3,0.7,3.2,1.2,5.5,1.3v0.9H8.2
			v-0.9c1.4-0.2,2.8-0.6,4.1-1c1.3-0.5,2.4-1.2,3.1-2.1c0.3-0.3,0.5-0.9,0.7-1.6c0.2-0.7,0.3-1.5,0.4-2.3c0.1-0.9,0.2-1.8,0.2-2.8
			c0.1-1,0.1-1.9,0.1-2.8c0-0.8,0-1.9,0-3.3s0.1-2.9,0.1-4.5s0-3.3,0-5.1c0-1.8,0-3.5,0-5V86.4c0-1,0-2.1,0-3.2s-0.1-2.1-0.2-3
			s-0.2-1.8-0.4-2.6c-0.2-0.8-0.5-1.3-0.8-1.7c-0.9-0.9-2-1.5-3.3-1.9c-1.4-0.3-2.8-0.6-4.4-0.8v-0.9c0.3,0,1,0,2.1,0s2.4,0,3.8,0
			c1.5,0,3.1,0,4.8,0c1.7,0,3.4,0,5.1,0s3.3,0,4.8,0c1.6,0,2.8,0,3.9,0c3.8,0,7.2,0.2,10.1,0.6c2.9,0.4,5.7,1.3,8.3,2.7
			c2.5,1.4,4.6,3.3,6.3,5.9c1.7,2.5,2.5,5.5,2.5,9C59.5,92.5,59.2,94.4,58.5,96.1z M47.6,81c-1.7-2.6-3.9-4.5-6.7-5.9
			c-1.4-0.6-2.8-1.1-4.4-1.3c-1.6-0.2-3.2-0.3-4.8-0.3c-1.2,0-2.1,0-2.8,0.1c-0.7,0.1-1.2,0.2-1.6,0.2c-0.1,0.3-0.1,0.6-0.2,0.9
			s-0.2,0.6-0.2,1c-0.1,0.4-0.1,1-0.2,1.7s-0.1,1.7-0.2,3.1c-0.1,2-0.1,4.5-0.1,7.3c0,2.9,0,5.7,0,8.5s0,5.2,0,7.3
			c0,2.1,0,3.3,0,3.8c2.4,0,4.6-0.1,6.6-0.2c2.1-0.1,4-0.5,5.8-1.2c3.7-1.3,6.5-3.4,8.5-6.3s2.9-6.2,2.9-9.8
			C50.2,86.6,49.3,83.6,47.6,81z"/>
		<path class="st0" d="M127.3,74.9c-1.2,0.8-2.2,2-2.9,3.7c-0.2,0.4-0.3,1.1-0.5,2c-0.1,0.9-0.3,2-0.4,3.2s-0.2,2.5-0.3,3.8
			c-0.1,1.4-0.1,2.7-0.1,4c-0.1,2.5-0.1,5.2-0.2,8.3c-0.1,3.1-0.2,6.5-0.3,10.4c-0.1,1.1-0.1,2.5-0.2,4.1c-0.1,1.7-0.4,3.4-0.8,5.3
			c-0.5,1.9-1.2,3.7-2.2,5.6s-2.4,3.6-4.3,5.1c-1.8,1.5-4.2,2.7-7.1,3.6c-2.9,0.9-6.4,1.3-10.6,1.3c-4.1,0-7.6-0.4-10.5-1.3
			c-2.8-0.9-5.2-2-7-3.5s-3.3-3.1-4.3-4.8c-1-1.8-1.8-3.5-2.2-5.2c-0.5-1.7-0.8-3.3-0.9-4.7c-0.1-1.4-0.1-2.5-0.1-3.2
			c0-1.6,0-3.7,0-6.3c0-2.6,0-5.5,0-8.6V86.4c0-1,0-2.1,0-3.1s0-2-0.1-2.9s-0.2-1.7-0.4-2.4c-0.2-0.7-0.4-1.3-0.8-1.7
			c-0.8-1-1.8-1.7-3-2.1s-2.5-0.7-4-0.9v-0.9H90v0.9c-0.8,0.1-1.7,0.3-2.6,0.5s-1.8,0.6-2.5,1.1s-1.4,1.2-1.9,2
			c-0.5,0.9-0.8,2-0.9,3.3C82,81.7,82,83,82,84.2s0,2.3,0,3.4s0,2.2,0,3.5c0,1.2,0,2.5,0,4.1c0,2,0,3.7,0,5.3c0,1.6,0,3,0,4.4
			c0,1.3,0,2.6,0,3.8c0,1.2,0,2.5,0,3.9c0.1,3.1,0.5,5.8,1.4,8.3s2.1,4.6,3.6,6.4c1.6,1.8,3.5,3.1,5.7,4.1s4.8,1.4,7.7,1.4
			c3.3,0,6.1-0.4,8.3-1.1c2.3-0.7,4.2-1.8,5.7-3.1s2.7-2.8,3.6-4.6c0.9-1.7,1.6-3.6,2-5.5c0.4-2,0.7-4,0.9-6c0.1-2,0.2-4,0.2-6
			c0-1.6,0-3,0-4.2c0-1.3,0-2.4,0-3.5c0-1.2,0-2.3,0-3.4c0-1.2,0-2.3,0-3.5s0-2.3,0-3.5S121,86,121,84.9c-0.1-1.1-0.1-2.1-0.3-3.1
			c-0.1-1-0.3-1.7-0.5-2.3c-0.6-1.6-1.6-2.9-3-3.9s-3.5-1.7-6.3-2.1v-0.9h21.4v0.9C130.3,73.5,128.6,74.1,127.3,74.9z"/>
		<path class="st0" d="M201.2,74.9c-1.3,0.8-2.3,2-3,3.7c-0.4,0.9-0.7,2.5-0.8,4.8s-0.2,4.8-0.3,7.5c-0.1,2.5-0.2,5.4-0.3,8.8
			s-0.1,7-0.1,10.8c0,1.6,0,3.5,0,5.5s0,4.1,0,6.2s0,4.2,0,6.3c0,2.1,0,3.9,0,5.6c0,0.2-0.1,0.4-0.2,0.6c-0.1,0.1-0.4,0.2-0.6,0.2
			c-0.5,0-1-0.3-1.6-0.9c-4.9-5.6-9.4-10.8-13.4-15.5s-7.9-9.2-11.5-13.5c-3.7-4.3-7.2-8.5-10.7-12.6s-7.2-8.3-11.1-12.7v36.4
			c0,2.9,0.1,5.6,0.2,7.9c0.1,2.4,0.5,4.1,1.1,5.3c0.6,1.3,1.6,2.3,3,3s3.2,1.1,5.6,1.4v0.9h-21.2v-0.9c1.4-0.2,2.8-0.5,4.1-1.1
			c1.4-0.5,2.5-1.5,3.3-2.7s1.3-3,1.6-5.4c0.2-2.4,0.4-5.2,0.5-8.5c0.1-2.5,0.2-5.4,0.3-8.8s0.1-7,0.1-10.8c0-1.7,0-3,0-4.1
			s0-2.2,0-3.2s0-2.1,0-3.2c0-1.2,0-2.6-0.1-4.2c-0.2-1.7-0.6-3-1.2-4.1c-0.6-1.1-1.4-1.9-2.2-2.5c-0.9-0.6-1.8-1-2.8-1.3
			s-2-0.4-2.9-0.6v-0.9h17.5l40.9,47.8V90.9c0-2.3,0-4.5-0.1-6.6s-0.3-3.8-0.8-5c-0.6-1.6-1.6-2.9-3.1-3.9s-3.6-1.7-6.3-2.1v-0.9
			h21.4v0.9C204.2,73.5,202.4,74.1,201.2,74.9z"/>
		<path class="st0" d="M281.6,134.5v-0.9c0.2,0,0.6-0.1,1.3-0.2c0.7-0.1,1.4-0.3,2.1-0.6s1.4-0.7,1.9-1.2s0.8-1.2,0.8-2
			c0-0.5-0.2-1.4-0.5-2.5c-0.3-1.2-0.8-2.6-1.3-4.3c-0.6-1.7-1.2-3.6-2-5.7c-0.7-2.1-1.6-4.2-2.4-6.5h-23c-0.9,2.2-1.7,4.3-2.5,6.3
			c-0.8,2-1.6,4-2.4,6c-1.2,3.1-1.8,5.3-1.8,6.6c0,0.7,0.2,1.4,0.7,1.9s1,0.9,1.8,1.2c0.7,0.3,1.5,0.5,2.3,0.7
			c0.8,0.1,1.6,0.3,2.4,0.4v0.9h-18.4v-0.9c1.5-0.2,2.8-0.6,3.8-1.2c1.1-0.6,1.7-1.1,1.9-1.3c0.4-0.4,1.1-1.4,2-2.8
			c0.9-1.5,2-3.7,3.4-6.6c1.2-2.7,2.6-5.8,4.1-9.2c1.5-3.5,3-7,4.6-10.7s3.2-7.3,4.7-11.1c1.6-3.7,3-7.2,4.4-10.4l-0.9-1.9
			c1-0.5,2-1,2.8-1.6s1.6-1.3,2.2-2s1.2-1.4,1.6-2s0.8-1.2,1-1.6h0.7c1.8,4.8,3.5,9.3,5.1,13.6c1.6,4.3,3.2,8.4,4.6,12.4
			c1.5,4,2.9,7.8,4.3,11.5s2.8,7.4,4.1,11c0.6,1.8,1.2,3.3,1.8,4.4c0.5,1.2,1.2,2.5,1.9,4c0.1,0.2,0.4,0.6,0.8,1.2
			c0.4,0.6,0.9,1.2,1.6,1.8s1.5,1.1,2.5,1.6s2.1,0.7,3.5,0.8v1h-25.5V134.5z M270.3,82.2c-0.3,0.7-0.8,1.9-1.5,3.5s-1.5,3.6-2.5,5.9
			s-2.1,4.9-3.2,7.8c-1.2,2.9-2.5,6.1-3.8,9.5h21.5c-1-2.6-2-5.2-3-7.8c-1-2.6-2-5.1-2.9-7.5s-1.8-4.6-2.6-6.6
			S270.8,83.5,270.3,82.2z"/>
		<path class="st0" d="M350.5,125c-1.1,2.2-2.7,4.1-4.7,5.6c-2,1.6-4.4,2.7-7.1,3.5c-2.8,0.7-5.8,1.1-9.1,1.1
			c-2.8,0-5.2-0.2-7.3-0.5c-2-0.3-3.7-0.8-5-1.3s-2.3-0.9-3-1.3c-0.7-0.4-1.1-0.6-1.3-0.6s-0.5,0.3-1.1,1s-1.1,1.4-1.6,2h-0.8
			l-0.3-17.2h0.9c0.5,1.6,1.2,3.1,2,4.5c0.8,1.5,1.7,2.8,2.6,4.1c0.9,1.3,2,2.4,3,3.4c1.1,1,2.1,1.7,3.1,2.2s2.3,1,3.9,1.6
			c1.6,0.5,3.2,0.8,4.7,0.8c4.3,0,7.7-1.2,10.4-3.5c2.6-2.3,4-5.5,4-9.5c0-1.6-0.3-3-0.8-4.2s-1.2-2.3-2.1-3.2
			c-0.9-0.9-1.9-1.7-3.2-2.3c-1.2-0.6-2.5-1.2-3.9-1.7s-2.6-0.9-3.6-1.3c-1-0.3-2-0.7-2.9-1s-1.8-0.6-2.8-0.9
			c-0.9-0.3-2.1-0.7-3.4-1.3c-1.5-0.6-2.9-1.4-4.3-2.4s-2.6-2.2-3.6-3.5c-1-1.4-1.9-2.8-2.5-4.5c-0.6-1.6-0.9-3.4-0.9-5.2
			c0-3.1,0.6-5.8,1.7-8s2.7-4.1,4.6-5.6s4.1-2.6,6.6-3.3c2.5-0.7,5.1-1.1,7.9-1.1c2.6,0,4.8,0.2,6.6,0.6c1.8,0.4,3.4,0.9,4.5,1.4
			c1.2,0.5,2.1,1,2.7,1.4s0.9,0.6,1,0.6c0.2,0,0.5-0.3,1.1-1c0.5-0.7,1-1.4,1.5-2.1h0.9v16H348c-0.7-1.9-1.6-3.8-2.7-5.7
			c-1.1-1.9-2.4-3.5-3.8-5s-3.1-2.7-4.9-3.6s-3.9-1.4-6.1-1.4c-1.8,0-3.5,0.3-5.1,0.8s-3,1.3-4.1,2.3c-1.2,1-2.1,2.3-2.8,3.8
			c-0.7,1.5-1,3.3-1,5.2c0,3.1,0.9,5.5,2.8,7.3c1.8,1.8,4.2,3.3,7.1,4.4c1.1,0.5,2.2,0.9,3.2,1.2c1,0.3,2,0.7,3,1s2,0.6,3,1
			c1,0.3,2.1,0.7,3.1,1.1c3.9,1.4,6.9,3.5,9.1,6.3c2.2,2.7,3.2,6.1,3.2,10.2C352.2,120.3,351.6,122.8,350.5,125z"/>
		<path class="st0" d="M212.4,72.4v0.8h0.9h0.1c1.1,0.2,2.3,0.5,3.6,0.9c1.1,0.4,2.1,1.1,2.8,2.1c0.2,0.4,0.4,0.8,0.7,1.2l3.6,6.3
			c-0.9,10.5-1.8,21.1-2.8,31.6c-0.1,0.9-0.2,1.8-0.2,2.6c-0.4,4.3-0.8,8.7-1.1,13.1c0,0.6-0.1,1.1-0.1,1.7
			c-0.1,0.6-0.1,1.2-0.2,1.8l0,0c0.6,0.9,1.1,1.8,1.7,2.7c0.5,0.8,1,1.6,1.5,2.5c0.9,1.5,1.7,2.9,2.6,4.4c0.2,0.3,0.3,0.5,0.5,0.8
			c0.2-0.3,0.3-0.5,0.5-0.8c0.8-1.4,1.7-2.9,2.6-4.4c0.5-0.8,1-1.7,1.5-2.5c0.6-0.9,1.1-1.8,1.7-2.7l0,0c0-0.4-0.1-0.9-0.1-1.3
			c-0.1-0.7-0.1-1.4-0.2-2.1c-0.3-3.4-0.6-6.7-0.9-10.1c-0.2-1.9-0.3-3.7-0.5-5.6c-0.9-10.5-1.8-21.1-2.8-31.6
			c1.2-2.1,2.4-4.2,3.6-6.3c0.2-0.4,0.4-0.8,0.7-1.2c0.7-1,1.6-1.7,2.7-2.1c1.3-0.4,2.5-0.7,3.6-0.9h0.1h1.1v-0.8L212.4,72.4
			L212.4,72.4L212.4,72.4z"/>
	</g>
</g>
<g id="Layer_2_1_" class="st1">
	<path class="st2" d="M58.5,133c-0.7,1.7-1.6,3.3-2.7,4.6c-1.1,1.3-2.4,2.5-3.9,3.4c-1.5,1-3,1.7-4.6,2.3s-3.3,1-5.2,1.3
		c-1.8,0.3-3.7,0.5-5.6,0.6c-1.9,0.1-3.7,0.2-5.5,0.2c-1.7,0-3.3,0-4.7,0c0,1.8,0,3.4,0,4.7s0,2.4,0,3.4s0,1.9,0,2.7s0,1.7,0,2.7
		c0.1,1.8,0.1,3.4,0.2,4.7s0.4,2.4,0.9,3.3c0.5,0.7,1.4,1.5,2.7,2.2c1.3,0.7,3.2,1.2,5.5,1.3v0.9H8.2v-0.9c1.4-0.2,2.8-0.6,4.1-1
		c1.3-0.5,2.4-1.2,3.1-2.1c0.3-0.3,0.5-0.9,0.7-1.6c0.2-0.7,0.3-1.5,0.4-2.3c0.1-0.9,0.2-1.8,0.2-2.8c0.1-1,0.1-1.9,0.1-2.8
		c0-0.8,0-1.9,0-3.3c0-1.4,0.1-2.9,0.1-4.5s0-3.3,0-5.1s0-3.5,0-5v-16.8c0-1,0-2.1,0-3.2s-0.1-2.1-0.2-3s-0.2-1.8-0.4-2.6
		c-0.2-0.8-0.5-1.3-0.8-1.7c-0.9-0.9-2-1.5-3.3-1.9c-1.4-0.3-2.8-0.6-4.4-0.8V109c0.3,0,1,0,2.1,0s2.4,0,3.8,0c1.5,0,3.1,0,4.8,0
		c1.7,0,3.4,0,5.1,0s3.3,0,4.8,0c1.6,0,2.8,0,3.9,0c3.8,0,7.2,0.2,10.1,0.6c2.9,0.4,5.7,1.3,8.3,2.7c2.5,1.4,4.6,3.3,6.3,5.9
		c1.7,2.5,2.5,5.5,2.5,9C59.5,129.3,59.2,131.2,58.5,133z M47.6,117.8c-1.7-2.6-3.9-4.5-6.7-5.9c-1.4-0.6-2.8-1.1-4.4-1.3
		c-1.6-0.2-3.2-0.3-4.8-0.3c-1.2,0-2.1,0-2.8,0.1c-0.7,0.1-1.2,0.2-1.6,0.2c-0.1,0.3-0.1,0.6-0.2,0.9s-0.2,0.6-0.2,1
		c-0.1,0.4-0.1,1-0.2,1.7s-0.1,1.7-0.2,3.1c-0.1,2-0.1,4.5-0.1,7.3c0,2.9,0,5.7,0,8.5s0,5.2,0,7.3s0,3.3,0,3.8
		c2.4,0,4.6-0.1,6.6-0.2c2.1-0.1,4-0.5,5.8-1.2c3.7-1.3,6.5-3.4,8.5-6.3c2-2.9,2.9-6.2,2.9-9.8C50.2,123.4,49.3,120.4,47.6,117.8z"
		/>
	<path class="st2" d="M127.3,111.7c-1.2,0.8-2.2,2-2.9,3.7c-0.2,0.4-0.3,1.1-0.5,2c-0.1,0.9-0.3,2-0.4,3.2s-0.2,2.5-0.3,3.8
		c-0.1,1.4-0.1,2.7-0.1,4c-0.1,2.5-0.1,5.2-0.2,8.3s-0.2,6.5-0.3,10.4c-0.1,1.1-0.1,2.5-0.2,4.1c-0.1,1.7-0.4,3.4-0.8,5.3
		c-0.5,1.9-1.2,3.7-2.2,5.6c-1,1.9-2.4,3.6-4.3,5.1c-1.8,1.5-4.2,2.7-7.1,3.6c-2.9,0.9-6.4,1.3-10.6,1.3c-4.1,0-7.6-0.4-10.5-1.3
		c-2.8-0.9-5.2-2-7-3.5s-3.3-3.1-4.3-4.8c-1-1.8-1.8-3.5-2.2-5.2c-0.5-1.7-0.8-3.3-0.9-4.7s-0.1-2.5-0.1-3.2c0-1.6,0-3.7,0-6.3
		s0-5.5,0-8.6V123c0-1,0-2.1,0-3.1s0-2-0.1-2.9s-0.2-1.7-0.4-2.4c-0.2-0.7-0.4-1.3-0.8-1.7c-0.8-1-1.8-1.7-3-2.1s-2.5-0.7-4-0.9V109
		H90v0.9c-0.8,0.1-1.7,0.3-2.6,0.5s-1.8,0.6-2.5,1.1s-1.4,1.2-1.9,2c-0.5,0.9-0.8,2-0.9,3.3c-0.1,1.5-0.1,2.8-0.1,4s0,2.3,0,3.4
		s0,2.2,0,3.5c0,1.2,0,2.5,0,4.1c0,2,0,3.7,0,5.3s0,3,0,4.4c0,1.3,0,2.6,0,3.8s0,2.5,0,3.9c0.1,3.1,0.5,5.8,1.4,8.3s2.1,4.6,3.6,6.4
		c1.6,1.8,3.5,3.1,5.7,4.1s4.8,1.4,7.7,1.4c3.3,0,6.1-0.4,8.3-1.1c2.3-0.7,4.2-1.8,5.7-3.1s2.7-2.8,3.6-4.6c0.9-1.7,1.6-3.6,2-5.5
		c0.4-2,0.7-4,0.9-6c0.1-2,0.2-4,0.2-6c0-1.6,0-3,0-4.2c0-1.3,0-2.4,0-3.5c0-1.2,0-2.3,0-3.4c0-1.2,0-2.3,0-3.5s0-2.3,0-3.5
		s-0.1-2.4-0.1-3.5c-0.1-1.1-0.1-2.1-0.3-3.1c-0.1-1-0.3-1.7-0.5-2.3c-0.6-1.6-1.6-2.9-3-3.9s-3.5-1.7-6.3-2.1v-0.9h21.4v0.9
		C130.3,110.4,128.6,110.9,127.3,111.7z"/>
	<path class="st2" d="M350.5,161.8c-1.1,2.2-2.7,4.1-4.7,5.6c-2,1.6-4.4,2.7-7.1,3.5c-2.8,0.7-5.8,1.1-9.1,1.1
		c-2.8,0-5.2-0.2-7.3-0.5c-2-0.3-3.7-0.8-5-1.3s-2.3-0.9-3-1.3c-0.7-0.4-1.1-0.6-1.3-0.6s-0.5,0.3-1.1,1s-1.1,1.4-1.6,2h-0.8
		l-0.3-17.2h0.9c0.5,1.6,1.2,3.1,2,4.5c0.8,1.5,1.7,2.8,2.6,4.1s2,2.4,3,3.4c1.1,1,2.1,1.7,3.1,2.2s2.3,1,3.9,1.6
		c1.6,0.5,3.2,0.8,4.7,0.8c4.3,0,7.7-1.2,10.4-3.5c2.6-2.3,4-5.5,4-9.5c0-1.6-0.3-3-0.8-4.2s-1.2-2.3-2.1-3.2s-1.9-1.7-3.2-2.3
		c-1.2-0.6-2.5-1.2-3.9-1.7s-2.6-0.9-3.6-1.3c-1-0.3-2-0.7-2.9-1s-1.8-0.6-2.8-0.9c-0.9-0.3-2.1-0.7-3.4-1.3
		c-1.5-0.6-2.9-1.4-4.3-2.4s-2.6-2.2-3.6-3.5c-1-1.4-1.9-2.8-2.5-4.5c-0.6-1.6-0.9-3.4-0.9-5.2c0-3.1,0.6-5.8,1.7-8s2.7-4.1,4.6-5.6
		s4.1-2.6,6.6-3.3c2.5-0.7,5.1-1.1,7.9-1.1c2.6,0,4.8,0.2,6.6,0.6c1.8,0.4,3.4,0.9,4.5,1.4c1.2,0.5,2.1,1,2.7,1.4s0.9,0.6,1,0.6
		c0.2,0,0.5-0.3,1.1-1c0.5-0.7,1-1.4,1.5-2.1h0.9v16H348c-0.7-1.9-1.6-3.8-2.7-5.7c-1.1-1.9-2.4-3.5-3.8-5s-3.1-2.7-4.9-3.6
		s-3.9-1.4-6.1-1.4c-1.8,0-3.5,0.3-5.1,0.8s-3,1.3-4.1,2.3c-1.2,1-2.1,2.3-2.8,3.8c-0.7,1.5-1,3.3-1,5.2c0,3.1,0.9,5.5,2.8,7.3
		c1.8,1.8,4.2,3.3,7.1,4.4c1.1,0.5,2.2,0.9,3.2,1.2s2,0.7,3,1s2,0.6,3,1c1,0.3,2.1,0.7,3.1,1.1c3.9,1.4,6.9,3.5,9.1,6.3
		c2.2,2.7,3.2,6.1,3.2,10.2C352.2,157.1,351.6,159.6,350.5,161.8z"/>
	<path class="st2" d="M303.3,169.6c-1-0.5-1.8-1-2.5-1.6s-1.2-1.2-1.6-1.8s-0.7-1-0.8-1.2c-0.7-1.5-1.3-2.8-1.9-4s-1.1-2.7-1.8-4.5
		c-1.4-3.6-2.8-7.3-4.2-11c-1.4-3.7-2.8-7.6-4.3-11.5c-1.5-4-3-8.1-4.6-12.4c-1.5-3.9-3-8-4.6-12.4c-0.2-0.4-0.3-0.8-0.5-1.2H276
		c-0.2,0.3-0.4,0.7-0.8,1.2h-38.7c0,0,0,0-0.1,0c-1,0.2-2,0.4-3.1,0.8c-1,0.3-1.8,0.9-2.4,1.8c-0.2,0.4-0.4,0.7-0.6,1
		c-1,1.8-2,3.7-3.1,5.5c0.8,9.2,1.6,18.3,2.4,27.5c0.1,1.6,0.3,3.2,0.4,4.9c0.3,2.9,0.5,5.8,0.8,8.8c0,0.6,0.1,1.2,0.2,1.9
		c0,0.4,0.1,0.8,0.1,1.1l0,0c-0.5,0.8-1,1.5-1.5,2.3c-0.4,0.7-0.9,1.4-1.3,2.1c-0.8,1.3-1.5,2.5-2.2,3.8c-0.1,0.2-0.3,0.5-0.4,0.7
		h14.7h18.4v-0.9c-0.8-0.1-1.5-0.2-2.4-0.4c-0.8-0.1-1.6-0.4-2.3-0.7s-1.3-0.7-1.8-1.2s-0.7-1.1-0.7-1.9c0-1.3,0.6-3.5,1.8-6.6
		c0.8-2,1.6-4,2.4-6s1.6-4.1,2.5-6.3h23c0.9,2.2,1.7,4.4,2.4,6.5c0.8,2.1,1.4,4,2,5.7s1,3.1,1.3,4.3s0.5,2,0.5,2.5
		c0,0.8-0.3,1.5-0.8,2s-1.2,0.9-1.9,1.2c-0.7,0.3-1.4,0.5-2.1,0.6s-1.1,0.2-1.3,0.2v0.9h25.2v-1C305.5,170.3,304.3,170,303.3,169.6z
		 M259.2,145.7c1.4-3.4,2.7-6.5,3.8-9.5c1.2-2.9,2.3-5.5,3.2-7.8c1-2.3,1.8-4.3,2.5-5.9s1.2-2.8,1.5-3.5c0.5,1.3,1.2,2.9,2,4.9
		s1.6,4.2,2.6,6.6s1.9,4.9,2.9,7.5s2,5.2,3,7.8h-21.5V145.7z"/>
	<path class="st2" d="M225.4,170.7c-0.7-1.3-1.5-2.5-2.2-3.8c-0.4-0.7-0.9-1.4-1.3-2.1c-0.5-0.8-1-1.5-1.5-2.3l0,0
		c0-0.5,0.1-1,0.1-1.6c0-0.5,0.1-0.9,0.1-1.4c0.3-3.8,0.7-7.5,1-11.3c0.1-0.8,0.1-1.5,0.2-2.3c0.8-9.2,1.6-18.3,2.4-27.5l-3.1-5.5
		c-0.2-0.3-0.4-0.7-0.6-1c-0.6-0.9-1.4-1.5-2.4-1.8c-1.1-0.4-2.1-0.6-3.1-0.8c0,0,0,0-0.1,0h-8.7h-21.4v0.9c2.8,0.4,4.9,1.1,6.3,2.1
		c1.5,1,2.5,2.3,3.1,3.9c0.5,1.2,0.7,2.9,0.8,5c0,2.1,0.1,4.3,0.1,6.6V157l-40.9-47.8h-17.5v0.9c0.9,0.1,1.9,0.3,2.9,0.6
		c1,0.3,1.9,0.7,2.8,1.3c0.9,0.6,1.6,1.4,2.2,2.5c0.6,1.1,1,2.4,1.2,4.1c0.1,1.7,0.1,3.1,0.1,4.2v10.5c0,3.8,0,7.5-0.1,10.8
		c0,3.4-0.1,6.3-0.2,8.8c-0.1,3.3-0.3,6.1-0.5,8.5s-0.8,4.1-1.6,5.3c-0.8,1.3-1.9,2.2-3.3,2.7s-2.8,0.9-4.1,1.1v0.9h21.2v-0.9
		c-2.4-0.3-4.2-0.8-5.6-1.4c-1.4-0.7-2.4-1.6-3-3c-0.6-1.1-0.9-2.9-1.1-5.3c-0.1-2.4-0.2-5-0.2-7.9v-36.4c3.9,4.4,7.6,8.6,11.1,12.7
		s7.1,8.3,10.8,12.6s7.5,8.8,11.5,13.5s8.5,9.9,13.4,15.5c0.3,0.3,0.5,0.5,0.8,0.6c0.3,0.2,0.6,0.3,0.8,0.3c0.3,0,0.5-0.1,0.6-0.2
		l0,0h29.2C225.6,171.1,225.5,170.9,225.4,170.7z"/>
</g>
</svg>
