<?xml version="1.0" encoding="utf-8"?>
<!-- Generator: Adobe Illustrator 22.0.1, SVG Export Plug-In . SVG Version: 6.00 Build 0)  -->
<svg version="1.1" id="Capa_1" xmlns="http://www.w3.org/2000/svg" xmlns:xlink="http://www.w3.org/1999/xlink" x="0px" y="0px"
	 viewBox="0 0 512 512" style="enable-background:new 0 0 512 512;" xml:space="preserve">
<style type="text/css">
	.st0{fill:#FFFFFF;}
</style>
<g>
	<g>
		<path class="st0" d="M510.9,388.5c-4.3-14.1-12-26.9-22.5-37.3c-16.7-16.8-39.4-26.2-63-26.1c-12.1,0-24,2.5-35.2,7.2l-87.7-87.7
			L419,129.1l27.6-0.8c3.3-0.1,6.4-1.9,8.1-4.8l39.4-66.3c2.3-3.8,1.7-8.7-1.5-11.9l-34.1-34.1c-3.2-3.2-8.1-3.8-11.9-1.5
			l-66.3,39.4c-2.9,1.7-4.7,4.7-4.8,8.1l-0.8,27.5l-116,116L179,121c8.4-48.5-24.2-94.6-72.7-103c-22.5-3.9-45.6,1-64.6,13.7
			c-4.5,3-5.6,9.1-2.6,13.5c0.8,1.3,2,2.3,3.3,3l44.2,24.6c9.7,5.6,11.7,22.1,3.8,36.1s-23,21.2-32.8,15.8l-41-22.2
			c-4.7-2.6-10.6-0.9-13.2,3.8c-0.9,1.6-1.3,3.5-1.2,5.3C5.3,160.7,47.6,198,96.7,195c10.1-0.6,20.1-3,29.5-7l72.5,72.5L167.3,292
			l-7.1-7c-7.9-7.5-20.3-7.5-28.1,0l-9.7,9.7c-7.4,7.2-7.9,19-1.1,26.8L6,436.5c-7.8,7.4-8,19.8-0.6,27.5c0.2,0.2,0.4,0.4,0.6,0.6
			l32.9,32.9c7.4,7.8,19.8,8,27.5,0.6c0.2-0.2,0.4-0.4,0.6-0.6l115.3-115.2c7.8,6.8,19.6,6.3,26.8-1.1l9.7-9.7
			c7.8-7.4,8-19.8,0.6-27.5c-0.2-0.2-0.4-0.4-0.6-0.6l-7.1-7.1l31.2-31.8l94.5,94.5c-8.2,48.5,24.6,94.5,73.1,102.7
			c28.7,4.8,58-4.7,78.4-25.5c3.6-4,3.2-10.2-0.8-13.8c-1-0.9-2.3-1.6-3.6-2l-54.8-14.7c-5.4-1.7-9.6-5.9-11.5-11.2
			c-2.8-7.3-3.2-15.4-1-23c4.1-15.3,17-26.2,28-23.3l54.2,14.6c0.9,0.1,1.8,0.1,2.6,0c5.4,0.1,9.8-4.2,9.9-9.6
			C512,391.5,511.6,389.9,510.9,388.5z M391,95.6c1.8-1.8,2.8-4.1,2.8-6.6l0.8-26l55.2-32.8l23.4,23.4l-32.1,55.1l-26.5,1
			c-2.5,0.1-4.9,1.1-6.6,2.8L289.1,231.2l-16.8-16.8L391,95.6z M53.2,483.7l-33.4-33.2L135.6,335l16.8,16.8l16,16.6L53.2,483.7z
			 M195.7,366.9l-12.9-13l-5-5L137,307.7l9.7-9.7l58.4,59.2L195.7,366.9z M197.6,322.4l-16.8-16.8l31.4-31.4L229,291L197.6,322.4z
			 M450,369.3c-2.9-0.8-5.9-1.2-8.9-1.2c-21.2,1.7-38.8,17.3-43,38.2c-3.3,11.7-2.7,24.2,1.9,35.5c4.2,10.9,13.2,19.2,24.4,22.4
			l36.2,9.7c-33,19.7-75.8,8.9-95.5-24.2c-9.2-15.5-12.1-34-8-51.6c0.7-3.3-0.3-6.7-2.6-9.1L135.2,169.4c-3.1-2.9-7.8-3.5-11.5-1.4
			c-10.1,5.3-21.3,8.1-32.6,8.1c-29.3,0-55.5-18.3-65.4-45.9l22.2,12.4c5.2,2.9,11,4.4,16.9,4.4c18-1,34.2-11.6,42.4-27.7
			c13.2-23.7,8.1-51.8-11.4-62.7l-28.4-16c36.2-12.9,76.1,5.9,89,42.2c4.5,12.6,5.3,26.2,2.3,39.2c-0.7,3.3,0.3,6.7,2.6,9.1
			l220,219.9c3,3,7.6,3.7,11.4,1.8c10.1-5.3,21.3-8.1,32.6-8.1c24.7,0,47.5,13,60,34.3L450,369.3z"/>
	</g>
</g>
</svg>
