<?xml version="1.0" encoding="utf-8"?>
<!-- Generator: Adobe Illustrator 22.0.1, SVG Export Plug-In . SVG Version: 6.00 Build 0)  -->
<svg version="1.1" id="Layer_1" xmlns="http://www.w3.org/2000/svg" xmlns:xlink="http://www.w3.org/1999/xlink" x="0px" y="0px"
	 viewBox="0 0 10 12" style="enable-background:new 0 0 10 12;" xml:space="preserve">
<style type="text/css">
	.st0{fill:#DDDDDD;}
</style>
<g>
	<path class="st0" d="M-0.08-0.22L-0.08-0.22L-0.08-0.22L-0.08-0.22c0.01,0.01,0.02,0.01,0.03,0.01S-0.04-0.2-0.03-0.2
		c0,0,0,0,0,0.01l0.02,0.04c-0.01,0.06-0.01,0.13-0.02,0.19c0,0.01,0,0.01,0,0.02c0,0.03,0,0.05-0.01,0.08v0.01v0.01l0,0
		c0,0.01,0.01,0.01,0.01,0.02l0.01,0.01c0.01,0,0.01,0.01,0.02,0.02l0,0l0,0C0,0.2,0.01,0.19,0.02,0.18l0.01-0.01
		c0-0.01,0.01-0.01,0.01-0.02l0,0V0.14V0.13c0-0.02,0-0.04-0.01-0.06c0-0.01,0-0.02,0-0.03C0.02-0.02,0.02-0.09,0.01-0.15
		c0.01-0.01,0.01-0.03,0.02-0.04c0,0,0,0,0-0.01s0.01-0.01,0.02-0.01s0.01,0,0.02-0.01l0,0h0.01l0,0L-0.08-0.22L-0.08-0.22
		L-0.08-0.22z"/>
	<path class="st0" d="M0.83-0.22L0.83-0.22L0.83-0.22L0.83-0.22c0.01,0.01,0.02,0.01,0.03,0.01S0.87-0.2,0.88-0.2c0,0,0,0,0,0.01
		L0.9-0.15C0.89-0.09,0.89-0.02,0.88,0.04c0,0.01,0,0.01,0,0.02c0,0.03,0,0.05-0.01,0.08v0.01v0.01l0,0c0,0.01,0.01,0.01,0.01,0.02
		l0.01,0.01c0.01,0,0.01,0.01,0.02,0.02l0,0l0,0c0-0.01,0.01-0.02,0.02-0.03l0.01-0.01c0-0.01,0.01-0.01,0.01-0.02l0,0V0.14V0.13
		c0-0.02,0-0.04-0.01-0.06c0-0.01,0-0.02,0-0.03C0.93-0.02,0.93-0.09,0.92-0.15c0.01-0.01,0.01-0.03,0.02-0.04c0,0,0,0,0-0.01
		s0.01-0.01,0.02-0.01s0.01,0,0.02-0.01l0,0h0.01l0,0L0.83-0.22L0.83-0.22L0.83-0.22z"/>
	<path class="st0" d="M1.74-0.22L1.74-0.22L1.74-0.22L1.74-0.22c0.01,0.01,0.02,0.01,0.03,0.01S1.78-0.2,1.79-0.2c0,0,0,0,0,0.01
		l0.02,0.04C1.8-0.09,1.8-0.02,1.79,0.04c0,0.01,0,0.01,0,0.02c0,0.03,0,0.05-0.01,0.08v0.01v0.01l0,0c0,0.01,0.01,0.01,0.01,0.02
		L1.8,0.19c0.01,0,0.01,0.01,0.01,0.02l0,0l0,0c0-0.01,0.01-0.02,0.02-0.03l0.01-0.01c0-0.01,0.01-0.01,0.01-0.02l0,0V0.14V0.13
		c0-0.02,0-0.04-0.01-0.06c0-0.01,0-0.02,0-0.03c0-0.06-0.01-0.13-0.01-0.19c0.01-0.01,0.01-0.03,0.02-0.04c0,0,0,0,0-0.01
		s0.01-0.01,0.02-0.01s0.01,0,0.02-0.01l0,0H1.9l0,0L1.74-0.22L1.74-0.22L1.74-0.22z"/>
	<path class="st0" d="M2.65-0.22L2.65-0.22L2.65-0.22L2.65-0.22c0.01,0.01,0.02,0.01,0.03,0.01S2.69-0.2,2.7-0.2c0,0,0,0,0,0.01
		l0.02,0.04C2.71-0.09,2.71-0.02,2.7,0.04c0,0.01,0,0.01,0,0.02c0,0.03,0,0.05-0.01,0.08v0.01v0.01l0,0c0,0.01,0.01,0.01,0.01,0.02
		l0.01,0.01c0,0,0.01,0.01,0.01,0.02l0,0l0,0c0-0.01,0.01-0.02,0.02-0.03l0.01-0.01c0-0.01,0.01-0.01,0.01-0.02l0,0V0.14V0.13
		c0-0.02,0-0.04-0.01-0.06c0-0.01,0-0.02,0-0.03c0-0.06-0.01-0.13-0.01-0.19c0.01-0.01,0.01-0.03,0.02-0.04c0,0,0,0,0-0.01
		s0.01-0.01,0.02-0.01s0.01,0,0.02-0.01l0,0h0.01l0,0L2.65-0.22L2.65-0.22L2.65-0.22z"/>
	<path class="st0" d="M3.56-0.22L3.56-0.22L3.56-0.22L3.56-0.22c0.01,0.01,0.02,0.01,0.03,0.01C3.59-0.2,3.6-0.2,3.6-0.19
		c0,0,0,0,0,0.01l0.02,0.04c0,0.05-0.01,0.12-0.01,0.18c0,0.01,0,0.01,0,0.02c0,0.03,0,0.05-0.01,0.08v0.01v0.01l0,0
		c0,0.01,0.01,0.01,0.01,0.02l0.01,0.01c0,0,0.01,0.01,0.01,0.02l0,0l0,0c0-0.01,0.01-0.02,0.02-0.03l0.01-0.01
		c0-0.01,0.01-0.01,0.01-0.02l0,0V0.14V0.13c0-0.02,0-0.04-0.01-0.06c0-0.01,0-0.02,0-0.03c0-0.06-0.01-0.13-0.01-0.19
		c0.01-0.01,0.01-0.03,0.02-0.04c0,0,0,0,0-0.01s0.01-0.01,0.02-0.01s0.01,0,0.02-0.01l0,0h0.01l0,0L3.56-0.22L3.56-0.22L3.56-0.22z
		"/>
	<path class="st0" d="M4.46-0.22L4.46-0.22L4.46-0.22L4.46-0.22c0.01,0.01,0.02,0.01,0.03,0.01C4.5-0.2,4.5-0.2,4.51-0.19
		c0,0,0,0,0,0.01l0.02,0.04c0,0.05-0.01,0.12-0.01,0.18c0,0.01,0,0.01,0,0.02c0,0.03,0,0.05-0.01,0.08v0.01v0.01l0,0
		c0,0.01,0.01,0.01,0.01,0.02l0.01,0.01c0,0,0.01,0.01,0.01,0.02l0,0l0,0c0-0.01,0.01-0.02,0.02-0.03l0.01-0.01
		c0-0.01,0.01-0.01,0.01-0.02l0,0V0.14V0.13c0-0.02,0-0.04-0.01-0.06c0-0.01,0-0.02,0-0.03c0-0.06-0.01-0.13-0.01-0.19
		c0.01-0.01,0.01-0.03,0.02-0.04c0,0,0,0,0-0.01c0.01,0,0.01,0,0.02,0c0.01,0,0.01,0,0.02-0.01l0,0h0.01l0,0L4.46-0.22L4.46-0.22
		L4.46-0.22z"/>
	<path class="st0" d="M5.37-0.22L5.37-0.22L5.37-0.22L5.37-0.22C5.39-0.21,5.39-0.21,5.4-0.21S5.41-0.2,5.42-0.2c0,0,0,0,0,0.01
		l0.02,0.04c0,0.06-0.01,0.13-0.01,0.19c0,0.01,0,0.01,0,0.02c0,0.03,0,0.05-0.01,0.08v0.01v0.01l0,0c0,0.01,0.01,0.01,0.01,0.02
		l0.01,0.01c0,0,0.01,0.01,0.01,0.02l0,0l0,0c0-0.01,0.01-0.02,0.02-0.03l0.01-0.01c0-0.01,0.01-0.01,0.01-0.02l0,0V0.14V0.13
		c0-0.02,0-0.04-0.01-0.06c0-0.01,0-0.02,0-0.03c0-0.06-0.01-0.13-0.01-0.19c0.01-0.01,0.01-0.03,0.02-0.04c0,0,0,0,0-0.01
		c0,0,0.01,0,0.02,0s0.01,0,0.02-0.01l0,0h0.01l0,0L5.37-0.22L5.37-0.22L5.37-0.22z"/>
	<path class="st0" d="M6.28-0.22L6.28-0.22L6.28-0.22L6.28-0.22C6.3-0.21,6.3-0.21,6.31-0.21c0.01,0,0.01,0.01,0.02,0.01
		c0,0,0,0,0,0.01l0.02,0.04c0,0.06-0.01,0.13-0.01,0.19c0,0.01,0,0.01,0,0.02c0,0.03,0,0.05-0.01,0.08v0.01v0.01l0,0
		c0,0.01,0.01,0.01,0.01,0.02l0.01,0.01c0,0,0.01,0.01,0.01,0.02l0,0l0,0c0-0.01,0.01-0.02,0.02-0.03l0.01-0.01
		c0-0.01,0.01-0.01,0.01-0.02l0,0V0.14V0.13c0-0.02,0-0.04-0.01-0.06c0-0.01,0-0.02,0-0.03c0-0.06-0.01-0.13-0.02-0.19
		C6.38-0.16,6.39-0.17,6.4-0.19c0,0,0,0,0-0.01c0,0,0.01,0,0.02,0s0.01,0,0.02-0.01l0,0h0.01l0,0L6.28-0.22L6.28-0.22L6.28-0.22z"/>
	<path class="st0" d="M7.19-0.22L7.19-0.22L7.19-0.22L7.19-0.22C7.2-0.21,7.21-0.21,7.22-0.21c0.01,0,0.01,0.01,0.02,0.01
		c0,0,0,0,0,0.01l0.02,0.04c0,0.06-0.01,0.13-0.02,0.19c0,0.01,0,0.01,0,0.02c0,0.03,0,0.05-0.01,0.08v0.01v0.01l0,0
		c0,0.01,0.01,0.01,0.01,0.02l0.01,0.01c0.01,0,0.01,0.01,0.02,0.02l0,0l0,0c0-0.01,0.01-0.02,0.02-0.03L7.3,0.17
		c0-0.01,0.01-0.01,0.01-0.02l0,0V0.14V0.13c0-0.02,0-0.04-0.01-0.06c0-0.01,0-0.02,0-0.03C7.29-0.02,7.29-0.09,7.28-0.15
		C7.29-0.16,7.3-0.17,7.3-0.19c0,0,0,0,0-0.01s0.01-0.01,0.02-0.01c0.01,0,0.01,0,0.02-0.01l0,0h0.01l0,0L7.19-0.22L7.19-0.22
		L7.19-0.22z"/>
	<path class="st0" d="M8.1-0.22L8.1-0.22L8.1-0.22L8.1-0.22c0.01,0.01,0.02,0.01,0.03,0.01c0.01,0,0.01,0.01,0.02,0.01
		c0,0,0,0,0,0.01l0.02,0.04c0,0.06-0.01,0.13-0.02,0.19c0,0.01,0,0.01,0,0.02c0,0.03,0,0.05-0.01,0.08v0.01v0.01l0,0
		c0,0.01,0.01,0.01,0.01,0.02l0.01,0.01c0.01,0,0.01,0.01,0.02,0.02l0,0l0,0c0-0.01,0.01-0.02,0.02-0.03l0.01-0.01
		c0-0.01,0.01-0.01,0.01-0.02l0,0V0.14V0.13c0-0.02,0-0.04-0.01-0.06c0-0.01,0-0.02,0-0.03C8.2-0.02,8.2-0.09,8.19-0.15
		C8.2-0.16,8.21-0.17,8.21-0.19c0,0,0,0,0-0.01s0.01-0.01,0.02-0.01s0.01,0,0.02-0.01l0,0h0.01l0,0L8.1-0.22L8.1-0.22L8.1-0.22z"/>
	<path class="st0" d="M9.01-0.22L9.01-0.22L9.01-0.22L9.01-0.22c0.01,0.01,0.02,0.01,0.03,0.01c0.01,0,0.01,0.01,0.02,0.01
		c0,0,0,0,0,0.01l0.02,0.04C9.07-0.09,9.07-0.02,9.06,0.04c0,0.01,0,0.01,0,0.02c0,0.03,0,0.05-0.01,0.08v0.01v0.01l0,0
		c0,0.01,0.01,0.01,0.01,0.02l0.01,0.01c0.01,0,0.01,0.01,0.02,0.02l0,0l0,0c0-0.01,0.01-0.02,0.02-0.03l0.01-0.01
		c0-0.01,0.01-0.01,0.01-0.02l0,0V0.14V0.13c0-0.02,0-0.04-0.01-0.06c0-0.01,0-0.02,0-0.03C9.11-0.02,9.11-0.09,9.1-0.15
		c0.01-0.01,0.01-0.03,0.02-0.04c0,0,0,0,0-0.01s0.01-0.01,0.02-0.01s0.01,0,0.02-0.01l0,0h0.01l0,0L9.01-0.22L9.01-0.22L9.01-0.22z
		"/>
	<path class="st0" d="M9.92-0.22L9.92-0.22L9.92-0.22L9.92-0.22c0.01,0.01,0.02,0.01,0.03,0.01c0.01,0,0.01,0.01,0.02,0.01
		c0,0,0,0,0,0.01l0.02,0.04C9.98-0.09,9.98-0.02,9.97,0.04c0,0.01,0,0.01,0,0.02c0,0.03,0,0.05-0.01,0.08v0.01v0.01l0,0
		c0,0.01,0.01,0.01,0.01,0.02l0.01,0.01c0.01,0,0.01,0.01,0.02,0.02l0,0l0,0c0-0.01,0.01-0.02,0.02-0.03l0.01-0.01
		c0-0.01,0.01-0.01,0.01-0.02l0,0V0.14V0.13c0-0.02,0-0.04-0.01-0.06c0-0.01,0-0.02,0-0.03c-0.01-0.06-0.01-0.13-0.02-0.19
		c0.01-0.01,0.01-0.03,0.02-0.04c0,0,0,0,0-0.01s0.01-0.01,0.02-0.01s0.01,0,0.02-0.01l0,0h0.01l0,0L9.92-0.22L9.92-0.22L9.92-0.22z
		"/>
</g>
<g>
	<path class="st0" d="M-0.08,0.88L-0.08,0.88L-0.08,0.88L-0.08,0.88c0.01,0.01,0.02,0.01,0.03,0.01S-0.04,0.9-0.03,0.9
		c0,0,0,0,0,0.01l0.02,0.04c-0.01,0.06-0.01,0.13-0.02,0.19c0,0.01,0,0.01,0,0.02c0,0.03,0,0.05-0.01,0.08v0.01v0.01l0,0
		c0,0.01,0.01,0.01,0.01,0.02l0.01,0.01c0.01-0.01,0.01,0,0.02,0.01l0,0l0,0c0-0.01,0.01-0.02,0.02-0.03l0.01-0.01
		c0-0.01,0.01-0.01,0.01-0.02l0,0V1.23V1.22c0-0.02,0-0.04-0.01-0.06c0-0.01,0-0.02,0-0.03C0.02,1.07,0.02,1.01,0.01,0.94
		C0.02,0.93,0.02,0.91,0.03,0.9c0,0,0,0,0-0.01s0.01-0.01,0.02-0.01s0.01,0,0.02-0.01l0,0h0.01l0,0L-0.08,0.88L-0.08,0.88
		L-0.08,0.88z"/>
	<path class="st0" d="M0.83,0.88L0.83,0.88L0.83,0.88L0.83,0.88c0.01,0.01,0.02,0.01,0.03,0.01S0.87,0.9,0.88,0.9c0,0,0,0,0,0.01
		L0.9,0.94C0.89,1.01,0.89,1.07,0.88,1.13c0,0.01,0,0.01,0,0.02c0,0.03,0,0.05-0.01,0.08v0.01v0.01l0,0c0,0.01,0.01,0.01,0.01,0.02
		l0.01,0.01c0.01,0,0.01,0.01,0.02,0.02l0,0l0,0c0-0.01,0.01-0.02,0.02-0.03l0.01-0.01c0-0.01,0.01-0.01,0.01-0.02l0,0V1.23V1.22
		c0-0.02,0-0.04-0.01-0.06c0-0.01,0-0.02,0-0.03C0.93,1.07,0.93,1.01,0.92,0.94C0.93,0.93,0.93,0.91,0.94,0.9c0,0,0,0,0-0.01
		s0.01-0.01,0.02-0.01s0.01,0,0.02-0.01l0,0h0.01l0,0L0.83,0.88L0.83,0.88L0.83,0.88z"/>
	<path class="st0" d="M1.74,0.88L1.74,0.88L1.74,0.88L1.74,0.88c0.01,0.01,0.02,0.01,0.03,0.01S1.78,0.9,1.79,0.9c0,0,0,0,0,0.01
		l0.02,0.04C1.8,1.01,1.8,1.07,1.79,1.13c0,0.01,0,0.01,0,0.02c0,0.03,0,0.05-0.01,0.08v0.01v0.01l0,0c0,0.01,0.01,0.01,0.01,0.02
		L1.8,1.28c0.01,0,0.01,0.01,0.01,0.02l0,0l0,0c0-0.01,0.01-0.02,0.02-0.03l0.01-0.01c0-0.01,0.01-0.01,0.01-0.02l0,0V1.23V1.22
		c0-0.02,0-0.04-0.01-0.06c0-0.01,0-0.02,0-0.03c0-0.06-0.01-0.12-0.01-0.19C1.84,0.93,1.84,0.91,1.85,0.9c0,0,0,0,0-0.01
		s0.01-0.01,0.02-0.01s0.01,0,0.02-0.01l0,0H1.9l0,0L1.74,0.88L1.74,0.88L1.74,0.88z"/>
	<path class="st0" d="M2.65,0.88L2.65,0.88L2.65,0.88L2.65,0.88c0.01,0.01,0.02,0.01,0.03,0.01S2.69,0.9,2.7,0.9c0,0,0,0,0,0.01
		l0.02,0.04C2.71,1.01,2.71,1.07,2.7,1.13c0,0.01,0,0.01,0,0.02c0,0.03,0,0.05-0.01,0.08v0.01v0.01l0,0c0,0.01,0.01,0.01,0.01,0.02
		l0.01,0.01c0,0,0.01,0.01,0.01,0.02l0,0l0,0c0-0.01,0.01-0.02,0.02-0.03l0.01-0.01c0-0.01,0.01-0.01,0.01-0.02l0,0V1.23V1.22
		c0-0.02,0-0.04-0.01-0.06c0-0.01,0-0.02,0-0.03c0-0.06-0.01-0.12-0.01-0.19C2.75,0.93,2.75,0.91,2.76,0.9c0,0,0,0,0-0.01
		s0.01-0.01,0.02-0.01s0.01,0,0.02-0.01l0,0h0.01l0,0L2.65,0.88L2.65,0.88L2.65,0.88z"/>
	<path class="st0" d="M3.56,0.88L3.56,0.88L3.56,0.88L3.56,0.88c0.01,0.01,0.02,0.01,0.03,0.01S3.6,0.9,3.61,0.9c0,0,0,0,0,0.01
		l0.02,0.04C3.62,1.01,3.61,1.07,3.61,1.13c0,0.01,0,0.01,0,0.02c0,0.03,0,0.05-0.01,0.08v0.01v0.01l0,0c0,0.01,0.01,0.01,0.01,0.02
		l0.01,0.01c0,0,0.01,0.01,0.01,0.02l0,0l0,0c0-0.01,0.01-0.02,0.02-0.03l0.01-0.01c0-0.01,0.01-0.01,0.01-0.02l0,0V1.23V1.22
		c0-0.02,0-0.04-0.01-0.06c0-0.01,0-0.02,0-0.03c0-0.06-0.01-0.12-0.01-0.19C3.66,0.93,3.66,0.91,3.67,0.9c0,0,0,0,0-0.01
		s0.01-0.01,0.02-0.01s0.01,0,0.02-0.01l0,0h0.01l0,0L3.56,0.88L3.56,0.88L3.56,0.88z"/>
	<path class="st0" d="M4.46,0.88L4.46,0.88L4.46,0.88L4.46,0.88c0.01,0.01,0.02,0.01,0.03,0.01S4.5,0.9,4.51,0.9c0,0,0,0,0,0.01
		l0.02,0.04c0,0.06-0.01,0.12-0.01,0.18c0,0.01,0,0.01,0,0.02c0,0.03,0,0.05-0.01,0.08v0.01v0.01l0,0c0,0.01,0.01,0.01,0.01,0.02
		l0.01,0.01c0,0,0.01,0.01,0.01,0.02l0,0l0,0c0-0.01,0.01-0.02,0.02-0.03l0.01-0.01c0-0.01,0.01-0.01,0.01-0.02l0,0V1.23V1.22
		c0-0.02,0-0.04-0.01-0.06c0-0.01,0-0.02,0-0.03c0-0.06-0.01-0.12-0.01-0.19C4.57,0.93,4.57,0.91,4.58,0.9c0,0,0,0,0-0.01
		S4.59,0.88,4.6,0.88c0.01,0,0.01,0,0.02-0.01l0,0h0.01l0,0L4.46,0.88L4.46,0.88L4.46,0.88z"/>
	<path class="st0" d="M5.37,0.88L5.37,0.88L5.37,0.88L5.37,0.88c0.02,0,0.02,0,0.03,0.01c0.01,0,0.01,0.01,0.02,0.01c0,0,0,0,0,0.01
		l0.02,0.04c0,0.06-0.01,0.12-0.01,0.18c0,0.01,0,0.01,0,0.02c0,0.03,0,0.05-0.01,0.08v0.01v0.01l0,0c0,0.01,0.01,0.01,0.01,0.02
		l0.01,0.01c0,0,0.01,0.01,0.01,0.02l0,0l0,0c0-0.01,0.01-0.02,0.02-0.03l0.01-0.01c0-0.01,0.01-0.01,0.01-0.02l0,0V1.23V1.22
		c0-0.02,0-0.04-0.01-0.06c0-0.01,0-0.02,0-0.03c0-0.06-0.01-0.12-0.01-0.19C5.48,0.93,5.48,0.91,5.49,0.9c0,0,0,0,0-0.01
		S5.5,0.88,5.51,0.88c0.01,0,0.01,0,0.02-0.01l0,0h0.01l0,0L5.37,0.88L5.37,0.88L5.37,0.88z"/>
	<path class="st0" d="M6.28,0.88L6.28,0.88L6.28,0.88L6.28,0.88c0.02,0,0.02,0,0.03,0.01c0.01,0,0.01,0.01,0.02,0.01c0,0,0,0,0,0.01
		l0.02,0.04c0,0.06-0.01,0.12-0.01,0.18c0,0.01,0,0.01,0,0.02c0,0.03,0,0.05-0.01,0.08v0.01v0.01l0,0c0,0.01,0.01,0.01,0.01,0.02
		l0.01,0.01c0,0,0.01,0.01,0.01,0.02l0,0l0,0c0-0.01,0.01-0.02,0.02-0.03l0.01-0.01c0-0.01,0.01-0.01,0.01-0.02l0,0V1.23V1.22
		c0-0.02,0-0.04-0.01-0.06c0-0.01,0-0.02,0-0.03c0-0.06-0.01-0.12-0.02-0.19C6.38,0.93,6.39,0.92,6.4,0.91c0,0,0,0,0-0.01
		s0.01-0.01,0.02-0.01c0.01,0,0.01,0,0.02-0.01l0,0h0.01l0,0L6.28,0.88L6.28,0.88L6.28,0.88z"/>
	<path class="st0" d="M7.19,0.88L7.19,0.88L7.19,0.88L7.19,0.88c0.01,0,0.02,0,0.03,0.01c0.01,0,0.01,0.01,0.02,0.01c0,0,0,0,0,0.01
		l0.02,0.04c0,0.06-0.01,0.12-0.02,0.18c0,0.01,0,0.01,0,0.02c0,0.03,0,0.05-0.01,0.08v0.01v0.01l0,0c0,0.01,0.01,0.01,0.01,0.02
		l0.01,0.01c0.01,0,0.01,0.01,0.02,0.02l0,0l0,0c0-0.01,0.01-0.02,0.02-0.03L7.3,1.26c0-0.01,0.01-0.01,0.01-0.02l0,0V1.23V1.22
		c0-0.02,0-0.04-0.01-0.06c0-0.01,0-0.02,0-0.03C7.29,1.07,7.29,1.01,7.28,0.94C7.29,0.93,7.3,0.92,7.3,0.91c0,0,0,0,0-0.01
		s0.01-0.01,0.02-0.01c0.01,0,0.01,0,0.02-0.01l0,0h0.01l0,0L7.19,0.88L7.19,0.88L7.19,0.88z"/>
	<path class="st0" d="M8.1,0.88L8.1,0.88L8.1,0.88L8.1,0.88c0.01,0.01,0.02,0.01,0.03,0.01c0.01,0,0.01,0.01,0.02,0.01
		c0,0,0,0,0,0.01l0.02,0.04c0,0.06-0.01,0.12-0.02,0.18c0,0.01,0,0.01,0,0.02c0,0.03,0,0.05-0.01,0.08v0.01v0.01l0,0
		c0,0.01,0.01,0.01,0.01,0.02l0.01,0.01c0.01,0,0.01,0.01,0.02,0.02l0,0l0,0c0-0.01,0.01-0.02,0.02-0.03l0.01-0.01
		c0-0.01,0.01-0.01,0.01-0.02l0,0V1.23V1.22c0-0.02,0-0.04-0.01-0.06c0-0.01,0-0.02,0-0.03C8.2,1.07,8.2,1.01,8.19,0.94
		C8.2,0.93,8.21,0.92,8.21,0.91c0,0,0,0,0-0.01s0.01-0.01,0.02-0.01s0.01,0,0.02-0.01l0,0h0.01l0,0L8.1,0.88L8.1,0.88L8.1,0.88z"/>
	<path class="st0" d="M9.01,0.88L9.01,0.88L9.01,0.88L9.01,0.88c0.01,0.01,0.02,0.01,0.03,0.01c0.01,0,0.01,0.01,0.02,0.01
		c0,0,0,0,0,0.01l0.02,0.04C9.07,1.01,9.07,1.07,9.06,1.13c0,0.01,0,0.01,0,0.02c0,0.03,0,0.05-0.01,0.08v0.01v0.01l0,0
		c0,0.01,0.01,0.01,0.01,0.02l0.01,0.01c0.01,0,0.01,0.01,0.02,0.02l0,0l0,0c0-0.01,0.01-0.02,0.02-0.03l0.01-0.01
		c0-0.01,0.01-0.01,0.01-0.02l0,0V1.23V1.22c0-0.02,0-0.04-0.01-0.06c0-0.01,0-0.02,0-0.03C9.11,1.07,9.11,1.01,9.1,0.94
		C9.11,0.93,9.11,0.91,9.12,0.9c0,0,0,0,0-0.01s0.01-0.01,0.02-0.01s0.01,0,0.02-0.01l0,0h0.01l0,0L9.01,0.88L9.01,0.88L9.01,0.88z"
		/>
	<path class="st0" d="M9.92,0.88L9.92,0.88L9.92,0.88L9.92,0.88c0.01,0.01,0.02,0.01,0.03,0.01c0.01,0,0.01,0.01,0.02,0.01
		c0,0,0,0,0,0.01l0.02,0.04C9.98,1.01,9.98,1.07,9.97,1.13c0,0.01,0,0.01,0,0.02c0,0.03,0,0.05-0.01,0.08v0.01v0.01l0,0
		c0,0.01,0.01,0.01,0.01,0.02l0.01,0.01c0.01,0,0.01,0.01,0.02,0.02l0,0l0,0c0-0.01,0.01-0.02,0.02-0.03l0.01-0.01
		c0-0.01,0.01-0.01,0.01-0.02l0,0V1.23V1.22c0-0.02,0-0.04-0.01-0.06c0-0.01,0-0.02,0-0.03C10.02,1.07,10.02,1,10.01,0.94
		c0.01-0.01,0.01-0.03,0.02-0.04c0,0,0,0,0-0.01s0.01-0.01,0.02-0.01s0.01,0,0.02-0.01l0,0h0.01l0,0L9.92,0.88L9.92,0.88L9.92,0.88z
		"/>
</g>
<g>
	<path class="st0" d="M-0.08,1.97L-0.08,1.97L-0.08,1.97L-0.08,1.97c0.01,0.01,0.02,0.01,0.03,0.01s0.01,0.01,0.02,0.01
		c0,0,0,0,0,0.01l0.02,0.04C-0.02,2.1-0.02,2.16-0.03,2.22c0,0.01,0,0.01,0,0.02c0,0.03,0,0.05-0.01,0.08v0.01v0.01l0,0
		c0,0.01,0.01,0.01,0.01,0.02l0.01,0.01C-0.01,2.38-0.01,2.38,0,2.39l0,0l0,0c0-0.01,0.01-0.02,0.02-0.03l0.01-0.01
		c0-0.01,0.01-0.01,0.01-0.02l0,0V2.32V2.31c0-0.02,0-0.04-0.01-0.06c0-0.01,0-0.02,0-0.03C0.02,2.16,0.02,2.1,0.01,2.03
		C0.02,2.02,0.02,2.01,0.03,2c0,0,0,0,0-0.01s0.01-0.01,0.02-0.01s0.01,0,0.02-0.01l0,0h0.01l0,0H-0.08L-0.08,1.97L-0.08,1.97z"/>
	<path class="st0" d="M0.83,1.97L0.83,1.97L0.83,1.97L0.83,1.97c0.01,0.01,0.02,0.01,0.03,0.01s0.01,0.01,0.02,0.01c0,0,0,0,0,0.01
		L0.9,2.03C0.89,2.1,0.89,2.16,0.88,2.22c0,0.01,0,0.01,0,0.02c0,0.03,0,0.05-0.01,0.08v0.01v0.01l0,0c0,0.01,0.01,0.01,0.01,0.02
		l0.01,0.01C0.9,2.38,0.9,2.38,0.91,2.39l0,0l0,0c0-0.01,0.01-0.02,0.02-0.03l0.01-0.01c0-0.01,0.01-0.01,0.01-0.02l0,0V2.32V2.31
		c0-0.02,0-0.04-0.01-0.06c0-0.01,0-0.02,0-0.03C0.93,2.16,0.93,2.1,0.92,2.03C0.93,2.02,0.93,2.01,0.94,2c0,0,0,0,0-0.01
		s0.01-0.01,0.02-0.01s0.01,0,0.02-0.01l0,0h0.01l0,0H0.83L0.83,1.97L0.83,1.97z"/>
	<path class="st0" d="M1.74,1.97L1.74,1.97L1.74,1.97L1.74,1.97c0.01,0.01,0.02,0.01,0.03,0.01s0.01,0.01,0.02,0.01c0,0,0,0,0,0.01
		l0.02,0.04C1.8,2.1,1.8,2.16,1.79,2.22c0,0.01,0,0.01,0,0.02c0,0.03,0,0.05-0.01,0.08v0.01v0.01l0,0c0,0.01,0.01,0.01,0.01,0.02
		L1.8,2.37C1.81,2.38,1.81,2.39,1.82,2.4l0,0l0,0c0-0.01,0.01-0.02,0.02-0.03l0.01-0.01c0-0.01,0.01-0.01,0.01-0.02l0,0V2.33V2.32
		c0-0.02,0-0.04-0.01-0.06c0-0.01,0-0.02,0-0.03C1.84,2.16,1.83,2.1,1.83,2.03C1.84,2.02,1.84,2.01,1.85,2c0,0,0,0,0-0.01
		s0.01-0.01,0.02-0.01s0.01,0,0.02-0.01l0,0H1.9l0,0H1.74L1.74,1.97L1.74,1.97z"/>
	<path class="st0" d="M2.65,1.97L2.65,1.97L2.65,1.97L2.65,1.97c0.01,0.01,0.02,0.01,0.03,0.01S2.69,1.99,2.7,1.99c0,0,0,0,0,0.01
		l0.02,0.04C2.71,2.1,2.71,2.16,2.7,2.22c0,0.01,0,0.01,0,0.02c0,0.03,0,0.05-0.01,0.08v0.01v0.01l0,0c0,0.01,0.01,0.01,0.01,0.02
		l0.01,0.01C2.72,2.38,2.72,2.39,2.73,2.4l0,0l0,0c0-0.01,0.01-0.02,0.02-0.03l0.01-0.01c0-0.01,0.01-0.01,0.01-0.02l0,0V2.33V2.32
		c0-0.02,0-0.04-0.01-0.06c0-0.01,0-0.02,0-0.03C2.75,2.16,2.74,2.1,2.74,2.03C2.75,2.02,2.75,2.01,2.76,2c0,0,0,0,0-0.01
		s0.01-0.01,0.02-0.01s0.01,0,0.02-0.01l0,0h0.01l0,0H2.65L2.65,1.97L2.65,1.97z"/>
	<path class="st0" d="M3.56,1.97L3.56,1.97L3.56,1.97L3.56,1.97c0.01,0.01,0.02,0.01,0.03,0.01S3.6,1.99,3.61,1.99c0,0,0,0,0,0.01
		l0.02,0.04C3.62,2.1,3.61,2.16,3.61,2.22c0,0.01,0,0.01,0,0.02c0,0.03,0,0.05-0.01,0.08v0.01v0.01l0,0c0,0.01,0.01,0.01,0.01,0.02
		l0.01,0.01C3.63,2.38,3.63,2.39,3.64,2.4l0,0l0,0c0-0.01,0.01-0.02,0.02-0.03l0.01-0.01c0-0.01,0.01-0.01,0.01-0.02l0,0V2.33V2.32
		c0-0.02,0-0.04-0.01-0.06c0-0.01,0-0.02,0-0.03C3.66,2.16,3.65,2.1,3.65,2.03c0-0.01,0.01-0.02,0.02-0.03c0,0,0,0,0-0.01
		s0.01-0.01,0.02-0.01s0.01,0,0.02-0.01l0,0h0.01l0,0H3.56L3.56,1.97L3.56,1.97z"/>
	<path class="st0" d="M4.46,1.97L4.46,1.97L4.46,1.97L4.46,1.97c0.01,0.01,0.02,0.01,0.03,0.01S4.5,1.99,4.51,1.99c0,0,0,0,0,0.01
		l0.02,0.04c0,0.06-0.01,0.12-0.01,0.18c0,0.01,0,0.01,0,0.02c0,0.03,0,0.05-0.01,0.08v0.01v0.01l0,0c0,0.01,0.01,0.01,0.01,0.02
		l0.01,0.01C4.54,2.38,4.54,2.39,4.55,2.4l0,0l0,0c0-0.01,0.01-0.02,0.02-0.03l0.01-0.01c0-0.01,0.01-0.01,0.01-0.02l0,0V2.33V2.32
		c0-0.02,0-0.04-0.01-0.06c0-0.01,0-0.02,0-0.03C4.57,2.16,4.56,2.1,4.56,2.03c0-0.01,0.01-0.02,0.02-0.03c0,0,0,0,0-0.01
		S4.59,1.98,4.6,1.98c0.01,0,0.01,0,0.02-0.01l0,0h0.01l0,0H4.46L4.46,1.97L4.46,1.97z"/>
	<path class="st0" d="M5.37,1.97L5.37,1.97L5.37,1.97L5.37,1.97c0.02,0,0.02,0,0.03,0.01c0.01,0,0.01,0.01,0.02,0.01c0,0,0,0,0,0.01
		l0.02,0.04c0,0.06-0.01,0.12-0.01,0.18c0,0.01,0,0.01,0,0.02c0,0.03,0,0.05-0.01,0.08v0.01v0.01l0,0c0,0.01,0.01,0.01,0.01,0.02
		l0.01,0.01C5.45,2.38,5.45,2.39,5.46,2.4l0,0l0,0c0-0.01,0.01-0.02,0.02-0.03l0.01-0.01c0-0.01,0.01-0.01,0.01-0.02l0,0V2.33V2.32
		c0-0.02,0-0.04-0.01-0.06c0-0.01,0-0.02,0-0.03C5.48,2.16,5.47,2.1,5.47,2.03c0-0.01,0.01-0.02,0.02-0.03c0,0,0,0,0-0.01
		S5.5,1.98,5.51,1.98c0.01,0,0.01,0,0.02-0.01l0,0h0.01l0,0H5.37L5.37,1.97L5.37,1.97z"/>
	<path class="st0" d="M6.28,1.97L6.28,1.97L6.28,1.97L6.28,1.97c0.02,0,0.02,0,0.03,0.01c0.01,0,0.01,0.01,0.02,0.01c0,0,0,0,0,0.01
		l0.02,0.04c0,0.06-0.01,0.12-0.01,0.18c0,0.01,0,0.01,0,0.02c0,0.03,0,0.05-0.01,0.08v0.01v0.01l0,0c0,0.01,0.01,0.01,0.01,0.02
		l0.01,0.01C6.36,2.38,6.36,2.39,6.37,2.4l0,0l0,0c0-0.01,0.01-0.02,0.02-0.03L6.4,2.36c0-0.01,0.01-0.01,0.01-0.02l0,0V2.33V2.32
		c0-0.02,0-0.04-0.01-0.06c0-0.01,0-0.02,0-0.03C6.39,2.16,6.38,2.1,6.37,2.03C6.38,2.02,6.39,2.01,6.4,2c0,0,0,0,0-0.01
		s0.01-0.01,0.02-0.01c0.01,0,0.01,0,0.02-0.01l0,0h0.01l0,0H6.28L6.28,1.97L6.28,1.97z"/>
	<path class="st0" d="M7.19,1.97L7.19,1.97L7.19,1.97L7.19,1.97c0.01,0,0.02,0,0.03,0.01c0.01,0,0.01,0.01,0.02,0.01c0,0,0,0,0,0.01
		l0.02,0.04c0,0.06-0.01,0.12-0.02,0.18c0,0.01,0,0.01,0,0.02c0,0.03,0,0.05-0.01,0.08v0.01v0.01l0,0c0,0.01,0.01,0.01,0.01,0.02
		l0.01,0.01C7.26,2.38,7.26,2.39,7.27,2.4l0,0l0,0c0-0.01,0.01-0.02,0.02-0.03L7.3,2.36c0-0.01,0.01-0.01,0.01-0.02l0,0V2.33V2.32
		c0-0.02,0-0.04-0.01-0.06c0-0.01,0-0.02,0-0.03C7.29,2.16,7.29,2.1,7.28,2.03C7.29,2.02,7.3,2.01,7.3,2c0,0,0,0,0-0.01
		s0.01-0.01,0.02-0.01c0.01,0,0.01,0,0.02-0.01l0,0h0.01l0,0H7.19L7.19,1.97L7.19,1.97z"/>
	<path class="st0" d="M8.1,1.97L8.1,1.97L8.1,1.97L8.1,1.97c0.01,0.01,0.02,0.01,0.03,0.01c0.01,0,0.01,0.01,0.02,0.01
		c0,0,0,0,0,0.01l0.02,0.04c0,0.06-0.01,0.12-0.02,0.18c0,0.01,0,0.01,0,0.02c0,0.03,0,0.05-0.01,0.08v0.01v0.01l0,0
		c0,0.01,0.01,0.01,0.01,0.02l0.01,0.01C8.17,2.38,8.17,2.39,8.18,2.4l0,0l0,0c0-0.01,0.01-0.02,0.02-0.03l0.01-0.01
		c0-0.01,0.01-0.01,0.01-0.02l0,0V2.33V2.32c0-0.02,0-0.04-0.01-0.06c0-0.01,0-0.02,0-0.03C8.2,2.16,8.2,2.1,8.19,2.03
		C8.2,2.02,8.21,2.01,8.21,2c0,0,0,0,0-0.01s0.01-0.01,0.02-0.01s0.01,0,0.02-0.01l0,0h0.01l0,0H8.1L8.1,1.97L8.1,1.97z"/>
	<path class="st0" d="M9.01,1.97L9.01,1.97L9.01,1.97L9.01,1.97c0.01,0.01,0.02,0.01,0.03,0.01c0.01,0,0.01,0.01,0.02,0.01
		c0,0,0,0,0,0.01l0.02,0.04C9.07,2.1,9.07,2.16,9.06,2.22c0,0.01,0,0.01,0,0.02c0,0.03,0,0.05-0.01,0.08v0.01v0.01l0,0
		c0,0.01,0.01,0.01,0.01,0.02l0.01,0.01C9.08,2.38,9.08,2.39,9.09,2.4l0,0l0,0c0-0.01,0.01-0.02,0.02-0.03l0.01-0.01
		c0-0.01,0.01-0.01,0.01-0.02l0,0V2.33V2.32c0-0.02,0-0.04-0.01-0.06c0-0.01,0-0.02,0-0.03C9.11,2.16,9.11,2.1,9.1,2.03
		C9.11,2.02,9.12,2.01,9.12,2c0,0,0,0,0-0.01s0.01-0.01,0.02-0.01s0.01,0,0.02-0.01l0,0h0.01l0,0H9.01L9.01,1.97L9.01,1.97z"/>
	<path class="st0" d="M9.92,1.97L9.92,1.97L9.92,1.97L9.92,1.97c0.01,0.01,0.02,0.01,0.03,0.01c0.01,0,0.01,0.01,0.02,0.01
		c0,0,0,0,0,0.01l0.02,0.04C9.98,2.1,9.98,2.16,9.97,2.22c0,0.01,0,0.01,0,0.02c0,0.03,0,0.05-0.01,0.08v0.01v0.01l0,0
		c0,0.01,0.01,0.01,0.01,0.02l0.01,0.01C9.99,2.38,9.99,2.38,10,2.39l0,0l0,0c0-0.01,0.01-0.02,0.02-0.03l0.01-0.01
		c0-0.01,0.01-0.01,0.01-0.02l0,0V2.32V2.31c0-0.02,0-0.04-0.01-0.06c0-0.01,0-0.02,0-0.03c-0.01-0.06-0.01-0.13-0.02-0.19
		c0.01-0.01,0.01-0.03,0.02-0.04c0,0,0,0,0-0.01s0.01-0.01,0.02-0.01s0.01,0,0.02-0.01l0,0h0.01l0,0L9.92,1.97L9.92,1.97L9.92,1.97z
		"/>
</g>
<g>
	<path class="st0" d="M-0.08,3.06L-0.08,3.06L-0.08,3.06L-0.08,3.06c0.01,0.01,0.02,0.01,0.03,0.01s0.01,0.01,0.02,0.01
		c0,0,0,0,0,0.01l0.02,0.04c-0.01,0.06-0.01,0.13-0.02,0.19c0,0.01,0,0.01,0,0.02c0,0.03,0,0.05-0.01,0.08v0.01v0.01l0,0
		c0,0.01,0.01,0.01,0.01,0.02l0.01,0.01c0.01,0,0.01,0,0.02,0.01l0,0l0,0c0-0.01,0.01-0.02,0.02-0.03l0.01-0.01
		c0-0.01,0.01-0.01,0.01-0.02l0,0V3.41V3.4c0-0.02,0-0.04-0.01-0.06c0-0.01,0-0.02,0-0.03C0.02,3.25,0.02,3.19,0.01,3.13
		C0.02,3.11,0.02,3.1,0.03,3.09c0,0,0,0,0-0.01s0.01-0.01,0.02-0.01s0.01,0,0.02-0.01l0,0h0.01l0,0H-0.08L-0.08,3.06L-0.08,3.06z"/>
	<path class="st0" d="M0.83,3.06L0.83,3.06L0.83,3.06L0.83,3.06c0.01,0.01,0.02,0.01,0.03,0.01s0.01,0.01,0.02,0.01c0,0,0,0,0,0.01
		L0.9,3.12C0.89,3.19,0.89,3.25,0.88,3.31c0,0.01,0,0.01,0,0.02c0,0.03,0,0.05-0.01,0.08v0.01v0.01l0,0c0,0.01,0.01,0.01,0.01,0.02
		l0.01,0.01C0.9,3.47,0.9,3.47,0.91,3.48l0,0l0,0c0-0.01,0.01-0.02,0.02-0.03l0.01-0.01c0-0.01,0.01-0.01,0.01-0.02l0,0V3.41V3.4
		c0-0.02,0-0.04-0.01-0.06c0-0.01,0-0.02,0-0.03C0.93,3.25,0.93,3.19,0.92,3.13C0.93,3.11,0.93,3.1,0.94,3.09c0,0,0,0,0-0.01
		s0.01-0.01,0.02-0.01s0.01,0,0.02-0.01l0,0h0.01l0,0H0.83L0.83,3.06L0.83,3.06z"/>
	<path class="st0" d="M1.74,3.06L1.74,3.06L1.74,3.06L1.74,3.06c0.01,0.01,0.02,0.01,0.03,0.01s0.01,0.01,0.02,0.01c0,0,0,0,0,0.01
		l0.02,0.04C1.8,3.19,1.8,3.25,1.79,3.31c0,0.01,0,0.01,0,0.02c0,0.03,0,0.05-0.01,0.08v0.01v0.01l0,0c0,0.01,0.01,0.01,0.01,0.02
		L1.8,3.46c0.01,0.01,0.01,0.02,0.02,0.03l0,0l0,0c0-0.01,0.01-0.02,0.02-0.03l0.01-0.01c0-0.01,0.01-0.01,0.01-0.02l0,0V3.42V3.41
		c0-0.02,0-0.04-0.01-0.06c0-0.01,0-0.02,0-0.03C1.84,3.25,1.83,3.19,1.83,3.13C1.84,3.11,1.84,3.1,1.85,3.09c0,0,0,0,0-0.01
		s0.01-0.01,0.02-0.01s0.01,0,0.02-0.01l0,0H1.9l0,0H1.74L1.74,3.06L1.74,3.06z"/>
	<path class="st0" d="M2.65,3.06L2.65,3.06L2.65,3.06L2.65,3.06c0.01,0.01,0.02,0.01,0.03,0.01S2.69,3.08,2.7,3.08c0,0,0,0,0,0.01
		l0.02,0.04C2.71,3.19,2.71,3.25,2.7,3.31c0,0.01,0,0.01,0,0.02c0,0.03,0,0.05-0.01,0.08v0.01v0.01l0,0c0,0.01,0.01,0.01,0.01,0.02
		l0.01,0.01c0.01,0.01,0.01,0.02,0.02,0.03l0,0l0,0c0-0.01,0.01-0.02,0.02-0.03l0.01-0.01c0-0.01,0.01-0.01,0.01-0.02l0,0V3.42V3.41
		c0-0.02,0-0.04-0.01-0.06c0-0.01,0-0.02,0-0.03C2.75,3.25,2.74,3.19,2.74,3.13C2.75,3.11,2.75,3.1,2.76,3.09c0,0,0,0,0-0.01
		s0.01-0.01,0.02-0.01s0.01,0,0.02-0.01l0,0h0.01l0,0H2.65L2.65,3.06L2.65,3.06z"/>
	<path class="st0" d="M3.56,3.06L3.56,3.06L3.56,3.06L3.56,3.06c0.01,0.01,0.02,0.01,0.03,0.01S3.6,3.08,3.61,3.08c0,0,0,0,0,0.01
		l0.02,0.04C3.62,3.19,3.61,3.25,3.61,3.31c0,0.01,0,0.01,0,0.02c0,0.03,0,0.05-0.01,0.08v0.01v0.01l0,0c0,0.01,0.01,0.01,0.01,0.02
		l0.01,0.01c0.01,0.01,0.01,0.02,0.02,0.03l0,0l0,0c0-0.01,0.01-0.02,0.02-0.03l0.01-0.01c0-0.01,0.01-0.01,0.01-0.02l0,0V3.42V3.41
		c0-0.02,0-0.04-0.01-0.06c0-0.01,0-0.02,0-0.03C3.66,3.25,3.65,3.19,3.65,3.13c0-0.02,0.01-0.03,0.02-0.04c0,0,0,0,0-0.01
		s0.01-0.01,0.02-0.01s0.01,0,0.02-0.01l0,0h0.01l0,0H3.56L3.56,3.06L3.56,3.06z"/>
	<path class="st0" d="M4.46,3.06L4.46,3.06L4.46,3.06L4.46,3.06c0.01,0.01,0.02,0.01,0.03,0.01S4.5,3.08,4.51,3.08c0,0,0,0,0,0.01
		l0.02,0.04c0,0.06-0.01,0.12-0.01,0.18c0,0.01,0,0.01,0,0.02c0,0.03,0,0.05-0.01,0.08v0.01v0.01l0,0c0,0.01,0.01,0.01,0.01,0.02
		l0.01,0.01c0.01,0.01,0.01,0.02,0.02,0.03l0,0l0,0c0-0.01,0.01-0.02,0.02-0.03l0.01-0.01c0-0.01,0.01-0.01,0.01-0.02l0,0V3.42V3.41
		c0-0.02,0-0.04-0.01-0.06c0-0.01,0-0.02,0-0.03C4.57,3.25,4.56,3.19,4.56,3.13c0-0.02,0.01-0.03,0.02-0.04c0,0,0,0,0-0.01
		S4.59,3.07,4.6,3.07c0.01,0,0.01,0,0.02-0.01l0,0h0.01l0,0H4.46L4.46,3.06L4.46,3.06z"/>
	<path class="st0" d="M5.37,3.06L5.37,3.06L5.37,3.06L5.37,3.06c0.02,0,0.02,0.01,0.03,0.01s0.01,0.01,0.02,0.01c0,0,0,0,0,0.01
		l0.02,0.04c0,0.06-0.01,0.12-0.01,0.18c0,0.01,0,0.01,0,0.02c0,0.03,0,0.05-0.01,0.08v0.01v0.01l0,0c0,0.01,0.01,0.01,0.01,0.02
		l0.01,0.01c0.01,0.01,0.01,0.02,0.02,0.03l0,0l0,0c0-0.01,0.01-0.02,0.02-0.03l0.01-0.01c0-0.01,0.01-0.01,0.01-0.02l0,0V3.42V3.41
		c0-0.02,0-0.04-0.01-0.06c0-0.01,0-0.02,0-0.03C5.48,3.25,5.47,3.19,5.47,3.13c0-0.02,0.01-0.03,0.02-0.04c0,0,0,0,0-0.01
		S5.5,3.07,5.51,3.07c0.01,0,0.01,0,0.02-0.01l0,0h0.01l0,0H5.37L5.37,3.06L5.37,3.06z"/>
	<path class="st0" d="M6.28,3.06L6.28,3.06L6.28,3.06L6.28,3.06c0.02,0,0.02,0.01,0.03,0.01c0.01,0,0.01,0.01,0.02,0.01
		c0,0,0,0,0,0.01l0.02,0.04c0,0.06-0.01,0.12-0.01,0.18c0,0.01,0,0.01,0,0.02c0,0.03,0,0.05-0.01,0.08v0.01v0.01l0,0
		c0,0.01,0.01,0.01,0.01,0.02l0.01,0.01c0.01,0.01,0.01,0.02,0.02,0.03l0,0l0,0c0-0.01,0.01-0.02,0.02-0.03L6.4,3.45
		c0-0.01,0.01-0.01,0.01-0.02l0,0V3.42V3.41c0-0.02,0-0.04-0.01-0.06c0-0.01,0-0.02,0-0.03C6.39,3.25,6.38,3.19,6.37,3.13
		C6.38,3.11,6.39,3.1,6.4,3.09c0,0,0,0,0-0.01s0.01-0.01,0.02-0.01c0.01,0,0.01,0,0.02-0.01l0,0h0.01l0,0H6.28L6.28,3.06L6.28,3.06z
		"/>
	<path class="st0" d="M7.19,3.06L7.19,3.06L7.19,3.06L7.19,3.06c0.01,0,0.02,0.01,0.03,0.01c0.01,0,0.01,0.01,0.02,0.01
		c0,0,0,0,0,0.01l0.02,0.04c0,0.06-0.01,0.12-0.02,0.18c0,0.01,0,0.01,0,0.02c0,0.03,0,0.05-0.01,0.08v0.01v0.01l0,0
		c0,0.01,0.01,0.01,0.01,0.02l0.01,0.01c0.01,0.01,0.01,0.02,0.02,0.03l0,0l0,0c0-0.01,0.01-0.02,0.02-0.03L7.3,3.45
		c0-0.01,0.01-0.01,0.01-0.02l0,0V3.42V3.41c0-0.02,0-0.04-0.01-0.06c0-0.01,0-0.02,0-0.03C7.29,3.25,7.29,3.19,7.28,3.13
		C7.29,3.11,7.3,3.1,7.3,3.09c0,0,0,0,0-0.01s0.01-0.01,0.02-0.01c0.01,0,0.01,0,0.02-0.01l0,0h0.01l0,0H7.19L7.19,3.06L7.19,3.06z"
		/>
	<path class="st0" d="M8.1,3.06L8.1,3.06L8.1,3.06L8.1,3.06c0.01,0.01,0.02,0.01,0.03,0.01c0.01,0,0.01,0.01,0.02,0.01
		c0,0,0,0,0,0.01l0.02,0.04c0,0.06-0.01,0.12-0.02,0.18c0,0.01,0,0.01,0,0.02c0,0.03,0,0.05-0.01,0.08v0.01v0.01l0,0
		c0,0.01,0.01,0.01,0.01,0.02l0.01,0.01c0.01,0.01,0.01,0.02,0.02,0.03l0,0l0,0c0-0.01,0.01-0.02,0.02-0.03l0.01-0.01
		c0-0.01,0.01-0.01,0.01-0.02l0,0V3.42V3.41c0-0.02,0-0.04-0.01-0.06c0-0.01,0-0.02,0-0.03C8.2,3.25,8.2,3.19,8.19,3.13
		C8.2,3.11,8.21,3.1,8.21,3.09c0,0,0,0,0-0.01s0.01-0.01,0.02-0.01s0.01,0,0.02-0.01l0,0h0.01l0,0H8.1L8.1,3.06L8.1,3.06z"/>
	<path class="st0" d="M9.01,3.06L9.01,3.06L9.01,3.06L9.01,3.06c0.01,0.01,0.02,0.01,0.03,0.01c0.01,0,0.01,0.01,0.02,0.01
		c0,0,0,0,0,0.01l0.02,0.04C9.07,3.19,9.07,3.25,9.06,3.31c0,0.01,0,0.01,0,0.02c0,0.03,0,0.05-0.01,0.08v0.01v0.01l0,0
		c0,0.01,0.01,0.01,0.01,0.02l0.01,0.01c0.01,0.01,0.01,0.02,0.02,0.03l0,0l0,0c0-0.01,0.01-0.02,0.02-0.03l0.01-0.01
		c0-0.01,0.01-0.01,0.01-0.02l0,0V3.42V3.41c0-0.02,0-0.04-0.01-0.06c0-0.01,0-0.02,0-0.03C9.11,3.25,9.11,3.19,9.1,3.13
		C9.11,3.11,9.12,3.1,9.12,3.09c0,0,0,0,0-0.01s0.01-0.01,0.02-0.01s0.01,0,0.02-0.01l0,0h0.01l0,0H9.01L9.01,3.06L9.01,3.06z"/>
	<path class="st0" d="M9.92,3.06L9.92,3.06L9.92,3.06L9.92,3.06c0.01,0.01,0.02,0.01,0.03,0.01c0.01,0,0.01,0.01,0.02,0.01
		c0,0,0,0,0,0.01l0.02,0.04C9.98,3.19,9.98,3.25,9.97,3.31c0,0.01,0,0.01,0,0.02c0,0.03,0,0.05-0.01,0.08v0.01v0.01l0,0
		c0,0.01,0.01,0.01,0.01,0.02l0.01,0.01C9.99,3.47,9.99,3.47,10,3.48l0,0l0,0c0-0.01,0.01-0.02,0.02-0.03l0.01-0.01
		c0-0.01,0.01-0.01,0.01-0.02l0,0V3.41V3.4c0-0.02,0-0.04-0.01-0.06c0-0.01,0-0.02,0-0.03c-0.01-0.06-0.01-0.13-0.02-0.19
		c0.01-0.01,0.01-0.03,0.02-0.04c0,0,0,0,0-0.01s0.01-0.01,0.02-0.01s0.01,0,0.02-0.01l0,0h0.01l0,0L9.92,3.06L9.92,3.06L9.92,3.06z
		"/>
</g>
<g>
	<path class="st0" d="M-0.08,4.15L-0.08,4.15L-0.08,4.15L-0.08,4.15c0.01,0.01,0.02,0.01,0.03,0.01s0.01,0.01,0.02,0.01
		c0,0,0,0,0,0.01l0.02,0.04C-0.02,4.28-0.02,4.34-0.03,4.4c0,0.01,0,0.01,0,0.02c0,0.03,0,0.05-0.01,0.08v0.01v0.01l0,0
		c0,0.01,0.01,0.01,0.01,0.02l0.01,0.01C-0.01,4.56-0.01,4.57,0,4.57l0,0l0,0c0-0.01,0.01-0.02,0.02-0.03l0.01-0.01
		c0-0.01,0.01-0.01,0.01-0.02l0,0V4.5V4.49c0-0.02,0-0.04-0.01-0.06c0-0.01,0-0.02,0-0.03C0.02,4.34,0.02,4.28,0.01,4.22
		C0.02,4.2,0.02,4.19,0.03,4.18c0,0,0,0,0-0.01s0.01-0.01,0.02-0.01s0.01,0,0.02-0.01l0,0h0.01l0,0L-0.08,4.15L-0.08,4.15
		L-0.08,4.15z"/>
	<path class="st0" d="M0.83,4.15L0.83,4.15L0.83,4.15L0.83,4.15c0.01,0.01,0.02,0.01,0.03,0.01s0.01,0.01,0.02,0.01c0,0,0,0,0,0.01
		L0.9,4.22C0.89,4.28,0.89,4.34,0.88,4.4c0,0.01,0,0.01,0,0.02c0,0.03,0,0.05-0.01,0.08v0.01v0.01l0,0c0,0.01,0.01,0.01,0.01,0.02
		l0.01,0.01C0.9,4.56,0.9,4.57,0.91,4.57l0,0l0,0c0-0.01,0.01-0.02,0.02-0.03l0.01-0.01c0-0.01,0.01-0.01,0.01-0.02l0,0V4.5V4.49
		c0-0.02,0-0.04-0.01-0.06c0-0.01,0-0.02,0-0.03C0.93,4.34,0.93,4.28,0.92,4.22C0.93,4.2,0.93,4.19,0.94,4.18c0,0,0,0,0-0.01
		s0.01-0.01,0.02-0.01s0.01,0,0.02-0.01l0,0h0.01l0,0L0.83,4.15L0.83,4.15L0.83,4.15z"/>
	<path class="st0" d="M1.74,4.15L1.74,4.15L1.74,4.15L1.74,4.15c0.01,0.01,0.02,0.01,0.03,0.01s0.01,0.01,0.02,0.01c0,0,0,0,0,0.01
		l0.02,0.04C1.8,4.28,1.8,4.34,1.79,4.4c0,0.01,0,0.01,0,0.02c0,0.03,0,0.05-0.01,0.08v0.01v0.01l0,0c0,0.01,0.01,0.01,0.01,0.02
		L1.8,4.55c0.01,0.01,0.01,0.02,0.02,0.03l0,0l0,0c0-0.01,0.01-0.02,0.02-0.03l0.01-0.01c0-0.01,0.01-0.01,0.01-0.02l0,0V4.51V4.5
		c0-0.02,0-0.04-0.01-0.06c0-0.01,0-0.02,0-0.03C1.84,4.34,1.83,4.28,1.83,4.22C1.84,4.2,1.84,4.19,1.85,4.18c0,0,0,0,0-0.01
		s0.01-0.01,0.02-0.01s0.01,0,0.02-0.01l0,0H1.9l0,0L1.74,4.15L1.74,4.15L1.74,4.15z"/>
	<path class="st0" d="M2.65,4.15L2.65,4.15L2.65,4.15L2.65,4.15c0.01,0.01,0.02,0.01,0.03,0.01S2.69,4.17,2.7,4.17c0,0,0,0,0,0.01
		l0.02,0.04C2.71,4.28,2.71,4.34,2.7,4.4c0,0.01,0,0.01,0,0.02c0,0.03,0,0.05-0.01,0.08v0.01v0.01l0,0c0,0.01,0.01,0.01,0.01,0.02
		l0.01,0.01c0.01,0.01,0.01,0.02,0.02,0.03l0,0l0,0c0-0.01,0.01-0.02,0.02-0.03l0.01-0.01c0-0.01,0.01-0.01,0.01-0.02l0,0V4.51V4.5
		c0-0.02,0-0.04-0.01-0.06c0-0.01,0-0.02,0-0.03C2.75,4.34,2.74,4.28,2.74,4.22C2.75,4.2,2.75,4.19,2.76,4.18c0,0,0,0,0-0.01
		s0.01-0.01,0.02-0.01s0.01,0,0.02-0.01l0,0h0.01l0,0L2.65,4.15L2.65,4.15L2.65,4.15z"/>
	<path class="st0" d="M3.56,4.15L3.56,4.15L3.56,4.15L3.56,4.15c0.01,0.01,0.02,0.01,0.03,0.01S3.6,4.17,3.61,4.17c0,0,0,0,0,0.01
		l0.02,0.04C3.62,4.28,3.61,4.34,3.61,4.4c0,0.01,0,0.01,0,0.02c0,0.03,0,0.05-0.01,0.08v0.01v0.01l0,0c0,0.01,0.01,0.01,0.01,0.02
		l0.01,0.01c0.01,0.01,0.01,0.02,0.02,0.03l0,0l0,0c0-0.01,0.01-0.02,0.02-0.03l0.01-0.01c0-0.01,0.01-0.01,0.01-0.02l0,0V4.51V4.5
		c0-0.02,0-0.04-0.01-0.06c0-0.01,0-0.02,0-0.03C3.66,4.34,3.65,4.28,3.65,4.22c0-0.02,0.01-0.03,0.02-0.04c0,0,0,0,0-0.01
		s0.01-0.01,0.02-0.01s0.01,0,0.02-0.01l0,0h0.01l0,0L3.56,4.15L3.56,4.15L3.56,4.15z"/>
	<path class="st0" d="M4.46,4.15L4.46,4.15L4.46,4.15L4.46,4.15c0.01,0.01,0.02,0.01,0.03,0.01S4.5,4.17,4.51,4.17c0,0,0,0,0,0.01
		l0.02,0.04c0,0.06-0.01,0.12-0.01,0.18c0,0.01,0,0.01,0,0.02c0,0.03,0,0.05-0.01,0.08v0.01v0.01l0,0c0,0.01,0.01,0.01,0.01,0.02
		l0.01,0.01c0.01,0.01,0.01,0.02,0.02,0.03l0,0l0,0c0-0.01,0.01-0.02,0.02-0.03l0.01-0.01c0-0.01,0.01-0.01,0.01-0.02l0,0V4.51V4.5
		c0-0.02,0-0.04-0.01-0.06c0-0.01,0-0.02,0-0.03C4.57,4.34,4.56,4.28,4.56,4.22c0-0.02,0.01-0.03,0.02-0.04c0,0,0,0,0-0.01
		S4.59,4.16,4.6,4.16c0.01,0,0.01,0,0.02-0.01l0,0h0.01l0,0L4.46,4.15L4.46,4.15L4.46,4.15z"/>
	<path class="st0" d="M5.37,4.15L5.37,4.15L5.37,4.15L5.37,4.15c0.02,0,0.02,0.01,0.03,0.01s0.01,0.01,0.02,0.01c0,0,0,0,0,0.01
		l0.02,0.04c0,0.06-0.01,0.12-0.01,0.18c0,0.01,0,0.01,0,0.02c0,0.03,0,0.05-0.01,0.08v0.01v0.01l0,0c0,0.01,0.01,0.01,0.01,0.02
		l0.01,0.01c0.01,0.01,0.01,0.02,0.02,0.03l0,0l0,0c0-0.01,0.01-0.02,0.02-0.03l0.01-0.01c0-0.01,0.01-0.01,0.01-0.02l0,0V4.51V4.5
		c0-0.02,0-0.04-0.01-0.06c0-0.01,0-0.02,0-0.03C5.48,4.34,5.47,4.28,5.47,4.22c0-0.02,0.01-0.03,0.02-0.04c0,0,0,0,0-0.01
		S5.5,4.16,5.51,4.16c0.01,0,0.01,0,0.02-0.01l0,0h0.01l0,0L5.37,4.15L5.37,4.15L5.37,4.15z"/>
	<path class="st0" d="M6.28,4.15L6.28,4.15L6.28,4.15L6.28,4.15c0.02,0,0.02,0.01,0.03,0.01c0.01,0,0.01,0.01,0.02,0.01
		c0,0,0,0,0,0.01l0.02,0.04c0,0.06-0.01,0.12-0.01,0.18c0,0.01,0,0.01,0,0.02c0,0.03,0,0.05-0.01,0.08v0.01v0.01l0,0
		c0,0.01,0.01,0.01,0.01,0.02l0.01,0.01c0.01,0.01,0.01,0.02,0.02,0.03l0,0l0,0c0-0.01,0.01-0.02,0.02-0.03L6.4,4.54
		c0-0.01,0.01-0.01,0.01-0.02l0,0V4.51V4.5c0-0.02,0-0.04-0.01-0.06c0-0.01,0-0.02,0-0.03C6.39,4.34,6.38,4.28,6.37,4.22
		C6.38,4.2,6.39,4.19,6.4,4.18c0,0,0,0,0-0.01s0.01-0.01,0.02-0.01c0.01,0,0.01,0,0.02-0.01l0,0h0.01l0,0L6.28,4.15L6.28,4.15
		L6.28,4.15z"/>
	<path class="st0" d="M7.19,4.15L7.19,4.15L7.19,4.15L7.19,4.15c0.01,0,0.02,0.01,0.03,0.01c0.01,0,0.01,0.01,0.02,0.01
		c0,0,0,0,0,0.01l0.02,0.04c0,0.06-0.01,0.12-0.02,0.18c0,0.01,0,0.01,0,0.02c0,0.03,0,0.05-0.01,0.08v0.01v0.01l0,0
		c0,0.01,0.01,0.01,0.01,0.02l0.01,0.01c0.01,0.01,0.01,0.02,0.02,0.03l0,0l0,0c0-0.01,0.01-0.02,0.02-0.03L7.3,4.54
		c0-0.01,0.01-0.01,0.01-0.02l0,0V4.51V4.5c0-0.02,0-0.04-0.01-0.06c0-0.01,0-0.02,0-0.03C7.29,4.34,7.29,4.28,7.28,4.22
		C7.29,4.2,7.3,4.19,7.3,4.18c0,0,0,0,0-0.01s0.01-0.01,0.02-0.01c0.01,0,0.01,0,0.02-0.01l0,0h0.01l0,0L7.19,4.15L7.19,4.15
		L7.19,4.15z"/>
	<path class="st0" d="M8.1,4.15L8.1,4.15L8.1,4.15L8.1,4.15c0.01,0.01,0.02,0.01,0.03,0.01c0.01,0,0.01,0.01,0.02,0.01
		c0,0,0,0,0,0.01l0.02,0.04c0,0.06-0.01,0.12-0.02,0.18c0,0.01,0,0.01,0,0.02c0,0.03,0,0.05-0.01,0.08v0.01v0.01l0,0
		c0,0.01,0.01,0.01,0.01,0.02l0.01,0.01c0.01,0.01,0.01,0.02,0.02,0.03l0,0l0,0c0-0.01,0.01-0.02,0.02-0.03l0.01-0.01
		c0-0.01,0.01-0.01,0.01-0.02l0,0V4.51V4.5c0-0.02,0-0.04-0.01-0.06c0-0.01,0-0.02,0-0.03C8.2,4.34,8.2,4.28,8.19,4.22
		C8.2,4.2,8.21,4.19,8.21,4.18c0,0,0,0,0-0.01s0.01-0.01,0.02-0.01s0.01,0,0.02-0.01l0,0h0.01l0,0L8.1,4.15L8.1,4.15L8.1,4.15z"/>
	<path class="st0" d="M9.01,4.15L9.01,4.15L9.01,4.15L9.01,4.15c0.01,0.01,0.02,0.01,0.03,0.01c0.01,0,0.01,0.01,0.02,0.01
		c0,0,0,0,0,0.01l0.02,0.04C9.07,4.28,9.07,4.34,9.06,4.4c0,0.01,0,0.01,0,0.02c0,0.03,0,0.05-0.01,0.08v0.01v0.01l0,0
		c0,0.01,0.01,0.01,0.01,0.02l0.01,0.01c0.01,0.01,0.01,0.02,0.02,0.03l0,0l0,0c0-0.01,0.01-0.02,0.02-0.03l0.01-0.01
		c0-0.01,0.01-0.01,0.01-0.02l0,0V4.51V4.5c0-0.02,0-0.04-0.01-0.06c0-0.01,0-0.02,0-0.03C9.11,4.34,9.11,4.28,9.1,4.22
		C9.11,4.2,9.12,4.19,9.12,4.18c0,0,0,0,0-0.01s0.01-0.01,0.02-0.01s0.01,0,0.02-0.01l0,0h0.01l0,0L9.01,4.15L9.01,4.15L9.01,4.15z"
		/>
	<path class="st0" d="M9.92,4.15L9.92,4.15L9.92,4.15L9.92,4.15c0.01,0.01,0.02,0.01,0.03,0.01c0.01,0,0.01,0.01,0.02,0.01
		c0,0,0,0,0,0.01l0.02,0.04C9.98,4.28,9.98,4.34,9.97,4.4c0,0.01,0,0.01,0,0.02c0,0.03,0,0.05-0.01,0.08v0.01v0.01l0,0
		c0,0.01,0.01,0.01,0.01,0.02l0.01,0.01C9.99,4.56,9.99,4.57,10,4.57l0,0l0,0c0-0.01,0.01-0.02,0.02-0.03l0.01-0.01
		c0-0.01,0.01-0.01,0.01-0.02l0,0V4.5V4.49c0-0.02,0-0.04-0.01-0.06c0-0.01,0-0.02,0-0.03c-0.01-0.06-0.01-0.13-0.02-0.19
		c0.01-0.01,0.01-0.03,0.02-0.04c0,0,0,0,0-0.01s0.01-0.01,0.02-0.01s0.01,0,0.02-0.01l0,0h0.01l0,0L9.92,4.15L9.92,4.15L9.92,4.15z
		"/>
</g>
<g>
	<path class="st0" d="M-0.08,5.24L-0.08,5.24L-0.08,5.24L-0.08,5.24c0.01,0.01,0.02,0.01,0.03,0.01s0.01,0.01,0.02,0.01
		c0,0,0,0,0,0.01l0.02,0.04C-0.02,5.37-0.02,5.44-0.03,5.5c0,0.01,0,0.01,0,0.02c0,0.03,0,0.05-0.01,0.08v0.01v0.01l0,0
		c0,0.01,0.01,0.01,0.01,0.02l0.01,0.01c0.01,0,0.01,0.01,0.02,0.02l0,0l0,0c0-0.01,0.01-0.02,0.02-0.03l0.01-0.01
		c0-0.01,0.01-0.01,0.01-0.02l0,0V5.6V5.59c0-0.02,0-0.04-0.01-0.06c0-0.01,0-0.02,0-0.03C0.02,5.43,0.02,5.37,0.01,5.31
		C0.02,5.3,0.02,5.28,0.03,5.27c0,0,0,0,0-0.01s0.01-0.01,0.02-0.01s0.01,0,0.02-0.01l0,0h0.01l0,0L-0.08,5.24L-0.08,5.24
		L-0.08,5.24z"/>
	<path class="st0" d="M0.83,5.24L0.83,5.24L0.83,5.24L0.83,5.24c0.01,0.01,0.02,0.01,0.03,0.01s0.01,0.01,0.02,0.01c0,0,0,0,0,0.01
		L0.9,5.31C0.89,5.37,0.89,5.43,0.88,5.49c0,0.01,0,0.01,0,0.02c0,0.03,0,0.05-0.01,0.08V5.6v0.01l0,0c0,0.01,0.01,0.01,0.01,0.02
		l0.01,0.01C0.9,5.65,0.9,5.66,0.91,5.67l0,0l0,0c0-0.01,0.01-0.02,0.02-0.03l0.01-0.01c0-0.01,0.01-0.01,0.01-0.02l0,0V5.6V5.59
		c0-0.02,0-0.04-0.01-0.06c0-0.01,0-0.02,0-0.03C0.93,5.43,0.93,5.37,0.92,5.31C0.93,5.3,0.93,5.28,0.94,5.27c0,0,0,0,0-0.01
		s0.01-0.01,0.02-0.01s0.01,0,0.02-0.01l0,0h0.01l0,0L0.83,5.24L0.83,5.24L0.83,5.24z"/>
	<path class="st0" d="M1.74,5.24L1.74,5.24L1.74,5.24L1.74,5.24c0.01,0.01,0.02,0.01,0.03,0.01s0.01,0.01,0.02,0.01c0,0,0,0,0,0.01
		l0.02,0.04C1.8,5.37,1.8,5.43,1.79,5.49c0,0.01,0,0.01,0,0.02c0,0.03,0,0.05-0.01,0.08V5.6v0.01l0,0c0,0.01,0.01,0.01,0.01,0.02
		L1.8,5.64c0.01,0.01,0.01,0.02,0.02,0.03l0,0l0,0c0-0.01,0.01-0.02,0.02-0.03l0.01-0.01c0-0.01,0.01-0.01,0.01-0.02l0,0V5.6V5.59
		c0-0.02,0-0.04-0.01-0.06c0-0.01,0-0.02,0-0.03C1.84,5.43,1.83,5.37,1.83,5.31C1.84,5.3,1.84,5.28,1.85,5.27c0,0,0,0,0-0.01
		s0.01-0.01,0.02-0.01s0.01,0,0.02-0.01l0,0H1.9l0,0L1.74,5.24L1.74,5.24L1.74,5.24z"/>
	<path class="st0" d="M2.65,5.24L2.65,5.24L2.65,5.24L2.65,5.24c0.01,0.01,0.02,0.01,0.03,0.01S2.69,5.26,2.7,5.26c0,0,0,0,0,0.01
		l0.02,0.04C2.71,5.37,2.71,5.43,2.7,5.49c0,0.01,0,0.01,0,0.02c0,0.03,0,0.05-0.01,0.08V5.6v0.01l0,0c0,0.01,0.01,0.01,0.01,0.02
		l0.01,0.01c0.01,0.01,0.01,0.02,0.02,0.03l0,0l0,0c0-0.01,0.01-0.02,0.02-0.03l0.01-0.01c0-0.01,0.01-0.01,0.01-0.02l0,0V5.6V5.59
		c0-0.02,0-0.04-0.01-0.06c0-0.01,0-0.02,0-0.03C2.75,5.43,2.74,5.37,2.74,5.31C2.75,5.3,2.75,5.28,2.76,5.27c0,0,0,0,0-0.01
		s0.01-0.01,0.02-0.01s0.01,0,0.02-0.01l0,0h0.01l0,0L2.65,5.24L2.65,5.24L2.65,5.24z"/>
	<path class="st0" d="M3.56,5.24L3.56,5.24L3.56,5.24L3.56,5.24c0.01,0.01,0.02,0.01,0.03,0.01S3.6,5.26,3.61,5.26c0,0,0,0,0,0.01
		l0.02,0.04C3.62,5.37,3.61,5.43,3.61,5.49c0,0.01,0,0.01,0,0.02c0,0.03,0,0.05-0.01,0.08V5.6v0.01l0,0c0,0.01,0.01,0.01,0.01,0.02
		l0.01,0.01c0.01,0.01,0.01,0.02,0.02,0.03l0,0l0,0c0-0.01,0.01-0.02,0.02-0.03l0.01-0.01c0-0.01,0.01-0.01,0.01-0.02l0,0V5.6V5.59
		c0-0.02,0-0.04-0.01-0.06c0-0.01,0-0.02,0-0.03C3.66,5.43,3.65,5.37,3.65,5.31C3.66,5.3,3.66,5.28,3.67,5.27c0,0,0,0,0-0.01
		s0.01-0.01,0.02-0.01s0.01,0,0.02-0.01l0,0h0.01l0,0L3.56,5.24L3.56,5.24L3.56,5.24z"/>
	<path class="st0" d="M4.46,5.24L4.46,5.24L4.46,5.24L4.46,5.24c0.01,0.01,0.02,0.01,0.03,0.01S4.5,5.26,4.51,5.26c0,0,0,0,0,0.01
		l0.02,0.04c0,0.06-0.01,0.12-0.01,0.18c0,0.01,0,0.01,0,0.02c0,0.03,0,0.05-0.01,0.08V5.6v0.01l0,0c0,0.01,0.01,0.01,0.01,0.02
		l0.01,0.01c0.01,0.01,0.01,0.02,0.02,0.03l0,0l0,0c0-0.01,0.01-0.02,0.02-0.03l0.01-0.01c0-0.01,0.01-0.01,0.01-0.02l0,0V5.6V5.59
		c0-0.02,0-0.04-0.01-0.06c0-0.01,0-0.02,0-0.03C4.57,5.43,4.56,5.37,4.56,5.31C4.57,5.3,4.57,5.28,4.58,5.27c0,0,0,0,0-0.01
		S4.59,5.25,4.6,5.25c0.01,0,0.01,0,0.02-0.01l0,0h0.01l0,0L4.46,5.24L4.46,5.24L4.46,5.24z"/>
	<path class="st0" d="M5.37,5.24L5.37,5.24L5.37,5.24L5.37,5.24C5.39,5.25,5.39,5.25,5.4,5.25s0.01,0.01,0.02,0.01c0,0,0,0,0,0.01
		l0.02,0.04c0,0.06-0.01,0.12-0.01,0.18c0,0.01,0,0.01,0,0.02c0,0.03,0,0.05-0.01,0.08V5.6v0.01l0,0c0,0.01,0.01,0.01,0.01,0.02
		l0.01,0.01c0.01,0.01,0.01,0.02,0.02,0.03l0,0l0,0c0-0.01,0.01-0.02,0.02-0.03l0.01-0.01c0-0.01,0.01-0.01,0.01-0.02l0,0V5.6V5.59
		c0-0.02,0-0.04-0.01-0.06c0-0.01,0-0.02,0-0.03C5.48,5.43,5.47,5.37,5.47,5.31C5.48,5.3,5.48,5.28,5.49,5.27c0,0,0,0,0-0.01
		S5.5,5.25,5.51,5.25c0.01,0,0.01,0,0.02-0.01l0,0h0.01l0,0L5.37,5.24L5.37,5.24L5.37,5.24z"/>
	<path class="st0" d="M6.28,5.24L6.28,5.24L6.28,5.24L6.28,5.24C6.3,5.25,6.3,5.25,6.31,5.25c0.01,0,0.01,0.01,0.02,0.01
		c0,0,0,0,0,0.01l0.02,0.04c0,0.06-0.01,0.12-0.01,0.18c0,0.01,0,0.01,0,0.02c0,0.03,0,0.05-0.01,0.08V5.6v0.01l0,0
		c0,0.01,0.01,0.01,0.01,0.02l0.01,0.01c0.01,0.01,0.01,0.02,0.02,0.03l0,0l0,0c0-0.01,0.01-0.02,0.02-0.03L6.4,5.63
		c0-0.01,0.01-0.01,0.01-0.02l0,0V5.6V5.59c0-0.02,0-0.04-0.01-0.06c0-0.01,0-0.02,0-0.03C6.39,5.43,6.38,5.37,6.37,5.31
		C6.38,5.29,6.39,5.28,6.4,5.27c0,0,0,0,0-0.01s0.01-0.01,0.02-0.01c0.01,0,0.01,0,0.02-0.01l0,0h0.01l0,0L6.28,5.24L6.28,5.24
		L6.28,5.24z"/>
	<path class="st0" d="M7.19,5.24L7.19,5.24L7.19,5.24L7.19,5.24C7.2,5.25,7.21,5.25,7.22,5.25c0.01,0,0.01,0.01,0.02,0.01
		c0,0,0,0,0,0.01l0.02,0.04c0,0.06-0.01,0.12-0.02,0.18c0,0.01,0,0.01,0,0.02c0,0.03,0,0.05-0.01,0.08V5.6v0.01l0,0
		c0,0.01,0.01,0.01,0.01,0.02l0.01,0.01c0.01,0.01,0.01,0.02,0.02,0.03l0,0l0,0c0-0.01,0.01-0.02,0.02-0.03L7.3,5.63
		c0-0.01,0.01-0.01,0.01-0.02l0,0V5.6V5.59c0-0.02,0-0.04-0.01-0.06c0-0.01,0-0.02,0-0.03C7.29,5.43,7.29,5.37,7.28,5.31
		C7.29,5.29,7.3,5.28,7.3,5.27c0,0,0,0,0-0.01s0.01-0.01,0.02-0.01c0.01,0,0.01,0,0.02-0.01l0,0h0.01l0,0L7.19,5.24L7.19,5.24
		L7.19,5.24z"/>
	<path class="st0" d="M8.1,5.24L8.1,5.24L8.1,5.24L8.1,5.24c0.01,0.01,0.02,0.01,0.03,0.01c0.01,0,0.01,0.01,0.02,0.01
		c0,0,0,0,0,0.01l0.02,0.04c0,0.06-0.01,0.12-0.02,0.18c0,0.01,0,0.01,0,0.02c0,0.03,0,0.05-0.01,0.08V5.6v0.01l0,0
		c0,0.01,0.01,0.01,0.01,0.02l0.01,0.01c0.01,0.01,0.01,0.02,0.02,0.03l0,0l0,0c0-0.01,0.01-0.02,0.02-0.03l0.01-0.01
		c0-0.01,0.01-0.01,0.01-0.02l0,0V5.6V5.59c0-0.02,0-0.04-0.01-0.06c0-0.01,0-0.02,0-0.03C8.2,5.43,8.2,5.37,8.19,5.31
		C8.2,5.29,8.21,5.28,8.21,5.27c0,0,0,0,0-0.01s0.01-0.01,0.02-0.01s0.01,0,0.02-0.01l0,0h0.01l0,0L8.1,5.24L8.1,5.24L8.1,5.24z"/>
	<path class="st0" d="M9.01,5.24L9.01,5.24L9.01,5.24L9.01,5.24c0.01,0.01,0.02,0.01,0.03,0.01c0.01,0,0.01,0.01,0.02,0.01
		c0,0,0,0,0,0.01l0.02,0.04C9.07,5.37,9.07,5.43,9.06,5.49c0,0.01,0,0.01,0,0.02c0,0.03,0,0.05-0.01,0.08V5.6v0.01l0,0
		c0,0.01,0.01,0.01,0.01,0.02l0.01,0.01c0.01,0.01,0.01,0.02,0.02,0.03l0,0l0,0c0-0.01,0.01-0.02,0.02-0.03l0.01-0.01
		c0-0.01,0.01-0.01,0.01-0.02l0,0V5.6V5.59c0-0.02,0-0.04-0.01-0.06c0-0.01,0-0.02,0-0.03C9.11,5.43,9.11,5.37,9.1,5.31
		C9.11,5.3,9.11,5.28,9.12,5.27c0,0,0,0,0-0.01s0.01-0.01,0.02-0.01s0.01,0,0.02-0.01l0,0h0.01l0,0L9.01,5.24L9.01,5.24L9.01,5.24z"
		/>
	<path class="st0" d="M9.92,5.24L9.92,5.24L9.92,5.24L9.92,5.24c0.01,0.01,0.02,0.01,0.03,0.01c0.01,0,0.01,0.01,0.02,0.01
		c0,0,0,0,0,0.01l0.02,0.04C9.98,5.37,9.98,5.43,9.97,5.49c0,0.01,0,0.01,0,0.02c0,0.03,0,0.05-0.01,0.08V5.6v0.01l0,0
		c0,0.01,0.01,0.01,0.01,0.02l0.01,0.01C9.99,5.65,9.99,5.66,10,5.67l0,0l0,0c0-0.01,0.01-0.02,0.02-0.03l0.01-0.01
		c0-0.01,0.01-0.01,0.01-0.02l0,0V5.6V5.59c0-0.02,0-0.04-0.01-0.06c0-0.01,0-0.02,0-0.03c-0.01-0.06-0.01-0.13-0.02-0.19
		c0.01-0.01,0.01-0.03,0.02-0.04c0,0,0,0,0-0.01s0.01-0.01,0.02-0.01s0.01,0,0.02-0.01l0,0h0.01l0,0L9.92,5.24L9.92,5.24L9.92,5.24z
		"/>
</g>
<g>
	<path class="st0" d="M-0.08,6.33L-0.08,6.33L-0.08,6.33L-0.08,6.33c0.01,0.01,0.02,0.01,0.03,0.01s0.01,0.01,0.02,0.01
		c0,0,0,0,0,0.01l0.02,0.04c-0.01,0.06-0.01,0.13-0.02,0.19c0,0.01,0,0.01,0,0.02c0,0.03,0,0.05-0.01,0.08V6.7v0.01l0,0
		c0,0.01,0.01,0.01,0.01,0.02l0.01,0.01c0.01,0,0.01,0.01,0.02,0.02l0,0l0,0c0-0.01,0.01-0.02,0.02-0.03l0.01-0.01
		c0-0.01,0.01-0.01,0.01-0.02l0,0V6.69V6.68c0-0.02,0-0.04-0.01-0.06c0-0.01,0-0.02,0-0.03C0.02,6.52,0.02,6.46,0.01,6.4
		c0.01-0.01,0.01-0.03,0.02-0.04c0,0,0,0,0-0.01s0.01-0.01,0.02-0.01s0.01,0,0.02-0.01l0,0h0.01l0,0L-0.08,6.33L-0.08,6.33
		L-0.08,6.33z"/>
	<path class="st0" d="M0.83,6.33L0.83,6.33L0.83,6.33L0.83,6.33c0.01,0.01,0.02,0.01,0.03,0.01s0.01,0.01,0.02,0.01c0,0,0,0,0,0.01
		L0.9,6.4C0.89,6.46,0.89,6.52,0.88,6.59c0,0.01,0,0.01,0,0.02c0,0.03,0,0.05-0.01,0.08V6.7v0.01l0,0c0,0.01,0.01,0.01,0.01,0.02
		l0.01,0.01c0.01,0,0.01,0.01,0.02,0.02l0,0l0,0c0-0.01,0.01-0.02,0.02-0.03l0.01-0.01c0-0.01,0.01-0.01,0.01-0.02l0,0V6.69V6.68
		c0-0.02,0-0.04-0.01-0.06c0-0.01,0-0.02,0-0.03C0.93,6.52,0.93,6.46,0.92,6.4c0.01-0.01,0.01-0.03,0.02-0.04c0,0,0,0,0-0.01
		s0.01-0.01,0.02-0.01s0.01,0,0.02-0.01l0,0h0.01l0,0L0.83,6.33L0.83,6.33L0.83,6.33z"/>
	<path class="st0" d="M1.74,6.33L1.74,6.33L1.74,6.33L1.74,6.33c0.01,0.01,0.02,0.01,0.03,0.01s0.01,0.01,0.02,0.01c0,0,0,0,0,0.01
		L1.81,6.4C1.8,6.46,1.8,6.52,1.79,6.59c0,0.01,0,0.01,0,0.02c0,0.03,0,0.05-0.01,0.08V6.7v0.01l0,0c0,0.01,0.01,0.01,0.01,0.02
		L1.8,6.74c0.01,0.01,0.01,0.02,0.02,0.03l0,0l0,0c0-0.01,0.01-0.02,0.02-0.03l0.01-0.01c0-0.01,0.01-0.01,0.01-0.02l0,0V6.7V6.69
		c0-0.02,0-0.04-0.01-0.06c0-0.01,0-0.02,0-0.03C1.84,6.52,1.83,6.46,1.83,6.4c0.01-0.01,0.01-0.03,0.02-0.04c0,0,0,0,0-0.01
		s0.01-0.01,0.02-0.01s0.01,0,0.02-0.01l0,0H1.9l0,0L1.74,6.33L1.74,6.33L1.74,6.33z"/>
	<path class="st0" d="M2.65,6.33L2.65,6.33L2.65,6.33L2.65,6.33c0.01,0.01,0.02,0.01,0.03,0.01S2.69,6.35,2.7,6.35c0,0,0,0,0,0.01
		L2.72,6.4C2.71,6.46,2.71,6.52,2.7,6.59c0,0.01,0,0.01,0,0.02c0,0.03,0,0.05-0.01,0.08V6.7v0.01l0,0c0,0.01,0.01,0.01,0.01,0.02
		l0.01,0.01c0.01,0.01,0.01,0.02,0.02,0.03l0,0l0,0c0-0.01,0.01-0.02,0.02-0.03l0.01-0.01c0-0.01,0.01-0.01,0.01-0.02l0,0V6.7V6.69
		c0-0.02,0-0.04-0.01-0.06c0-0.01,0-0.02,0-0.03C2.75,6.52,2.74,6.46,2.74,6.4c0.01-0.01,0.01-0.03,0.02-0.04c0,0,0,0,0-0.01
		s0.01-0.01,0.02-0.01s0.01,0,0.02-0.01l0,0h0.01l0,0L2.65,6.33L2.65,6.33L2.65,6.33z"/>
	<path class="st0" d="M3.56,6.33L3.56,6.33L3.56,6.33L3.56,6.33c0.01,0.01,0.02,0.01,0.03,0.01S3.6,6.35,3.61,6.35c0,0,0,0,0,0.01
		L3.62,6.4c0,0.06-0.01,0.12-0.01,0.19c0,0.01,0,0.01,0,0.02c0,0.03,0,0.05-0.01,0.08V6.7v0.01l0,0c0,0.01,0.01,0.01,0.01,0.02
		l0.01,0.01c0.01,0.01,0.01,0.02,0.02,0.03l0,0l0,0c0-0.01,0.01-0.02,0.02-0.03l0.01-0.01c0-0.01,0.01-0.01,0.01-0.02l0,0V6.7V6.69
		c0-0.02,0-0.04-0.01-0.06c0-0.01,0-0.02,0-0.03C3.66,6.52,3.65,6.46,3.65,6.4c0.01-0.01,0.01-0.03,0.02-0.04c0,0,0,0,0-0.01
		s0.01-0.01,0.02-0.01s0.01,0,0.02-0.01l0,0h0.01l0,0L3.56,6.33L3.56,6.33L3.56,6.33z"/>
	<path class="st0" d="M4.46,6.33L4.46,6.33L4.46,6.33L4.46,6.33c0.01,0.01,0.02,0.01,0.03,0.01S4.5,6.35,4.51,6.35c0,0,0,0,0,0.01
		L4.53,6.4c0,0.06-0.01,0.12-0.01,0.19c0,0.01,0,0.01,0,0.02c0,0.03,0,0.05-0.01,0.08V6.7v0.01l0,0c0,0.01,0.01,0.01,0.01,0.02
		l0.01,0.01c0.01,0.01,0.01,0.02,0.02,0.03l0,0l0,0c0-0.01,0.01-0.02,0.02-0.03l0.01-0.01c0-0.01,0.01-0.01,0.01-0.02l0,0V6.7V6.69
		c0-0.02,0-0.04-0.01-0.06c0-0.01,0-0.02,0-0.03C4.57,6.52,4.56,6.46,4.56,6.4c0.01-0.01,0.01-0.03,0.02-0.04c0,0,0,0,0-0.01
		S4.59,6.34,4.6,6.34c0.01,0,0.01,0,0.02-0.01l0,0h0.01l0,0L4.46,6.33L4.46,6.33L4.46,6.33z"/>
	<path class="st0" d="M5.37,6.33L5.37,6.33L5.37,6.33L5.37,6.33C5.39,6.34,5.39,6.34,5.4,6.34s0.01,0.01,0.02,0.01c0,0,0,0,0,0.01
		L5.44,6.4c0,0.06-0.01,0.12-0.01,0.19c0,0.01,0,0.01,0,0.02c0,0.03,0,0.05-0.01,0.08V6.7v0.01l0,0c0,0.01,0.01,0.01,0.01,0.02
		l0.01,0.01c0.01,0.01,0.01,0.02,0.02,0.03l0,0l0,0c0-0.01,0.01-0.02,0.02-0.03l0.01-0.01c0-0.01,0.01-0.01,0.01-0.02l0,0V6.7V6.69
		c0-0.02,0-0.04-0.01-0.06c0-0.01,0-0.02,0-0.03C5.48,6.52,5.47,6.46,5.47,6.4c0.01-0.01,0.01-0.03,0.02-0.04c0,0,0,0,0-0.01
		S5.5,6.34,5.51,6.34c0.01,0,0.01,0,0.02-0.01l0,0h0.01l0,0L5.37,6.33L5.37,6.33L5.37,6.33z"/>
	<path class="st0" d="M6.28,6.33L6.28,6.33L6.28,6.33L6.28,6.33C6.3,6.34,6.3,6.34,6.31,6.34c0.01,0,0.01,0.01,0.02,0.01
		c0,0,0,0,0,0.01L6.35,6.4c0,0.06-0.01,0.12-0.01,0.19c0,0.01,0,0.01,0,0.02c0,0.03,0,0.05-0.01,0.08V6.7v0.01l0,0
		c0,0.01,0.01,0.01,0.01,0.02l0.01,0.01c0.01,0.01,0.01,0.02,0.02,0.03l0,0l0,0c0-0.01,0.01-0.02,0.02-0.03L6.4,6.73
		c-0.01-0.02,0-0.03,0-0.03l0,0V6.69V6.68c0-0.02,0-0.04-0.01-0.06c0-0.01,0-0.02,0-0.03c0-0.07-0.01-0.13-0.02-0.19
		C6.38,6.39,6.39,6.37,6.4,6.36c0,0,0,0,0-0.01s0.01-0.01,0.02-0.01c0.01,0,0.01,0,0.02-0.01l0,0h0.01l0,0L6.28,6.33L6.28,6.33
		L6.28,6.33z"/>
	<path class="st0" d="M7.19,6.33L7.19,6.33L7.19,6.33L7.19,6.33C7.2,6.34,7.21,6.34,7.22,6.34c0.01,0,0.01,0.01,0.02,0.01
		c0,0,0,0,0,0.01L7.26,6.4c0,0.06-0.01,0.12-0.02,0.19c0,0.01,0,0.01,0,0.02c0,0.03,0,0.05-0.01,0.08V6.7v0.01l0,0
		c0,0.01,0.01,0.01,0.01,0.02l0.01,0.01c0.01,0.01,0.01,0.02,0.02,0.03l0,0l0,0c0-0.01,0.01-0.02,0.02-0.03L7.3,6.73
		c0-0.01,0.01-0.01,0.01-0.02l0,0V6.7V6.69c0-0.02,0-0.04-0.01-0.06c0-0.01,0-0.02,0-0.03C7.29,6.52,7.29,6.46,7.28,6.4
		C7.29,6.39,7.3,6.37,7.3,6.36c0,0,0,0,0-0.01s0.01-0.01,0.02-0.01c0.01,0,0.01,0,0.02-0.01l0,0h0.01l0,0L7.19,6.33L7.19,6.33
		L7.19,6.33z"/>
	<path class="st0" d="M8.1,6.33L8.1,6.33L8.1,6.33L8.1,6.33c0.01,0.01,0.02,0.01,0.03,0.01c0.01,0,0.01,0.01,0.02,0.01
		c0,0,0,0,0,0.01L8.17,6.4c0,0.06-0.01,0.12-0.02,0.19c0,0.01,0,0.01,0,0.02c0,0.03,0,0.05-0.01,0.08V6.7v0.01l0,0
		c0,0.01,0.01,0.01,0.01,0.02l0.01,0.01c0.01,0.01,0.01,0.02,0.02,0.03l0,0l0,0c0-0.01,0.01-0.02,0.02-0.03l0.01-0.01
		c0-0.01,0.01-0.01,0.01-0.02l0,0V6.7V6.69c0-0.02,0-0.04-0.01-0.06c0-0.01,0-0.02,0-0.03C8.2,6.52,8.2,6.46,8.19,6.4
		C8.2,6.39,8.21,6.37,8.21,6.36c0,0,0,0,0-0.01s0.01-0.01,0.02-0.01s0.01,0,0.02-0.01l0,0h0.01l0,0L8.1,6.33L8.1,6.33L8.1,6.33z"/>
	<path class="st0" d="M9.01,6.33L9.01,6.33L9.01,6.33L9.01,6.33c0.01,0.01,0.02,0.01,0.03,0.01c0.01,0,0.01,0.01,0.02,0.01
		c0,0,0,0,0,0.01L9.08,6.4C9.07,6.46,9.07,6.52,9.06,6.59c0,0.01,0,0.01,0,0.02c0,0.03,0,0.05-0.01,0.08V6.7v0.01l0,0
		c0,0.01,0.01,0.01,0.01,0.02l0.01,0.01c0.01,0.01,0.01,0.02,0.02,0.03l0,0l0,0c0-0.01,0.01-0.02,0.02-0.03l0.01-0.01
		c0-0.01,0.01-0.01,0.01-0.02l0,0V6.7V6.69c0-0.02,0-0.04-0.01-0.06c0-0.01,0-0.02,0-0.03C9.11,6.52,9.11,6.46,9.1,6.4
		c0.01-0.01,0.01-0.03,0.02-0.04c0,0,0,0,0-0.01s0.01-0.01,0.02-0.01s0.01,0,0.02-0.01l0,0h0.01l0,0L9.01,6.33L9.01,6.33L9.01,6.33z
		"/>
	<path class="st0" d="M9.92,6.33L9.92,6.33L9.92,6.33L9.92,6.33c0.01,0.01,0.02,0.01,0.03,0.01c0.01,0,0.01,0.01,0.02,0.01
		c0,0,0,0,0,0.01L9.99,6.4C9.98,6.46,9.98,6.52,9.97,6.59c0,0.01,0,0.01,0,0.02c0,0.03,0,0.05-0.01,0.08V6.7v0.01l0,0
		c0,0.01,0.01,0.01,0.01,0.02l0.01,0.01c0.01,0,0.01,0.01,0.02,0.02l0,0l0,0c0-0.01,0.01-0.02,0.02-0.03l0.01-0.01
		c0-0.01,0.01-0.01,0.01-0.02l0,0V6.69V6.68c0-0.02,0-0.04-0.01-0.06c0-0.01,0-0.02,0-0.03c-0.01-0.06-0.01-0.13-0.02-0.19
		c0.01-0.01,0.01-0.03,0.02-0.04c0,0,0,0,0-0.01s0.01-0.01,0.02-0.01s0.01,0,0.02-0.01l0,0h0.01l0,0L9.92,6.33L9.92,6.33L9.92,6.33z
		"/>
</g>
<g>
	<path class="st0" d="M-0.08,7.42L-0.08,7.42L-0.08,7.42L-0.08,7.42c0.01,0.01,0.02,0.01,0.03,0.01s0.01,0.01,0.02,0.01
		c0,0,0,0,0,0.01l0.02,0.04c-0.01,0.06-0.01,0.13-0.02,0.19c0,0.01,0,0.01,0,0.02c0,0.03,0,0.05-0.01,0.08v0.01V7.8l0,0
		c0,0.01,0.01,0.01,0.01,0.02l0.01,0.01c0.01,0,0.01,0.01,0.02,0.02l0,0l0,0c0-0.01,0.01-0.02,0.02-0.03l0.01-0.01
		c0-0.01,0.01-0.01,0.01-0.02l0,0V7.78V7.77c0-0.02,0-0.04-0.01-0.06c0-0.01,0-0.02,0-0.03C0.02,7.61,0.02,7.55,0.01,7.49
		c0.01-0.01,0.01-0.03,0.02-0.04c0,0,0,0,0-0.01s0.01-0.01,0.02-0.01s0.01,0,0.02-0.01l0,0h0.01l0,0L-0.08,7.42L-0.08,7.42
		L-0.08,7.42z"/>
	<path class="st0" d="M0.83,7.42L0.83,7.42L0.83,7.42L0.83,7.42c0.01,0.01,0.02,0.01,0.03,0.01s0.01,0.01,0.02,0.01c0,0,0,0,0,0.01
		L0.9,7.49C0.89,7.55,0.89,7.61,0.88,7.68c0,0.01,0,0.01,0,0.02c0,0.03,0,0.05-0.01,0.08v0.01V7.8l0,0c0,0.01,0.01,0.01,0.01,0.02
		l0.01,0.01c0.01,0,0.01,0.01,0.02,0.02l0,0l0,0c0-0.01,0.01-0.02,0.02-0.03l0.01-0.01c0-0.01,0.01-0.01,0.01-0.02l0,0V7.78V7.77
		c0-0.02,0-0.04-0.01-0.06c0-0.01,0-0.02,0-0.03C0.93,7.61,0.93,7.55,0.92,7.49c0.01-0.01,0.01-0.03,0.02-0.04c0,0,0,0,0-0.01
		s0.01-0.01,0.02-0.01s0.01,0,0.02-0.01l0,0h0.01l0,0L0.83,7.42L0.83,7.42L0.83,7.42z"/>
	<path class="st0" d="M1.74,7.42L1.74,7.42L1.74,7.42L1.74,7.42c0.01,0.01,0.02,0.01,0.03,0.01s0.01,0.01,0.02,0.01c0,0,0,0,0,0.01
		l0.02,0.04C1.8,7.55,1.8,7.61,1.79,7.68c0,0.01,0,0.01,0,0.02c0,0.03,0,0.05-0.01,0.08v0.01V7.8l0,0c0,0.01,0.01,0.01,0.01,0.02
		L1.8,7.83c0.01,0.01,0.01,0.02,0.02,0.03l0,0l0,0c0-0.01,0.01-0.02,0.02-0.03l0.01-0.01c0-0.01,0.01-0.01,0.01-0.02l0,0V7.79V7.78
		c0-0.02,0-0.04-0.01-0.06c0-0.01,0-0.02,0-0.03c-0.01-0.08-0.02-0.14-0.02-0.2c0.01-0.01,0.01-0.03,0.02-0.04c0,0,0,0,0-0.01
		s0.01-0.01,0.02-0.01s0.01,0,0.02-0.01l0,0H1.9l0,0L1.74,7.42L1.74,7.42L1.74,7.42z"/>
	<path class="st0" d="M2.65,7.42L2.65,7.42L2.65,7.42L2.65,7.42c0.01,0.01,0.02,0.01,0.03,0.01S2.69,7.44,2.7,7.44c0,0,0,0,0,0.01
		l0.02,0.04C2.71,7.55,2.71,7.61,2.7,7.68c0,0.01,0,0.01,0,0.02c0,0.03,0,0.05-0.01,0.08v0.01V7.8l0,0c0,0,0.01,0,0.01,0.01
		l0.01,0.01c0.01,0.01,0.01,0.02,0.02,0.03l0,0l0,0c0-0.01,0.01-0.02,0.02-0.03l0.01-0.01c0-0.01,0.01-0.01,0.01-0.02l0,0V7.78V7.77
		c0-0.02,0-0.04-0.01-0.06c0-0.01,0-0.02,0-0.03C2.75,7.61,2.74,7.55,2.74,7.49c0.01-0.01,0.01-0.03,0.02-0.04c0,0,0,0,0-0.01
		s0.01-0.01,0.02-0.01s0.01,0,0.02-0.01l0,0h0.01l0,0L2.65,7.42L2.65,7.42L2.65,7.42z"/>
	<path class="st0" d="M3.56,7.42L3.56,7.42L3.56,7.42L3.56,7.42c0.01,0.01,0.02,0.01,0.03,0.01S3.6,7.44,3.61,7.44c0,0,0,0,0,0.01
		l0.02,0.04C3.62,7.55,3.61,7.61,3.61,7.68c0,0.01,0,0.01,0,0.02c0,0.03,0,0.05-0.01,0.08v0.01V7.8l0,0c0,0.01,0.01,0.01,0.01,0.02
		l0.01,0.01c0.01,0.01,0.01,0.02,0.02,0.03l0,0l0,0c0-0.01,0.01-0.02,0.02-0.03l0.01-0.01c0-0.01,0.01-0.01,0.01-0.02l0,0V7.79V7.78
		c0-0.02,0-0.04-0.01-0.06c0-0.01,0-0.02,0-0.03c-0.01-0.08-0.02-0.14-0.02-0.2c0.01-0.01,0.01-0.03,0.02-0.04c0,0,0,0,0-0.01
		s0.01-0.01,0.02-0.01s0.01,0,0.02-0.01l0,0h0.01l0,0L3.56,7.42L3.56,7.42L3.56,7.42z"/>
	<path class="st0" d="M4.46,7.42L4.46,7.42L4.46,7.42L4.46,7.42c0.01,0.01,0.02,0.01,0.03,0.01S4.5,7.44,4.51,7.44c0,0,0,0,0,0.01
		l0.02,0.04c0,0.06-0.01,0.12-0.01,0.19c0,0.01,0,0.01,0,0.02c0,0.03,0,0.05-0.01,0.08v0.01V7.8l0,0c0,0.01,0.01,0.01,0.01,0.02
		l0.01,0.01c0.01,0.01,0.01,0.02,0.02,0.03l0,0l0,0c0-0.01,0.01-0.02,0.02-0.03l0.01-0.01c0-0.01,0.01-0.01,0.01-0.02l0,0V7.79V7.78
		c0-0.02,0-0.04-0.01-0.06c0-0.01,0-0.02,0-0.03c-0.01-0.08-0.02-0.14-0.02-0.2c0.01-0.01,0.01-0.03,0.02-0.04c0,0,0,0,0-0.01
		S4.59,7.43,4.6,7.43c0.01,0,0.01,0,0.02-0.01l0,0h0.01l0,0L4.46,7.42L4.46,7.42L4.46,7.42z"/>
	<path class="st0" d="M5.37,7.42L5.37,7.42L5.37,7.42L5.37,7.42C5.39,7.43,5.39,7.43,5.4,7.43s0.01,0.01,0.02,0.01c0,0,0,0,0,0.01
		l0.02,0.04c0,0.06-0.01,0.12-0.01,0.19c0,0.01,0,0.01,0,0.02c0,0.03,0,0.05-0.01,0.08v0.01V7.8l0,0c0,0.01,0.01,0.01,0.01,0.02
		l0.01,0.01c0.01,0.01,0.01,0.02,0.02,0.03l0,0l0,0c0-0.01,0.01-0.02,0.02-0.03l0.01-0.01c0-0.01,0.01-0.01,0.01-0.02l0,0V7.79V7.78
		c0-0.02,0-0.04-0.01-0.06c0-0.01,0-0.02,0-0.03c-0.01-0.08-0.02-0.14-0.02-0.2c0.01-0.01,0.01-0.03,0.02-0.04c0,0,0,0,0-0.01
		S5.5,7.43,5.51,7.43c0.01,0,0.01,0,0.02-0.01l0,0h0.01l0,0L5.37,7.42L5.37,7.42L5.37,7.42z"/>
	<path class="st0" d="M6.28,7.42L6.28,7.42L6.28,7.42L6.28,7.42C6.3,7.43,6.3,7.43,6.31,7.43c0.01,0,0.01,0.01,0.02,0.01
		c0,0,0,0,0,0.01l0.02,0.04c0,0.06-0.01,0.12-0.01,0.19c0,0.01,0,0.01,0,0.02c0,0.03,0,0.05-0.01,0.08v0.01V7.8l0,0
		c0,0.01,0.01,0.01,0.01,0.02l0.01,0.01c0.01,0.01,0.01,0.02,0.02,0.03l0,0l0,0c0-0.01,0.01-0.02,0.02-0.03L6.4,7.82
		c-0.01-0.02,0-0.02,0-0.03l0,0V7.78V7.77c0-0.02,0-0.04-0.01-0.06c0-0.01,0-0.02,0-0.03c0-0.07-0.01-0.13-0.02-0.19
		C6.38,7.48,6.39,7.46,6.4,7.45c0,0,0,0,0-0.01s0.01-0.01,0.02-0.01c0.01,0,0.01,0,0.02-0.01l0,0h0.01l0,0L6.28,7.42L6.28,7.42
		L6.28,7.42z"/>
	<path class="st0" d="M7.19,7.42L7.19,7.42L7.19,7.42L7.19,7.42C7.2,7.43,7.21,7.43,7.22,7.43c0.01,0,0.01,0.01,0.02,0.01
		c0,0,0,0,0,0.01l0.02,0.04c0,0.06-0.01,0.12-0.02,0.19c0,0.01,0,0.01,0,0.02c0,0.03,0,0.05-0.01,0.08v0.01V7.8l0,0
		c0,0.01,0.01,0.01,0.01,0.02l0.01,0.01c0.01,0.01,0.01,0.02,0.02,0.03l0,0l0,0c0-0.01,0.01-0.02,0.02-0.03L7.3,7.82
		c0-0.01,0.01-0.01,0.01-0.02l0,0V7.79V7.78c0-0.02,0-0.04-0.01-0.06c0-0.01,0-0.02,0-0.03c-0.01-0.08-0.01-0.14-0.02-0.2
		C7.29,7.48,7.3,7.46,7.3,7.45c0,0,0,0,0-0.01s0.01-0.01,0.02-0.01c0.01,0,0.01,0,0.02-0.01l0,0h0.01l0,0L7.19,7.42L7.19,7.42
		L7.19,7.42z"/>
	<path class="st0" d="M8.1,7.42L8.1,7.42L8.1,7.42L8.1,7.42c0.01,0.01,0.02,0.01,0.03,0.01c0.01,0,0.01,0.01,0.02,0.01
		c0,0,0,0,0,0.01l0.02,0.04c0,0.06-0.01,0.12-0.02,0.19c0,0.01,0,0.01,0,0.02c0,0.03,0,0.05-0.01,0.08v0.01V7.8l0,0
		c0,0.01,0.01,0.01,0.01,0.02l0.01,0.01c0.01,0.01,0.01,0.02,0.02,0.03l0,0l0,0c0-0.01,0.01-0.02,0.02-0.03l0.01-0.01
		c0-0.01,0.01-0.01,0.01-0.02l0,0V7.79V7.78c0-0.02,0-0.04-0.01-0.06c0-0.01,0-0.02,0-0.03C8.2,7.61,8.2,7.55,8.19,7.49
		C8.2,7.48,8.21,7.46,8.21,7.45c0,0,0,0,0-0.01s0.01-0.01,0.02-0.01s0.01,0,0.02-0.01l0,0h0.01l0,0L8.1,7.42L8.1,7.42L8.1,7.42z"/>
	<path class="st0" d="M9.01,7.42L9.01,7.42L9.01,7.42L9.01,7.42c0.01,0.01,0.02,0.01,0.03,0.01c0.01,0,0.01,0.01,0.02,0.01
		c0,0,0,0,0,0.01l0.02,0.04C9.07,7.55,9.07,7.61,9.06,7.68c0,0.01,0,0.01,0,0.02c0,0.03,0,0.05-0.01,0.08v0.01V7.8l0,0
		c0,0.01,0.01,0.01,0.01,0.02l0.01,0.01c0.01,0.01,0.01,0.02,0.02,0.03l0,0l0,0c0-0.01,0.01-0.02,0.02-0.03l0.01-0.01
		c0-0.01,0.01-0.01,0.01-0.02l0,0V7.79V7.78c0-0.02,0-0.04-0.01-0.06c0-0.01,0-0.02,0-0.03C9.11,7.61,9.11,7.55,9.1,7.49
		c0.01-0.01,0.01-0.03,0.02-0.04c0,0,0,0,0-0.01s0.01-0.01,0.02-0.01s0.01,0,0.02-0.01l0,0h0.01l0,0L9.01,7.42L9.01,7.42L9.01,7.42z
		"/>
	<path class="st0" d="M9.92,7.42L9.92,7.42L9.92,7.42L9.92,7.42c0.01,0.01,0.02,0.01,0.03,0.01c0.01,0,0.01,0.01,0.02,0.01
		c0,0,0,0,0,0.01l0.02,0.04C9.98,7.55,9.98,7.61,9.97,7.68c0,0.01,0,0.01,0,0.02c0,0.03,0,0.05-0.01,0.08v0.01V7.8l0,0
		c0,0.01,0.01,0.01,0.01,0.02l0.01,0.01c0.01,0,0.01,0.01,0.02,0.02l0,0l0,0c0-0.01,0.01-0.02,0.02-0.03l0.01-0.01
		c0-0.01,0.01-0.01,0.01-0.02l0,0V7.78V7.77c0-0.02,0-0.04-0.01-0.06c0-0.01,0-0.02,0-0.03c-0.01-0.06-0.01-0.13-0.02-0.19
		c0.01-0.01,0.01-0.03,0.02-0.04c0,0,0,0,0-0.01s0.01-0.01,0.02-0.01s0.01,0,0.02-0.01l0,0h0.01l0,0L9.92,7.42L9.92,7.42L9.92,7.42z
		"/>
</g>
<g>
	<path class="st0" d="M-0.08,8.51L-0.08,8.51L-0.08,8.51L-0.08,8.51c0.01,0.01,0.02,0.01,0.03,0.01s0.01,0.01,0.02,0.01
		c0,0,0,0,0,0.01l0.02,0.04C-0.02,8.64-0.02,8.7-0.03,8.77c0,0.01,0,0.01,0,0.02c0,0.03,0,0.05-0.01,0.08v0.01v0.01l0,0
		c0,0.01,0.01,0.01,0.01,0.02l0.01,0.01c0.01,0,0.01,0.01,0.02,0.02l0,0l0,0c0-0.01,0.01-0.02,0.02-0.03L0.03,8.9
		c0-0.01,0.01-0.01,0.01-0.02l0,0V8.87V8.86c0-0.02,0-0.04-0.01-0.06c0-0.01,0-0.02,0-0.03C0.02,8.71,0.02,8.64,0.01,8.58
		c0.01-0.01,0.01-0.03,0.02-0.04c0,0,0,0,0-0.01s0.01-0.01,0.02-0.01s0.01,0,0.02-0.01l0,0h0.01l0,0L-0.08,8.51L-0.08,8.51
		L-0.08,8.51z"/>
	<path class="st0" d="M0.83,8.51L0.83,8.51L0.83,8.51L0.83,8.51c0.01,0.01,0.02,0.01,0.03,0.01s0.01,0.01,0.02,0.01c0,0,0,0,0,0.01
		L0.9,8.58C0.89,8.64,0.89,8.7,0.88,8.77c0,0.01,0,0.01,0,0.02c0,0.03,0,0.05-0.01,0.08v0.01v0.01l0,0c0,0.01,0.01,0.01,0.01,0.02
		l0.01,0.01c0.01,0,0.01,0.01,0.02,0.02l0,0l0,0c0-0.01,0.01-0.02,0.02-0.03L0.94,8.9c0-0.01,0.01-0.01,0.01-0.02l0,0V8.87V8.86
		c0-0.02,0-0.04-0.01-0.06c0-0.01,0-0.02,0-0.03C0.93,8.71,0.93,8.64,0.92,8.58c0.01-0.01,0.01-0.03,0.02-0.04c0,0,0,0,0-0.01
		s0.01-0.01,0.02-0.01s0.01,0,0.02-0.01l0,0h0.01l0,0L0.83,8.51L0.83,8.51L0.83,8.51z"/>
	<path class="st0" d="M1.74,8.51L1.74,8.51L1.74,8.51L1.74,8.51c0.01,0.01,0.02,0.01,0.03,0.01s0.01,0.01,0.02,0.01c0,0,0,0,0,0.01
		l0.02,0.04C1.8,8.64,1.8,8.7,1.79,8.77c0,0.01,0,0.01,0,0.02c0,0.03,0,0.05-0.01,0.08v0.01v0.01l0,0c0,0.01,0.01,0.01,0.01,0.02
		L1.8,8.92c0.01,0.01,0.01,0.02,0.02,0.03l0,0l0,0c0-0.01,0.01-0.02,0.02-0.03l0.01-0.01c0-0.01,0.01-0.01,0.01-0.02l0,0V8.88V8.87
		c0-0.02,0-0.04-0.01-0.06c0-0.01,0-0.02,0-0.03c-0.01-0.07-0.02-0.14-0.02-0.2c0.01-0.01,0.01-0.03,0.02-0.04c0,0,0,0,0-0.01
		s0.01-0.01,0.02-0.01s0.01,0,0.02-0.01l0,0H1.9l0,0L1.74,8.51L1.74,8.51L1.74,8.51z"/>
	<path class="st0" d="M2.65,8.51L2.65,8.51L2.65,8.51L2.65,8.51c0.01,0.01,0.02,0.01,0.03,0.01S2.69,8.53,2.7,8.53c0,0,0,0,0,0.01
		l0.02,0.04C2.71,8.64,2.71,8.7,2.7,8.77c0,0.01,0,0.01,0,0.02c0,0.03,0,0.05-0.01,0.08v0.01v0.01l0,0C2.69,8.9,2.7,8.9,2.7,8.91
		l0.01,0.01c0.01,0.01,0.01,0.02,0.02,0.03l0,0l0,0c0-0.01,0.01-0.02,0.02-0.03l0.01-0.01c0-0.01,0.01-0.01,0.01-0.02l0,0V8.88V8.87
		c0-0.02,0-0.04-0.01-0.06c0-0.01,0-0.02,0-0.03c-0.01-0.07-0.02-0.14-0.02-0.2c0.01-0.01,0.01-0.03,0.02-0.04c0,0,0,0,0-0.01
		s0.01-0.01,0.02-0.01s0.01,0,0.02-0.01l0,0h0.01l0,0L2.65,8.51L2.65,8.51L2.65,8.51z"/>
	<path class="st0" d="M3.56,8.51L3.56,8.51L3.56,8.51L3.56,8.51c0.01,0.01,0.02,0.01,0.03,0.01S3.6,8.53,3.61,8.53c0,0,0,0,0,0.01
		l0.02,0.04C3.62,8.64,3.61,8.7,3.61,8.77c0,0.01,0,0.01,0,0.02c0,0.03,0,0.05-0.01,0.08v0.01v0.01l0,0c0,0.01,0.01,0.01,0.01,0.02
		l0.01,0.01c0.01,0.01,0.01,0.02,0.02,0.03l0,0l0,0c0-0.01,0.01-0.02,0.02-0.03l0.01-0.01c0-0.01,0.01-0.01,0.01-0.02l0,0V8.88V8.87
		c0-0.02,0-0.04-0.01-0.06c0-0.01,0-0.02,0-0.03c-0.01-0.07-0.02-0.14-0.02-0.2c0.01-0.01,0.01-0.03,0.02-0.04c0,0,0,0,0-0.01
		s0.01-0.01,0.02-0.01s0.01,0,0.02-0.01l0,0h0.01l0,0L3.56,8.51L3.56,8.51L3.56,8.51z"/>
	<path class="st0" d="M4.46,8.51L4.46,8.51L4.46,8.51L4.46,8.51c0.01,0.01,0.02,0.01,0.03,0.01S4.5,8.53,4.51,8.53c0,0,0,0,0,0.01
		l0.02,0.04c0,0.06-0.01,0.12-0.01,0.19c0,0.01,0,0.01,0,0.02c0,0.03,0,0.05-0.01,0.08v0.01v0.01l0,0c0,0.01,0.01,0.01,0.01,0.02
		l0.01,0.01c0.01,0.01,0.01,0.02,0.02,0.03l0,0l0,0c0-0.01,0.01-0.02,0.02-0.03l0.01-0.01c0-0.01,0.01-0.01,0.01-0.02l0,0V8.88V8.87
		c0-0.02,0-0.04-0.01-0.06c0-0.01,0-0.02,0-0.03c-0.01-0.07-0.02-0.14-0.02-0.2c0.01-0.01,0.01-0.03,0.02-0.04c0,0,0,0,0-0.01
		S4.59,8.52,4.6,8.52c0.01,0,0.01,0,0.02-0.01l0,0h0.01l0,0L4.46,8.51L4.46,8.51L4.46,8.51z"/>
	<path class="st0" d="M5.37,8.51L5.37,8.51L5.37,8.51L5.37,8.51C5.39,8.52,5.39,8.52,5.4,8.52s0.01,0.01,0.02,0.01c0,0,0,0,0,0.01
		l0.02,0.04c0,0.06-0.01,0.12-0.01,0.19c0,0.01,0,0.01,0,0.02c0,0.03,0,0.05-0.01,0.08v0.01v0.01l0,0c0,0.01,0.01,0.01,0.01,0.02
		l0.01,0.01c0.01,0.01,0.01,0.02,0.02,0.03l0,0l0,0c0-0.01,0.01-0.02,0.02-0.03l0.01-0.01C5.49,8.9,5.5,8.9,5.5,8.89l0,0V8.88V8.87
		c0-0.02,0-0.04-0.01-0.06c0-0.01,0-0.02,0-0.03c-0.01-0.07-0.02-0.14-0.02-0.2c0.01-0.01,0.01-0.03,0.02-0.04c0,0,0,0,0-0.01
		S5.5,8.52,5.51,8.52c0.01,0,0.01,0,0.02-0.01l0,0h0.01l0,0L5.37,8.51L5.37,8.51L5.37,8.51z"/>
	<path class="st0" d="M6.28,8.51L6.28,8.51L6.28,8.51L6.28,8.51C6.3,8.52,6.3,8.52,6.31,8.52c0.01,0,0.01,0.01,0.02,0.01
		c0,0,0,0,0,0.01l0.02,0.04c0,0.06-0.01,0.12-0.01,0.19c0,0.01,0,0.01,0,0.02c0,0.03,0,0.05-0.01,0.08v0.01v0.01l0,0
		c0,0.01,0.01,0.01,0.01,0.02l0.01,0.01c0.01,0.01,0.01,0.02,0.02,0.03l0,0l0,0c0-0.01,0.01-0.02,0.02-0.03L6.4,8.91
		c0-0.01,0.01-0.01,0.01-0.02l0,0V8.88V8.87c0-0.02,0-0.04-0.01-0.06c0-0.01,0-0.02,0-0.03c-0.01-0.07-0.02-0.14-0.03-0.2
		C6.38,8.57,6.39,8.55,6.4,8.54c0,0,0,0,0-0.01s0.01-0.01,0.02-0.01c0.01,0,0.01,0,0.02-0.01l0,0h0.01l0,0L6.28,8.51L6.28,8.51
		L6.28,8.51z"/>
	<path class="st0" d="M7.19,8.51L7.19,8.51L7.19,8.51L7.19,8.51C7.2,8.52,7.21,8.52,7.22,8.52c0.01,0,0.01,0.01,0.02,0.01
		c0,0,0,0,0,0.01l0.02,0.04c0,0.06-0.01,0.12-0.02,0.19c0,0.01,0,0.01,0,0.02c0,0.03,0,0.05-0.01,0.08v0.01v0.01l0,0
		c0,0.01,0.01,0.01,0.01,0.02l0.01,0.01c0.01,0.01,0.01,0.02,0.02,0.03l0,0l0,0c0-0.01,0.01-0.02,0.02-0.03L7.3,8.91
		c0-0.01,0.01-0.01,0.01-0.02l0,0V8.88V8.87c0-0.02,0-0.04-0.01-0.06c0-0.01,0-0.02,0-0.03c-0.01-0.07-0.01-0.14-0.02-0.2
		C7.29,8.57,7.3,8.55,7.3,8.54c0,0,0,0,0-0.01s0.01-0.01,0.02-0.01c0.01,0,0.01,0,0.02-0.01l0,0h0.01l0,0L7.19,8.51L7.19,8.51
		L7.19,8.51z"/>
	<path class="st0" d="M8.1,8.51L8.1,8.51L8.1,8.51L8.1,8.51c0.01,0.01,0.02,0.01,0.03,0.01c0.01,0,0.01,0.01,0.02,0.01
		c0,0,0,0,0,0.01l0.02,0.04c0,0.06-0.01,0.12-0.02,0.19c0,0.01,0,0.01,0,0.02c0,0.03,0,0.05-0.01,0.08v0.01v0.01l0,0
		c0,0.01,0.01,0.01,0.01,0.02l0.01,0.01c0.01,0.01,0.01,0.02,0.02,0.03l0,0l0,0c0-0.01,0.01-0.02,0.02-0.03l0.01-0.01
		c0-0.01,0.01-0.01,0.01-0.02l0,0V8.88V8.87c0-0.02,0-0.04-0.01-0.06c0-0.01,0-0.02,0-0.03C8.2,8.71,8.2,8.64,8.19,8.58
		C8.2,8.57,8.21,8.55,8.21,8.54c0,0,0,0,0-0.01s0.01-0.01,0.02-0.01s0.01,0,0.02-0.01l0,0h0.01l0,0L8.1,8.51L8.1,8.51L8.1,8.51z"/>
	<path class="st0" d="M9.01,8.51L9.01,8.51L9.01,8.51L9.01,8.51c0.01,0.01,0.02,0.01,0.03,0.01c0.01,0,0.01,0.01,0.02,0.01
		c0,0,0,0,0,0.01l0.02,0.04C9.07,8.64,9.07,8.7,9.06,8.77c0,0.01,0,0.01,0,0.02c0,0.03,0,0.05-0.01,0.08v0.01v0.01l0,0
		c0,0.01,0.01,0.01,0.01,0.02l0.01,0.01c0.01,0.01,0.01,0.02,0.02,0.03l0,0l0,0c0-0.01,0.01-0.02,0.02-0.03l0.01-0.01
		c0-0.01,0.01-0.01,0.01-0.02l0,0V8.88V8.87c0-0.02,0-0.04-0.01-0.06c0-0.01,0-0.02,0-0.03C9.11,8.71,9.11,8.64,9.1,8.58
		c0.01-0.01,0.01-0.03,0.02-0.04c0,0,0,0,0-0.01s0.01-0.01,0.02-0.01s0.01,0,0.02-0.01l0,0h0.01l0,0L9.01,8.51L9.01,8.51L9.01,8.51z
		"/>
	<path class="st0" d="M9.92,8.51L9.92,8.51L9.92,8.51L9.92,8.51c0.01,0.01,0.02,0.01,0.03,0.01c0.01,0,0.01,0.01,0.02,0.01
		c0,0,0,0,0,0.01l0.02,0.04C9.98,8.64,9.98,8.7,9.97,8.77c0,0.01,0,0.01,0,0.02c0,0.03,0,0.05-0.01,0.08v0.01v0.01l0,0
		c0,0.01,0.01,0.01,0.01,0.02l0.01,0.01c0.01,0,0.01,0.01,0.02,0.02l0,0l0,0c0-0.01,0.01-0.02,0.02-0.03l0.01-0.01
		c0-0.01,0.01-0.01,0.01-0.02l0,0V8.87V8.86c0-0.02,0-0.04-0.01-0.06c0-0.01,0-0.02,0-0.03c-0.01-0.06-0.01-0.13-0.02-0.19
		c0.01-0.01,0.01-0.03,0.02-0.04c0,0,0,0,0-0.01s0.01-0.01,0.02-0.01s0.01,0,0.02-0.01l0,0h0.01l0,0L9.92,8.51L9.92,8.51L9.92,8.51z
		"/>
</g>
<g>
	<path class="st0" d="M-0.08,9.6L-0.08,9.6L-0.08,9.6L-0.08,9.6c0.01,0.01,0.02,0.01,0.03,0.01s0.01,0.01,0.02,0.01c0,0,0,0,0,0.01
		l0.02,0.04C-0.02,9.73-0.02,9.8-0.03,9.86c0,0.01,0,0.01,0,0.02c0,0.03,0,0.05-0.01,0.08v0.01v0.01l0,0c0,0.01,0.01,0.01,0.01,0.02
		l0.01,0.01c0.01,0.01,0.01,0.02,0.02,0.03l0,0l0,0c0-0.01,0.01-0.02,0.02-0.03L0.03,10c0-0.01,0.01-0.01,0.01-0.02l0,0V9.97V9.96
		c0-0.02,0-0.04-0.01-0.06c0-0.01,0-0.02,0-0.03C0.02,9.8,0.02,9.73,0.01,9.67c0.01-0.01,0.01-0.03,0.02-0.04c0,0,0,0,0-0.01
		s0.01-0.01,0.02-0.01s0.01,0,0.02-0.01l0,0h0.01l0,0L-0.08,9.6L-0.08,9.6L-0.08,9.6z"/>
	<path class="st0" d="M0.83,9.6L0.83,9.6L0.83,9.6L0.83,9.6c0.01,0.01,0.02,0.01,0.03,0.01s0.01,0.01,0.02,0.01c0,0,0,0,0,0.01
		L0.9,9.67C0.89,9.73,0.89,9.8,0.88,9.86c0,0.01,0,0.01,0,0.02c0,0.03,0,0.05-0.01,0.08v0.01v0.01l0,0c0,0.01,0.01,0.01,0.01,0.02
		l0.01,0.01c0.01,0.01,0.01,0.02,0.02,0.03l0,0l0,0c0-0.01,0.01-0.02,0.02-0.03L0.94,10c0-0.01,0.01-0.01,0.01-0.02l0,0V9.97V9.96
		c0-0.02,0-0.04-0.01-0.06c0-0.01,0-0.02,0-0.03C0.93,9.8,0.93,9.73,0.92,9.67c0.01-0.01,0.01-0.03,0.02-0.04c0,0,0,0,0-0.01
		s0.01-0.01,0.02-0.01s0.01,0,0.02-0.01l0,0h0.01l0,0L0.83,9.6L0.83,9.6L0.83,9.6z"/>
	<path class="st0" d="M1.74,9.6L1.74,9.6L1.74,9.6L1.74,9.6c0.01,0.01,0.02,0.01,0.03,0.01s0.01,0.01,0.02,0.01c0,0,0,0,0,0.01
		l0.02,0.04C1.8,9.73,1.8,9.8,1.79,9.86c0,0.01,0,0.01,0,0.02c0,0.03,0,0.05-0.01,0.08v0.01v0.01l0,0c0,0.01,0.01,0.01,0.01,0.02
		l0.01,0.01c0.01,0.01,0.01,0.02,0.02,0.03l0,0l0,0c0-0.01,0.01-0.02,0.02-0.03L1.85,10c0-0.01,0.01-0.01,0.01-0.02l0,0V9.97V9.96
		c0-0.02,0-0.04-0.01-0.06c0-0.01,0-0.02,0-0.03C1.84,9.8,1.83,9.73,1.83,9.67c0.01-0.01,0.01-0.03,0.02-0.04c0,0,0,0,0-0.01
		s0.01-0.01,0.02-0.01s0.01,0,0.02-0.01l0,0H1.9l0,0L1.74,9.6L1.74,9.6L1.74,9.6z"/>
	<path class="st0" d="M2.65,9.6L2.65,9.6L2.65,9.6L2.65,9.6c0.01,0.01,0.02,0.01,0.03,0.01S2.69,9.62,2.7,9.62c0,0,0,0,0,0.01
		l0.02,0.04C2.71,9.73,2.71,9.8,2.7,9.86c0,0.01,0,0.01,0,0.02c0,0.03,0,0.05-0.01,0.08v0.01v0.01l0,0C2.69,9.99,2.7,9.99,2.7,10
		l0.01,0.01c0.01,0.01,0.01,0.02,0.02,0.03l0,0l0,0c0-0.01,0.01-0.02,0.02-0.03L2.76,10c0-0.01,0.01-0.01,0.01-0.02l0,0V9.97V9.96
		c0-0.02,0-0.04-0.01-0.06c0-0.01,0-0.02,0-0.03C2.75,9.8,2.74,9.73,2.74,9.67c0.01-0.01,0.01-0.03,0.02-0.04c0,0,0,0,0-0.01
		s0.01-0.01,0.02-0.01s0.01,0,0.02-0.01l0,0h0.01l0,0L2.65,9.6L2.65,9.6L2.65,9.6z"/>
	<path class="st0" d="M3.56,9.6L3.56,9.6L3.56,9.6L3.56,9.6c0.01,0.01,0.02,0.01,0.03,0.01S3.6,9.62,3.61,9.62c0,0,0,0,0,0.01
		l0.02,0.04C3.62,9.73,3.61,9.8,3.61,9.86c0,0.01,0,0.01,0,0.02c0,0.03,0,0.05-0.01,0.08v0.01v0.01l0,0c0,0.01,0.01,0.01,0.01,0.02
		l0.01,0.01c0.01,0.01,0.01,0.02,0.02,0.03l0,0l0,0c0-0.01,0.01-0.02,0.02-0.03L3.67,10c0-0.01,0.01-0.01,0.01-0.02l0,0V9.97V9.96
		c0-0.02,0-0.04-0.01-0.06c0-0.01,0-0.02,0-0.03C3.66,9.8,3.65,9.73,3.65,9.67c0.01-0.01,0.01-0.03,0.02-0.04c0,0,0,0,0-0.01
		s0.01-0.01,0.02-0.01s0.01,0,0.02-0.01l0,0h0.01l0,0L3.56,9.6L3.56,9.6L3.56,9.6z"/>
	<path class="st0" d="M4.46,9.6L4.46,9.6L4.46,9.6L4.46,9.6c0.01,0.01,0.02,0.01,0.03,0.01S4.5,9.62,4.51,9.62c0,0,0,0,0,0.01
		l0.02,0.04c0,0.06-0.01,0.13-0.01,0.19c0,0.01,0,0.01,0,0.02c0,0.03,0,0.05-0.01,0.08v0.01v0.01l0,0c0,0.01,0.01,0.01,0.01,0.02
		l0.01,0.01c0.01,0.01,0.01,0.02,0.02,0.03l0,0l0,0c0-0.01,0.01-0.02,0.02-0.03L4.58,10c0-0.01,0.01-0.01,0.01-0.02l0,0V9.97V9.96
		c0-0.02,0-0.04-0.01-0.06c0-0.01,0-0.02,0-0.03C4.57,9.8,4.56,9.73,4.56,9.67c0.01-0.01,0.01-0.03,0.02-0.04c0,0,0,0,0-0.01
		S4.59,9.61,4.6,9.61c0.01,0,0.01,0,0.02-0.01l0,0h0.01l0,0L4.46,9.6L4.46,9.6L4.46,9.6z"/>
	<path class="st0" d="M5.37,9.6L5.37,9.6L5.37,9.6L5.37,9.6C5.39,9.61,5.39,9.61,5.4,9.61s0.01,0.01,0.02,0.01c0,0,0,0,0,0.01
		l0.02,0.04c0,0.06-0.01,0.13-0.01,0.19c0,0.01,0,0.01,0,0.02c0,0.03,0,0.05-0.01,0.08v0.01v0.01l0,0c0,0.01,0.01,0.01,0.01,0.02
		l0.01,0.01c0.01,0.01,0.01,0.02,0.02,0.03l0,0l0,0c0-0.01,0.01-0.02,0.02-0.03L5.49,10c0-0.01,0.01-0.01,0.01-0.02l0,0V9.97V9.96
		c0-0.02,0-0.04-0.01-0.06c0-0.01,0-0.02,0-0.03C5.48,9.8,5.47,9.73,5.47,9.67c0.01-0.01,0.01-0.03,0.02-0.04c0,0,0,0,0-0.01
		S5.5,9.61,5.51,9.61c0.01,0,0.01,0,0.02-0.01l0,0h0.01l0,0L5.37,9.6L5.37,9.6L5.37,9.6z"/>
	<path class="st0" d="M6.28,9.6L6.28,9.6L6.28,9.6L6.28,9.6C6.3,9.61,6.3,9.61,6.31,9.61c0.01,0,0.01,0.01,0.02,0.01c0,0,0,0,0,0.01
		l0.02,0.04c0,0.06-0.01,0.13-0.01,0.19c0,0.01,0,0.01,0,0.02c0,0.03,0,0.05-0.01,0.08v0.01v0.01l0,0c0,0.01,0.01,0.01,0.01,0.02
		l0.01,0.01c0.01,0.01,0.01,0.02,0.02,0.03l0,0l0,0c0-0.01,0.01-0.02,0.02-0.03L6.4,10c0-0.01,0.01-0.01,0.01-0.02l0,0V9.97V9.96
		c0-0.02,0-0.04-0.01-0.06c0-0.01,0-0.02,0-0.03C6.39,9.8,6.38,9.73,6.37,9.67C6.38,9.66,6.39,9.65,6.4,9.63c0,0,0,0,0-0.01
		s0.01-0.01,0.02-0.01c0.01,0,0.01,0,0.02-0.01l0,0h0.01l0,0L6.28,9.6L6.28,9.6L6.28,9.6z"/>
	<path class="st0" d="M7.19,9.6L7.19,9.6L7.19,9.6L7.19,9.6C7.2,9.61,7.21,9.61,7.22,9.61c0.01,0,0.01,0.01,0.02,0.01
		c0,0,0,0,0,0.01l0.02,0.04c0,0.06-0.01,0.13-0.02,0.19c0,0.01,0,0.01,0,0.02c0,0.03,0,0.05-0.01,0.08v0.01v0.01l0,0
		c0,0.01,0.01,0.01,0.01,0.02l0.01,0.01c0.01,0.01,0.01,0.02,0.02,0.03l0,0l0,0c0-0.01,0.01-0.02,0.02-0.03L7.3,10
		c0-0.01,0.01-0.01,0.01-0.02l0,0V9.97V9.96c0-0.02,0-0.04-0.01-0.06c0-0.01,0-0.02,0-0.03C7.29,9.8,7.29,9.73,7.28,9.67
		C7.29,9.66,7.3,9.65,7.3,9.63c0,0,0,0,0-0.01s0.01-0.01,0.02-0.01c0.01,0,0.01,0,0.02-0.01l0,0h0.01l0,0L7.19,9.6L7.19,9.6
		L7.19,9.6z"/>
	<path class="st0" d="M8.1,9.6L8.1,9.6L8.1,9.6L8.1,9.6c0.01,0.01,0.02,0.01,0.03,0.01c0.01,0,0.01,0.01,0.02,0.01c0,0,0,0,0,0.01
		l0.02,0.04c0,0.06-0.01,0.13-0.02,0.19c0,0.01,0,0.01,0,0.02c0,0.03,0,0.05-0.01,0.08v0.01v0.01l0,0c0,0.01,0.01,0.01,0.01,0.02
		l0.01,0.01c0.01,0.01,0.01,0.02,0.02,0.03l0,0l0,0c0-0.01,0.01-0.02,0.02-0.03L8.21,10c0-0.01,0.01-0.01,0.01-0.02l0,0V9.97V9.96
		c0-0.02,0-0.04-0.01-0.06c0-0.01,0-0.02,0-0.03C8.2,9.8,8.2,9.73,8.19,9.67C8.2,9.66,8.21,9.65,8.21,9.63c0,0,0,0,0-0.01
		s0.01-0.01,0.02-0.01s0.01,0,0.02-0.01l0,0h0.01l0,0L8.1,9.6L8.1,9.6L8.1,9.6z"/>
	<path class="st0" d="M9.01,9.6L9.01,9.6L9.01,9.6L9.01,9.6c0.01,0.01,0.02,0.01,0.03,0.01c0.01,0,0.01,0.01,0.02,0.01
		c0,0,0,0,0,0.01l0.02,0.04C9.07,9.73,9.07,9.8,9.06,9.86c0,0.01,0,0.01,0,0.02c0,0.03,0,0.05-0.01,0.08v0.01v0.01l0,0
		c0,0.01,0.01,0.01,0.01,0.02l0.01,0.01c0.01,0.01,0.01,0.02,0.02,0.03l0,0l0,0c0-0.01,0.01-0.02,0.02-0.03L9.12,10
		c0-0.01,0.01-0.01,0.01-0.02l0,0V9.97V9.96c0-0.02,0-0.04-0.01-0.06c0-0.01,0-0.02,0-0.03C9.11,9.8,9.11,9.73,9.1,9.67
		c0.01-0.01,0.01-0.03,0.02-0.04c0,0,0,0,0-0.01s0.01-0.01,0.02-0.01s0.01,0,0.02-0.01l0,0h0.01l0,0L9.01,9.6L9.01,9.6L9.01,9.6z"/>
	<path class="st0" d="M9.92,9.6L9.92,9.6L9.92,9.6L9.92,9.6c0.01,0.01,0.02,0.01,0.03,0.01c0.01,0,0.01,0.01,0.02,0.01
		c0,0,0,0,0,0.01l0.02,0.04C9.98,9.73,9.98,9.8,9.97,9.86c0,0.01,0,0.01,0,0.02c0,0.03,0,0.05-0.01,0.08v0.01v0.01l0,0
		c0,0.01,0.01,0.01,0.01,0.02l0.01,0.01c0.01,0.01,0.01,0.02,0.02,0.03l0,0l0,0c0-0.01,0.01-0.02,0.02-0.03L10.03,10
		c0-0.01,0.01-0.01,0.01-0.02l0,0V9.97V9.96c0-0.02,0-0.04-0.01-0.06c0-0.01,0-0.02,0-0.03c-0.01-0.06-0.01-0.13-0.02-0.19
		c0.01-0.01,0.01-0.03,0.02-0.04c0,0,0,0,0-0.01s0.01-0.01,0.02-0.01s0.01,0,0.02-0.01l0,0h0.01l0,0L9.92,9.6L9.92,9.6L9.92,9.6z"/>
</g>
<g>
	<path class="st0" d="M-0.08,10.69L-0.08,10.69L-0.08,10.69L-0.08,10.69c0.01,0.01,0.02,0.01,0.03,0.01s0.01,0.01,0.02,0.01
		c0,0,0,0,0,0.01l0.02,0.04c-0.01,0.06-0.01,0.13-0.02,0.19c0,0.01,0,0.01,0,0.02c0,0.03,0,0.05-0.01,0.08v0.01v0.01l0,0
		c0,0.01,0.01,0.01,0.01,0.02l0.01,0.01c0.01,0.01,0.01,0.02,0.02,0.03l0,0l0,0c0-0.01,0.01-0.02,0.02-0.03l0.01-0.01
		c0-0.01,0.01-0.01,0.01-0.02l0,0v-0.01v-0.01c0-0.02,0-0.04-0.01-0.06c0-0.01,0-0.02,0-0.03c-0.01-0.06-0.01-0.13-0.02-0.19
		c0.01-0.01,0.01-0.03,0.02-0.04c0,0,0,0,0-0.01s0.01-0.01,0.02-0.01s0.01,0,0.02-0.01l0,0h0.01l0,0L-0.08,10.69L-0.08,10.69
		L-0.08,10.69z"/>
	<path class="st0" d="M0.83,10.69L0.83,10.69L0.83,10.69L0.83,10.69c0.01,0.01,0.02,0.01,0.03,0.01s0.01,0.01,0.02,0.01
		c0,0,0,0,0,0.01l0.02,0.04c-0.01,0.06-0.01,0.13-0.02,0.19c0,0.01,0,0.01,0,0.02c0,0.03,0,0.05-0.01,0.08v0.01v0.01l0,0
		c0,0.01,0.01,0.01,0.01,0.02l0.01,0.01c0.01,0.01,0.01,0.02,0.02,0.03l0,0l0,0c0-0.01,0.01-0.02,0.02-0.03l0.01-0.01
		c0-0.01,0.01-0.01,0.01-0.02l0,0v-0.01v-0.01c0-0.02,0-0.04-0.01-0.06c0-0.01,0-0.02,0-0.03c-0.01-0.06-0.01-0.13-0.02-0.19
		c0.01-0.01,0.01-0.03,0.02-0.04c0,0,0,0,0-0.01s0.01-0.01,0.02-0.01s0.01,0,0.02-0.01l0,0h0.01l0,0L0.83,10.69L0.83,10.69
		L0.83,10.69z"/>
	<path class="st0" d="M1.74,10.69L1.74,10.69L1.74,10.69L1.74,10.69c0.01,0.01,0.02,0.01,0.03,0.01s0.01,0.01,0.02,0.01
		c0,0,0,0,0,0.01l0.02,0.04c-0.01,0.06-0.01,0.13-0.02,0.19c0,0.01,0,0.01,0,0.02c0,0.03,0,0.05-0.01,0.08v0.01v0.01l0,0
		c0,0.01,0.01,0.01,0.01,0.02L1.8,11.1c0.01,0.01,0.01,0.02,0.02,0.03l0,0l0,0c0-0.01,0.01-0.02,0.02-0.03l0.01-0.01
		c0-0.01,0.01-0.01,0.01-0.02l0,0v-0.01v-0.01c0-0.02,0-0.04-0.01-0.06c0-0.01,0-0.02,0-0.03c-0.01-0.06-0.01-0.13-0.02-0.19
		c0.01-0.01,0.01-0.03,0.02-0.04c0,0,0,0,0-0.01s0.01-0.01,0.02-0.01s0.01,0,0.02-0.01l0,0H1.9l0,0L1.74,10.69L1.74,10.69
		L1.74,10.69z"/>
	<path class="st0" d="M2.65,10.69L2.65,10.69L2.65,10.69L2.65,10.69c0.01,0.01,0.02,0.01,0.03,0.01s0.01,0.01,0.02,0.01
		c0,0,0,0,0,0.01l0.02,0.04c-0.01,0.06-0.01,0.13-0.02,0.19c0,0.01,0,0.01,0,0.02c0,0.03,0,0.05-0.01,0.08v0.01v0.01l0,0
		c0,0.01,0.01,0.01,0.01,0.02l0.01,0.01c0.01,0.01,0.01,0.02,0.02,0.03l0,0l0,0c0-0.01,0.01-0.02,0.02-0.03l0.01-0.01
		c0-0.01,0.01-0.01,0.01-0.02l0,0v-0.01v-0.01c0-0.02,0-0.04-0.01-0.06c0-0.01,0-0.02,0-0.03c-0.01-0.06-0.01-0.13-0.02-0.19
		c0.01-0.01,0.01-0.03,0.02-0.04c0,0,0,0,0-0.01s0.01-0.01,0.02-0.01s0.01,0,0.02-0.01l0,0h0.01l0,0L2.65,10.69L2.65,10.69
		L2.65,10.69z"/>
	<path class="st0" d="M3.56,10.69L3.56,10.69L3.56,10.69L3.56,10.69c0.01,0.01,0.02,0.01,0.03,0.01s0.01,0.01,0.02,0.01
		c0,0,0,0,0,0.01l0.02,0.04c-0.01,0.06-0.01,0.13-0.02,0.19c0,0.01,0,0.01,0,0.02c0,0.03,0,0.05-0.01,0.08v0.01v0.01l0,0
		c0,0.01,0.01,0.01,0.01,0.02l0.01,0.01c0.01,0.01,0.01,0.02,0.02,0.03l0,0l0,0c0-0.01,0.01-0.02,0.02-0.03l0.01-0.01
		c0-0.01,0.01-0.01,0.01-0.02l0,0v-0.01v-0.01c0-0.02,0-0.04-0.01-0.06c0-0.01,0-0.02,0-0.03c-0.01-0.06-0.01-0.13-0.02-0.19
		c0.01-0.01,0.01-0.03,0.02-0.04c0,0,0,0,0-0.01s0.01-0.01,0.02-0.01s0.01,0,0.02-0.01l0,0h0.01l0,0L3.56,10.69L3.56,10.69
		L3.56,10.69z"/>
	<path class="st0" d="M4.46,10.69L4.46,10.69L4.46,10.69L4.46,10.69c0.01,0.01,0.02,0.01,0.03,0.01s0.01,0.01,0.02,0.01
		c0,0,0,0,0,0.01l0.02,0.04c-0.01,0.06-0.01,0.13-0.02,0.19c0,0.01,0,0.01,0,0.02c0,0.03,0,0.05-0.01,0.08v0.01v0.01l0,0
		c0,0.01,0.01,0.01,0.01,0.02l0.01,0.01c0.01,0.01,0.01,0.02,0.02,0.03l0,0l0,0c0-0.01,0.01-0.02,0.02-0.03l0.01-0.01
		c0-0.01,0.01-0.01,0.01-0.02l0,0v-0.01v-0.01c0-0.02,0-0.04-0.01-0.06c0-0.01,0-0.02,0-0.03c-0.01-0.06-0.01-0.13-0.02-0.19
		c0.01-0.01,0.01-0.03,0.02-0.04c0,0,0,0,0-0.01s0.01-0.01,0.02-0.01c0.01,0,0.01,0,0.02-0.01l0,0h0.01l0,0L4.46,10.69L4.46,10.69
		L4.46,10.69z"/>
	<path class="st0" d="M5.37,10.69L5.37,10.69L5.37,10.69L5.37,10.69C5.39,10.7,5.39,10.7,5.4,10.7s0.01,0.01,0.02,0.01
		c0,0,0,0,0,0.01l0.02,0.04c-0.01,0.06-0.01,0.13-0.02,0.19c0,0.01,0,0.01,0,0.02c0,0.03,0,0.05-0.01,0.08v0.01v0.01l0,0
		c0,0.01,0.01,0.01,0.01,0.02l0.01,0.01c0.01,0.01,0.01,0.02,0.02,0.03l0,0l0,0c0-0.01,0.01-0.02,0.02-0.03l0.01-0.01
		c0-0.01,0.01-0.01,0.01-0.02l0,0v-0.01v-0.01c0-0.02,0-0.04-0.01-0.06c0-0.01,0-0.02,0-0.03c-0.01-0.06-0.01-0.13-0.02-0.19
		c0.01-0.01,0.01-0.03,0.02-0.04c0,0,0,0,0-0.01s0.01-0.01,0.02-0.01c0.01,0,0.01,0,0.02-0.01l0,0h0.01l0,0L5.37,10.69L5.37,10.69
		L5.37,10.69z"/>
	<path class="st0" d="M6.28,10.69L6.28,10.69L6.28,10.69L6.28,10.69C6.3,10.7,6.3,10.7,6.31,10.7c0.01,0,0.01,0.01,0.02,0.01
		c0,0,0,0,0,0.01l0.02,0.04c-0.01,0.06-0.01,0.13-0.02,0.19c0,0.01,0,0.01,0,0.02c0,0.03,0,0.05-0.01,0.08v0.01v0.01l0,0
		c0,0.01,0.01,0.01,0.01,0.02l0.01,0.01c0.01,0.01,0.01,0.02,0.02,0.03l0,0l0,0c0-0.01,0.01-0.02,0.02-0.03l0.01-0.01
		c0-0.01,0.01-0.01,0.01-0.02l0,0v-0.01v-0.01c0-0.02,0-0.04-0.01-0.06c0-0.01,0-0.02,0-0.03c-0.01-0.06-0.01-0.13-0.02-0.19
		c0.01-0.01,0.01-0.03,0.02-0.04c0,0,0,0,0-0.01s0.01-0.01,0.02-0.01c0.01,0,0.01,0,0.02-0.01l0,0h0.01l0,0L6.28,10.69L6.28,10.69
		L6.28,10.69z"/>
	<path class="st0" d="M7.19,10.69L7.19,10.69L7.19,10.69L7.19,10.69C7.2,10.7,7.21,10.7,7.22,10.7c0.01,0,0.01,0.01,0.02,0.01
		c0,0,0,0,0,0.01l0.02,0.04c-0.01,0.06-0.01,0.13-0.02,0.19c0,0.01,0,0.01,0,0.02c0,0.03,0,0.05-0.01,0.08v0.01v0.01l0,0
		c0,0.01,0.01,0.01,0.01,0.02l0.01,0.01c0.01,0.01,0.01,0.02,0.02,0.03l0,0l0,0c0-0.01,0.01-0.02,0.02-0.03l0.01-0.01
		c0-0.01,0.01-0.01,0.01-0.02l0,0v-0.01v-0.01c0-0.02,0-0.04-0.01-0.06c0-0.01,0-0.02,0-0.03c-0.01-0.06-0.01-0.13-0.02-0.19
		c0.01-0.01,0.01-0.03,0.02-0.04c0,0,0,0,0-0.01s0.01-0.01,0.02-0.01c0.01,0,0.01,0,0.02-0.01l0,0h0.01l0,0L7.19,10.69L7.19,10.69
		L7.19,10.69z"/>
	<path class="st0" d="M8.1,10.69L8.1,10.69L8.1,10.69L8.1,10.69c0.01,0.01,0.02,0.01,0.03,0.01c0.01,0,0.01,0.01,0.02,0.01
		c0,0,0,0,0,0.01l0.02,0.04c-0.01,0.06-0.01,0.13-0.02,0.19c0,0.01,0,0.01,0,0.02c0,0.03,0,0.05-0.01,0.08v0.01v0.01l0,0
		c0,0.01,0.01,0.01,0.01,0.02l0.01,0.01c0.01,0.01,0.01,0.02,0.02,0.03l0,0l0,0c0-0.01,0.01-0.02,0.02-0.03l0.01-0.01
		c0-0.01,0.01-0.01,0.01-0.02l0,0v-0.01v-0.01c0-0.02,0-0.04-0.01-0.06c0-0.01,0-0.02,0-0.03C8.2,10.9,8.2,10.83,8.19,10.77
		c0.01-0.01,0.01-0.03,0.02-0.04c0,0,0,0,0-0.01s0.01-0.01,0.02-0.01s0.01,0,0.02-0.01l0,0h0.01l0,0L8.1,10.69L8.1,10.69L8.1,10.69z
		"/>
	<path class="st0" d="M9.01,10.69L9.01,10.69L9.01,10.69L9.01,10.69c0.01,0.01,0.02,0.01,0.03,0.01c0.01,0,0.01,0.01,0.02,0.01
		c0,0,0,0,0,0.01l0.02,0.04c-0.01,0.06-0.01,0.13-0.02,0.19c0,0.01,0,0.01,0,0.02c0,0.03,0,0.05-0.01,0.08v0.01v0.01l0,0
		c0,0.01,0.01,0.01,0.01,0.02l0.01,0.01c0.01,0.01,0.01,0.02,0.02,0.03l0,0l0,0c0-0.01,0.01-0.02,0.02-0.03l0.01-0.01
		c0-0.01,0.01-0.01,0.01-0.02l0,0v-0.01v-0.01c0-0.02,0-0.04-0.01-0.06c0-0.01,0-0.02,0-0.03c-0.01-0.06-0.01-0.13-0.02-0.19
		c0.01-0.01,0.01-0.03,0.02-0.04c0,0,0,0,0-0.01s0.01-0.01,0.02-0.01s0.01,0,0.02-0.01l0,0h0.01l0,0L9.01,10.69L9.01,10.69
		L9.01,10.69z"/>
	<path class="st0" d="M9.92,10.69L9.92,10.69L9.92,10.69L9.92,10.69c0.01,0.01,0.02,0.01,0.03,0.01c0.01,0,0.01,0.01,0.02,0.01
		c0,0,0,0,0,0.01l0.02,0.04c-0.01,0.06-0.01,0.13-0.02,0.19c0,0.01,0,0.01,0,0.02c0,0.03,0,0.05-0.01,0.08v0.01v0.01l0,0
		c0,0.01,0.01,0.01,0.01,0.02l0.01,0.01c0.01,0.01,0.01,0.02,0.02,0.03l0,0l0,0c0-0.01,0.01-0.02,0.02-0.03l0.01-0.01
		c0-0.01,0.01-0.01,0.01-0.02l0,0v-0.01v-0.01c0-0.02,0-0.04-0.01-0.06c0-0.01,0-0.02,0-0.03c-0.01-0.06-0.01-0.13-0.02-0.19
		c0.01-0.01,0.01-0.03,0.02-0.04c0,0,0,0,0-0.01s0.01-0.01,0.02-0.01s0.01,0,0.02-0.01l0,0h0.01l0,0L9.92,10.69L9.92,10.69
		L9.92,10.69z"/>
</g>
<g>
	<path class="st0" d="M-0.08,11.78L-0.08,11.78L-0.08,11.78L-0.08,11.78c0.01,0.01,0.02,0.01,0.03,0.01s0.01,0.01,0.02,0.01
		c0,0,0,0,0,0.01l0.02,0.04c-0.01,0.06-0.01,0.13-0.02,0.19c0,0.01,0,0.01,0,0.02c0,0.03,0,0.05-0.01,0.08v0.01v0.01l0,0
		c0,0.01,0.01,0.01,0.01,0.02l0.01,0.01c0.01,0.01,0.01,0.02,0.02,0.03l0,0l0,0c0-0.01,0.01-0.02,0.02-0.03l0.01-0.01
		c0-0.01,0.01-0.01,0.01-0.02l0,0v-0.01v-0.01c0-0.02,0-0.04-0.01-0.06c0-0.01,0-0.02,0-0.03c-0.01-0.06-0.01-0.13-0.02-0.19
		c0.01-0.01,0.01-0.03,0.02-0.04c0,0,0,0,0-0.01s0.01-0.01,0.02-0.01s0.01,0,0.02-0.01l0,0h0.01l0,0L-0.08,11.78L-0.08,11.78
		L-0.08,11.78z"/>
	<path class="st0" d="M0.83,11.78L0.83,11.78L0.83,11.78L0.83,11.78c0.01,0.01,0.02,0.01,0.03,0.01s0.01,0.01,0.02,0.01
		c0,0,0,0,0,0.01l0.02,0.04c-0.01,0.06-0.01,0.13-0.02,0.19c0,0.01,0,0.01,0,0.02c0,0.03,0,0.05-0.01,0.08v0.01v0.01l0,0
		c0,0.01,0.01,0.01,0.01,0.02l0.01,0.01c0.01,0.01,0.01,0.02,0.02,0.03l0,0l0,0c0-0.01,0.01-0.02,0.02-0.03l0.01-0.01
		c0-0.01,0.01-0.01,0.01-0.02l0,0v-0.01v-0.01c0-0.02,0-0.04-0.01-0.06c0-0.01,0-0.02,0-0.03c-0.01-0.06-0.01-0.13-0.02-0.19
		c0.01-0.01,0.01-0.03,0.02-0.04c0,0,0,0,0-0.01s0.01-0.01,0.02-0.01s0.01,0,0.02-0.01l0,0h0.01l0,0L0.83,11.78L0.83,11.78
		L0.83,11.78z"/>
	<path class="st0" d="M1.74,11.78L1.74,11.78L1.74,11.78L1.74,11.78c0.01,0.01,0.02,0.01,0.03,0.01s0.01,0.01,0.02,0.01
		c0,0,0,0,0,0.01l0.02,0.04c-0.01,0.06-0.01,0.13-0.02,0.19c0,0.01,0,0.01,0,0.02c0,0.03,0,0.05-0.01,0.08v0.01v0.01l0,0
		c0,0.01,0.01,0.01,0.01,0.02l0.01,0.01c0.01,0.01,0.01,0.02,0.02,0.03l0,0l0,0c0-0.01,0.01-0.02,0.02-0.03l0.01-0.01
		c0-0.01,0.01-0.01,0.01-0.02l0,0v-0.01v-0.01c0-0.02,0-0.04-0.01-0.06c0-0.01,0-0.02,0-0.03c-0.01-0.06-0.01-0.13-0.02-0.19
		c0.01-0.01,0.01-0.03,0.02-0.04c0,0,0,0,0-0.01s0.01-0.01,0.02-0.01s0.01,0,0.02-0.01l0,0H1.9l0,0L1.74,11.78L1.74,11.78
		L1.74,11.78z"/>
	<path class="st0" d="M2.65,11.78L2.65,11.78L2.65,11.78L2.65,11.78c0.01,0.01,0.02,0.01,0.03,0.01S2.69,11.8,2.7,11.8
		c0,0,0,0,0,0.01l0.02,0.04c-0.01,0.06-0.01,0.13-0.02,0.19c0,0.01,0,0.01,0,0.02c0,0.03,0,0.05-0.01,0.08v0.01v0.01l0,0
		c0,0.01,0.01,0.01,0.01,0.02l0.01,0.01c0.01,0.01,0.01,0.02,0.02,0.03l0,0l0,0c0-0.01,0.01-0.02,0.02-0.03l0.01-0.01
		c0-0.01,0.01-0.01,0.01-0.02l0,0v-0.01v-0.01c0-0.02,0-0.04-0.01-0.06c0-0.01,0-0.02,0-0.03c-0.01-0.06-0.01-0.13-0.02-0.19
		c0.01-0.01,0.01-0.03,0.02-0.04c0,0,0,0,0-0.01s0.01-0.01,0.02-0.01s0.01,0,0.02-0.01l0,0h0.01l0,0L2.65,11.78L2.65,11.78
		L2.65,11.78z"/>
	<path class="st0" d="M3.56,11.78L3.56,11.78L3.56,11.78L3.56,11.78c0.01,0.01,0.02,0.01,0.03,0.01S3.6,11.8,3.61,11.8
		c0,0,0,0,0,0.01l0.02,0.04c-0.01,0.06-0.01,0.13-0.02,0.19c0,0.01,0,0.01,0,0.02c0,0.03,0,0.05-0.01,0.08v0.01v0.01l0,0
		c0,0.01,0.01,0.01,0.01,0.02l0.01,0.01c0.01,0.01,0.01,0.02,0.02,0.03l0,0l0,0c0-0.01,0.01-0.02,0.02-0.03l0.01-0.01
		c0-0.01,0.01-0.01,0.01-0.02l0,0v-0.01v-0.01c0-0.02,0-0.04-0.01-0.06c0-0.01,0-0.02,0-0.03c-0.01-0.06-0.01-0.13-0.02-0.19
		c0.01-0.01,0.01-0.03,0.02-0.04c0,0,0,0,0-0.01s0.01-0.01,0.02-0.01s0.01,0,0.02-0.01l0,0h0.01l0,0L3.56,11.78L3.56,11.78
		L3.56,11.78z"/>
	<path class="st0" d="M4.46,11.78L4.46,11.78L4.46,11.78L4.46,11.78c0.01,0.01,0.02,0.01,0.03,0.01S4.5,11.8,4.51,11.8
		c0,0,0,0,0,0.01l0.02,0.04c-0.01,0.06-0.01,0.13-0.02,0.19c0,0.01,0,0.01,0,0.02c0,0.03,0,0.05-0.01,0.08v0.01v0.01l0,0
		c0,0.01,0.01,0.01,0.01,0.02l0.01,0.01c0.01,0.01,0.01,0.02,0.02,0.03l0,0l0,0c0-0.01,0.01-0.02,0.02-0.03l0.01-0.01
		c0-0.01,0.01-0.01,0.01-0.02l0,0v-0.01v-0.01c0-0.02,0-0.04-0.01-0.06c0-0.01,0-0.02,0-0.03c-0.01-0.06-0.01-0.13-0.02-0.19
		c0.01-0.01,0.01-0.03,0.02-0.04c0,0,0,0,0-0.01s0.01-0.01,0.02-0.01c0.01,0,0.01,0,0.02-0.01l0,0h0.01l0,0L4.46,11.78L4.46,11.78
		L4.46,11.78z"/>
	<path class="st0" d="M5.37,11.78L5.37,11.78L5.37,11.78L5.37,11.78c0.01,0.01,0.02,0.01,0.03,0.01s0.01,0.01,0.02,0.01
		c0,0,0,0,0,0.01l0.02,0.04c-0.01,0.06-0.01,0.13-0.02,0.19c0,0.01,0,0.01,0,0.02c0,0.03,0,0.05-0.01,0.08v0.01v0.01l0,0
		c0,0.01,0.01,0.01,0.01,0.02l0.01,0.01c0.01,0.01,0.01,0.02,0.02,0.03l0,0l0,0c0-0.01,0.01-0.02,0.02-0.03l0.01-0.01
		c0-0.01,0.01-0.01,0.01-0.02l0,0v-0.01v-0.01c0-0.02,0-0.04-0.01-0.06c0-0.01,0-0.02,0-0.03c-0.01-0.06-0.01-0.13-0.02-0.19
		c0.01-0.01,0.01-0.03,0.02-0.04c0,0,0,0,0-0.01S5.49,11.8,5.5,11.8c0.01,0,0.01,0,0.02-0.01l0,0h0.01l0,0L5.37,11.78L5.37,11.78
		L5.37,11.78z"/>
	<path class="st0" d="M6.28,11.78L6.28,11.78L6.28,11.78L6.28,11.78c0.01,0.01,0.02,0.01,0.03,0.01s0.01,0.01,0.02,0.01
		c0,0,0,0,0,0.01l0.02,0.04c-0.01,0.06-0.01,0.13-0.02,0.19c0,0.01,0,0.01,0,0.02c0,0.03,0,0.05-0.01,0.08v0.01v0.01l0,0
		c0,0.01,0.01,0.01,0.01,0.02l0.01,0.01c0.01,0.01,0.01,0.02,0.02,0.03l0,0l0,0c0-0.01,0.01-0.02,0.02-0.03l0.01-0.01
		c0-0.01,0.01-0.01,0.01-0.02l0,0v-0.01v-0.01c0-0.02,0-0.04-0.01-0.06c0-0.01,0-0.02,0-0.03c-0.01-0.06-0.01-0.13-0.02-0.19
		c0.01-0.01,0.01-0.03,0.02-0.04c0,0,0,0,0-0.01S6.4,11.8,6.41,11.8c0.01,0,0.01,0,0.02-0.01l0,0h0.01l0,0L6.28,11.78L6.28,11.78
		L6.28,11.78z"/>
	<path class="st0" d="M7.19,11.78L7.19,11.78L7.19,11.78L7.19,11.78c0.01,0.01,0.02,0.01,0.03,0.01s0.01,0.01,0.02,0.01
		c0,0,0,0,0,0.01l0.02,0.04c-0.01,0.06-0.01,0.13-0.02,0.19c0,0.01,0,0.01,0,0.02c0,0.03,0,0.05-0.01,0.08v0.01v0.01l0,0
		c0,0.01,0.01,0.01,0.01,0.02l0.01,0.01c0.01,0.01,0.01,0.02,0.02,0.03l0,0l0,0c0-0.01,0.01-0.02,0.02-0.03l0.01-0.01
		c0-0.01,0.01-0.01,0.01-0.02l0,0v-0.01v-0.01c0-0.02,0-0.04-0.01-0.06c0-0.01,0-0.02,0-0.03c-0.01-0.06-0.01-0.13-0.02-0.19
		c0.01-0.01,0.01-0.03,0.02-0.04c0,0,0,0,0-0.01s0.01-0.01,0.02-0.01c0.01,0,0.01,0,0.02-0.01l0,0h0.01l0,0L7.19,11.78L7.19,11.78
		L7.19,11.78z"/>
	<path class="st0" d="M8.1,11.78L8.1,11.78L8.1,11.78L8.1,11.78c0.01,0.01,0.02,0.01,0.03,0.01c0.01,0,0.01,0.01,0.02,0.01
		c0,0,0,0,0,0.01l0.02,0.04c-0.01,0.06-0.01,0.13-0.02,0.19c0,0.01,0,0.01,0,0.02c0,0.03,0,0.05-0.01,0.08v0.01v0.01l0,0
		c0,0.01,0.01,0.01,0.01,0.02l0.01,0.01c0.01,0.01,0.01,0.02,0.02,0.03l0,0l0,0c0-0.01,0.01-0.02,0.02-0.03l0.01-0.01
		c0-0.01,0.01-0.01,0.01-0.02l0,0v-0.01v-0.01c0-0.02,0-0.04-0.01-0.06c0-0.01,0-0.02,0-0.03c-0.01-0.06-0.01-0.13-0.02-0.19
		c0.01-0.01,0.01-0.03,0.02-0.04c0,0,0,0,0-0.01s0.01-0.01,0.02-0.01s0.01,0,0.02-0.01l0,0h0.01l0,0L8.1,11.78L8.1,11.78L8.1,11.78z
		"/>
	<path class="st0" d="M9.01,11.78L9.01,11.78L9.01,11.78L9.01,11.78c0.01,0.01,0.02,0.01,0.03,0.01c0.01,0,0.01,0.01,0.02,0.01
		c0,0,0,0,0,0.01l0.02,0.04c-0.01,0.06-0.01,0.13-0.02,0.19c0,0.01,0,0.01,0,0.02c0,0.03,0,0.05-0.01,0.08v0.01v0.01l0,0
		c0,0.01,0.01,0.01,0.01,0.02l0.01,0.01c0.01,0.01,0.01,0.02,0.02,0.03l0,0l0,0c0-0.01,0.01-0.02,0.02-0.03l0.01-0.01
		c0-0.01,0.01-0.01,0.01-0.02l0,0v-0.01v-0.01c0-0.02,0-0.04-0.01-0.06c0-0.01,0-0.02,0-0.03c-0.01-0.06-0.01-0.13-0.02-0.19
		c0.01-0.01,0.01-0.03,0.02-0.04c0,0,0,0,0-0.01s0.01-0.01,0.02-0.01s0.01,0,0.02-0.01l0,0h0.01l0,0L9.01,11.78L9.01,11.78
		L9.01,11.78z"/>
	<path class="st0" d="M9.92,11.78L9.92,11.78L9.92,11.78L9.92,11.78c0.01,0.01,0.02,0.01,0.03,0.01c0.01,0,0.01,0.01,0.02,0.01
		c0,0,0,0,0,0.01l0.02,0.04c-0.01,0.06-0.01,0.13-0.02,0.19c0,0.01,0,0.01,0,0.02c0,0.03,0,0.05-0.01,0.08v0.01v0.01l0,0
		c0,0.01,0.01,0.01,0.01,0.02l0.01,0.01c0.01,0.01,0.01,0.02,0.02,0.03l0,0l0,0c0-0.01,0.01-0.02,0.02-0.03l0.01-0.01
		c0-0.01,0.01-0.01,0.01-0.02l0,0v-0.01v-0.01c0-0.02,0-0.04-0.01-0.06c0-0.01,0-0.02,0-0.03c-0.01-0.06-0.01-0.13-0.02-0.19
		c0.01-0.01,0.01-0.03,0.02-0.04c0,0,0,0,0-0.01s0.01-0.01,0.02-0.01s0.01,0,0.02-0.01l0,0h0.01l0,0L9.92,11.78L9.92,11.78
		L9.92,11.78z"/>
</g>
</svg>
