<svg xmlns="http://www.w3.org/2000/svg" viewBox="0 0 10 12"><path d="M-.08-.22c.01.01.02.01.03.01s.01.01.02.01v.01l.02.04c-.01.06-.01.13-.02.19v.02c0 .03 0 .05-.01.08v.02c0 .01.01.01.01.02l.01.01c.01 0 .01.01.02.02C0 .2.01.19.02.18L.03.17C.03.16.04.16.04.15V.13C.04.11.04.09.03.07V.04C.02-.02.02-.09.01-.15c.01-.01.01-.03.02-.04V-.2c0-.01.01-.01.02-.01s.01 0 .02-.01h.01-.16zm.91 0c.01.01.02.01.03.01s.01.01.02.01v.01l.02.04C.89-.09.89-.02.88.04v.02c0 .03 0 .05-.01.08v.02c0 .01.01.01.01.02l.01.01C.9.19.9.2.91.21.91.2.92.19.93.18L.94.17C.94.16.95.16.95.15V.13C.95.11.95.09.94.07V.04C.93-.02.93-.09.92-.15c.01-.01.01-.03.02-.04V-.2c0-.01.01-.01.02-.01s.01 0 .02-.01h.01-.16zm.91 0c.01.01.02.01.03.01s.01.01.02.01v.01l.02.04c-.01.06-.01.13-.02.19v.02c0 .03 0 .05-.01.08v.02c0 .01.01.01.01.02l.01.01c.01 0 .01.01.01.02 0-.01.01-.02.02-.03l.01-.01c0-.01.01-.01.01-.02V.13c0-.02 0-.04-.01-.06V.04c0-.06-.01-.13-.01-.19.01-.01.01-.03.02-.04V-.2c0-.01.01-.01.02-.01s.01 0 .02-.01h.01-.16zm.91 0c.01.01.02.01.03.01s.01.01.02.01v.01l.02.04c-.01.06-.01.13-.02.19v.02c0 .03 0 .05-.01.08v.02c0 .01.01.01.01.02l.01.01s.01.01.01.02c0-.01.01-.02.02-.03l.01-.01c0-.01.01-.01.01-.02V.13c0-.02 0-.04-.01-.06V.04c0-.06-.01-.13-.01-.19.01-.01.01-.03.02-.04V-.2c0-.01.01-.01.02-.01s.01 0 .02-.01h.01-.16zm.91 0c.01.01.02.01.03.01 0 .01.01.01.01.02v.01l.02.04c0 .05-.01.12-.01.18v.02c0 .03 0 .05-.01.08v.02c0 .01.01.01.01.02l.01.01s.01.01.01.02c0-.01.01-.02.02-.03l.01-.01c0-.01.01-.01.01-.02V.13c0-.02 0-.04-.01-.06V.04c0-.06-.01-.13-.01-.19.01-.01.01-.03.02-.04V-.2c0-.01.01-.01.02-.01s.01 0 .02-.01h.01-.16zm.9 0c.01.01.02.01.03.01l.02.02v.01l.02.04c0 .05-.01.12-.01.18v.02c0 .03 0 .05-.01.08v.02c0 .01.01.01.01.02l.01.01s.01.01.01.02c0-.01.01-.02.02-.03l.01-.01c0-.01.01-.01.01-.02V.13c0-.02 0-.04-.01-.06V.04c0-.06-.01-.13-.01-.19.01-.01.01-.03.02-.04V-.2h.02c.01 0 .01 0 .02-.01h.01l-.17-.01zm.91 0c.02.01.02.01.03.01s.01.01.02.01v.01l.02.04c0 .06-.01.13-.01.19v.02c0 .03 0 .05-.01.08v.02c0 .01.01.01.01.02l.01.01s.01.01.01.02c0-.01.01-.02.02-.03l.01-.01c0-.01.01-.01.01-.02V.13c0-.02 0-.04-.01-.06V.04c0-.06-.01-.13-.01-.19.01-.01.01-.03.02-.04V-.2h.02c.01 0 .01 0 .02-.01h.01l-.17-.01zm.91 0c.02.01.02.01.03.01.01 0 .01.01.02.01v.01l.02.04c0 .06-.01.13-.01.19v.02c0 .03 0 .05-.01.08v.02c0 .01.01.01.01.02l.01.01s.01.01.01.02c0-.01.01-.02.02-.03l.01-.01c0-.01.01-.01.01-.02V.13c0-.02 0-.04-.01-.06V.04c0-.06-.01-.13-.02-.19.01-.01.02-.02.03-.04V-.2h.02c.01 0 .01 0 .02-.01h.01l-.17-.01zm.91 0c.01.01.02.01.03.01.01 0 .01.01.02.01v.01l.02.04c0 .06-.01.13-.02.19v.02c0 .03 0 .05-.01.08v.02c0 .01.01.01.01.02l.01.01c.01 0 .01.01.02.02 0-.01.01-.02.02-.03L7.3.17c0-.01.01-.01.01-.02V.13c0-.02 0-.04-.01-.06V.04c-.01-.06-.01-.13-.02-.19.01-.01.02-.02.02-.04V-.2c0-.01.01-.01.02-.01s.01 0 .02-.01h.01-.16zm.91 0c.01.01.02.01.03.01.01 0 .01.01.02.01v.01l.02.04c0 .06-.01.13-.02.19v.02c0 .03 0 .05-.01.08v.02c0 .01.01.01.01.02l.01.01c.01 0 .01.01.02.02 0-.01.01-.02.02-.03l.01-.01c0-.01.01-.01.01-.02V.13c0-.02 0-.04-.01-.06V.04c-.01-.06-.01-.13-.02-.19.01-.01.02-.02.02-.04V-.2c0-.01.01-.01.02-.01s.01 0 .02-.01h.01-.16zm.91 0c.01.01.02.01.03.01.01 0 .01.01.02.01v.01l.02.04c-.01.06-.01.13-.02.19v.02c0 .03 0 .05-.01.08v.02c0 .01.01.01.01.02l.01.01c.01 0 .01.01.02.02 0-.01.01-.02.02-.03l.01-.01c0-.01.01-.01.01-.02V.13c0-.02 0-.04-.01-.06V.04c-.01-.06-.01-.13-.02-.19.01-.01.01-.03.02-.04V-.2c0-.01.01-.01.02-.01s.01 0 .02-.01h.01-.16zm.91 0c.01.01.02.01.03.01.01 0 .01.01.02.01v.01l.02.04c-.01.06-.01.13-.02.19v.02c0 .03 0 .05-.01.08v.02c0 .01.01.01.01.02l.01.01c.01 0 .01.01.02.02 0-.01.01-.02.02-.03l.01-.01c0-.01.01-.01.01-.02V.13c0-.02 0-.04-.01-.06V.04c-.01-.06-.01-.13-.02-.19.01-.01.01-.03.02-.04V-.2c0-.01.01-.01.02-.01s.01 0 .02-.01h.01-.16zm-10 1.1c.01.01.02.01.03.01s.01.01.02.01v.01l.02.04c-.01.06-.01.13-.02.19v.02c0 .03 0 .05-.01.08v.02c0 .01.01.01.01.02l.01.01c.01-.01.01 0 .02.01 0-.01.01-.02.02-.03l.01-.01c0-.01.01-.01.01-.02v-.02c0-.02 0-.04-.01-.06v-.03C.02 1.07.02 1.01.01.94.02.93.02.91.03.9V.89C.03.88.04.88.05.88S.06.88.07.87h.01l-.16.01zm.91 0c.01.01.02.01.03.01S.87.9.88.9v.01L.9.94c-.01.07-.01.13-.02.19v.02c0 .03 0 .05-.01.08v.02c0 .01.01.01.01.02l.01.01c.01 0 .01.01.02.02 0-.01.01-.02.02-.03l.01-.01c0-.01.01-.01.01-.02v-.02c0-.02 0-.04-.01-.06v-.03C.93 1.07.93 1.01.92.94.93.93.93.91.94.9V.89C.94.88.95.88.96.88S.97.88.98.87h.01L.83.88zm.91 0c.01.01.02.01.03.01s.01.01.02.01v.01l.02.04c-.01.06-.01.12-.02.18v.02c0 .03 0 .05-.01.08v.02c0 .01.01.01.01.02l.01.01c.01 0 .01.01.01.02 0-.01.01-.02.02-.03l.01-.01c0-.01.01-.01.01-.02v-.02c0-.02 0-.04-.01-.06v-.03c0-.06-.01-.12-.01-.19.01-.01.01-.03.02-.04V.89c0-.01.01-.01.02-.01s.01 0 .02-.01h.01l-.16.01zm.91 0c.01.01.02.01.03.01s.01.01.02.01v.01l.02.04c-.01.06-.01.12-.02.18v.02c0 .03 0 .05-.01.08v.02c0 .01.01.01.01.02l.01.01s.01.01.01.02c0-.01.01-.02.02-.03l.01-.01c0-.01.01-.01.01-.02v-.02c0-.02 0-.04-.01-.06v-.03c0-.06-.01-.12-.01-.19.01-.01.01-.03.02-.04V.89c0-.01.01-.01.02-.01s.01 0 .02-.01h.01l-.16.01zm.91 0c.01.01.02.01.03.01s.01.01.02.01v.01l.02.04c-.01.06-.02.12-.02.18v.02c0 .03 0 .05-.01.08v.02c0 .01.01.01.01.02l.01.01s.01.01.01.02c0-.01.01-.02.02-.03l.01-.01c0-.01.01-.01.01-.02v-.02c0-.02 0-.04-.01-.06v-.03c0-.06-.01-.12-.01-.19.01-.01.01-.03.02-.04V.89c0-.01.01-.01.02-.01s.01 0 .02-.01h.01l-.16.01zm.9 0c.01.01.02.01.03.01s.01.01.02.01v.01l.02.04c0 .06-.01.12-.01.18v.02c0 .03 0 .05-.01.08v.02c0 .01.01.01.01.02l.01.01s.01.01.01.02c0-.01.01-.02.02-.03l.01-.01c0-.01.01-.01.01-.02v-.02c0-.02 0-.04-.01-.06v-.03c0-.06-.01-.12-.01-.19.01-.01.01-.03.02-.04V.89c0-.01.01-.01.02-.01s.01 0 .02-.01h.01l-.17.01zm.91 0c.02 0 .02 0 .03.01.01 0 .01.01.02.01v.01l.02.04c0 .06-.01.12-.01.18v.02c0 .03 0 .05-.01.08v.02c0 .01.01.01.01.02l.01.01s.01.01.01.02c0-.01.01-.02.02-.03l.01-.01c0-.01.01-.01.01-.02v-.02c0-.02 0-.04-.01-.06v-.03c0-.06-.01-.12-.01-.19.01-.01.01-.03.02-.04V.89c0-.01.01-.01.02-.01s.01 0 .02-.01h.01l-.17.01zm.91 0c.02 0 .02 0 .03.01.01 0 .01.01.02.01v.01l.02.04c0 .06-.01.12-.01.18v.02c0 .03 0 .05-.01.08v.02c0 .01.01.01.01.02l.01.01s.01.01.01.02c0-.01.01-.02.02-.03l.01-.01c0-.01.01-.01.01-.02v-.02c0-.02 0-.04-.01-.06v-.03c0-.06-.01-.12-.02-.19L6.4.91V.9c0-.01.01-.01.02-.01s.01 0 .02-.01h.01-.17zm.91 0c.01 0 .02 0 .03.01.01 0 .01.01.02.01v.01l.02.04c0 .06-.01.12-.02.18v.02c0 .03 0 .05-.01.08v.02c0 .01.01.01.01.02l.01.01c.01 0 .01.01.02.02 0-.01.01-.02.02-.03l.01-.01c0-.01.01-.01.01-.02v-.02c0-.02 0-.04-.01-.06v-.03c-.01-.06-.01-.12-.02-.19.01-.01.02-.02.02-.03V.9c0-.01.01-.01.02-.01s.01 0 .02-.01h.01-.16zm.91 0c.01.01.02.01.03.01.01 0 .01.01.02.01v.01l.02.04c0 .06-.01.12-.02.18v.02c0 .03 0 .05-.01.08v.02c0 .01.01.01.01.02l.01.01c.01 0 .01.01.02.02 0-.01.01-.02.02-.03l.01-.01c0-.01.01-.01.01-.02v-.02c0-.02 0-.04-.01-.06v-.03c-.01-.06-.01-.12-.02-.19.01-.01.02-.02.02-.03V.9c0-.01.01-.01.02-.01s.01 0 .02-.01h.01-.16zm.91 0c.01.01.02.01.03.01.01 0 .01.01.02.01v.01l.02.04c-.01.06-.01.12-.02.18v.02c0 .03 0 .05-.01.08v.02c0 .01.01.01.01.02l.01.01c.01 0 .01.01.02.02 0-.01.01-.02.02-.03l.01-.01c0-.01.01-.01.01-.02v-.02c0-.02 0-.04-.01-.06v-.03c-.01-.06-.01-.12-.02-.19.01-.01.01-.03.02-.04V.89c0-.01.01-.01.02-.01s.01 0 .02-.01h.01l-.16.01zm.91 0c.01.01.02.01.03.01.01 0 .01.01.02.01v.01l.02.04c-.01.06-.01.12-.02.18v.02c0 .03 0 .05-.01.08v.02c0 .01.01.01.01.02l.01.01c.01 0 .01.01.02.02 0-.01.01-.02.02-.03l.01-.01c0-.01.01-.01.01-.02v-.02c0-.02 0-.04-.01-.06v-.03c-.01-.06-.01-.13-.02-.19.01-.01.01-.03.02-.04V.89c0-.01.01-.01.02-.01s.01 0 .02-.01h.01l-.16.01zm-10 1.09c.01.01.02.01.03.01s.01.01.02.01V2l.02.04c-.01.06-.01.12-.02.18v.02c0 .03 0 .05-.01.08v.02c0 .01.01.01.01.02l.01.01.02.02c0-.01.01-.02.02-.03l.01-.01c0-.01.01-.01.01-.02v-.02c0-.02 0-.04-.01-.06v-.03C.02 2.16.02 2.1.01 2.03c.01-.01.01-.02.02-.03v-.01c0-.01.01-.01.02-.01s.01 0 .02-.01h.01-.16zm.91 0c.01.01.02.01.03.01s.01.01.02.01V2l.02.03c-.01.07-.01.13-.02.19v.02c0 .03 0 .05-.01.08v.02c0 .01.01.01.01.02l.01.01.02.02c0-.01.01-.02.02-.03l.01-.01c0-.01.01-.01.01-.02v-.02c0-.02 0-.04-.01-.06v-.03C.93 2.16.93 2.1.92 2.03c.01-.01.01-.02.02-.03v-.01c0-.01.01-.01.02-.01s.01 0 .02-.01h.01-.16zm.91 0c.01.01.02.01.03.01s.01.01.02.01V2l.02.04c-.01.06-.01.12-.02.18v.02c0 .03 0 .05-.01.08v.02c0 .01.01.01.01.02l.01.01c.01.01.01.02.02.03 0-.01.01-.02.02-.03l.01-.01c0-.01.01-.01.01-.02v-.02c0-.02 0-.04-.01-.06v-.03c-.01-.07-.02-.13-.02-.2.01-.01.01-.02.02-.03v-.01c0-.01.01-.01.02-.01s.01 0 .02-.01h.01-.16zm.91 0c.01.01.02.01.03.01s.01.01.02.01V2l.02.04c-.01.06-.01.12-.02.18v.02c0 .03 0 .05-.01.08v.02c0 .01.01.01.01.02l.01.01c.01.01.01.02.02.03 0-.01.01-.02.02-.03l.01-.01c0-.01.01-.01.01-.02v-.02c0-.02 0-.04-.01-.06v-.03c-.01-.07-.02-.13-.02-.2.01-.01.01-.02.02-.03v-.01c0-.01.01-.01.02-.01s.01 0 .02-.01h.01-.16zm.91 0c.01.01.02.01.03.01s.01.01.02.01V2l.02.04c-.01.06-.02.12-.02.18v.02c0 .03 0 .05-.01.08v.02c0 .01.01.01.01.02l.01.01c.01.01.01.02.02.03 0-.01.01-.02.02-.03l.01-.01c0-.01.01-.01.01-.02v-.02c0-.02 0-.04-.01-.06v-.03c-.01-.07-.02-.13-.02-.2 0-.01.01-.02.02-.03v-.01c0-.01.01-.01.02-.01s.01 0 .02-.01h.01-.16zm.9 0c.01.01.02.01.03.01s.01.01.02.01V2l.02.04c0 .06-.01.12-.01.18v.02c0 .03 0 .05-.01.08v.02c0 .01.01.01.01.02l.01.01c.01.01.01.02.02.03 0-.01.01-.02.02-.03l.01-.01c0-.01.01-.01.01-.02v-.02c0-.02 0-.04-.01-.06v-.03c-.01-.07-.02-.13-.02-.2 0-.01.01-.02.02-.03v-.01c0-.01.01-.01.02-.01s.01 0 .02-.01h.01-.17zm.91 0c.02 0 .02 0 .03.01.01 0 .01.01.02.01V2l.02.04c0 .06-.01.12-.01.18v.02c0 .03 0 .05-.01.08v.02c0 .01.01.01.01.02l.01.01c.01.01.01.02.02.03 0-.01.01-.02.02-.03l.01-.01c0-.01.01-.01.01-.02v-.02c0-.02 0-.04-.01-.06v-.03c-.01-.07-.02-.13-.02-.2 0-.01.01-.02.02-.03v-.01c0-.01.01-.01.02-.01s.01 0 .02-.01h.01-.17zm.91 0c.02 0 .02 0 .03.01.01 0 .01.01.02.01V2l.02.04c0 .06-.01.12-.01.18v.02c0 .03 0 .05-.01.08v.02c0 .01.01.01.01.02l.01.01c.01.01.01.02.02.03 0-.01.01-.02.02-.03l.01-.01c0-.01.01-.01.01-.02v-.02c0-.02 0-.04-.01-.06v-.03l-.03-.2L6.4 2v-.01c0-.01.01-.01.02-.01s.01 0 .02-.01h.01-.17zm.91 0c.01 0 .02 0 .03.01.01 0 .01.01.02.01V2l.02.04c0 .06-.01.12-.02.18v.02c0 .03 0 .05-.01.08v.02c0 .01.01.01.01.02l.01.01c.01.01.01.02.02.03 0-.01.01-.02.02-.03l.01-.01c0-.01.01-.01.01-.02v-.02c0-.02 0-.04-.01-.06v-.03c-.01-.07-.01-.13-.02-.2.01-.01.02-.02.02-.03v-.01c0-.01.01-.01.02-.01s.01 0 .02-.01h.01-.16zm.91 0c.01.01.02.01.03.01.01 0 .01.01.02.01V2l.02.04c0 .06-.01.12-.02.18v.02c0 .03 0 .05-.01.08v.02c0 .01.01.01.01.02l.01.01c.01.01.01.02.02.03 0-.01.01-.02.02-.03l.01-.01c0-.01.01-.01.01-.02v-.02c0-.02 0-.04-.01-.06v-.03c-.01-.07-.01-.13-.02-.2.01-.01.02-.02.02-.03v-.01c0-.01.01-.01.02-.01s.01 0 .02-.01h.01-.16zm.91 0c.01.01.02.01.03.01.01 0 .01.01.02.01V2l.02.04c-.01.06-.01.12-.02.18v.02c0 .03 0 .05-.01.08v.02c0 .01.01.01.01.02l.01.01c.01.01.01.02.02.03 0-.01.01-.02.02-.03l.01-.01c0-.01.01-.01.01-.02v-.02c0-.02 0-.04-.01-.06v-.03c-.01-.07-.01-.13-.02-.2.01-.01.02-.02.02-.03v-.01c0-.01.01-.01.02-.01s.01 0 .02-.01h.01-.16zm.91 0c.01.01.02.01.03.01.01 0 .01.01.02.01V2l.02.04c-.01.06-.01.12-.02.18v.02c0 .03 0 .05-.01.08v.02c0 .01.01.01.01.02l.01.01.02.02c0-.01.01-.02.02-.03l.01-.01c0-.01.01-.01.01-.02v-.02c0-.02 0-.04-.01-.06v-.03c-.01-.06-.01-.13-.02-.19.01-.01.01-.03.02-.04v-.01c0-.01.01-.01.02-.01s.01 0 .02-.01h.01l-.16.01zm-10 1.09c.01.01.02.01.03.01s.01.01.02.01v.01l.02.04c-.01.06-.01.13-.02.19v.02c0 .03 0 .05-.01.08v.02c0 .01.01.01.01.02l.01.01c.01 0 .01 0 .02.01 0-.01.01-.02.02-.03l.01-.01c0-.01.01-.01.01-.02V3.4c0-.02 0-.04-.01-.06v-.03c-.01-.06-.01-.12-.02-.18.01-.02.01-.03.02-.04v-.01c0-.01.01-.01.02-.01s.01 0 .02-.01h.01-.16zm.91 0c.01.01.02.01.03.01s.01.01.02.01v.01l.02.03c-.01.07-.01.13-.02.19v.02c0 .03 0 .05-.01.08v.02c0 .01.01.01.01.02l.01.01.02.02c0-.01.01-.02.02-.03l.01-.01c0-.01.01-.01.01-.02V3.4c0-.02 0-.04-.01-.06v-.03c-.01-.06-.01-.12-.02-.18.01-.02.01-.03.02-.04v-.01c0-.01.01-.01.02-.01s.01 0 .02-.01h.01-.16zm.91 0c.01.01.02.01.03.01s.01.01.02.01v.01l.02.04c-.01.06-.01.12-.02.18v.02c0 .03 0 .05-.01.08v.02c0 .01.01.01.01.02l.01.01c.01.01.01.02.02.03 0-.01.01-.02.02-.03l.01-.01c0-.01.01-.01.01-.02v-.02c0-.02 0-.04-.01-.06v-.03c-.01-.07-.02-.13-.02-.19.01-.02.01-.03.02-.04v-.01c0-.01.01-.01.02-.01s.01 0 .02-.01h.01-.16zm.91 0c.01.01.02.01.03.01s.01.01.02.01v.01l.02.04c-.01.06-.01.12-.02.18v.02c0 .03 0 .05-.01.08v.02c0 .01.01.01.01.02l.01.01c.01.01.01.02.02.03 0-.01.01-.02.02-.03l.01-.01c0-.01.01-.01.01-.02v-.02c0-.02 0-.04-.01-.06v-.03c-.01-.07-.02-.13-.02-.19.01-.02.01-.03.02-.04v-.01c0-.01.01-.01.02-.01s.01 0 .02-.01h.01-.16zm.91 0c.01.01.02.01.03.01s.01.01.02.01v.01l.02.04c-.01.06-.02.12-.02.18v.02c0 .03 0 .05-.01.08v.02c0 .01.01.01.01.02l.01.01c.01.01.01.02.02.03 0-.01.01-.02.02-.03l.01-.01c0-.01.01-.01.01-.02v-.02c0-.02 0-.04-.01-.06v-.03c-.01-.07-.02-.13-.02-.19 0-.02.01-.03.02-.04v-.01c0-.01.01-.01.02-.01s.01 0 .02-.01h.01-.16zm.9 0c.01.01.02.01.03.01s.01.01.02.01v.01l.02.04c0 .06-.01.12-.01.18v.02c0 .03 0 .05-.01.08v.02c0 .01.01.01.01.02l.01.01c.01.01.01.02.02.03 0-.01.01-.02.02-.03l.01-.01c0-.01.01-.01.01-.02v-.02c0-.02 0-.04-.01-.06v-.03c-.01-.07-.02-.13-.02-.19 0-.02.01-.03.02-.04v-.01c0-.01.01-.01.02-.01s.01 0 .02-.01h.01-.17zm.91 0c.02 0 .02.01.03.01s.01.01.02.01v.01l.02.04c0 .06-.01.12-.01.18v.02c0 .03 0 .05-.01.08v.02c0 .01.01.01.01.02l.01.01c.01.01.01.02.02.03 0-.01.01-.02.02-.03l.01-.01c0-.01.01-.01.01-.02v-.02c0-.02 0-.04-.01-.06v-.03c-.01-.07-.02-.13-.02-.19 0-.02.01-.03.02-.04v-.01c0-.01.01-.01.02-.01s.01 0 .02-.01h.01-.17zm.91 0c.02 0 .02.01.03.01.01 0 .01.01.02.01v.01l.02.04c0 .06-.01.12-.01.18v.02c0 .03 0 .05-.01.08v.02c0 .01.01.01.01.02l.01.01c.01.01.01.02.02.03 0-.01.01-.02.02-.03l.01-.01c0-.01.01-.01.01-.02v-.02c0-.02 0-.04-.01-.06v-.03c-.01-.07-.02-.13-.03-.19.01-.02.02-.03.03-.04v-.01c0-.01.01-.01.02-.01s.01 0 .02-.01h.01-.17zm.91 0c.01 0 .02.01.03.01.01 0 .01.01.02.01v.01l.02.04c0 .06-.01.12-.02.18v.02c0 .03 0 .05-.01.08v.02c0 .01.01.01.01.02l.01.01c.01.01.01.02.02.03 0-.01.01-.02.02-.03l.01-.01c0-.01.01-.01.01-.02v-.02c0-.02 0-.04-.01-.06v-.03c-.01-.07-.01-.13-.02-.19.01-.02.02-.03.02-.04v-.01c0-.01.01-.01.02-.01s.01 0 .02-.01h.01-.16zm.91 0c.01.01.02.01.03.01.01 0 .01.01.02.01v.01l.02.04c0 .06-.01.12-.02.18v.02c0 .03 0 .05-.01.08v.02c0 .01.01.01.01.02l.01.01c.01.01.01.02.02.03 0-.01.01-.02.02-.03l.01-.01c0-.01.01-.01.01-.02v-.02c0-.02 0-.04-.01-.06v-.03c-.01-.07-.01-.13-.02-.19.01-.02.02-.03.02-.04v-.01c0-.01.01-.01.02-.01s.01 0 .02-.01h.01-.16zm.91 0c.01.01.02.01.03.01.01 0 .01.01.02.01v.01l.02.04c-.01.06-.01.12-.02.18v.02c0 .03 0 .05-.01.08v.02c0 .01.01.01.01.02l.01.01c.01.01.01.02.02.03 0-.01.01-.02.02-.03l.01-.01c0-.01.01-.01.01-.02v-.02c0-.02 0-.04-.01-.06v-.03c-.01-.07-.01-.13-.02-.19.01-.02.02-.03.02-.04v-.01c0-.01.01-.01.02-.01s.01 0 .02-.01h.01-.16zm.91 0c.01.01.02.01.03.01.01 0 .01.01.02.01v.01l.02.04c-.01.06-.01.12-.02.18v.02c0 .03 0 .05-.01.08v.02c0 .01.01.01.01.02l.01.01.02.02c0-.01.01-.02.02-.03l.01-.01c0-.01.01-.01.01-.02V3.4c0-.02 0-.04-.01-.06v-.03c-.01-.06-.01-.13-.02-.19.01-.01.01-.03.02-.04v-.01c0-.01.01-.01.02-.01s.01 0 .02-.01h.01l-.16.01zm-10 1.09c.01.01.02.01.03.01s.01.01.02.01v.01l.02.04c-.01.06-.01.12-.02.18v.02c0 .03 0 .05-.01.08v.02c0 .01.01.01.01.02l.01.01c.01.01.01.02.02.02 0-.01.01-.02.02-.03l.01-.01c0-.01.01-.01.01-.02v-.02c0-.02 0-.04-.01-.06V4.4c-.01-.06-.01-.12-.02-.18.01-.02.01-.03.02-.04v-.01c0-.01.01-.01.02-.01s.01 0 .02-.01h.01-.16zm.91 0c.01.01.02.01.03.01s.01.01.02.01v.01l.02.04c-.01.06-.01.12-.02.18v.02c0 .03 0 .05-.01.08v.02c0 .01.01.01.01.02l.01.01c.01.01.01.02.02.02 0-.01.01-.02.02-.03l.01-.01c0-.01.01-.01.01-.02v-.02c0-.02 0-.04-.01-.06V4.4c-.01-.06-.01-.12-.02-.18.01-.02.01-.03.02-.04v-.01c0-.01.01-.01.02-.01s.01 0 .02-.01h.01-.16zm.91 0c.01.01.02.01.03.01s.01.01.02.01v.01l.02.04c-.01.06-.01.12-.02.18v.02c0 .03 0 .05-.01.08v.02c0 .01.01.01.01.02l.01.01c.01.01.01.02.02.03 0-.01.01-.02.02-.03l.01-.01c0-.01.01-.01.01-.02V4.5c0-.02 0-.04-.01-.06v-.03c-.01-.07-.02-.13-.02-.19.01-.02.01-.03.02-.04v-.01c0-.01.01-.01.02-.01s.01 0 .02-.01h.01-.16zm.91 0c.01.01.02.01.03.01s.01.01.02.01v.01l.02.04c-.01.06-.01.12-.02.18v.02c0 .03 0 .05-.01.08v.02c0 .01.01.01.01.02l.01.01c.01.01.01.02.02.03 0-.01.01-.02.02-.03l.01-.01c0-.01.01-.01.01-.02V4.5c0-.02 0-.04-.01-.06v-.03c-.01-.07-.02-.13-.02-.19.01-.02.01-.03.02-.04v-.01c0-.01.01-.01.02-.01s.01 0 .02-.01h.01-.16zm.91 0c.01.01.02.01.03.01s.01.01.02.01v.01l.02.04c-.01.06-.02.12-.02.18v.02c0 .03 0 .05-.01.08v.02c0 .01.01.01.01.02l.01.01c.01.01.01.02.02.03 0-.01.01-.02.02-.03l.01-.01c0-.01.01-.01.01-.02V4.5c0-.02 0-.04-.01-.06v-.03c-.01-.07-.02-.13-.02-.19 0-.02.01-.03.02-.04v-.01c0-.01.01-.01.02-.01s.01 0 .02-.01h.01-.16zm.9 0c.01.01.02.01.03.01s.01.01.02.01v.01l.02.04c0 .06-.01.12-.01.18v.02c0 .03 0 .05-.01.08v.02c0 .01.01.01.01.02l.01.01c.01.01.01.02.02.03 0-.01.01-.02.02-.03l.01-.01c0-.01.01-.01.01-.02V4.5c0-.02 0-.04-.01-.06v-.03c-.01-.07-.02-.13-.02-.19 0-.02.01-.03.02-.04v-.01c0-.01.01-.01.02-.01s.01 0 .02-.01h.01-.17zm.91 0c.02 0 .02.01.03.01s.01.01.02.01v.01l.02.04c0 .06-.01.12-.01.18v.02c0 .03 0 .05-.01.08v.02c0 .01.01.01.01.02l.01.01c.01.01.01.02.02.03 0-.01.01-.02.02-.03l.01-.01c0-.01.01-.01.01-.02V4.5c0-.02 0-.04-.01-.06v-.03c-.01-.07-.02-.13-.02-.19 0-.02.01-.03.02-.04v-.01c0-.01.01-.01.02-.01s.01 0 .02-.01h.01-.17zm.91 0c.02 0 .02.01.03.01.01 0 .01.01.02.01v.01l.02.04c0 .06-.01.12-.01.18v.02c0 .03 0 .05-.01.08v.02c0 .01.01.01.01.02l.01.01c.01.01.01.02.02.03 0-.01.01-.02.02-.03l.01-.01c0-.01.01-.01.01-.02V4.5c0-.02 0-.04-.01-.06v-.03c-.01-.07-.02-.13-.03-.19.01-.02.02-.03.03-.04v-.01c0-.01.01-.01.02-.01s.01 0 .02-.01h.01-.17zm.91 0c.01 0 .02.01.03.01.01 0 .01.01.02.01v.01l.02.04c0 .06-.01.12-.02.18v.02c0 .03 0 .05-.01.08v.02c0 .01.01.01.01.02l.01.01c.01.01.01.02.02.03 0-.01.01-.02.02-.03l.01-.01c0-.01.01-.01.01-.02V4.5c0-.02 0-.04-.01-.06v-.03c-.01-.07-.01-.13-.02-.19.01-.02.02-.03.02-.04v-.01c0-.01.01-.01.02-.01s.01 0 .02-.01h.01-.16zm.91 0c.01.01.02.01.03.01.01 0 .01.01.02.01v.01l.02.04c0 .06-.01.12-.02.18v.02c0 .03 0 .05-.01.08v.02c0 .01.01.01.01.02l.01.01c.01.01.01.02.02.03 0-.01.01-.02.02-.03l.01-.01c0-.01.01-.01.01-.02V4.5c0-.02 0-.04-.01-.06v-.03c-.01-.07-.01-.13-.02-.19.01-.02.02-.03.02-.04v-.01c0-.01.01-.01.02-.01s.01 0 .02-.01h.01-.16zm.91 0c.01.01.02.01.03.01.01 0 .01.01.02.01v.01l.02.04c-.01.06-.01.12-.02.18v.02c0 .03 0 .05-.01.08v.02c0 .01.01.01.01.02l.01.01c.01.01.01.02.02.03 0-.01.01-.02.02-.03l.01-.01c0-.01.01-.01.01-.02V4.5c0-.02 0-.04-.01-.06v-.03c-.01-.07-.01-.13-.02-.19.01-.02.02-.03.02-.04v-.01c0-.01.01-.01.02-.01s.01 0 .02-.01h.01-.16zm.91 0c.01.01.02.01.03.01.01 0 .01.01.02.01v.01l.02.04c-.01.06-.01.12-.02.18v.02c0 .03 0 .05-.01.08v.02c0 .01.01.01.01.02l.01.01c.01.01.01.02.02.02 0-.01.01-.02.02-.03l.01-.01c0-.01.01-.01.01-.02v-.02c0-.02 0-.04-.01-.06V4.4c-.01-.06-.01-.13-.02-.19.01-.01.01-.03.02-.04v-.01c0-.01.01-.01.02-.01s.01 0 .02-.01h.01l-.16.01zm-10 1.09c.01.01.02.01.03.01s.01.01.02.01v.01l.02.04c-.01.06-.01.13-.02.19v.02c0 .03 0 .05-.01.08v.02c0 .01.01.01.01.02l.01.01c.01 0 .01.01.02.02 0-.01.01-.02.02-.03l.01-.01c0-.01.01-.01.01-.02v-.02c0-.02 0-.04-.01-.06V5.5c-.01-.07-.01-.13-.02-.19.01-.01.01-.03.02-.04v-.01c0-.01.01-.01.02-.01s.01 0 .02-.01h.01-.16zm.91 0c.01.01.02.01.03.01s.01.01.02.01v.01l.02.04c-.01.06-.01.12-.02.18v.02c0 .03 0 .05-.01.08v.02c0 .01.01.01.01.02l.01.01c.01.01.01.02.02.03 0-.01.01-.02.02-.03l.01-.01c0-.01.01-.01.01-.02v-.02c0-.02 0-.04-.01-.06V5.5c-.01-.07-.01-.13-.02-.19.01-.01.01-.03.02-.04v-.01c0-.01.01-.01.02-.01s.01 0 .02-.01h.01-.16zm.91 0c.01.01.02.01.03.01s.01.01.02.01v.01l.02.04c-.01.06-.01.12-.02.18v.02c0 .03 0 .05-.01.08v.02c0 .01.01.01.01.02l.01.01c.01.01.01.02.02.03 0-.01.01-.02.02-.03l.01-.01c0-.01.01-.01.01-.02v-.02c0-.02 0-.04-.01-.06V5.5c-.01-.07-.02-.13-.02-.19.01-.01.01-.03.02-.04v-.01c0-.01.01-.01.02-.01s.01 0 .02-.01h.01-.16zm.91 0c.01.01.02.01.03.01s.01.01.02.01v.01l.02.04c-.01.06-.01.12-.02.18v.02c0 .03 0 .05-.01.08v.02c0 .01.01.01.01.02l.01.01c.01.01.01.02.02.03 0-.01.01-.02.02-.03l.01-.01c0-.01.01-.01.01-.02v-.02c0-.02 0-.04-.01-.06V5.5c-.01-.07-.02-.13-.02-.19.01-.01.01-.03.02-.04v-.01c0-.01.01-.01.02-.01s.01 0 .02-.01h.01-.16zm.91 0c.01.01.02.01.03.01s.01.01.02.01v.01l.02.04c-.01.06-.02.12-.02.18v.02c0 .03 0 .05-.01.08v.02c0 .01.01.01.01.02l.01.01c.01.01.01.02.02.03 0-.01.01-.02.02-.03l.01-.01c0-.01.01-.01.01-.02v-.02c0-.02 0-.04-.01-.06V5.5c-.01-.07-.02-.13-.02-.19.01-.01.01-.03.02-.04v-.01c0-.01.01-.01.02-.01s.01 0 .02-.01h.01-.16zm.9 0c.01.01.02.01.03.01s.01.01.02.01v.01l.02.04c0 .06-.01.12-.01.18v.02c0 .03 0 .05-.01.08v.02c0 .01.01.01.01.02l.01.01c.01.01.01.02.02.03 0-.01.01-.02.02-.03l.01-.01c0-.01.01-.01.01-.02v-.02c0-.02 0-.04-.01-.06V5.5c-.01-.07-.02-.13-.02-.19.01-.01.01-.03.02-.04v-.01c0-.01.01-.01.02-.01s.01 0 .02-.01h.01-.17zm.91 0c.02.01.02.01.03.01s.01.01.02.01v.01l.02.04c0 .06-.01.12-.01.18v.02c0 .03 0 .05-.01.08v.02c0 .01.01.01.01.02l.01.01c.01.01.01.02.02.03 0-.01.01-.02.02-.03l.01-.01c0-.01.01-.01.01-.02v-.02c0-.02 0-.04-.01-.06V5.5c-.01-.07-.02-.13-.02-.19.01-.01.01-.03.02-.04v-.01c0-.01.01-.01.02-.01s.01 0 .02-.01h.01-.17zm.91 0c.02.01.02.01.03.01.01 0 .01.01.02.01v.01l.02.04c0 .06-.01.12-.01.18v.02c0 .03 0 .05-.01.08v.02c0 .01.01.01.01.02l.01.01c.01.01.01.02.02.03 0-.01.01-.02.02-.03l.01-.01c0-.01.01-.01.01-.02v-.02c0-.02 0-.04-.01-.06V5.5c-.01-.07-.02-.13-.03-.19.01-.02.02-.03.03-.04v-.01c0-.01.01-.01.02-.01s.01 0 .02-.01h.01-.17zm.91 0c.01.01.02.01.03.01.01 0 .01.01.02.01v.01l.02.04c0 .06-.01.12-.02.18v.02c0 .03 0 .05-.01.08v.02c0 .01.01.01.01.02l.01.01c.01.01.01.02.02.03 0-.01.01-.02.02-.03l.01-.01c0-.01.01-.01.01-.02v-.02c0-.02 0-.04-.01-.06V5.5c-.01-.07-.01-.13-.02-.19.01-.02.02-.03.02-.04v-.01c0-.01.01-.01.02-.01s.01 0 .02-.01h.01-.16zm.91 0c.01.01.02.01.03.01.01 0 .01.01.02.01v.01l.02.04c0 .06-.01.12-.02.18v.02c0 .03 0 .05-.01.08v.02c0 .01.01.01.01.02l.01.01c.01.01.01.02.02.03 0-.01.01-.02.02-.03l.01-.01c0-.01.01-.01.01-.02v-.02c0-.02 0-.04-.01-.06V5.5c-.01-.07-.01-.13-.02-.19.01-.02.02-.03.02-.04v-.01c0-.01.01-.01.02-.01s.01 0 .02-.01h.01-.16zm.91 0c.01.01.02.01.03.01.01 0 .01.01.02.01v.01l.02.04c-.01.06-.01.12-.02.18v.02c0 .03 0 .05-.01.08v.02c0 .01.01.01.01.02l.01.01c.01.01.01.02.02.03 0-.01.01-.02.02-.03l.01-.01c0-.01.01-.01.01-.02v-.02c0-.02 0-.04-.01-.06V5.5c-.01-.07-.01-.13-.02-.19.01-.01.01-.03.02-.04v-.01c0-.01.01-.01.02-.01s.01 0 .02-.01h.01-.16zm.91 0c.01.01.02.01.03.01.01 0 .01.01.02.01v.01l.02.04c-.01.06-.01.12-.02.18v.02c0 .03 0 .05-.01.08v.02c0 .01.01.01.01.02l.01.01c.01.01.01.02.02.03 0-.01.01-.02.02-.03l.01-.01c0-.01.01-.01.01-.02v-.02c0-.02 0-.04-.01-.06V5.5c-.01-.06-.01-.13-.02-.19.01-.01.01-.03.02-.04v-.01c0-.01.01-.01.02-.01s.01 0 .02-.01h.01-.16zm-10 1.09c.01.01.02.01.03.01s.01.01.02.01v.01l.02.04c-.01.06-.01.13-.02.19v.02c0 .03 0 .05-.01.08v.02c0 .01.01.01.01.02l.01.01c.01 0 .01.01.02.02 0-.01.01-.02.02-.03l.01-.01c0-.01.01-.01.01-.02v-.02c0-.02 0-.04-.01-.06v-.03C.02 6.52.02 6.46.01 6.4c.01-.01.01-.03.02-.04v-.01c0-.01.01-.01.02-.01s.01 0 .02-.01h.01-.16zm.91 0c.01.01.02.01.03.01s.01.01.02.01v.01l.02.04c-.01.06-.01.12-.02.19v.02c0 .03 0 .05-.01.08v.02c0 .01.01.01.01.02l.01.01c.01 0 .01.01.02.02 0-.01.01-.02.02-.03l.01-.01c0-.01.01-.01.01-.02v-.02c0-.02 0-.04-.01-.06v-.03C.93 6.52.93 6.46.92 6.4c.01-.01.01-.03.02-.04v-.01c0-.01.01-.01.02-.01s.01 0 .02-.01h.01-.16zm.91 0c.01.01.02.01.03.01s.01.01.02.01v.01l.02.04c-.01.06-.01.12-.02.19v.02c0 .03 0 .05-.01.08v.02c0 .01.01.01.01.02l.01.01c.01.01.01.02.02.03 0-.01.01-.02.02-.03l.01-.01c0-.01.01-.01.01-.02v-.02c0-.02 0-.04-.01-.06V6.6c-.01-.08-.02-.14-.02-.2.01-.01.01-.03.02-.04v-.01c0-.01.01-.01.02-.01s.01 0 .02-.01h.01-.16zm.91 0c.01.01.02.01.03.01s.01.01.02.01v.01l.02.04c-.01.06-.01.12-.02.19v.02c0 .03 0 .05-.01.08v.02c0 .01.01.01.01.02l.01.01c.01.01.01.02.02.03 0-.01.01-.02.02-.03l.01-.01c0-.01.01-.01.01-.02v-.02c0-.02 0-.04-.01-.06V6.6c-.01-.08-.02-.14-.02-.2.01-.01.01-.03.02-.04v-.01c0-.01.01-.01.02-.01s.01 0 .02-.01h.01-.16zm.91 0c.01.01.02.01.03.01s.01.01.02.01v.01l.01.04c0 .06-.01.12-.01.19v.02c0 .03 0 .05-.01.08v.02c0 .01.01.01.01.02l.01.01c.01.01.01.02.02.03 0-.01.01-.02.02-.03l.01-.01c0-.01.01-.01.01-.02v-.02c0-.02 0-.04-.01-.06V6.6c-.01-.08-.02-.14-.02-.2.01-.01.01-.03.02-.04v-.01c0-.01.01-.01.02-.01s.01 0 .02-.01h.01-.16zm.9 0c.01.01.02.01.03.01s.01.01.02.01v.01l.02.04c0 .06-.01.12-.01.19v.02c0 .03 0 .05-.01.08v.02c0 .01.01.01.01.02l.01.01c.01.01.01.02.02.03 0-.01.01-.02.02-.03l.01-.01c0-.01.01-.01.01-.02v-.02c0-.02 0-.04-.01-.06V6.6c-.01-.08-.02-.14-.02-.2.01-.01.01-.03.02-.04v-.01c0-.01.01-.01.02-.01s.01 0 .02-.01h.01-.17zm.91 0c.02.01.02.01.03.01s.01.01.02.01v.01l.02.04c0 .06-.01.12-.01.19v.02c0 .03 0 .05-.01.08v.02c0 .01.01.01.01.02l.01.01c.01.01.01.02.02.03 0-.01.01-.02.02-.03l.01-.01c0-.01.01-.01.01-.02v-.02c0-.02 0-.04-.01-.06V6.6c-.01-.08-.02-.14-.02-.2.01-.01.01-.03.02-.04v-.01c0-.01.01-.01.02-.01s.01 0 .02-.01h.01-.17zm.91 0c.02.01.02.01.03.01.01 0 .01.01.02.01v.01l.02.04c0 .06-.01.12-.01.19v.02c0 .03 0 .05-.01.08v.02c0 .01.01.01.01.02l.01.01c.01.01.01.02.02.03 0-.01.01-.02.02-.03l.01-.01c-.01-.02 0-.03 0-.03v-.02c0-.02 0-.04-.01-.06v-.03c0-.07-.01-.13-.02-.19.01-.01.02-.03.03-.04v-.01c0-.01.01-.01.02-.01s.01 0 .02-.01h.01-.17zm.91 0c.01.01.02.01.03.01.01 0 .01.01.02.01v.01l.02.04c0 .06-.01.12-.02.19v.02c0 .03 0 .05-.01.08v.02c0 .01.01.01.01.02l.01.01c.01.01.01.02.02.03 0-.01.01-.02.02-.03l.01-.01c0-.01.01-.01.01-.02v-.02c0-.02 0-.04-.01-.06V6.6c-.01-.08-.01-.14-.02-.2.01-.01.02-.03.02-.04v-.01c0-.01.01-.01.02-.01s.01 0 .02-.01h.01-.16zm.91 0c.01.01.02.01.03.01.01 0 .01.01.02.01v.01l.02.04c0 .06-.01.12-.02.19v.02c0 .03 0 .05-.01.08v.02c0 .01.01.01.01.02l.01.01c.01.01.01.02.02.03 0-.01.01-.02.02-.03l.01-.01c0-.01.01-.01.01-.02v-.02c0-.02 0-.04-.01-.06V6.6c-.01-.08-.01-.14-.02-.2.01-.01.02-.03.02-.04v-.01c0-.01.01-.01.02-.01s.01 0 .02-.01h.01-.16zm.91 0c.01.01.02.01.03.01.01 0 .01.01.02.01v.01l.02.04c-.01.06-.01.12-.02.19v.02c0 .03 0 .05-.01.08v.02c0 .01.01.01.01.02l.01.01c.01.01.01.02.02.03 0-.01.01-.02.02-.03l.01-.01c0-.01.01-.01.01-.02v-.02c0-.02 0-.04-.01-.06V6.6c-.01-.08-.01-.14-.02-.2.01-.01.01-.03.02-.04v-.01c0-.01.01-.01.02-.01s.01 0 .02-.01h.01-.16zm.91 0c.01.01.02.01.03.01.01 0 .01.01.02.01v.01l.02.04c-.01.06-.01.12-.02.19v.02c0 .03 0 .05-.01.08v.02c0 .01.01.01.01.02l.01.01c.01 0 .01.01.02.02 0-.01.01-.02.02-.03l.01-.01c0-.01.01-.01.01-.02v-.02c0-.02 0-.04-.01-.06v-.03c-.01-.06-.01-.13-.02-.19.01-.01.01-.03.02-.04v-.01c0-.01.01-.01.02-.01s.01 0 .02-.01h.01-.16zm-10 1.09c.01.01.02.01.03.01s.01.01.02.01v.01l.02.04c-.01.06-.01.13-.02.19v.02c0 .03 0 .05-.01.08v.02c0 .01.01.01.01.02l.01.01c.01 0 .01.01.02.02 0-.01.01-.02.02-.03l.01-.01c0-.01.01-.01.01-.02v-.02c0-.02 0-.04-.01-.06v-.03c-.01-.07-.01-.13-.02-.19.01-.01.01-.03.02-.04v-.01c0-.01.01-.01.02-.01s.01 0 .02-.01h.01-.16zm.91 0c.01.01.02.01.03.01s.01.01.02.01v.01l.02.04c-.01.06-.01.12-.02.19v.02c0 .03 0 .05-.01.08v.02c0 .01.01.01.01.02l.01.01c.01 0 .01.01.02.02 0-.01.01-.02.02-.03l.01-.01c0-.01.01-.01.01-.02v-.02c0-.02 0-.04-.01-.06v-.03c-.01-.07-.01-.13-.02-.19.01-.01.01-.03.02-.04v-.01c0-.01.01-.01.02-.01s.01 0 .02-.01h.01-.16zm.91 0c.01.01.02.01.03.01s.01.01.02.01v.01l.02.04c-.01.06-.01.12-.02.19v.02c0 .03 0 .05-.01.08v.02c0 .01.01.01.01.02l.01.01c.01.01.01.02.02.03 0-.01.01-.02.02-.03l.01-.01c0-.01.01-.01.01-.02v-.02c0-.02 0-.04-.01-.06v-.03c-.01-.08-.02-.14-.02-.2.01-.01.01-.03.02-.04v-.01c0-.01.01-.01.02-.01s.01 0 .02-.01h.01-.16zm.91 0c.01.01.02.01.03.01s.01.01.02.01v.01l.02.04c-.01.06-.01.12-.02.19v.02c0 .03 0 .05-.01.08v.02s.01 0 .01.01l.01.01c.01.01.01.02.02.03 0-.01.01-.02.02-.03l.01-.01c0-.01.01-.01.01-.02v-.02c0-.02 0-.04-.01-.06v-.03c-.01-.07-.02-.13-.02-.19.01-.01.01-.03.02-.04v-.01c0-.01.01-.01.02-.01s.01 0 .02-.01h.01-.16zm.91 0c.01.01.02.01.03.01s.01.01.02.01v.01l.02.04c-.01.06-.02.12-.02.19v.02c0 .03 0 .05-.01.08v.02c0 .01.01.01.01.02l.01.01c.01.01.01.02.02.03 0-.01.01-.02.02-.03l.01-.01c0-.01.01-.01.01-.02v-.02c0-.02 0-.04-.01-.06v-.03c-.01-.08-.02-.14-.02-.2.01-.01.01-.03.02-.04v-.01c0-.01.01-.01.02-.01s.01 0 .02-.01h.01-.16zm.9 0c.01.01.02.01.03.01s.01.01.02.01v.01l.02.04c0 .06-.01.12-.01.19v.02c0 .03 0 .05-.01.08v.02c0 .01.01.01.01.02l.01.01c.01.01.01.02.02.03 0-.01.01-.02.02-.03l.01-.01c0-.01.01-.01.01-.02v-.02c0-.02 0-.04-.01-.06v-.03c-.01-.08-.02-.14-.02-.2.01-.01.01-.03.02-.04v-.01c0-.01.01-.01.02-.01s.01 0 .02-.01h.01-.17zm.91 0c.02.01.02.01.03.01s.01.01.02.01v.01l.02.04c0 .06-.01.12-.01.19v.02c0 .03 0 .05-.01.08v.02c0 .01.01.01.01.02l.01.01c.01.01.01.02.02.03 0-.01.01-.02.02-.03l.01-.01c0-.01.01-.01.01-.02v-.02c0-.02 0-.04-.01-.06v-.03c-.01-.08-.02-.14-.02-.2.01-.01.01-.03.02-.04v-.01c0-.01.01-.01.02-.01s.01 0 .02-.01h.01-.17zm.91 0c.02.01.02.01.03.01.01 0 .01.01.02.01v.01l.02.04c0 .06-.01.12-.01.19v.02c0 .03 0 .05-.01.08v.02c0 .01.01.01.01.02l.01.01c.01.01.01.02.02.03 0-.01.01-.02.02-.03l.01-.01c-.01-.02 0-.02 0-.03v-.02c0-.02 0-.04-.01-.06v-.03c0-.07-.01-.13-.02-.19.01-.01.02-.03.03-.04v-.01c0-.01.01-.01.02-.01s.01 0 .02-.01h.01-.17zm.91 0c.01.01.02.01.03.01.01 0 .01.01.02.01v.01l.02.04c0 .06-.01.12-.02.19v.02c0 .03 0 .05-.01.08v.02c0 .01.01.01.01.02l.01.01c.01.01.01.02.02.03 0-.01.01-.02.02-.03l.01-.01c0-.01.01-.01.01-.02v-.02c0-.02 0-.04-.01-.06v-.03c-.01-.08-.01-.14-.02-.2.01-.01.02-.03.02-.04v-.01c0-.01.01-.01.02-.01s.01 0 .02-.01h.01-.16zm.91 0c.01.01.02.01.03.01.01 0 .01.01.02.01v.01l.02.04c0 .06-.01.12-.02.19v.02c0 .03 0 .05-.01.08v.02c0 .01.01.01.01.02l.01.01c.01.01.01.02.02.03 0-.01.01-.02.02-.03l.01-.01c0-.01.01-.01.01-.02v-.02c0-.02 0-.04-.01-.06v-.03c-.01-.08-.01-.14-.02-.2.01-.01.02-.03.02-.04v-.01c0-.01.01-.01.02-.01s.01 0 .02-.01h.01-.16zm.91 0c.01.01.02.01.03.01.01 0 .01.01.02.01v.01l.02.04c-.01.06-.01.12-.02.19v.02c0 .03 0 .05-.01.08v.02c0 .01.01.01.01.02l.01.01c.01.01.01.02.02.03 0-.01.01-.02.02-.03l.01-.01c0-.01.01-.01.01-.02v-.02c0-.02 0-.04-.01-.06v-.03c-.01-.08-.01-.14-.02-.2.01-.01.01-.03.02-.04v-.01c0-.01.01-.01.02-.01s.01 0 .02-.01h.01-.16zm.91 0c.01.01.02.01.03.01.01 0 .01.01.02.01v.01l.02.04c-.01.06-.01.12-.02.19v.02c0 .03 0 .05-.01.08v.02c0 .01.01.01.01.02l.01.01c.01 0 .01.01.02.02 0-.01.01-.02.02-.03l.01-.01c0-.01.01-.01.01-.02v-.02c0-.02 0-.04-.01-.06v-.03c-.01-.06-.01-.13-.02-.19.01-.01.01-.03.02-.04v-.01c0-.01.01-.01.02-.01s.01 0 .02-.01h.01-.16zm-10 1.09c.01.01.02.01.03.01s.01.01.02.01v.01l.02.04c-.01.06-.01.12-.02.19v.02c0 .03 0 .05-.01.08v.02c0 .01.01.01.01.02l.01.01c.01 0 .01.01.02.02 0-.01.01-.02.02-.03l.01-.01c0-.01.01-.01.01-.02v-.02c0-.02 0-.04-.01-.06v-.03c-.01-.06-.01-.13-.02-.19.01-.01.01-.03.02-.04v-.01c0-.01.01-.01.02-.01s.01 0 .02-.01h.01-.16zm.91 0c.01.01.02.01.03.01s.01.01.02.01v.01l.02.04c-.01.06-.01.12-.02.19v.02c0 .03 0 .05-.01.08v.02c0 .01.01.01.01.02l.01.01c.01 0 .01.01.02.02 0-.01.01-.02.02-.03l.01-.01c0-.01.01-.01.01-.02v-.02c0-.02 0-.04-.01-.06v-.03c-.01-.06-.01-.13-.02-.19.01-.01.01-.03.02-.04v-.01c0-.01.01-.01.02-.01s.01 0 .02-.01h.01-.16zm.91 0c.01.01.02.01.03.01s.01.01.02.01v.01l.02.04c-.01.06-.01.12-.02.19v.02c0 .03 0 .05-.01.08v.02c0 .01.01.01.01.02l.01.01c.01.01.01.02.02.03 0-.01.01-.02.02-.03l.01-.01c0-.01.01-.01.01-.02v-.02c0-.02 0-.04-.01-.06v-.03c-.01-.07-.02-.14-.02-.2.01-.01.01-.03.02-.04v-.01c0-.01.01-.01.02-.01s.01 0 .02-.01h.01-.16zm.91 0c.01.01.02.01.03.01s.01.01.02.01v.01l.02.04c-.01.06-.01.12-.02.19v.02c0 .03 0 .05-.01.08v.02c0 .01.01.01.01.02l.01.01c.01.01.01.02.02.03 0-.01.01-.02.02-.03l.01-.01c0-.01.01-.01.01-.02v-.02c0-.02 0-.04-.01-.06v-.03c-.01-.07-.02-.14-.02-.2.01-.01.01-.03.02-.04v-.01c0-.01.01-.01.02-.01s.01 0 .02-.01h.01-.16zm.91 0c.01.01.02.01.03.01s.01.01.02.01v.01l.02.04c-.01.06-.02.12-.02.19v.02c0 .03 0 .05-.01.08v.02c0 .01.01.01.01.02l.01.01c.01.01.01.02.02.03 0-.01.01-.02.02-.03l.01-.01c0-.01.01-.01.01-.02v-.02c0-.02 0-.04-.01-.06v-.03c-.01-.07-.02-.14-.02-.2.01-.01.01-.03.02-.04v-.01c0-.01.01-.01.02-.01s.01 0 .02-.01h.01-.16zm.9 0c.01.01.02.01.03.01s.01.01.02.01v.01l.02.04c0 .06-.01.12-.01.19v.02c0 .03 0 .05-.01.08v.02c0 .01.01.01.01.02l.01.01c.01.01.01.02.02.03 0-.01.01-.02.02-.03l.01-.01c0-.01.01-.01.01-.02v-.02c0-.02 0-.04-.01-.06v-.03c-.01-.07-.02-.14-.02-.2.01-.01.01-.03.02-.04v-.01c0-.01.01-.01.02-.01s.01 0 .02-.01h.01-.17zm.91 0c.02.01.02.01.03.01s.01.01.02.01v.01l.02.04c0 .06-.01.12-.01.19v.02c0 .03 0 .05-.01.08v.02c0 .01.01.01.01.02l.01.01c.01.01.01.02.02.03 0-.01.01-.02.02-.03l.01-.01c0-.01.01-.01.01-.02v-.02c0-.02 0-.04-.01-.06v-.03c-.01-.07-.02-.14-.02-.2.01-.01.01-.03.02-.04v-.01c0-.01.01-.01.02-.01s.01 0 .02-.01h.01-.17zm.91 0c.02.01.02.01.03.01.01 0 .01.01.02.01v.01l.02.04c0 .06-.01.12-.01.19v.02c0 .03 0 .05-.01.08v.02c0 .01.01.01.01.02l.01.01c.01.01.01.02.02.03 0-.01.01-.02.02-.03l.01-.01c0-.01.01-.01.01-.02v-.02c0-.02 0-.04-.01-.06v-.03l-.03-.2c.01-.01.02-.03.03-.04v-.01c0-.01.01-.01.02-.01s.01 0 .02-.01h.01-.17zm.91 0c.01.01.02.01.03.01.01 0 .01.01.02.01v.01l.02.04c0 .06-.01.12-.02.19v.02c0 .03 0 .05-.01.08v.02c0 .01.01.01.01.02l.01.01c.01.01.01.02.02.03 0-.01.01-.02.02-.03l.01-.01c0-.01.01-.01.01-.02v-.02c0-.02 0-.04-.01-.06v-.03c-.01-.07-.01-.14-.02-.2.01-.01.02-.03.02-.04v-.01c0-.01.01-.01.02-.01s.01 0 .02-.01h.01-.16zm.91 0c.01.01.02.01.03.01.01 0 .01.01.02.01v.01l.02.04c0 .06-.01.12-.02.19v.02c0 .03 0 .05-.01.08v.02c0 .01.01.01.01.02l.01.01c.01.01.01.02.02.03 0-.01.01-.02.02-.03l.01-.01c0-.01.01-.01.01-.02v-.02c0-.02 0-.04-.01-.06v-.03c-.01-.07-.01-.14-.02-.2.01-.01.02-.03.02-.04v-.01c0-.01.01-.01.02-.01s.01 0 .02-.01h.01-.16zm.91 0c.01.01.02.01.03.01.01 0 .01.01.02.01v.01l.02.04c-.01.06-.01.12-.02.19v.02c0 .03 0 .05-.01.08v.02c0 .01.01.01.01.02l.01.01c.01.01.01.02.02.03 0-.01.01-.02.02-.03l.01-.01c0-.01.01-.01.01-.02v-.02c0-.02 0-.04-.01-.06v-.03c-.01-.07-.01-.14-.02-.2.01-.01.01-.03.02-.04v-.01c0-.01.01-.01.02-.01s.01 0 .02-.01h.01-.16zm.91 0c.01.01.02.01.03.01.01 0 .01.01.02.01v.01l.02.04c-.01.06-.01.12-.02.19v.02c0 .03 0 .05-.01.08v.02c0 .01.01.01.01.02l.01.01c.01 0 .01.01.02.02 0-.01.01-.02.02-.03l.01-.01c0-.01.01-.01.01-.02v-.02c0-.02 0-.04-.01-.06v-.03c-.01-.06-.01-.13-.02-.19.01-.01.01-.03.02-.04v-.01c0-.01.01-.01.02-.01s.01 0 .02-.01h.01-.16zm-10 1.09c.01.01.02.01.03.01s.01.01.02.01v.01l.02.04c-.01.06-.01.13-.02.19v.02c0 .03 0 .05-.01.08v.02c0 .01.01.01.01.02l.01.01c.01.01.01.02.02.03 0-.01.01-.02.02-.03L.03 10c0-.01.01-.01.01-.02v-.02c0-.02 0-.04-.01-.06v-.03c-.01-.07-.01-.14-.02-.2.01-.01.01-.03.02-.04v-.01c0-.01.01-.01.02-.01s.01 0 .02-.01h.01-.16zm.91 0c.01.01.02.01.03.01s.01.01.02.01v.01l.02.04c-.01.06-.01.13-.02.19v.02c0 .03 0 .05-.01.08v.02c0 .01.01.01.01.02l.01.01c.01.01.01.02.02.03 0-.01.01-.02.02-.03L.94 10c0-.01.01-.01.01-.02v-.02c0-.02 0-.04-.01-.06v-.03c-.01-.07-.01-.14-.02-.2.01-.01.01-.03.02-.04v-.01c0-.01.01-.01.02-.01s.01 0 .02-.01h.01-.16zm.91 0c.01.01.02.01.03.01s.01.01.02.01v.01l.02.04c-.01.06-.01.13-.02.19v.02c0 .03 0 .05-.01.08v.02c0 .01.01.01.01.02l.01.01c.01.01.01.02.02.03 0-.01.01-.02.02-.03l.01-.01c0-.01.01-.01.01-.02v-.02c0-.02 0-.04-.01-.06v-.03c-.01-.07-.02-.14-.02-.2.01-.01.01-.03.02-.04v-.01c0-.01.01-.01.02-.01s.01 0 .02-.01h.01-.16zm.91 0c.01.01.02.01.03.01s.01.01.02.01v.01l.02.04c-.01.06-.01.13-.02.19v.02c0 .03 0 .05-.01.08v.02c0 .01.01.01.01.02l.01.01c.01.01.01.02.02.03 0-.01.01-.02.02-.03l.01-.01c0-.01.01-.01.01-.02v-.02c0-.02 0-.04-.01-.06v-.03c-.01-.07-.02-.14-.02-.2.01-.01.01-.03.02-.04v-.01c0-.01.01-.01.02-.01s.01 0 .02-.01h.01-.16zm.91 0c.01.01.02.01.03.01s.01.01.02.01v.01l.02.04c-.01.06-.02.13-.02.19v.02c0 .03 0 .05-.01.08v.02c0 .01.01.01.01.02l.01.01c.01.01.01.02.02.03 0-.01.01-.02.02-.03l.01-.01c0-.01.01-.01.01-.02v-.02c0-.02 0-.04-.01-.06v-.03c-.01-.07-.02-.14-.02-.2.01-.01.01-.03.02-.04v-.01c0-.01.01-.01.02-.01s.01 0 .02-.01h.01-.16zm.9 0c.01.01.02.01.03.01s.01.01.02.01v.01l.02.04c0 .06-.01.13-.01.19v.02c0 .03 0 .05-.01.08v.02c0 .01.01.01.01.02l.01.01c.01.01.01.02.02.03 0-.01.01-.02.02-.03l.01-.01c0-.01.01-.01.01-.02v-.02c0-.02 0-.04-.01-.06v-.03c-.01-.07-.02-.14-.02-.2.01-.01.01-.03.02-.04v-.01c0-.01.01-.01.02-.01s.01 0 .02-.01h.01-.17zm.91 0c.02.01.02.01.03.01s.01.01.02.01v.01l.02.04c0 .06-.01.13-.01.19v.02c0 .03 0 .05-.01.08v.02c0 .01.01.01.01.02l.01.01c.01.01.01.02.02.03 0-.01.01-.02.02-.03l.01-.01c0-.01.01-.01.01-.02v-.02c0-.02 0-.04-.01-.06v-.03c-.01-.07-.02-.14-.02-.2.01-.01.01-.03.02-.04v-.01c0-.01.01-.01.02-.01s.01 0 .02-.01h.01-.17zm.91 0c.02.01.02.01.03.01.01 0 .01.01.02.01v.01l.02.04c0 .06-.01.13-.01.19v.02c0 .03 0 .05-.01.08v.02c0 .01.01.01.01.02l.01.01c.01.01.01.02.02.03 0-.01.01-.02.02-.03L6.4 10c0-.01.01-.01.01-.02v-.02c0-.02 0-.04-.01-.06v-.03l-.03-.2c.01-.01.02-.02.03-.04v-.01c0-.01.01-.01.02-.01s.01 0 .02-.01h.01-.17zm.91 0c.01.01.02.01.03.01.01 0 .01.01.02.01v.01l.02.04c0 .06-.01.13-.02.19v.02c0 .03 0 .05-.01.08v.02c0 .01.01.01.01.02l.01.01c.01.01.01.02.02.03 0-.01.01-.02.02-.03L7.3 10c0-.01.01-.01.01-.02v-.02c0-.02 0-.04-.01-.06v-.03c-.01-.07-.01-.14-.02-.2.01-.01.02-.02.02-.04v-.01c0-.01.01-.01.02-.01s.01 0 .02-.01h.01-.16zm.91 0c.01.01.02.01.03.01.01 0 .01.01.02.01v.01l.02.04c0 .06-.01.13-.02.19v.02c0 .03 0 .05-.01.08v.02c0 .01.01.01.01.02l.01.01c.01.01.01.02.02.03 0-.01.01-.02.02-.03l.01-.01c0-.01.01-.01.01-.02v-.02c0-.02 0-.04-.01-.06v-.03c-.01-.07-.01-.14-.02-.2.01-.01.02-.02.02-.04v-.01c0-.01.01-.01.02-.01s.01 0 .02-.01h.01-.16zm.91 0c.01.01.02.01.03.01.01 0 .01.01.02.01v.01l.02.04c-.01.06-.01.13-.02.19v.02c0 .03 0 .05-.01.08v.02c0 .01.01.01.01.02l.01.01c.01.01.01.02.02.03 0-.01.01-.02.02-.03l.01-.01c0-.01.01-.01.01-.02v-.02c0-.02 0-.04-.01-.06v-.03c-.01-.07-.01-.14-.02-.2.01-.01.01-.03.02-.04v-.01c0-.01.01-.01.02-.01s.01 0 .02-.01h.01-.16zm.91 0c.01.01.02.01.03.01.01 0 .01.01.02.01v.01l.02.04c-.01.06-.01.13-.02.19v.02c0 .03 0 .05-.01.08v.02c0 .01.01.01.01.02l.01.01c.01.01.01.02.02.03 0-.01.01-.02.02-.03l.01-.01c0-.01.01-.01.01-.02v-.02c0-.02 0-.04-.01-.06v-.03c-.01-.06-.01-.13-.02-.19.01-.01.01-.03.02-.04v-.01c0-.01.01-.01.02-.01s.01 0 .02-.01h.01l-.16-.01zm-10 1.09c.01.01.02.01.03.01s.01.01.02.01v.01l.02.04c-.01.06-.01.13-.02.19v.02c0 .03 0 .05-.01.08v.02c0 .01.01.01.01.02l.01.01c.01.01.01.02.02.03 0-.01.01-.02.02-.03l.01-.01c0-.01.01-.01.01-.02v-.02c0-.02 0-.04-.01-.06v-.03c-.01-.06-.01-.13-.02-.19.01-.01.01-.03.02-.04v-.01c0-.01.01-.01.02-.01s.01 0 .02-.01h.01l-.16-.01zm.91 0c.01.01.02.01.03.01s.01.01.02.01v.01l.02.04c-.01.06-.01.13-.02.19v.02c0 .03 0 .05-.01.08v.02c0 .01.01.01.01.02l.01.01c.01.01.01.02.02.03 0-.01.01-.02.02-.03l.01-.01c0-.01.01-.01.01-.02v-.02c0-.02 0-.04-.01-.06v-.03c-.01-.06-.01-.13-.02-.19.01-.01.01-.03.02-.04v-.01c0-.01.01-.01.02-.01s.01 0 .02-.01h.01l-.16-.01zm.91 0c.01.01.02.01.03.01s.01.01.02.01v.01l.02.04c-.01.06-.01.13-.02.19v.02c0 .03 0 .05-.01.08v.02c0 .01.01.01.01.02l.01.01c.01.01.01.02.02.03 0-.01.01-.02.02-.03l.01-.01c0-.01.01-.01.01-.02v-.02c0-.02 0-.04-.01-.06v-.03c-.01-.06-.01-.13-.02-.19.01-.01.01-.03.02-.04v-.01c0-.01.01-.01.02-.01s.01 0 .02-.01h.01l-.16-.01zm.91 0c.01.01.02.01.03.01s.01.01.02.01v.01l.02.04c-.01.06-.01.13-.02.19v.02c0 .03 0 .05-.01.08v.02c0 .01.01.01.01.02l.01.01c.01.01.01.02.02.03 0-.01.01-.02.02-.03l.01-.01c0-.01.01-.01.01-.02v-.02c0-.02 0-.04-.01-.06v-.03c-.01-.06-.01-.13-.02-.19.01-.01.01-.03.02-.04v-.01c0-.01.01-.01.02-.01s.01 0 .02-.01h.01l-.16-.01zm.91 0c.01.01.02.01.03.01s.01.01.02.01v.01l.02.04c-.01.06-.01.13-.02.19v.02c0 .03 0 .05-.01.08v.02c0 .01.01.01.01.02l.01.01c.01.01.01.02.02.03 0-.01.01-.02.02-.03l.01-.01c0-.01.01-.01.01-.02v-.02c0-.02 0-.04-.01-.06v-.03c-.01-.06-.01-.13-.02-.19.01-.01.01-.03.02-.04v-.01c0-.01.01-.01.02-.01s.01 0 .02-.01h.01l-.16-.01zm.9 0c.01.01.02.01.03.01s.01.01.02.01v.01l.02.04c-.01.06-.01.13-.02.19v.02c0 .03 0 .05-.01.08v.02c0 .01.01.01.01.02l.01.01c.01.01.01.02.02.03 0-.01.01-.02.02-.03l.01-.01c0-.01.01-.01.01-.02v-.02c0-.02 0-.04-.01-.06v-.03c-.01-.06-.01-.13-.02-.19.01-.01.01-.03.02-.04v-.01c0-.01.01-.01.02-.01s.01 0 .02-.01h.01l-.16-.01zm.91 0c.02.01.02.01.03.01s.01.01.02.01v.01l.02.04c-.01.06-.01.13-.02.19v.02c0 .03 0 .05-.01.08v.02c0 .01.01.01.01.02l.01.01c.01.01.01.02.02.03 0-.01.01-.02.02-.03l.01-.01c0-.01.01-.01.01-.02v-.02c0-.02 0-.04-.01-.06v-.03c-.01-.06-.01-.13-.02-.19.01-.01.01-.03.02-.04v-.01c0-.01.01-.01.02-.01s.01 0 .02-.01h.01l-.16-.01zm.91 0c.02.01.02.01.03.01.01 0 .01.01.02.01v.01l.02.04c-.01.06-.01.13-.02.19v.02c0 .03 0 .05-.01.08v.02c0 .01.01.01.01.02l.01.01c.01.01.01.02.02.03 0-.01.01-.02.02-.03l.01-.01c0-.01.01-.01.01-.02v-.02c0-.02 0-.04-.01-.06v-.03c-.01-.06-.01-.13-.02-.19.01-.01.01-.03.02-.04v-.01c0-.01.01-.01.02-.01s.01 0 .02-.01h.01l-.16-.01zm.91 0c.01.01.02.01.03.01.01 0 .01.01.02.01v.01l.02.04c-.01.06-.01.13-.02.19v.02c0 .03 0 .05-.01.08v.02c0 .01.01.01.01.02l.01.01c.01.01.01.02.02.03 0-.01.01-.02.02-.03l.01-.01c0-.01.01-.01.01-.02v-.02c0-.02 0-.04-.01-.06v-.03c-.01-.06-.01-.13-.02-.19.01-.01.01-.03.02-.04v-.01c0-.01.01-.01.02-.01s.01 0 .02-.01h.01l-.16-.01zm.91 0c.01.01.02.01.03.01.01 0 .01.01.02.01v.01l.02.04c-.01.06-.01.13-.02.19v.02c0 .03 0 .05-.01.08v.02c0 .01.01.01.01.02l.01.01c.01.01.01.02.02.03 0-.01.01-.02.02-.03l.01-.01c0-.01.01-.01.01-.02v-.02c0-.02 0-.04-.01-.06v-.03c-.01-.06-.01-.13-.02-.19.01-.01.01-.03.02-.04v-.01c0-.01.01-.01.02-.01s.01 0 .02-.01h.01l-.16-.01zm.91 0c.01.01.02.01.03.01.01 0 .01.01.02.01v.01l.02.04c-.01.06-.01.13-.02.19v.02c0 .03 0 .05-.01.08v.02c0 .01.01.01.01.02l.01.01c.01.01.01.02.02.03 0-.01.01-.02.02-.03l.01-.01c0-.01.01-.01.01-.02v-.02c0-.02 0-.04-.01-.06v-.03c-.01-.06-.01-.13-.02-.19.01-.01.01-.03.02-.04v-.01c0-.01.01-.01.02-.01s.01 0 .02-.01h.01l-.16-.01zm.91 0c.01.01.02.01.03.01.01 0 .01.01.02.01v.01l.02.04c-.01.06-.01.13-.02.19v.02c0 .03 0 .05-.01.08v.02c0 .01.01.01.01.02l.01.01c.01.01.01.02.02.03 0-.01.01-.02.02-.03l.01-.01c0-.01.01-.01.01-.02v-.02c0-.02 0-.04-.01-.06v-.03c-.01-.06-.01-.13-.02-.19.01-.01.01-.03.02-.04v-.01c0-.01.01-.01.02-.01s.01 0 .02-.01h.01l-.16-.01zm-10 1.09c.01.01.02.01.03.01s.01.01.02.01v.01l.02.04c-.01.06-.01.13-.02.19v.02c0 .03 0 .05-.01.08v.02c0 .01.01.01.01.02l.01.01c.01.01.01.02.02.03 0-.01.01-.02.02-.03l.01-.01c0-.01.01-.01.01-.02v-.02c0-.02 0-.04-.01-.06v-.03c-.01-.06-.01-.13-.02-.19.01-.01.01-.03.02-.04v-.01c0-.01.01-.01.02-.01s.01 0 .02-.01h.01l-.16-.01zm.91 0c.01.01.02.01.03.01s.01.01.02.01v.01l.02.04c-.01.06-.01.13-.02.19v.02c0 .03 0 .05-.01.08v.02c0 .01.01.01.01.02l.01.01c.01.01.01.02.02.03 0-.01.01-.02.02-.03l.01-.01c0-.01.01-.01.01-.02v-.02c0-.02 0-.04-.01-.06v-.03c-.01-.06-.01-.13-.02-.19.01-.01.01-.03.02-.04v-.01c0-.01.01-.01.02-.01s.01 0 .02-.01h.01l-.16-.01zm.91 0c.01.01.02.01.03.01s.01.01.02.01v.01l.02.04c-.01.06-.01.13-.02.19v.02c0 .03 0 .05-.01.08v.02c0 .01.01.01.01.02l.01.01c.01.01.01.02.02.03 0-.01.01-.02.02-.03l.01-.01c0-.01.01-.01.01-.02v-.02c0-.02 0-.04-.01-.06v-.03c-.01-.06-.01-.13-.02-.19.01-.01.01-.03.02-.04v-.01c0-.01.01-.01.02-.01s.01 0 .02-.01h.01l-.16-.01zm.91 0c.01.01.02.01.03.01s.01.01.02.01v.01l.02.04c-.01.06-.01.13-.02.19v.02c0 .03 0 .05-.01.08v.02c0 .01.01.01.01.02l.01.01c.01.01.01.02.02.03 0-.01.01-.02.02-.03l.01-.01c0-.01.01-.01.01-.02v-.02c0-.02 0-.04-.01-.06v-.03c-.01-.06-.01-.13-.02-.19.01-.01.01-.03.02-.04v-.01c0-.01.01-.01.02-.01s.01 0 .02-.01h.01l-.16-.01zm.91 0c.01.01.02.01.03.01s.01.01.02.01v.01l.02.04c-.01.06-.01.13-.02.19v.02c0 .03 0 .05-.01.08v.02c0 .01.01.01.01.02l.01.01c.01.01.01.02.02.03 0-.01.01-.02.02-.03l.01-.01c0-.01.01-.01.01-.02v-.02c0-.02 0-.04-.01-.06v-.03c-.01-.06-.01-.13-.02-.19.01-.01.01-.03.02-.04v-.01c0-.01.01-.01.02-.01s.01 0 .02-.01h.01l-.16-.01zm.9 0c.01.01.02.01.03.01s.01.01.02.01v.01l.02.04c-.01.06-.01.13-.02.19v.02c0 .03 0 .05-.01.08v.02c0 .01.01.01.01.02l.01.01c.01.01.01.02.02.03 0-.01.01-.02.02-.03l.01-.01c0-.01.01-.01.01-.02v-.02c0-.02 0-.04-.01-.06v-.03c-.01-.06-.01-.13-.02-.19.01-.01.01-.03.02-.04v-.01c0-.01.01-.01.02-.01s.01 0 .02-.01h.01l-.16-.01zm.91 0c.01.01.02.01.03.01s.01.01.02.01v.01l.02.04c-.01.06-.01.13-.02.19v.02c0 .03 0 .05-.01.08v.02c0 .01.01.01.01.02l.01.01c.01.01.01.02.02.03 0-.01.01-.02.02-.03l.01-.01c0-.01.01-.01.01-.02v-.02c0-.02 0-.04-.01-.06v-.03c-.01-.06-.01-.13-.02-.19.01-.01.01-.03.02-.04v-.01c0-.01.01-.01.02-.01s.01 0 .02-.01h.01l-.16-.01zm.91 0c.01.01.02.01.03.01s.01.01.02.01v.01l.02.04c-.01.06-.01.13-.02.19v.02c0 .03 0 .05-.01.08v.02c0 .01.01.01.01.02l.01.01c.01.01.01.02.02.03 0-.01.01-.02.02-.03l.01-.01c0-.01.01-.01.01-.02v-.02c0-.02 0-.04-.01-.06v-.03c-.01-.06-.01-.13-.02-.19.01-.01.01-.03.02-.04v-.01c0-.01.01-.01.02-.01s.01 0 .02-.01h.01l-.16-.01zm.91 0c.01.01.02.01.03.01s.01.01.02.01v.01l.02.04c-.01.06-.01.13-.02.19v.02c0 .03 0 .05-.01.08v.02c0 .01.01.01.01.02l.01.01c.01.01.01.02.02.03 0-.01.01-.02.02-.03l.01-.01c0-.01.01-.01.01-.02v-.02c0-.02 0-.04-.01-.06v-.03c-.01-.06-.01-.13-.02-.19.01-.01.01-.03.02-.04v-.01c0-.01.01-.01.02-.01s.01 0 .02-.01h.01l-.16-.01zm.91 0c.01.01.02.01.03.01.01 0 .01.01.02.01v.01l.02.04c-.01.06-.01.13-.02.19v.02c0 .03 0 .05-.01.08v.02c0 .01.01.01.01.02l.01.01c.01.01.01.02.02.03 0-.01.01-.02.02-.03l.01-.01c0-.01.01-.01.01-.02v-.02c0-.02 0-.04-.01-.06v-.03c-.01-.06-.01-.13-.02-.19.01-.01.01-.03.02-.04v-.01c0-.01.01-.01.02-.01s.01 0 .02-.01h.01l-.16-.01zm.91 0c.01.01.02.01.03.01.01 0 .01.01.02.01v.01l.02.04c-.01.06-.01.13-.02.19v.02c0 .03 0 .05-.01.08v.02c0 .01.01.01.01.02l.01.01c.01.01.01.02.02.03 0-.01.01-.02.02-.03l.01-.01c0-.01.01-.01.01-.02v-.02c0-.02 0-.04-.01-.06v-.03c-.01-.06-.01-.13-.02-.19.01-.01.01-.03.02-.04v-.01c0-.01.01-.01.02-.01s.01 0 .02-.01h.01l-.16-.01zm.91 0c.01.01.02.01.03.01.01 0 .01.01.02.01v.01l.02.04c-.01.06-.01.13-.02.19v.02c0 .03 0 .05-.01.08v.02c0 .01.01.01.01.02l.01.01c.01.01.01.02.02.03 0-.01.01-.02.02-.03l.01-.01c0-.01.01-.01.01-.02v-.02c0-.02 0-.04-.01-.06v-.03c-.01-.06-.01-.13-.02-.19.01-.01.01-.03.02-.04v-.01c0-.01.01-.01.02-.01s.01 0 .02-.01h.01l-.16-.01z" fill="#ddd"/></svg>